<svg width="61" height="48" viewBox="0 0 61 48" fill="none" xmlns="http://www.w3.org/2000/svg">
<path d="M12.8878 31.4181C6.23266 29.153 6.5184 22.4911 7.49316 19.4434L23.1453 24.4493C22.4991 27.7161 19.5429 33.6833 12.8878 31.4181Z" fill="#FFAF4E"/>
<path d="M12.8878 31.4181C6.23266 29.153 6.5184 22.4911 7.49316 19.4434L23.1453 24.4493C22.4991 27.7161 19.5429 33.6833 12.8878 31.4181Z" fill="white" fill-opacity="0.6"/>
<path d="M7.49316 19.4434L7.79779 18.4909L6.84532 18.1863L6.54069 19.1387L7.49316 19.4434ZM12.8878 31.4181L13.21 30.4715L12.8878 31.4181ZM23.1453 24.4493L24.1263 24.6434L24.2994 23.7685L23.4499 23.4969L23.1453 24.4493ZM6.54069 19.1387C6.00951 20.7996 5.66325 23.4293 6.36485 25.9886C7.08256 28.6067 8.89451 31.1153 12.5656 32.3648L13.21 30.4715C10.2259 29.4558 8.8532 27.5009 8.29369 25.4599C7.71806 23.36 8.00206 21.1349 8.44564 19.748L6.54069 19.1387ZM12.5656 32.3648C14.3826 32.9832 16.0083 33.0585 17.4394 32.7169C18.8678 32.376 20.0371 31.6355 20.9695 30.7228C22.8096 28.9213 23.7781 26.4036 24.1263 24.6434L22.1643 24.2553C21.8663 25.7618 21.0336 27.8611 19.5703 29.2936C18.851 29.9979 17.993 30.5286 16.9751 30.7716C15.96 31.0139 14.7205 30.9856 13.21 30.4715L12.5656 32.3648ZM23.4499 23.4969L7.79779 18.4909L7.18854 20.3958L22.8407 25.4018L23.4499 23.4969Z" fill="#FFAF4E"/>
<path d="M7.49316 19.4434L7.79779 18.4909L6.84532 18.1863L6.54069 19.1387L7.49316 19.4434ZM12.8878 31.4181L13.21 30.4715L12.8878 31.4181ZM23.1453 24.4493L24.1263 24.6434L24.2994 23.7685L23.4499 23.4969L23.1453 24.4493ZM6.54069 19.1387C6.00951 20.7996 5.66325 23.4293 6.36485 25.9886C7.08256 28.6067 8.89451 31.1153 12.5656 32.3648L13.21 30.4715C10.2259 29.4558 8.8532 27.5009 8.29369 25.4599C7.71806 23.36 8.00206 21.1349 8.44564 19.748L6.54069 19.1387ZM12.5656 32.3648C14.3826 32.9832 16.0083 33.0585 17.4394 32.7169C18.8678 32.376 20.0371 31.6355 20.9695 30.7228C22.8096 28.9213 23.7781 26.4036 24.1263 24.6434L22.1643 24.2553C21.8663 25.7618 21.0336 27.8611 19.5703 29.2936C18.851 29.9979 17.993 30.5286 16.9751 30.7716C15.96 31.0139 14.7205 30.9856 13.21 30.4715L12.5656 32.3648ZM23.4499 23.4969L7.79779 18.4909L7.18854 20.3958L22.8407 25.4018L23.4499 23.4969Z" fill="white" fill-opacity="0.2"/>
<path d="M9.42871 13.4023L7.0289 21.1756C5.70353 25.4686 8.10929 30.0232 12.4023 31.3486V31.3486C16.6954 32.674 21.25 30.2682 22.5754 25.9752L24.9752 18.202" stroke="#FFAF4E" stroke-width="2"/>
<path d="M9.42871 13.4023L7.0289 21.1756C5.70353 25.4686 8.10929 30.0232 12.4023 31.3486V31.3486C16.6954 32.674 21.25 30.2682 22.5754 25.9752L24.9752 18.202" stroke="white" stroke-opacity="0.2" stroke-width="2"/>
<path d="M12.8203 31.6484L9.2206 43.3083" stroke="#FFAF4E" stroke-width="2"/>
<path d="M12.8203 31.6484L9.2206 43.3083" stroke="white" stroke-opacity="0.2" stroke-width="2"/>
<path d="M6.9502 42.9434L11.6141 44.3832" stroke="#FFAF4E" stroke-width="2"/>
<path d="M6.9502 42.9434L11.6141 44.3832" stroke="white" stroke-opacity="0.2" stroke-width="2"/>
<rect x="9.07903" y="13.0623" width="17.1147" height="0.406762" transform="rotate(17.7357 9.07903 13.0623)" fill="#3A3939"/>
<rect x="9.07903" y="13.0623" width="17.1147" height="0.406762" transform="rotate(17.7357 9.07903 13.0623)" stroke="#FFAF4E" stroke-width="0.406762"/>
<rect x="9.07903" y="13.0623" width="17.1147" height="0.406762" transform="rotate(17.7357 9.07903 13.0623)" stroke="white" stroke-opacity="0.2" stroke-width="0.406762"/>
<path d="M46.4351 30.6887C39.4617 34.0534 34.5383 28.6042 32.9482 25.459L49.1007 17.2933C51.1178 20.3564 53.4086 27.3239 46.4351 30.6887Z" fill="#FFAF4E"/>
<path d="M46.4351 30.6887C39.4617 34.0534 34.5383 28.6042 32.9482 25.459L49.1007 17.2933C51.1178 20.3564 53.4086 27.3239 46.4351 30.6887Z" fill="white" fill-opacity="0.6"/>
<path d="M32.9482 25.459L32.4971 24.5665L31.6046 25.0177L32.0558 25.9101L32.9482 25.459ZM46.4351 30.6887L46.0006 29.788L46.4351 30.6887ZM49.1007 17.2933L49.9359 16.7433L49.4454 15.9985L48.6495 16.4008L49.1007 17.2933ZM32.0558 25.9101C32.9157 27.6111 34.6638 29.9257 37.1712 31.3801C39.7313 32.865 43.0562 33.4294 46.8697 31.5893L46.0006 29.788C42.8407 31.3127 40.2171 30.8348 38.1747 29.65C36.0794 28.4347 34.5708 26.4521 33.8407 25.0078L32.0558 25.9101ZM46.8697 31.5893C48.7589 30.6778 50.0773 29.4927 50.9251 28.1371C51.7713 26.784 52.113 25.3179 52.1392 23.8963C52.1909 21.0872 51.0156 18.3829 49.9359 16.7433L48.2655 17.8432C49.2029 19.2668 50.1815 21.5778 50.1395 23.8595C50.1189 24.9832 49.8518 26.0813 49.2294 27.0767C48.6084 28.0696 47.5981 29.0172 46.0006 29.788L46.8697 31.5893ZM48.6495 16.4008L32.4971 24.5665L33.3994 26.3514L49.5519 18.1857L48.6495 16.4008Z" fill="#FFAF4E"/>
<path d="M32.9482 25.459L32.4971 24.5665L31.6046 25.0177L32.0558 25.9101L32.9482 25.459ZM46.4351 30.6887L46.0006 29.788L46.4351 30.6887ZM49.1007 17.2933L49.9359 16.7433L49.4454 15.9985L48.6495 16.4008L49.1007 17.2933ZM32.0558 25.9101C32.9157 27.6111 34.6638 29.9257 37.1712 31.3801C39.7313 32.865 43.0562 33.4294 46.8697 31.5893L46.0006 29.788C42.8407 31.3127 40.2171 30.8348 38.1747 29.65C36.0794 28.4347 34.5708 26.4521 33.8407 25.0078L32.0558 25.9101ZM46.8697 31.5893C48.7589 30.6778 50.0773 29.4927 50.9251 28.1371C51.7713 26.784 52.113 25.3179 52.1392 23.8963C52.1909 21.0872 51.0156 18.3829 49.9359 16.7433L48.2655 17.8432C49.2029 19.2668 50.1815 21.5778 50.1395 23.8595C50.1189 24.9832 49.8518 26.0813 49.2294 27.0767C48.6084 28.0696 47.5981 29.0172 46.0006 29.788L46.8697 31.5893ZM48.6495 16.4008L32.4971 24.5665L33.3994 26.3514L49.5519 18.1857L48.6495 16.4008Z" fill="white" fill-opacity="0.2"/>
<path d="M29.7988 19.2227L33.9218 27.1777C36.1989 31.5711 41.6064 33.2868 45.9999 31.0097V31.0097C50.3933 28.7326 52.109 23.3251 49.8319 18.9317L45.7089 10.9766" stroke="#FFAF4E" stroke-width="2"/>
<path d="M29.7988 19.2227L33.9218 27.1777C36.1989 31.5711 41.6064 33.2868 45.9999 31.0097V31.0097C50.3933 28.7326 52.109 23.3251 49.8319 18.9317L45.7089 10.9766" stroke="white" stroke-opacity="0.2" stroke-width="2"/>
<path d="M46.5596 30.9219L52.7441 42.8544" stroke="#FFAF4E" stroke-width="2"/>
<path d="M46.5596 30.9219L52.7441 42.8544" stroke="white" stroke-opacity="0.2" stroke-width="2"/>
<path d="M50.6797 44.3223L55.4527 41.8485" stroke="#FFAF4E" stroke-width="2"/>
<path d="M50.6797 44.3223L55.4527 41.8485" stroke="white" stroke-opacity="0.2" stroke-width="2"/>
<rect x="29.2619" y="19.2258" width="18.8498" height="0.448" transform="rotate(-26.8185 29.2619 19.2258)" fill="#3A3939"/>
<rect x="29.2619" y="19.2258" width="18.8498" height="0.448" transform="rotate(-26.8185 29.2619 19.2258)" stroke="#FFAF4E" stroke-width="0.448"/>
<rect x="29.2619" y="19.2258" width="18.8498" height="0.448" transform="rotate(-26.8185 29.2619 19.2258)" stroke="white" stroke-opacity="0.2" stroke-width="0.448"/>
<line x1="28.4287" x2="28.4287" y2="13.4743" stroke="#FFAF4E"/>
<line x1="28.4287" x2="28.4287" y2="13.4743" stroke="white" stroke-opacity="0.2"/>
<line x1="33.3366" y1="13.2815" x2="37.2485" y2="3.93645" stroke="#FFAF4E"/>
<line x1="33.3366" y1="13.2815" x2="37.2485" y2="3.93645" stroke="white" stroke-opacity="0.2"/>
<line x1="23.9174" y1="13.8958" x2="18.178" y2="7.87471" stroke="#FFAF4E"/>
<line x1="23.9174" y1="13.8958" x2="18.178" y2="7.87471" stroke="white" stroke-opacity="0.2"/>
</svg>
