<svg width="558" height="400" viewBox="0 0 958 826" fill="none" xmlns="http://www.w3.org/2000/svg">
<g clip-path="url(#clip0_62_124)">
<path opacity="0.1" d="M81.9799 544.27C126.48 586.77 138.06 657.43 137.98 715.53C137.98 734.98 137.47 755.64 146.62 775.02C157.81 798.72 180.51 813.72 201.3 820.27C239.19 832.2 276.41 821.92 298.2 793.52C317.03 768.97 324.35 732.8 343.92 709.11C376.67 669.47 436.2 672.88 490.92 687.76C529.65 698.29 573.09 713.09 600.83 691.12C620.4 675.68 627.15 644.58 625.98 613.02C625.41 597.77 623.27 581.5 627.57 568.65C630.13 561.01 634.82 555.12 639.91 549.97C686.45 502.97 767.57 511.09 811.06 460.27C840.43 425.95 847.63 368.95 840.29 311.9C832.95 254.85 812.47 197.1 790.83 140.58C775.45 100.44 757.6 57.8099 727.11 29.8199C694.86 0.20994 654.22 -6.18006 623.25 5.39994C592.28 16.9799 569.72 44.1899 552.09 74.7799C530.09 113.02 513.09 158.95 477.09 178.78C452.55 192.29 421.93 191.98 392.95 194.78C344.5 199.54 299.11 213.57 254.2 228.17C211.2 242.17 168.11 256.85 131.29 282.65C105.23 300.91 88.8199 329.09 65.6499 350.65C50.5499 364.71 31.0999 371.05 17.9899 387.97C1.84992 408.81 -8.24007 442.17 9.04993 476.54C25.4599 509.3 58.3999 521.72 81.9799 544.27Z" fill="#F50057" fill-opacity="0.41"/>
<g opacity="0.5">
<path opacity="0.5" d="M507.43 107.75C503.31 110.99 499.02 116.75 500.08 127.38C502.17 148.15 520.16 155.54 523.84 176.49C524.79 182.072 524.561 187.791 523.17 193.28C520.88 202.38 516.64 208 513.23 215.11C508.902 224.189 507.291 234.326 508.59 244.3C510.042 255.3 514.094 265.797 520.41 274.92C525.78 282.51 531.58 287.26 537.24 292.87C544.377 300.06 550.856 307.875 556.6 316.22C559.504 320.229 561.977 324.533 563.98 329.06C566.44 334.79 568.13 341.44 569.77 347.95L584.39 405.85C586.34 413.56 588.32 421.39 591.12 428.34C594.35 436.34 598.46 442.7 602.49 448.89C611.18 462.23 620.31 476.03 629.74 481.07C639.17 486.11 648.82 479.07 649.01 460.78C649.19 443.38 641.21 423.55 640.24 405.44C638.71 376.91 654.66 366.44 654.51 338.69C654.36 312.07 640.03 285.21 634.01 257.25C629.7 237.25 629.85 217.25 626.5 197.1C621.68 168.04 609.76 140.72 596.5 122.31C583.24 103.9 568.79 93.46 554.81 86.78C548.89 83.95 542.87 81.73 537.59 83.44C531.97 85.26 530.03 94.07 525.49 98.34C520.29 103.3 512.98 103.36 507.43 107.75Z" fill="#F50057" fill-opacity="0.41"/>
<path opacity="0.5" d="M533.3 86.7999C533.3 86.7999 621.04 326.74 639.39 481.93" stroke="#535461" stroke-width="2" stroke-miterlimit="10"/>
<path opacity="0.5" d="M500.31 128.64C500.31 128.64 557.31 149.37 578.95 224.52" stroke="#535461" stroke-width="2" stroke-miterlimit="10"/>
<path opacity="0.5" d="M509.62 250.34C509.62 250.34 583.33 236.08 594.98 278.88" stroke="#535461" stroke-width="2" stroke-miterlimit="10"/>
<path opacity="0.5" d="M596.46 121.76C596.46 121.76 578.8 157.19 582.31 235.58" stroke="#535461" stroke-width="2" stroke-miterlimit="10"/>
<path opacity="0.5" d="M654.29 339.26C654.29 339.26 641.57 361.77 605.29 316.34" stroke="#535461" stroke-width="2" stroke-miterlimit="10"/>
<path opacity="0.5" d="M585.53 402.67C585.53 402.67 621.81 381.92 615.53 356.46" stroke="#535461" stroke-width="2" stroke-miterlimit="10"/>
</g>
<path d="M683.15 18.87C672.89 20.39 660.55 25.14 655.48 39.81C645.53 68.57 675.79 90.34 668.82 120.39C666.73 129.39 661.58 136.71 656.15 142.05C645.51 152.51 633.4 157.05 621.9 164.15C610.4 171.25 598.46 182.39 593.07 199.5C587.88 215.96 590.13 234.15 595.52 247.74C600.91 261.33 609.07 271.46 616.36 282.64C625.237 296.403 632.66 311.052 638.51 326.35C641.12 333.08 643.51 340.18 644.36 348.24C645.3 357.43 644.11 367.32 642.93 377L632.41 463C631.01 474.45 629.6 486.1 630.41 497.13C631.32 509.86 635.08 520.96 638.79 531.8C646.79 555.18 655.35 579.47 670.42 592.42C685.49 605.37 709.17 602.54 721.91 578.58C734.04 555.77 731.81 524.32 742.15 499.82C758.45 461.21 796.8 458.09 815.25 421.44C832.96 386.28 823.05 341.3 830.16 300.44C835.26 271.16 849.05 244.99 856.16 216.18C866.36 174.67 861.49 130.72 847.99 97.61C834.49 64.5 813.21 41.07 790.33 22.92C780.63 15.23 770.33 8.27995 758.85 6.99995C746.61 5.63995 736.85 15.94 725.06 18.53C711.36 21.58 697.06 16.82 683.15 18.87Z" fill="#F50057" fill-opacity="0.41"/>
<path d="M747.98 8.57996C747.98 8.57996 757.63 383.34 688.62 600.05" stroke="#535461" stroke-width="2" stroke-miterlimit="10"/>
<path d="M655.08 41.58C655.08 41.58 752.7 107.04 744.34 220.58" stroke="#535461" stroke-width="2" stroke-miterlimit="10"/>
<path d="M590.98 208.17C590.98 208.17 745.06 238.69 738.98 302.86" stroke="#535461" stroke-width="2" stroke-miterlimit="10"/>
<path d="M848.13 96.88C848.13 96.88 789.57 131.74 743.44 237.33" stroke="#535461" stroke-width="2" stroke-miterlimit="10"/>
<path d="M814.35 422.07C814.35 422.07 774.19 443.21 733.82 359.07" stroke="#535461" stroke-width="2" stroke-miterlimit="10"/>
<path d="M636.73 459.58C636.73 459.58 721.86 456.52 726.73 418.76" stroke="#535461" stroke-width="2" stroke-miterlimit="10"/>
<path opacity="0.1" d="M530.3 610.74C766.495 610.74 957.97 592.348 957.97 569.66C957.97 546.972 766.495 528.58 530.3 528.58C294.104 528.58 102.63 546.972 102.63 569.66C102.63 592.348 294.104 610.74 530.3 610.74Z" fill="#F50057" fill-opacity="0.41"/>
<path opacity="0.1" d="M253.3 781.46C380.85 781.46 484.25 756.836 484.25 726.46C484.25 696.084 380.85 671.46 253.3 671.46C125.75 671.46 22.3501 696.084 22.3501 726.46C22.3501 756.836 125.75 781.46 253.3 781.46Z" fill="#F50057" fill-opacity="0.41"/>
<path d="M451.36 526.97C453.69 524.8 455.88 522.24 456.56 519.13C457.24 516.02 455.91 512.28 452.93 511.13C449.6 509.85 446.03 512.13 443.33 514.5C440.63 516.87 437.53 519.5 434 519C435.818 517.351 437.178 515.259 437.947 512.928C438.717 510.598 438.869 508.107 438.39 505.7C438.235 504.706 437.813 503.773 437.17 503C435.32 501 431.96 501.87 429.75 503.43C422.75 508.43 420.75 517.96 420.7 526.58C419.99 523.47 420.59 520.23 420.57 517.04C420.55 513.85 419.68 510.32 416.99 508.6C415.315 507.699 413.431 507.258 411.53 507.32C408.36 507.2 404.83 507.52 402.67 509.84C399.98 512.72 400.67 517.55 403.02 520.72C405.37 523.89 408.92 525.88 412.19 528.07C414.815 529.635 417.054 531.771 418.74 534.32C418.94 534.676 419.104 535.051 419.23 535.44H439.08C443.537 533.184 447.668 530.334 451.36 526.97Z" fill="#F50057" fill-opacity="0.41"/>
<path d="M119.45 644.2C121.283 642.706 122.618 640.69 123.28 638.42C123.78 636.12 122.8 633.37 120.6 632.53C118.14 631.59 115.51 633.29 113.52 635.02C111.53 636.75 109.24 638.71 106.63 638.34C107.971 637.124 108.975 635.581 109.543 633.862C110.11 632.143 110.223 630.306 109.87 628.53C109.757 627.794 109.446 627.103 108.97 626.53C107.6 625.07 105.13 625.7 103.49 626.85C98.2898 630.51 96.8399 637.57 96.8099 643.93C96.2899 641.64 96.7298 639.25 96.7098 636.93C96.6898 634.61 96.0498 631.93 94.0698 630.71C92.842 630.05 91.4632 629.723 90.0698 629.76C87.7298 629.67 85.1299 629.91 83.5299 631.62C81.5299 633.74 82.0598 637.31 83.7898 639.62C85.5198 641.93 88.1399 643.42 90.5599 645.04C92.4994 646.193 94.1538 647.769 95.3998 649.65C95.5464 649.911 95.667 650.186 95.7598 650.47H110.41C113.692 648.797 116.733 646.688 119.45 644.2Z" fill="#F50057" fill-opacity="0.41"/>
<path d="M526.45 774.2C528.283 772.706 529.618 770.69 530.28 768.42C530.78 766.12 529.8 763.37 527.6 762.53C525.14 761.59 522.51 763.29 520.52 765.02C518.53 766.75 516.24 768.71 513.63 768.34C514.971 767.124 515.975 765.581 516.543 763.862C517.11 762.143 517.223 760.306 516.87 758.53C516.757 757.794 516.446 757.103 515.97 756.53C514.6 755.07 512.13 755.7 510.49 756.85C505.29 760.51 503.84 767.57 503.81 773.93C503.29 771.64 503.73 769.25 503.71 766.93C503.69 764.61 503.05 761.93 501.07 760.71C499.842 760.05 498.463 759.723 497.07 759.76C494.73 759.67 492.13 759.91 490.53 761.62C488.53 763.74 489.06 767.31 490.79 769.62C492.52 771.93 495.14 773.42 497.56 775.04C499.499 776.193 501.154 777.769 502.4 779.65C502.546 779.911 502.667 780.186 502.76 780.47H517.41C520.692 778.797 523.733 776.688 526.45 774.2Z" fill="#F50057" fill-opacity="0.41"/>
<path d="M781.16 562.93C781.16 562.93 776.84 565.27 774.88 551.99C773.61 543.41 770.05 525.53 767.69 513.99L767.39 512.52C768.069 512.309 768.737 512.062 769.39 511.78C769.39 511.78 755.66 458.58 758.8 446.87C761.94 435.16 758.8 414.05 758.8 414.05L750.56 386.31C750.56 386.31 730.16 379.31 722.32 377.31C714.48 375.31 692.51 361.68 692.51 361.68C692.89 362.121 693.247 362.582 693.58 363.06L692.7 362.52C691.1 361.032 689.653 359.387 688.38 357.61C692.763 352.95 695.602 347.052 696.51 340.72C699.442 335.162 700.826 328.917 700.518 322.641C700.211 316.364 698.222 310.285 694.76 305.04C696.094 303.369 697.111 301.468 697.76 299.43C698.023 298.501 698.138 297.535 698.1 296.57C698.242 295.02 697.906 293.464 697.137 292.111C696.369 290.757 695.204 289.672 693.8 289C692.864 288.61 691.858 288.414 690.844 288.425C689.83 288.435 688.828 288.651 687.9 289.06C686.16 289.85 684.79 291.33 682.9 291.72C679.72 292.38 677 289.83 674.52 287.94C670.646 285.048 666.022 283.33 661.2 282.99C659.091 282.752 656.955 283.033 654.98 283.81C652.98 284.71 651.53 286.32 649.87 287.66C644.21 292.22 636.28 293.49 629.19 295.97C627.84 296.44 626.32 297.16 626.08 298.44C626.029 298.684 626.029 298.936 626.08 299.18C626.021 299.494 626.045 299.818 626.15 300.12C612.91 302.34 599.96 312.39 599.96 312.39L597.79 314.39C597.079 314.007 596.271 313.84 595.467 313.91C594.662 313.979 593.895 314.281 593.26 314.78L588.88 318.21C588.087 318.827 587.547 319.713 587.363 320.7C587.179 321.688 587.363 322.709 587.88 323.57L555.88 353.25L555.18 353.9V353.79C555.18 353.79 530.47 372.55 530.47 385.79C530.47 395.38 537.83 401.31 541.92 403.86C538.292 407.26 535.546 411.492 533.92 416.19V416.31L533.86 416.48V416.61V416.75V416.88V417.01V417.13V417.25V417.36V417.47V417.57V417.68V417.77V417.9V418.03V418.1V418.18V418.24V418.3V418.72V418.87L533.81 419.17V419.38V419.58L533.72 420.13V420.35L533.66 420.72V420.87L533.6 421.23V421.49L533.51 421.99L533.4 422.61V422.74L533.31 423.26V423.51L533.21 424.08V424.22L533.1 424.86V425.15L532.82 426.76V426.81L532.67 427.69V427.84L532.51 428.74V428.86L532.35 429.78V429.85L532.18 430.85V431.06L532.01 432.01V432.22L531.84 433.16V433.27L531.65 434.33V434.52L531.23 436.89L531.02 438.06V438.24L530.81 439.43V439.52L530.36 442.02V442.23L530.14 443.44V443.61L529.66 446.22V446.33L529.42 447.66V447.77L528.92 450.46V450.64L528.67 451.97V452.07L528.15 454.82V454.97L527.89 456.32V456.42L527.35 459.21V459.32L527.09 460.68V460.79L526.55 463.54V463.66L526.28 465.01V465.09L525.73 467.83V467.91L525.46 469.24V469.32L524.92 471.94V472.05L524.66 473.3V473.42L524.13 475.91V476L523.87 477.18V477.3C523.697 478.093 523.523 478.873 523.35 479.64V479.71L523.1 480.82V480.93C522.933 481.67 522.767 482.387 522.6 483.08V483.14L522.36 484.14V484.23C522.193 484.897 522.033 485.543 521.88 486.17L521.65 487.05V487.15L521.42 488C520.42 491.67 519.57 494.12 518.93 494.76C518.303 495.415 517.81 496.186 517.48 497.03L517.39 497.27L517.29 497.54L517.2 497.81L517.12 498.07L517.04 498.35L516.97 498.61L516.9 498.9L516.84 499.17L516.77 499.47L516.72 499.74C516.68 499.933 516.647 500.13 516.62 500.33V500.58V500.91V501.17V501.5V501.76V502.09V502.35C516.62 502.46 516.62 502.57 516.62 502.68V502.93C516.62 503.34 516.62 503.74 516.62 504.13C516.62 504.21 516.62 504.28 516.62 504.36C516.62 504.44 516.62 504.57 516.62 504.68C516.62 504.79 516.62 504.84 516.62 504.92C516.62 505 516.62 505.13 516.62 505.23C516.62 505.33 516.62 505.38 516.62 505.46C516.62 505.54 516.62 505.66 516.62 505.76C516.62 505.86 516.62 505.91 516.62 505.98C516.62 506.05 516.62 506.18 516.62 506.27V506.47C516.62 506.65 516.62 506.827 516.62 507V507.64V507.87V508.06V508.27V508.58V508.76V508.93V509.08V509.35V510.13L520.3 511.25C520.3 511.25 522.17 512.25 525.04 513.61C524.63 526.07 523.48 542.94 520.36 553.27C513.36 553.62 496.19 554.35 493.08 553.11C489.16 551.55 464.08 547.64 471.9 565.61C475.19 573.14 482.34 578.82 489.53 582.88C488.639 583.171 487.731 583.405 486.81 583.58C480.42 584.79 478.63 586.95 478.89 589.15C478.44 592.85 484.73 597 485.24 597.25C486.02 597.64 512.7 601.94 518.98 599.99C525.26 598.04 550.75 593.35 550.75 593.35C550.75 593.35 550.75 593.07 550.75 592.58C550.75 592.58 550.4 584.9 549.44 577.58C552.33 577.16 555.44 576.77 558.54 576.58C558.935 578.427 559.745 580.159 560.909 581.646C562.074 583.132 563.562 584.334 565.26 585.16C582.13 593.76 587.62 582.03 587.62 582.03C587.62 582.03 610.43 586.42 623.18 583.23C624.51 584.41 625.64 585.34 626.46 585.93C630.6 588.93 641.74 590.93 654.2 591.1C657.532 591.433 660.892 591.339 664.2 590.82C669.745 590.47 675.248 589.62 680.64 588.28C695.64 584.39 698.94 570.44 699.64 564.1C700.23 563.93 700.64 563.31 700.89 562.15C701.185 561.521 701.362 560.843 701.41 560.15C701.739 557.281 702.277 554.441 703.02 551.65L721.49 552.65C729.79 567.65 737.1 579.65 737.1 579.65L749.65 578.09C743.425 573.804 737.908 568.571 733.3 562.58C726.98 553.16 726.98 508.22 726.98 508.22L727.68 480.78C727.68 480.87 727.68 480.96 727.68 481.06V479.74C728.85 487.86 738.04 511.39 739.08 511.74C739.83 511.99 740.57 512.21 741.31 512.42L741.97 514.17C747.21 528.05 760.5 563.55 761.44 569.17C762.62 576.17 811.65 578.94 822.64 575.42C833.63 571.9 781.16 562.93 781.16 562.93ZM606.16 407.41L588.16 434.41C581.71 423.32 574.99 413.07 568.92 406.3C584.98 406.79 603.3 407.38 606.2 407.41H606.16ZM603.43 338.29C604.127 338.62 604.902 338.75 605.668 338.665C606.434 338.58 607.162 338.284 607.77 337.81L609.31 336.61C610.085 335.996 610.613 335.123 610.797 334.152C610.98 333.18 610.808 332.175 610.31 331.32L611.22 330.42C617.572 329.354 623.841 327.841 629.98 325.89C630.212 331.466 631.779 336.905 634.55 341.75C635.093 344.848 636.105 347.846 637.55 350.64C634.74 350.41 631.67 350.24 628.75 350.27C626.191 350.217 623.632 350.378 621.1 350.75C611.69 352.31 610.51 369.51 610.51 369.51C610.51 369.51 591.61 376.16 580.24 376.39C578.8 376.396 577.367 376.184 575.99 375.76L574.84 375.69L576.38 371.46C576.38 371.46 575.71 371.67 574.61 371.89C574.963 371.357 575.333 370.813 575.72 370.26C582.91 359.91 595.37 346.58 603.47 338.28L603.43 338.29ZM564.62 546.9C563.17 549.374 561.868 551.932 560.72 554.56C556.26 555.43 550.19 555.91 546.96 553.16C545.503 551.967 543.673 551.326 541.79 551.35L541.86 551.21C544.08 546.95 545.98 537.4 547.45 527.52C554.64 527.52 561.45 521.52 561.45 521.52L570.5 524.62L570.83 525.25L571.05 525.66L571.41 526.33L571.64 526.75L572 527.41L572.23 527.83L572.58 528.47L572.81 528.89L573.16 529.52L573.39 529.94L573.74 530.57L573.97 530.97L574.32 531.59L574.55 531.99L574.9 532.6L575.12 532.99L575.47 533.59L575.69 533.97L576.04 534.57L576.25 534.92L576.61 535.52L576.81 535.86L577.16 536.45L577.34 536.76L577.71 537.37L577.85 537.6C578.49 538.6 579.1 539.6 579.69 540.6L579.78 540.74L580.12 541.29L580.27 541.52L580.58 542.01L580.75 542.27L581.03 542.71L581.21 542.99L581.47 543.4L581.65 543.68L581.9 544.06L582.08 544.33L582.31 544.68L582.49 544.95L582.7 545.27L582.87 545.54L583.06 545.83L583.23 546.09C577.08 547.088 570.834 547.36 564.62 546.9Z" fill="url(#paint0_linear_62_124)"/>
<path d="M818.32 573.21C807.61 576.65 759.8 573.97 758.66 567.09C757.74 561.58 744.79 526.83 739.66 513.25L737.61 507.81L762.47 502.46C762.47 502.46 763.38 506.82 764.64 513.03C766.94 524.37 770.41 541.86 771.64 550.27C773.55 563.27 777.76 560.98 777.76 560.98C777.76 560.98 829.03 569.77 818.32 573.21Z" fill="#FFBDC6"/>
<path d="M683.32 347.58C683.32 347.58 681.41 359.05 697.85 369.76C714.29 380.47 700.14 419.1 700.14 419.1L687.98 419.78C680.255 420.212 672.664 417.633 666.801 412.585C660.938 407.537 657.26 400.413 656.54 392.71C656.54 392.71 663.42 381.62 650.8 352.93L683.32 347.58Z" fill="#FFBDC6"/>
<path d="M612.18 333.41C612.18 333.41 588.5 356.49 577.5 372.41C576.199 374.257 575.01 376.18 573.94 378.17C565.94 393.47 547.23 368.6 553.7 360L558.16 355.84L601.09 315.84C601.09 315.84 630.54 292.89 645.45 309.34C660.36 325.79 612.18 333.41 612.18 333.41Z" fill="#FFBDC6"/>
<path d="M667.77 361.91C686.78 361.91 702.19 346.5 702.19 327.49C702.19 308.48 686.78 293.07 667.77 293.07C648.76 293.07 633.35 308.48 633.35 327.49C633.35 346.5 648.76 361.91 667.77 361.91Z" fill="#A66477"/>
<path d="M524.6 551.41C524.6 551.41 498.98 552.94 495.15 551.41C491.32 549.88 466.85 546.06 474.5 563.65C482.15 581.24 511.22 588.51 511.22 588.51L532.22 583.16L524.6 551.41Z" fill="#7679B4"/>
<path opacity="0.05" d="M524.6 551.41C524.6 551.41 498.98 552.94 495.15 551.41C491.32 549.88 466.85 546.06 474.5 563.65C482.15 581.24 511.22 588.51 511.22 588.51L532.22 583.16L524.6 551.41Z" fill="black"/>
<path d="M615.98 476.07L667.42 496.91L696.68 559.06C696.68 559.06 697.06 580.86 677.94 585.83C658.82 590.8 632.05 588.51 625.16 583.54C618.27 578.57 589.98 549.11 589.98 549.11L615.98 476.07Z" fill="#7679B4"/>
<path opacity="0.05" d="M612.51 476.07L657.04 492.75L682.37 542.49C682.37 542.49 682.7 559.94 666.15 563.92C649.6 567.9 626.42 566.06 620.47 562.08C614.52 558.1 589.98 534.53 589.98 534.53L612.51 476.07Z" fill="black"/>
<path d="M568.2 551.41C568.2 551.41 554.81 556 549.46 551.41C544.11 546.82 534.54 552.58 534.54 552.58L538.75 577.44C538.75 577.44 557.87 573.23 568.2 574.38V551.41Z" fill="#FFBDC6"/>
<path opacity="0.05" d="M568.2 551.41C568.2 551.41 554.81 556 549.46 551.41C544.11 546.82 534.54 552.58 534.54 552.58L538.75 577.44C538.75 577.44 557.87 573.23 568.2 574.38V551.41Z" fill="black"/>
<path d="M575.85 524.64L563.61 520.43C563.61 520.43 550.22 532.29 541.43 522.34C532.64 512.39 549.43 471.09 549.43 471.09L567.43 442.02L580.43 482.94L592.29 502.83L575.85 524.64Z" fill="#565388"/>
<path opacity="0.05" d="M575.85 524.64L563.61 520.43C563.61 520.43 550.22 532.29 541.43 522.34C532.64 512.39 549.43 471.09 549.43 471.09L567.43 442.02L580.43 482.94L592.29 502.83L575.85 524.64Z" fill="black"/>
<path d="M692.5 522.35L720.04 526.17L725.39 551.41L691.35 549.5L692.5 522.35Z" fill="#565388"/>
<path opacity="0.05" d="M692.5 522.35L720.04 526.17L725.39 551.41L691.35 549.5L692.5 522.35Z" fill="black"/>
<path opacity="0.1" d="M653.87 383.9C653.87 383.9 665.34 427.9 702.06 396.14L711.98 522.34C711.98 522.34 699.74 541.85 697.83 559.44C695.92 577.03 662.64 505.13 642.76 504.75C622.88 504.37 603.18 476.64 603.18 476.64L625.57 430.58L653.87 383.9Z" fill="black"/>
<path d="M654.25 382.75C654.25 382.75 665.72 426.75 702.44 394.99L712.38 521.2C712.38 521.2 700.14 540.71 698.23 558.3C696.32 575.89 663.05 503.99 643.16 503.58C623.27 503.17 603.58 475.47 603.58 475.47L625.98 429.41L654.25 382.75Z" fill="#F2F1F2"/>
<path opacity="0.1" d="M648.13 354.45C648.13 354.45 632.07 351.77 622.89 353.3C613.71 354.83 612.56 371.66 612.56 371.66C612.56 371.66 586.56 380.84 577.76 377.78C577.76 377.78 534.54 374.72 534.54 387.72C534.54 400.72 548.31 406.84 548.31 406.84C548.31 406.84 608.31 408.84 608.74 408.75C622.51 404.93 608.36 408.75 608.36 408.75L583.5 446.23L606.45 477.97L630.93 459.97C630.93 459.97 633.98 443.18 641.98 434.76C647.72 428.76 655.21 401.68 658.98 386.69C659.783 383.535 659.95 380.252 659.473 377.031C658.996 373.81 657.883 370.717 656.2 367.93L648.13 354.45Z" fill="black"/>
<path opacity="0.1" d="M577.5 372.4C576.199 374.247 575.01 376.17 573.94 378.16C565.94 393.46 547.23 368.59 553.7 359.99L558.16 355.83C556.51 375.58 572.58 373.48 577.5 372.4Z" fill="black"/>
<path opacity="0.1" d="M608.36 407.22H607.98C607.98 407.22 622.12 403.4 608.36 407.22Z" fill="black"/>
<path d="M646.98 354.45C646.98 354.45 630.92 351.77 621.74 353.3C612.56 354.83 611.41 371.66 611.41 371.66C611.41 371.66 585.41 380.84 576.61 377.78L578.14 373.57C578.14 373.57 554.81 380.84 557.49 356.36C557.49 356.36 533.4 374.72 533.4 387.72C533.4 400.72 547.17 406.84 547.17 406.84C547.17 406.84 607.17 408.84 607.6 408.75C621.37 404.93 607.22 408.75 607.22 408.75L582.36 446.23L605.31 477.97L629.79 459.97C629.79 459.97 632.85 443.14 640.88 434.73C646.62 428.73 654.11 401.65 657.88 386.66C658.683 383.505 658.85 380.222 658.373 377.001C657.896 373.78 656.783 370.687 655.1 367.9L646.98 354.45Z" fill="#565388"/>
<path opacity="0.1" d="M725.77 478.74L725.72 480.84C725.574 480.146 725.591 479.427 725.77 478.74Z" fill="black"/>
<path opacity="0.1" d="M764.66 513.03C756.526 515.536 747.837 515.612 739.66 513.25L737.61 507.81L762.47 502.46C762.47 502.46 763.39 506.82 764.66 513.03Z" fill="black"/>
<path opacity="0.1" d="M690.2 364.01C690.2 364.01 711.62 377.4 719.27 379.31C726.92 381.22 746.81 388.11 746.81 388.11L754.81 415.26C754.81 415.26 757.87 435.91 754.81 447.39C751.75 458.87 723.07 480.66 724.6 477.22L723.84 507.43C723.84 507.43 723.84 551.43 729.96 560.59C736.08 569.75 718.3 551.59 718.3 551.59C718.3 551.59 696.69 519.66 694.01 499.39C691.33 479.12 695.54 401.1 695.54 401.1L691.72 395.75C691.72 395.75 699.76 375.1 690.2 364.01Z" fill="black"/>
<path d="M691.35 364.01C691.35 364.01 712.77 377.4 720.42 379.31C728.07 381.22 747.96 388.11 747.96 388.11L755.96 415.26C755.96 415.26 759.02 435.91 755.96 447.39C752.9 458.87 766.29 510.88 766.29 510.88C766.29 510.88 753.96 516.58 736.84 510.88C735.69 510.5 724.22 480.67 725.75 477.22L724.98 507.43C724.98 507.43 724.98 551.43 731.1 560.59C735.036 566.36 739.805 571.516 745.25 575.89L733.01 577.42C733.01 577.42 697.82 519.67 695.15 499.42C692.48 479.17 696.68 401.13 696.68 401.13L692.86 395.78C692.86 395.78 700.91 375.1 691.35 364.01Z" fill="#565388"/>
<path d="M586.98 547.58C586.98 547.58 561.36 510.48 562.5 493.27C562.5 493.27 559.44 516.98 556 518.51C552.56 520.04 518.14 509.33 518.14 509.33C518.14 509.33 516.61 498.24 520.43 494.41C524.25 490.58 536.11 419.83 536.11 419.83C536.11 419.83 540.32 400.71 558.67 399.56C577.02 398.41 618.33 491.73 618.33 491.73C618.33 491.73 624.42 547.58 586.98 547.58Z" fill="#7679B4"/>
<path d="M526.51 497.1C526.51 497.1 527.27 550.64 517.71 559.44C508.15 568.24 545.63 572.83 545.63 572.83C545.63 572.83 539.13 559.83 544.48 549.5C549.83 539.17 553.28 497.1 553.28 497.1H526.51Z" fill="#FFBDC6"/>
<path opacity="0.05" d="M528.42 558.68C528.42 558.68 524.6 549.12 514.27 556.77C514.27 556.77 505.09 578.19 489.03 581.25C472.97 584.31 486.74 593.49 487.5 593.87C488.26 594.25 514.27 598.46 520.39 596.55C526.51 594.64 551.39 590.05 551.39 590.05C551.39 590.05 550.24 564.81 546.39 562.9C542.54 560.99 544.49 574.36 528.42 558.68Z" fill="black"/>
<path d="M528.42 559.44C528.42 559.44 524.6 549.88 514.27 557.53C514.27 557.53 505.09 578.95 489.03 582.01C472.97 585.07 486.74 594.25 487.5 594.63C488.26 595.01 514.27 599.22 520.39 597.31C526.51 595.4 551.39 590.81 551.39 590.81C551.39 590.81 550.24 565.57 546.39 563.66C542.54 561.75 544.49 575.12 528.42 559.44Z" fill="#7679B4"/>
<path d="M600.43 319.13C603.658 324.148 607.135 329.001 610.85 333.67C611.209 334.082 611.48 334.563 611.645 335.083C611.811 335.603 611.869 336.152 611.814 336.695C611.76 337.239 611.595 337.765 611.329 338.242C611.064 338.72 610.703 339.137 610.27 339.47L608.77 340.64C608.346 340.979 607.857 341.228 607.333 341.371C606.809 341.515 606.261 341.551 605.723 341.476C605.185 341.401 604.668 341.217 604.203 340.936C603.739 340.655 603.336 340.282 603.02 339.84C599.671 335.199 595.478 331.23 590.66 328.14C590.102 327.804 589.635 327.336 589.298 326.778C588.962 326.22 588.767 325.588 588.731 324.938C588.694 324.287 588.817 323.638 589.089 323.045C589.361 322.453 589.773 321.936 590.29 321.54L594.56 318.18C594.997 317.828 595.503 317.573 596.045 317.429C596.587 317.286 597.153 317.258 597.707 317.348C598.26 317.437 598.789 317.642 599.258 317.949C599.727 318.256 600.127 318.659 600.43 319.13Z" fill="#565388"/>
<path opacity="0.1" d="M687.7 361.17C682.79 354.17 683.7 348.71 683.7 348.71L651.19 354.06C653.451 359.105 655.31 364.322 656.75 369.66C662.189 371.252 667.963 371.301 673.428 369.801C678.893 368.302 683.834 365.314 687.7 361.17Z" fill="black"/>
<path d="M664.96 369.75C681.86 369.75 695.56 356.05 695.56 339.15C695.56 322.25 681.86 308.55 664.96 308.55C648.06 308.55 634.36 322.25 634.36 339.15C634.36 356.05 648.06 369.75 664.96 369.75Z" fill="#FFBDC6"/>
<path opacity="0.1" d="M651.5 323.2C654.39 322.72 656.96 321.02 659.89 320.88C663.65 320.69 666.94 323.06 669.55 325.52C672.16 327.98 674.69 330.76 678.27 331.82C680.562 332.358 682.927 332.516 685.27 332.29C686.589 332.369 687.9 332.045 689.03 331.36C689.614 330.848 690.061 330.198 690.33 329.47C691.325 327.171 691.83 324.689 691.811 322.183C691.792 319.678 691.25 317.204 690.22 314.92C689.928 314.448 689.804 313.891 689.87 313.34C689.985 313.014 690.17 312.718 690.41 312.47C692.83 309.56 695.48 306.64 696.48 303.11C697.48 299.58 696.26 295.23 692.61 293.66C691.698 293.279 690.717 293.088 689.729 293.098C688.74 293.108 687.764 293.32 686.86 293.72C685.16 294.5 683.86 295.94 681.97 296.33C678.87 296.97 676.22 294.48 673.8 292.63C670.022 289.8 665.509 288.119 660.8 287.79C658.745 287.554 656.664 287.829 654.74 288.59C652.8 289.47 651.38 291.05 649.74 292.35C644.22 296.81 636.49 298.06 629.58 300.49C628.26 300.95 626.79 301.66 626.58 302.91C626.3 304.34 627.82 305.53 629.29 306.11C630.76 306.69 632.47 307.05 633.47 308.19C634.75 309.67 634.3 311.77 634.54 313.63C635 317.32 638.25 319.35 641.83 320.43C644.65 321.27 648.55 323.69 651.5 323.2Z" fill="black"/>
<path d="M651.5 322.43C654.39 321.95 656.96 320.25 659.89 320.11C663.65 319.92 666.94 322.29 669.55 324.75C672.16 327.21 674.69 329.99 678.27 331.05C680.562 331.588 682.927 331.747 685.27 331.52C686.573 331.586 687.866 331.259 688.98 330.58C689.564 330.068 690.011 329.418 690.28 328.69C691.275 326.391 691.78 323.909 691.761 321.403C691.742 318.898 691.2 316.424 690.17 314.14C689.878 313.668 689.755 313.111 689.82 312.56C689.936 312.235 690.12 311.938 690.36 311.69C692.78 308.78 695.43 305.86 696.43 302.33C697.43 298.8 696.21 294.45 692.56 292.88C691.648 292.499 690.668 292.308 689.679 292.318C688.69 292.329 687.714 292.54 686.81 292.94C685.11 293.72 683.81 295.16 681.92 295.55C678.82 296.19 676.17 293.7 673.75 291.85C669.973 289.02 665.459 287.34 660.75 287.01C658.695 286.774 656.614 287.049 654.69 287.81C652.75 288.69 651.33 290.27 649.69 291.57C644.17 296.03 636.44 297.28 629.53 299.71C628.21 300.17 626.74 300.88 626.53 302.13C626.25 303.56 627.77 304.75 629.24 305.33C630.71 305.91 632.42 306.27 633.42 307.41C634.7 308.89 634.25 310.99 634.49 312.85C634.95 316.54 638.2 318.57 641.78 319.65C644.65 320.51 648.55 322.93 651.5 322.43Z" fill="#A66477"/>
<path opacity="0.05" d="M626.82 469.58C626.82 469.58 648.67 473.31 654.13 485.08C659.59 496.85 692.4 528.79 692.4 528.79" fill="black"/>
<g opacity="0.05">
<path opacity="0.05" d="M556.73 515.84C553.29 517.37 518.87 506.66 518.87 506.66C518.452 503.337 518.492 499.972 518.99 496.66C516.99 501.42 518.11 509.35 518.11 509.35C518.11 509.35 552.53 520.06 555.97 518.53C557.11 518.02 558.21 515.08 559.17 511.37C558.4 513.74 557.57 515.46 556.73 515.84Z" fill="black"/>
<path opacity="0.05" d="M536.79 417.47C536.51 418.246 536.273 419.038 536.08 419.84C536.08 419.84 527.78 469.4 522.83 487.84C527.41 472.86 536.05 421.87 536.79 417.47Z" fill="black"/>
<path opacity="0.05" d="M587.7 544.91C587.7 544.91 562.08 507.81 563.23 490.58C563.23 490.58 562.95 492.72 562.47 495.76C563.63 513.83 586.98 547.58 586.98 547.58C604.8 547.58 612.76 534.96 616.21 521.71C612.36 533.93 604.32 544.91 587.7 544.91Z" fill="black"/>
</g>
<path d="M521.69 510.44C521.69 510.44 545.06 523.3 553.48 517.18C561.9 511.06 556.54 501.5 556.54 501.5L550.04 490.79H528.24L520.98 503.41L521.69 510.44Z" fill="#7679B4"/>
<path d="M680.98 560.97C680.98 560.97 682.51 530.37 643.5 530.76C604.49 531.15 641.97 530.76 641.97 530.76C641.97 530.76 626.67 526.17 607.55 536.88C588.43 547.59 566.63 545.29 566.63 545.29C566.63 545.29 549.04 574.36 565.48 582.77C581.92 591.18 587.28 579.71 587.28 579.71C587.28 579.71 620.94 586.21 628.58 577.42C628.58 577.42 645.41 595.78 671.03 585.83C671.08 585.83 690.2 577.42 680.98 560.97Z" fill="#7679B4"/>
<path d="M86.0702 329.38C86.0702 329.38 121.9 365.21 101.67 418.38C81.4403 471.55 136.35 559.97 136.35 559.97C136.35 559.97 135.76 559.88 134.67 559.69C61.0803 546.69 24.5102 462.53 65.4302 400C80.6502 376.76 93.1302 349.49 86.0702 329.38Z" fill="#F50057" fill-opacity="0.41"/>
<path d="M86.0699 329.38C86.0699 329.38 106.3 373.3 86.0699 409.13C65.8399 444.96 82.5999 545.52 136.35 559.97" stroke="#535461" stroke-width="2" stroke-miterlimit="10"/>
<path d="M22.25 474.31C22.25 474.31 63.14 467.8 66.86 504.44C70.58 541.08 145.48 546.16 145.48 546.16L144.08 547.09C82.24 587.68 23.08 572.95 32.08 519.09C35.35 499.01 35.08 478.88 22.25 474.31Z" fill="#F50057" fill-opacity="0.41"/>
<path opacity="0.2" d="M22.25 474.31C22.25 474.31 63.14 467.8 66.86 504.44C70.58 541.08 145.48 546.16 145.48 546.16L144.08 547.09C82.24 587.68 23.08 572.95 32.08 519.09C35.35 499.01 35.08 478.88 22.25 474.31Z" fill="#F5F5F5"/>
<path d="M22.25 474.31C22.25 474.31 53.99 481.31 51.38 510.13C48.77 538.95 98.51 573.58 145.48 546.13" stroke="#535461" stroke-width="2" stroke-miterlimit="10"/>
<path d="M104.91 384.67C104.51 390.58 107.63 392.67 107.63 392.67C112.73 395.82 117.15 395.67 120.81 393.93L164.45 427.3C169.62 430.94 173.74 431.98 177.17 432.3C174.883 447.676 173.697 463.195 173.62 478.74C173.56 490.53 174.47 500.43 176.84 504.74C183.84 517.47 185.1 562.8 185.1 562.8L200.69 570.12C201.4 577 201.59 583.65 200.59 588.26C198.4 598.36 215.37 644.26 225.46 670.13C225.22 676.43 225.16 680.88 225.38 681.98C226.21 686.05 222.38 707.65 220.86 716.19C217.19 720.26 216.15 726.75 217.12 730.88C218.039 733.878 218.461 737.006 218.37 740.14C217.997 744.64 218.084 749.167 218.63 753.65C218.944 757.272 218.782 760.92 218.15 764.5C218.15 764.5 222.28 773.67 225.38 764.5C228.48 755.33 236.74 754.31 240.87 752.28C243.55 750.96 244.49 745.35 244.87 741.57C244.905 740.845 244.736 740.124 244.383 739.489C244.029 738.855 243.505 738.332 242.87 737.98C241.6 737.18 240.34 734.54 240.87 726.81C240.977 725.448 240.953 724.078 240.8 722.72H240.87L242.98 707.4C242.98 707.4 243.18 702.03 244.3 693.93C246.89 692.68 249.45 691.99 251.24 691.11C253.92 689.79 254.86 684.18 255.24 680.4C255.275 679.675 255.106 678.954 254.753 678.319C254.399 677.685 253.875 677.162 253.24 676.81C251.97 676.01 250.71 673.37 251.24 665.64C251.29 664.88 251.31 664.17 251.3 663.49C252.21 660.8 253.22 658.11 254.3 655.49C264.63 631.04 261.53 599.49 261.53 599.49V579.2C262.83 579.12 263.6 579.05 263.6 579.05C262.6 574.98 283.23 480.24 283.23 480.24C283.28 478.44 283.29 476.73 283.29 475.07C283.51 451.41 278.38 440.98 275.29 436.83C275.54 436.83 275.79 436.9 276.04 436.91C276.929 436.963 277.821 436.963 278.71 436.91L286.37 479.2L292.57 518.93C310.13 507.73 298.77 477.17 298.77 477.17L295.37 431.97C297.606 430.873 299.774 429.641 301.86 428.28C301.86 428.28 301.67 427.68 301.34 426.58L301.86 426.24C301.86 426.24 290.22 389.24 289.97 359.68C289.887 353.253 290.763 346.849 292.57 340.68C294.789 334.176 295.891 327.342 295.83 320.47C296.15 304.07 288.44 295.86 288.44 295.86L267.28 288.03L266.8 287.74C268.44 282.98 270.02 277.96 271.59 272.74C274.358 263.552 275.707 253.995 275.59 244.4C275.731 231.954 273.254 219.617 268.32 208.19C259.22 187.28 243.82 173.53 226.32 173.53C198.32 173.53 175.7 208.73 175.7 252.15C175.7 252.49 175.7 252.83 175.7 253.15C175.7 253.47 175.7 253.83 175.7 254.15C175.636 264.947 177.077 275.7 179.98 286.1L174.73 287.72L154.07 311.15C154.07 311.15 113.78 360.04 107.59 373.29C105.28 378.31 104.71 382.01 104.91 384.67ZM133.01 378.32C133.3 377.66 133.45 377.26 133.45 377.26L174.77 336.97C185.89 344.55 189.59 361.03 189.77 376.62C189.731 384.832 188.693 393.009 186.68 400.97C186.68 400.97 182.03 397.97 182.03 400.97C182.03 403.97 175.83 415.43 171.7 416.46C168.33 417.36 142.71 389.15 132.98 378.32H133.01Z" fill="url(#paint1_linear_62_124)"/>
<path d="M239.69 648.27C239.69 648.27 250.69 648.27 249.69 662.27C249.15 669.85 250.37 672.45 251.6 673.27C252.215 673.624 252.72 674.141 253.058 674.764C253.397 675.387 253.557 676.092 253.52 676.8C253.2 680.51 252.29 686.01 249.69 687.31C245.69 689.31 237.69 690.31 234.69 699.31C231.69 708.31 227.69 699.31 227.69 699.31C228.304 695.795 228.461 692.215 228.16 688.66C227.629 684.26 227.542 679.817 227.9 675.4C227.988 672.325 227.579 669.255 226.69 666.31C225.19 659.77 228.69 647.27 239.69 648.27Z" fill="#E14B5A"/>
<path opacity="0.05" d="M239.69 648.27C239.69 648.27 250.69 648.27 249.69 662.27C249.15 669.85 250.37 672.45 251.6 673.27C252.215 673.624 252.72 674.141 253.058 674.764C253.397 675.387 253.557 676.092 253.52 676.8C253.2 680.51 252.29 686.01 249.69 687.31C245.69 689.31 237.69 690.31 234.69 699.31C231.69 708.31 227.69 699.31 227.69 699.31C228.304 695.795 228.461 692.215 228.16 688.66C227.629 684.26 227.542 679.817 227.9 675.4C227.988 672.325 227.579 669.255 226.69 666.31C225.19 659.77 228.69 647.27 239.69 648.27Z" fill="black"/>
<path d="M131.69 377.27C131.69 377.27 168.69 419.27 172.69 418.27C176.69 417.27 182.69 406.27 182.69 403.27C182.69 400.27 187.19 403.27 187.19 403.27C187.19 403.27 185.69 433.27 181.69 433.27C177.69 433.27 172.69 433.27 165.69 428.27L116.69 390.27L131.69 377.27Z" fill="#FFB296"/>
<path d="M291.69 423.27L295.69 477.27C295.69 477.27 306.69 507.27 289.69 518.27L283.69 479.27L273.69 423.27H291.69Z" fill="#FFB296"/>
<path d="M195.69 539.27C195.69 539.27 203.69 572.27 200.69 586.27C197.69 600.27 231.69 684.27 231.69 684.27L243.69 672.27L235.69 579.27L225.69 501.27L195.69 539.27Z" fill="#FFB296"/>
<path opacity="0.05" d="M195.69 539.27C195.69 539.27 203.69 572.27 200.69 586.27C197.69 600.27 231.69 684.27 231.69 684.27L243.69 672.27L235.69 579.27L225.69 501.27L195.69 539.27Z" fill="black"/>
<path d="M259.69 566.27V597.27C259.69 597.27 262.69 628.27 252.69 652.27C242.69 676.27 241.69 703.27 241.69 703.27L239.69 718.27L219.69 715.27C219.69 715.27 225.69 683.27 224.69 678.27C223.69 673.27 228.69 597.27 228.69 597.27C228.69 597.27 224.69 570.27 226.69 559.27C228.69 548.27 236.69 535.27 236.69 535.27L259.69 566.27Z" fill="#FFB296"/>
<path d="M229.69 708.27C229.69 708.27 240.69 708.27 239.69 722.27C239.15 729.85 240.37 732.45 241.6 733.27C242.215 733.624 242.72 734.141 243.058 734.764C243.397 735.387 243.557 736.092 243.52 736.8C243.2 740.51 242.29 746.01 239.69 747.31C235.69 749.31 227.69 750.31 224.69 759.31C221.69 768.31 217.69 759.31 217.69 759.31C218.304 755.795 218.461 752.215 218.16 748.66C217.629 744.26 217.542 739.817 217.9 735.4C217.988 732.325 217.579 729.255 216.69 726.31C215.19 719.77 218.69 707.27 229.69 708.27Z" fill="#E14B5A"/>
<path d="M224.7 265.27C241.269 265.27 254.7 251.839 254.7 235.27C254.7 218.701 241.269 205.27 224.7 205.27C208.132 205.27 194.7 218.701 194.7 235.27C194.7 251.839 208.132 265.27 224.7 265.27Z" fill="#FFB296"/>
<path d="M209.69 240.27C209.69 240.27 218.69 282.27 184.69 292.27C150.69 302.27 222.69 314.27 222.69 314.27L273.69 296.27C273.69 296.27 216.69 268.27 230.69 240.27H209.69Z" fill="#FFB296"/>
<path opacity="0.1" d="M224.69 296.27L265.21 293.58L285.69 301.27C285.69 301.27 298.69 315.27 289.69 343.27C280.69 371.27 298.69 429.27 298.69 429.27C298.69 429.27 285.19 438.55 273.69 437.74C272.678 437.671 271.675 437.514 270.69 437.27C270.69 437.27 281.69 444.27 280.69 480.27C280.69 480.27 260.69 573.27 261.69 577.27C261.69 577.27 239.69 579.27 231.69 574.27C231.69 574.27 225.69 521.27 219.69 521.27C219.69 521.27 205.69 564.27 206.69 571.27L185.69 561.27C185.69 561.27 184.46 516.77 177.69 504.27C170.25 490.52 177.69 419.27 183.69 413.27C189.69 407.27 197.69 356.27 175.69 341.27L135.69 380.27C135.69 380.27 126.69 404.27 110.69 394.27C110.69 394.27 104.69 390.27 110.69 377.27C116.69 364.27 155.69 316.27 155.69 316.27L175.69 293.27L191.69 288.27C191.69 288.27 213.69 305.27 224.69 296.27Z" fill="black"/>
<path d="M224.69 294.27L265.21 291.58L285.69 299.27C285.69 299.27 298.69 313.27 289.69 341.27C280.69 369.27 298.69 427.27 298.69 427.27C298.69 427.27 285.19 436.55 273.69 435.74C272.678 435.671 271.675 435.514 270.69 435.27C270.69 435.27 281.69 442.27 280.69 478.27C280.69 478.27 260.69 571.27 261.69 575.27C261.69 575.27 239.69 577.27 231.69 572.27C231.69 572.27 225.69 519.27 219.69 519.27C219.69 519.27 205.69 562.27 206.69 569.27L185.69 559.27C185.69 559.27 184.46 514.77 177.69 502.27C170.25 488.52 177.69 417.27 183.69 411.27C189.69 405.27 197.69 354.27 175.69 339.27L135.69 378.27C135.69 378.27 126.69 402.27 110.69 392.27C110.69 392.27 104.69 388.27 110.69 375.27C116.69 362.27 155.69 314.27 155.69 314.27L175.69 291.27L191.69 286.27C191.69 286.27 213.69 303.27 224.69 294.27Z" fill="#E14B5A"/>
<path opacity="0.1" d="M266.19 330.77C266.19 330.77 263.19 367.77 260.19 376.77C257.19 385.77 266.19 431.77 266.19 431.77" fill="black"/>
<path opacity="0.1" d="M266.19 215.18C274.373 234.65 275.502 256.367 269.38 276.58C259.29 310.73 248.67 335.58 225.55 335.58C198.49 335.58 176.55 301.02 176.55 258.4C176.55 215.78 198.49 181.22 225.55 181.22C242.47 181.16 257.38 194.65 266.19 215.18Z" fill="black"/>
<path d="M266.19 213.18C274.373 232.65 275.502 254.367 269.38 274.58C259.29 308.73 248.67 333.58 225.55 333.58C198.49 333.58 176.55 299.02 176.55 256.4C176.55 213.78 198.49 179.22 225.55 179.22C242.47 179.16 257.38 192.65 266.19 213.18Z" fill="#632652"/>
<path d="M358.98 90.33C354.64 85.3174 348.486 82.2343 341.873 81.7589C335.259 81.2834 328.728 83.4547 323.715 87.795C318.703 92.1352 315.619 98.289 315.144 104.902C314.669 111.516 316.84 118.047 321.18 123.06L353.98 160.85L391.78 128.12C396.791 123.77 399.87 117.608 400.337 110.989C400.805 104.37 398.625 97.8362 394.275 92.825C389.926 87.8137 383.763 84.7355 377.144 84.2676C370.525 83.7997 363.991 85.9804 358.98 90.33Z" fill="#F50057" fill-opacity="0.41"/>
<path opacity="0.2" d="M327.75 92.79C332.761 88.4611 339.285 86.2973 345.89 86.7735C352.495 87.2497 358.642 90.327 362.98 95.33C367.701 91.243 373.781 89.071 380.024 89.2413C386.266 89.4115 392.218 91.9117 396.71 96.25C394.822 93.1424 392.279 90.484 389.258 88.4603C386.237 86.4365 382.811 85.0961 379.219 84.5325C375.627 83.9689 371.955 84.1956 368.46 85.1969C364.964 86.1982 361.729 87.9499 358.98 90.33C354.64 85.3174 348.486 82.2343 341.873 81.7589C335.259 81.2834 328.728 83.4547 323.715 87.795C318.703 92.1352 315.619 98.289 315.144 104.902C314.669 111.516 316.84 118.047 321.18 123.06L323.08 125.25C319.816 120.185 318.491 114.112 319.349 108.147C320.207 102.183 323.191 96.7294 327.75 92.79Z" fill="white"/>
<g opacity="0.5">
<path opacity="0.5" d="M123.45 144.22C121.01 141.651 117.675 140.12 114.136 139.945C110.598 139.77 107.128 140.965 104.447 143.282C101.766 145.598 100.081 148.858 99.7405 152.385C99.4003 155.912 100.431 159.434 102.62 162.22L120.62 183.05L141.45 165.05C142.916 163.899 144.133 162.462 145.027 160.827C145.922 159.191 146.475 157.392 146.654 155.536C146.833 153.681 146.634 151.809 146.069 150.033C145.503 148.257 144.583 146.614 143.365 145.203C142.146 143.793 140.654 142.645 138.978 141.828C137.303 141.011 135.479 140.542 133.618 140.45C131.756 140.358 129.895 140.645 128.147 141.293C126.4 141.941 124.802 142.937 123.45 144.22Z" fill="#F50057" fill-opacity="0.41"/>
<path opacity="0.2" d="M106.22 145.58C107.588 144.395 109.176 143.492 110.894 142.921C112.611 142.35 114.425 142.123 116.23 142.253C118.035 142.383 119.797 142.867 121.415 143.679C123.033 144.49 124.475 145.611 125.66 146.98C128.262 144.728 131.613 143.532 135.054 143.626C138.494 143.721 141.774 145.099 144.25 147.49C143.21 145.777 141.809 144.312 140.144 143.196C138.48 142.081 136.592 141.342 134.612 141.032C132.632 140.721 130.609 140.847 128.683 141.399C126.756 141.951 124.974 142.918 123.46 144.23C121.02 141.661 117.685 140.13 114.146 139.955C110.607 139.78 107.137 140.975 104.457 143.292C101.776 145.608 100.09 148.868 99.7502 152.395C99.41 155.922 100.441 159.444 102.63 162.23L103.63 163.44C101.841 160.649 101.119 157.307 101.594 154.027C102.07 150.747 103.712 147.748 106.22 145.58Z" fill="white"/>
</g>
<g opacity="0.5">
<path opacity="0.5" d="M485.45 326.22C483.01 323.651 479.675 322.12 476.136 321.945C472.598 321.77 469.128 322.965 466.447 325.282C463.766 327.598 462.081 330.858 461.74 334.385C461.4 337.912 462.431 341.434 464.62 344.22L482.62 365.05L503.45 347.05C504.916 345.899 506.133 344.462 507.027 342.827C507.922 341.192 508.475 339.392 508.654 337.536C508.833 335.681 508.634 333.809 508.069 332.033C507.503 330.257 506.583 328.614 505.364 327.203C504.146 325.793 502.654 324.645 500.978 323.828C499.303 323.011 497.479 322.542 495.618 322.45C493.756 322.358 491.895 322.645 490.147 323.293C488.4 323.941 486.802 324.937 485.45 326.22Z" fill="#F50057" fill-opacity="0.41"/>
<path opacity="0.2" d="M468.22 327.58C469.588 326.395 471.177 325.492 472.894 324.921C474.612 324.35 476.425 324.123 478.23 324.253C480.035 324.383 481.797 324.868 483.415 325.679C485.033 326.49 486.476 327.611 487.66 328.98C490.263 326.728 493.614 325.532 497.054 325.626C500.494 325.721 503.775 327.099 506.25 329.49C505.21 327.777 503.809 326.312 502.145 325.196C500.48 324.081 498.592 323.342 496.612 323.032C494.633 322.721 492.609 322.847 490.683 323.399C488.757 323.951 486.974 324.918 485.46 326.23C484.309 324.764 482.872 323.547 481.237 322.653C479.601 321.758 477.802 321.205 475.946 321.026C474.091 320.847 472.219 321.046 470.443 321.611C468.667 322.177 467.024 323.097 465.613 324.315C464.203 325.534 463.055 327.026 462.238 328.702C461.421 330.377 460.952 332.201 460.86 334.062C460.768 335.924 461.055 337.785 461.703 339.533C462.351 341.28 463.347 342.878 464.63 344.23L465.63 345.44C463.842 342.649 463.119 339.307 463.595 336.027C464.07 332.747 465.713 329.748 468.22 327.58Z" fill="white"/>
</g>
</g>
<defs>
<linearGradient id="paint0_linear_62_124" x1="646.41" y1="600.55" x2="646.41" y2="282.95" gradientUnits="userSpaceOnUse">
<stop stop-color="#808080" stop-opacity="0.25"/>
<stop offset="0.54" stop-color="#808080" stop-opacity="0.12"/>
<stop offset="1" stop-color="#808080" stop-opacity="0.1"/>
</linearGradient>
<linearGradient id="paint1_linear_62_124" x1="-124242" y1="302718" x2="-163245" y2="302718" gradientUnits="userSpaceOnUse">
<stop stop-color="#808080" stop-opacity="0.25"/>
<stop offset="0.54" stop-color="#808080" stop-opacity="0.12"/>
<stop offset="1" stop-color="#808080" stop-opacity="0.1"/>
</linearGradient>
<clipPath id="clip0_62_124">
<rect width="957.97" height="825.17" fill="white"/>
</clipPath>
</defs>
</svg>
