<svg width="706" height="441" viewBox="0 0 2106 841" fill="none" xmlns="http://www.w3.org/2000/svg">
<g clip-path="url(#clip0_334_251)">
<path opacity="0.1" d="M1019.85 429.97C1037.21 504.17 1073.96 568.31 1132.03 599.44C1252.74 664.05 1524.95 630.72 1728.1 592.44C1830.76 573.161 1923.94 519.895 1992.64 441.22L1019.85 429.97Z" fill="#FB7A7A"/>
<path opacity="0.1" d="M2085.2 80.7098H1973.73C1971.18 80.7098 1968.73 79.6952 1966.92 77.8892C1965.11 76.0832 1964.1 73.6338 1964.1 71.0798C1964.1 68.5257 1965.11 66.0763 1966.92 64.2703C1968.73 62.4643 1971.18 61.4498 1973.73 61.4498H1993C1990.5 61.3692 1988.13 60.3187 1986.39 58.5206C1984.64 56.7225 1983.67 54.3177 1983.67 51.8148C1983.67 49.3118 1984.64 46.907 1986.39 45.1089C1988.13 43.3108 1990.5 42.2604 1993 42.1798H1979.24C1976.74 42.0992 1974.37 41.0487 1972.62 39.2506C1970.88 37.4525 1969.91 35.0477 1969.91 32.5448C1969.91 30.0418 1970.88 27.637 1972.62 25.8389C1974.37 24.0408 1976.74 22.9904 1979.24 22.9098H2037.42C2024.51 16.9098 2009.42 12.6398 1992.03 10.3998C1833.39 -9.97023 1776.75 3.50977 1756.77 17.3998C1732.12 34.4998 1704.62 47.0798 1675.23 53.1398C1577.35 73.3298 1394.3 97.6298 1228.39 45.3598C1145.93 19.3598 1084.65 63.2798 1047.91 136.64H2104.55C2103.17 115.32 2099.04 95.6398 2091.46 78.3998C2089.72 79.8966 2087.5 80.7166 2085.2 80.7098V80.7098Z" fill="#FB7A7A"/>
<path opacity="0.1" d="M1010.39 275.1C1006.11 318.251 1007.56 361.78 1014.71 404.55L1993.39 440.35C2020.64 409.009 2043.51 374.121 2061.39 336.64L1010.39 275.1ZM1397.47 367.44H1378.2C1380.75 367.44 1383.2 368.454 1385.01 370.26C1386.82 372.066 1387.83 374.516 1387.83 377.07C1387.83 379.624 1386.82 382.073 1385.01 383.879C1383.2 385.685 1380.75 386.7 1378.2 386.7H1266.73C1264.18 386.7 1261.73 385.685 1259.92 383.879C1258.11 382.073 1257.1 379.624 1257.1 377.07C1257.1 374.516 1258.11 372.066 1259.92 370.26C1261.73 368.454 1264.18 367.44 1266.73 367.44H1286C1283.5 367.359 1281.13 366.309 1279.39 364.51C1277.64 362.712 1276.67 360.308 1276.67 357.805C1276.67 355.302 1277.64 352.897 1279.39 351.099C1281.13 349.301 1283.5 348.25 1286 348.17H1272.24C1269.74 348.089 1267.37 347.039 1265.62 345.24C1263.88 343.442 1262.91 341.038 1262.91 338.535C1262.91 336.032 1263.88 333.627 1265.62 331.829C1267.37 330.031 1269.74 328.98 1272.24 328.9H1383.71C1386.21 328.98 1388.58 330.031 1390.32 331.829C1392.07 333.627 1393.04 336.032 1393.04 338.535C1393.04 341.038 1392.07 343.442 1390.32 345.24C1388.58 347.039 1386.21 348.089 1383.71 348.17H1397.47C1399.97 348.25 1402.34 349.301 1404.08 351.099C1405.83 352.897 1406.8 355.302 1406.8 357.805C1406.8 360.308 1405.83 362.712 1404.08 364.51C1402.34 366.309 1399.97 367.359 1397.47 367.44V367.44Z" fill="#FB7A7A"/>
<path opacity="0.1" d="M2104.6 137.28L1036.12 163.28C1023.12 196.69 1014.55 234.44 1010.55 273.61H2085.88C2092.9 250.612 2098.09 227.096 2101.41 203.28C2104.61 180.27 2105.89 158.01 2104.6 137.28ZM1227.47 222.44H1208.2C1209.46 222.44 1210.72 222.689 1211.89 223.173C1213.05 223.657 1214.12 224.367 1215.01 225.261C1215.9 226.155 1216.61 227.217 1217.1 228.385C1217.58 229.553 1217.83 230.806 1217.83 232.07C1217.83 233.335 1217.58 234.587 1217.1 235.756C1216.61 236.924 1215.9 237.986 1215.01 238.88C1214.12 239.774 1213.05 240.483 1211.89 240.967C1210.72 241.451 1209.46 241.7 1208.2 241.7H1096.73C1094.18 241.7 1091.73 240.686 1089.92 238.88C1088.11 237.074 1087.1 234.624 1087.1 232.07C1087.1 229.516 1088.11 227.067 1089.92 225.261C1091.73 223.455 1094.18 222.44 1096.73 222.44H1116C1113.5 222.36 1111.13 221.309 1109.39 219.511C1107.64 217.713 1106.67 215.308 1106.67 212.805C1106.67 210.302 1107.64 207.898 1109.39 206.099C1111.13 204.301 1113.5 203.251 1116 203.17H1102.24C1099.74 203.09 1097.37 202.039 1095.63 200.241C1093.88 198.443 1092.91 196.038 1092.91 193.535C1092.91 191.032 1093.88 188.628 1095.63 186.829C1097.37 185.031 1099.74 183.981 1102.24 183.9H1213.71C1216.21 183.981 1218.58 185.031 1220.33 186.829C1222.07 188.628 1223.04 191.032 1223.04 193.535C1223.04 196.038 1222.07 198.443 1220.33 200.241C1218.58 202.039 1216.21 203.09 1213.71 203.17H1227.47C1229.97 203.251 1232.34 204.301 1234.08 206.099C1235.83 207.898 1236.8 210.302 1236.8 212.805C1236.8 215.308 1235.83 217.713 1234.08 219.511C1232.34 221.309 1229.97 222.36 1227.47 222.44V222.44Z" fill="#FB7A7A"/>
<path opacity="0.1" d="M1571.62 790.89C1764.27 790.89 1920.45 782.437 1920.45 772.01C1920.45 761.583 1764.27 753.13 1571.62 753.13C1378.97 753.13 1222.79 761.583 1222.79 772.01C1222.79 782.437 1378.97 790.89 1571.62 790.89Z" fill="#FB7A7A"/>
<path d="M1861.21 633.18C1861.21 633.18 1866.7 640.37 1858.67 651.18C1850.64 661.99 1844.02 671.18 1846.67 677.95C1846.67 677.95 1858.78 657.8 1868.67 657.52C1878.56 657.24 1872.05 645.3 1861.21 633.18Z" fill="#FB7A7A"/>
<path opacity="0.1" d="M1861.21 633.18C1861.68 633.875 1862.06 634.632 1862.33 635.43C1871.95 646.74 1877.07 657.29 1867.83 657.55C1859.21 657.8 1848.88 673.2 1846.41 677.09C1846.49 677.392 1846.59 677.689 1846.7 677.98C1846.7 677.98 1858.81 657.83 1868.7 657.55C1878.59 657.27 1872.05 645.3 1861.21 633.18Z" fill="black"/>
<path d="M1871.42 642.34C1871.42 644.87 1871.14 646.92 1870.79 646.92C1870.44 646.92 1870.15 644.87 1870.15 642.34C1870.15 639.81 1870.51 641 1870.86 641C1871.21 641 1871.42 639.81 1871.42 642.34Z" fill="#FFD037"/>
<path d="M1874.92 645.36C1872.7 646.57 1870.77 647.3 1870.6 646.99C1870.43 646.68 1872.1 645.45 1874.32 644.24C1876.54 643.03 1875.66 643.91 1875.83 644.24C1876 644.57 1877.14 644.15 1874.92 645.36Z" fill="#FFD037"/>
<path d="M1832.19 633.18C1832.19 633.18 1826.7 640.37 1834.73 651.18C1842.76 661.99 1849.37 671.18 1846.73 677.95C1846.73 677.95 1834.61 657.8 1824.73 657.52C1814.85 657.24 1821.34 645.3 1832.19 633.18Z" fill="#FB7A7A"/>
<path opacity="0.1" d="M1832.19 633.18C1831.71 633.873 1831.33 634.63 1831.07 635.43C1821.45 646.74 1816.32 657.29 1825.57 657.55C1834.18 657.8 1844.57 673.2 1846.99 677.09C1846.91 677.39 1846.81 677.68 1846.7 677.98C1846.7 677.98 1834.58 657.83 1824.7 657.55C1814.82 657.27 1821.34 645.3 1832.19 633.18Z" fill="black"/>
<path d="M1821.98 642.34C1821.98 644.87 1822.26 646.92 1822.61 646.92C1822.96 646.92 1823.25 644.87 1823.25 642.34C1823.25 639.81 1822.89 641 1822.54 641C1822.19 641 1821.98 639.81 1821.98 642.34Z" fill="#FFD037"/>
<path d="M1818.47 645.36C1820.69 646.57 1822.63 647.3 1822.8 646.99C1822.97 646.68 1821.3 645.45 1819.08 644.24C1816.86 643.03 1817.74 643.91 1817.57 644.24C1817.4 644.57 1816.25 644.15 1818.47 645.36Z" fill="#FFD037"/>
<path d="M1823.73 677.04C1823.73 677.04 1839.09 676.56 1843.73 673.27C1848.37 669.98 1867.36 666.03 1868.51 671.27C1869.66 676.51 1891.59 697.56 1874.25 697.7C1856.91 697.84 1833.96 695 1829.34 692.19C1824.72 689.38 1823.73 677.04 1823.73 677.04Z" fill="#A8A8A8"/>
<path opacity="0.2" d="M1874.55 695.909C1857.21 696.049 1834.26 693.21 1829.64 690.4C1826.12 688.25 1824.72 680.56 1824.25 677.02H1823.74C1823.74 677.02 1824.74 689.4 1829.33 692.22C1833.92 695.04 1856.9 697.869 1874.24 697.729C1879.24 697.729 1880.98 695.91 1880.88 693.27C1880.18 694.89 1878.27 695.879 1874.55 695.909Z" fill="black"/>
<path d="M1277.23 682.66C1279.07 681.162 1280.4 679.143 1281.07 676.87C1281.56 674.58 1280.58 671.87 1278.39 670.98C1275.93 670.04 1273.3 671.75 1271.3 673.47C1269.3 675.19 1267.03 677.16 1264.42 676.79C1265.76 675.574 1266.77 674.032 1267.33 672.312C1267.9 670.593 1268.01 668.756 1267.66 666.98C1267.55 666.244 1267.24 665.553 1266.76 664.98C1265.39 663.52 1262.92 664.14 1261.28 665.29C1256.08 668.95 1254.63 676.02 1254.6 682.37C1254.08 680.08 1254.52 677.69 1254.51 675.37C1254.5 673.05 1253.85 670.37 1251.87 669.14C1250.64 668.484 1249.26 668.16 1247.87 668.2C1245.53 668.11 1242.93 668.35 1241.33 670.05C1239.33 672.18 1239.86 675.74 1241.59 678.05C1243.32 680.36 1245.94 681.86 1248.35 683.47C1250.29 684.623 1251.94 686.199 1253.19 688.08C1253.33 688.347 1253.45 688.624 1253.55 688.91H1268.2C1271.48 687.243 1274.52 685.141 1277.23 682.66V682.66Z" fill="#FB7A7A"/>
<path d="M1160.8 698.44C1160.8 698.44 1146.74 650.73 1163.43 615.62C1170.53 600.935 1172.68 584.341 1169.55 568.33C1168 560.748 1165.77 553.323 1162.86 546.15" stroke="#535461" stroke-width="2" stroke-miterlimit="10"/>
<path d="M1173.21 523.95C1173.21 529.8 1162.63 546.76 1162.63 546.76C1162.63 546.76 1152.04 529.76 1152.04 523.95C1152.12 521.199 1153.28 518.589 1155.25 516.673C1157.23 514.757 1159.87 513.686 1162.63 513.686C1165.38 513.686 1168.02 514.757 1170 516.673C1171.97 518.589 1173.13 521.199 1173.21 523.95V523.95Z" fill="#FB7A7A"/>
<path d="M1190.71 556.34C1187.54 561.25 1169.43 569.73 1169.43 569.73C1169.43 569.73 1169.76 549.73 1172.94 544.83C1174.5 542.557 1176.89 540.983 1179.6 540.444C1182.3 539.904 1185.11 540.441 1187.42 541.941C1189.74 543.44 1191.38 545.784 1191.99 548.473C1192.6 551.162 1192.15 553.984 1190.71 556.34V556.34Z" fill="#FB7A7A"/>
<path d="M1189.95 611.69C1184.73 614.32 1164.82 612.5 1164.82 612.5C1164.82 612.5 1175.2 595.41 1180.42 592.78C1181.66 592.121 1183.03 591.717 1184.43 591.591C1185.84 591.465 1187.25 591.621 1188.59 592.049C1189.93 592.476 1191.18 593.168 1192.25 594.082C1193.32 594.996 1194.2 596.115 1194.83 597.373C1195.47 598.631 1195.84 600.003 1195.94 601.408C1196.04 602.813 1195.85 604.224 1195.4 605.557C1194.94 606.891 1194.23 608.12 1193.29 609.173C1192.36 610.226 1191.22 611.082 1189.95 611.69V611.69Z" fill="#FB7A7A"/>
<path d="M1179.94 653.44C1175.24 656.92 1155.31 658.44 1155.31 658.44C1155.31 658.44 1162.65 639.85 1167.31 636.37C1168.42 635.46 1169.7 634.786 1171.08 634.387C1172.46 633.988 1173.9 633.874 1175.33 634.05C1176.75 634.227 1178.12 634.691 1179.36 635.414C1180.6 636.137 1181.68 637.104 1182.53 638.257C1183.39 639.41 1184 640.724 1184.33 642.12C1184.66 643.516 1184.7 644.965 1184.46 646.378C1184.21 647.791 1183.68 649.14 1182.9 650.341C1182.11 651.543 1181.09 652.574 1179.9 653.37L1179.94 653.44Z" fill="#FB7A7A"/>
<path d="M1147.21 570.86C1151.4 574.93 1170.94 579.16 1170.94 579.16C1170.94 579.16 1166.15 559.75 1161.94 555.67C1160.95 554.66 1159.77 553.858 1158.47 553.311C1157.16 552.764 1155.76 552.484 1154.35 552.486C1152.94 552.489 1151.54 552.775 1150.24 553.326C1148.94 553.878 1147.76 554.685 1146.77 555.699C1145.79 556.713 1145.02 557.914 1144.5 559.231C1143.99 560.548 1143.75 561.954 1143.78 563.367C1143.82 564.78 1144.14 566.171 1144.73 567.458C1145.31 568.745 1146.15 569.902 1147.19 570.86H1147.21Z" fill="#FB7A7A"/>
<path d="M1136.12 619.83C1141.34 622.46 1161.25 620.64 1161.25 620.64C1161.25 620.64 1150.87 603.559 1145.65 600.919C1143.15 599.722 1140.28 599.553 1137.66 600.448C1135.03 601.342 1132.87 603.23 1131.62 605.705C1130.37 608.18 1130.14 611.045 1130.99 613.686C1131.83 616.327 1133.67 618.532 1136.12 619.83Z" fill="#FB7A7A"/>
<path d="M1131.88 668.91C1136.58 672.38 1156.5 673.91 1156.5 673.91C1156.5 673.91 1149.17 655.32 1144.5 651.84C1142.24 650.331 1139.48 649.75 1136.81 650.217C1134.13 650.684 1131.73 652.162 1130.11 654.347C1128.5 656.532 1127.78 659.255 1128.11 661.953C1128.45 664.65 1129.81 667.116 1131.91 668.84L1131.88 668.91Z" fill="#FB7A7A"/>
<path d="M1173.21 523.95C1173.21 529.8 1162.63 546.76 1162.63 546.76C1162.63 546.76 1152.04 529.76 1152.04 523.95C1152.12 521.199 1153.28 518.589 1155.25 516.673C1157.23 514.757 1159.87 513.686 1162.63 513.686C1165.38 513.686 1168.02 514.757 1170 516.673C1171.97 518.589 1173.13 521.199 1173.21 523.95V523.95Z" fill="#FB7A7A"/>
<path d="M1190.71 556.34C1187.54 561.25 1169.43 569.73 1169.43 569.73C1169.43 569.73 1169.76 549.73 1172.94 544.83C1174.5 542.557 1176.89 540.983 1179.6 540.444C1182.3 539.904 1185.11 540.441 1187.42 541.941C1189.74 543.44 1191.38 545.784 1191.99 548.473C1192.6 551.162 1192.15 553.984 1190.71 556.34V556.34Z" fill="#FB7A7A"/>
<path d="M1189.95 611.69C1184.73 614.32 1164.82 612.5 1164.82 612.5C1164.82 612.5 1175.2 595.41 1180.42 592.78C1181.66 592.121 1183.03 591.717 1184.43 591.591C1185.84 591.465 1187.25 591.621 1188.59 592.049C1189.93 592.476 1191.18 593.168 1192.25 594.082C1193.32 594.996 1194.2 596.115 1194.83 597.373C1195.47 598.631 1195.84 600.003 1195.94 601.408C1196.04 602.813 1195.85 604.224 1195.4 605.557C1194.94 606.891 1194.23 608.12 1193.29 609.173C1192.36 610.226 1191.22 611.082 1189.95 611.69V611.69Z" fill="#FB7A7A"/>
<path d="M1179.94 653.44C1175.24 656.92 1155.31 658.44 1155.31 658.44C1155.31 658.44 1162.65 639.85 1167.31 636.37C1168.42 635.46 1169.7 634.786 1171.08 634.387C1172.46 633.988 1173.9 633.874 1175.33 634.05C1176.75 634.227 1178.12 634.691 1179.36 635.414C1180.6 636.137 1181.68 637.104 1182.53 638.257C1183.39 639.41 1184 640.724 1184.33 642.12C1184.66 643.516 1184.7 644.965 1184.46 646.378C1184.21 647.791 1183.68 649.14 1182.9 650.341C1182.11 651.543 1181.09 652.574 1179.9 653.37L1179.94 653.44Z" fill="#FB7A7A"/>
<path d="M1147.21 570.86C1151.4 574.93 1170.94 579.16 1170.94 579.16C1170.94 579.16 1166.15 559.75 1161.94 555.67C1160.95 554.66 1159.77 553.858 1158.47 553.311C1157.16 552.764 1155.76 552.484 1154.35 552.486C1152.94 552.489 1151.54 552.775 1150.24 553.326C1148.94 553.878 1147.76 554.685 1146.77 555.699C1145.79 556.713 1145.02 557.914 1144.5 559.231C1143.99 560.548 1143.75 561.954 1143.78 563.367C1143.82 564.78 1144.14 566.171 1144.73 567.458C1145.31 568.745 1146.15 569.902 1147.19 570.86H1147.21Z" fill="#FB7A7A"/>
<path d="M1136.12 619.83C1141.34 622.46 1161.25 620.64 1161.25 620.64C1161.25 620.64 1150.87 603.559 1145.65 600.919C1143.15 599.722 1140.28 599.553 1137.66 600.448C1135.03 601.342 1132.87 603.23 1131.62 605.705C1130.37 608.18 1130.14 611.045 1130.99 613.686C1131.83 616.327 1133.67 618.532 1136.12 619.83Z" fill="#FB7A7A"/>
<path d="M1131.88 668.91C1136.58 672.38 1156.5 673.91 1156.5 673.91C1156.5 673.91 1149.17 655.32 1144.5 651.84C1142.24 650.331 1139.48 649.75 1136.81 650.217C1134.13 650.684 1131.73 652.162 1130.11 654.347C1128.5 656.532 1127.78 659.255 1128.11 661.953C1128.45 664.65 1129.81 667.116 1131.91 668.84L1131.88 668.91Z" fill="#FB7A7A"/>
<path d="M1127.55 695.44C1127.55 695.44 1144.67 692.04 1149.23 687.51C1153.79 682.98 1174.33 675.05 1176.61 680.71C1178.89 686.37 1207.41 705.63 1188.01 709.03C1168.61 712.43 1142.38 713.56 1136.68 711.29C1130.98 709.02 1127.55 695.44 1127.55 695.44Z" fill="#A8A8A8"/>
<path opacity="0.2" d="M1188.04 706.91C1168.65 710.31 1142.41 711.44 1136.71 709.18C1132.37 707.45 1129.35 699.18 1128.16 695.31L1127.55 695.44C1127.55 695.44 1130.98 709.03 1136.68 711.29C1142.38 713.55 1168.62 712.42 1188.01 709.03C1193.61 708.03 1195.21 705.74 1194.61 702.83C1194.16 704.72 1192.21 706.18 1188.04 706.91Z" fill="black"/>
<path d="M1732.27 261.98C1737.64 255.98 1735.54 246.63 1735.54 246.63C1735.54 246.63 1710.2 182.05 1707.39 181.34C1704.58 180.63 1697.53 164.34 1697.53 164.34C1697.53 164.34 1629.96 100.11 1627.53 100.11C1625.1 100.11 1600.43 82.3696 1597.27 82.0196C1594.11 81.6696 1589.17 79.8896 1583.89 77.0196C1578.61 74.1496 1525.11 77.3796 1523 79.8596C1520.89 82.3396 1511 84.1196 1511 84.1196C1511 84.1196 1490.94 85.1796 1488.12 88.7296C1485.3 92.2796 1464.55 94.1596 1464.55 94.1596C1464.55 94.1596 1454.34 97.9596 1468.2 108.05C1463.76 108.75 1458.57 109.29 1453.3 109.67C1451.98 109.76 1450.64 109.85 1449.3 109.92H1448.51C1447.63 107.244 1445.9 104.925 1443.59 103.31C1442.08 102.49 1440.52 101.765 1438.92 101.14C1436.44 99.8218 1434.12 98.2283 1432 96.3896C1421.74 88.2309 1410.79 80.977 1399.28 74.7096C1397.5 73.5969 1395.52 72.8522 1393.45 72.5196C1389.16 72.1096 1385.33 75.1196 1381.13 76.1296C1373.75 77.8996 1366.31 73.3996 1358.72 73.3296C1349.24 73.2396 1340.61 80.6196 1337.72 89.7196C1336.65 93.0896 1336.17 96.8396 1333.86 99.5096C1330.86 103 1325.79 103.51 1321.68 105.58C1318.7 107.133 1316.21 109.473 1314.46 112.345C1312.72 115.216 1311.8 118.511 1311.8 121.87V121.95C1311.8 122.48 1311.8 123.01 1311.89 123.54C1312.36 127.82 1314.34 131.77 1315.79 135.83C1317.28 139.99 1318.22 144.326 1318.59 148.73C1318.6 148.776 1318.6 148.823 1318.59 148.87C1318.65 149.6 1318.7 150.33 1318.73 151.07C1318.73 151.22 1318.73 151.38 1318.73 151.54C1318.73 152.24 1318.73 152.95 1318.73 153.66C1318.73 157.48 1318.6 161.33 1318.61 165.15V165.35V167.08C1318.61 167.22 1318.61 167.36 1318.61 167.5C1318.61 168.01 1318.61 168.5 1318.67 169.04V169.58C1318.67 170.05 1318.74 170.53 1318.79 171C1318.79 171.2 1318.79 171.41 1318.84 171.61C1318.84 172.07 1318.95 172.52 1319.01 172.97L1319.1 173.61C1319.17 174.06 1319.25 174.51 1319.33 174.96L1319.45 175.58C1319.55 176.06 1319.67 176.58 1319.79 177.02C1319.84 177.19 1319.87 177.35 1319.91 177.52C1320.09 178.186 1320.29 178.826 1320.51 179.44C1322.01 183.638 1324.48 187.422 1327.72 190.48C1330.97 193.538 1334.89 195.783 1339.17 197.03C1340.78 197.474 1342.45 197.683 1344.12 197.65C1347.12 197.58 1349.99 196.65 1351.77 194.6C1352.21 195.1 1352.64 195.6 1353.1 196.1C1359.62 203.193 1367.76 208.609 1376.82 211.888C1385.88 215.167 1395.6 216.214 1405.15 214.938C1414.7 213.662 1423.8 210.102 1431.69 204.56C1439.57 199.017 1446 191.656 1450.43 183.1C1451.48 182.87 1452.52 182.66 1453.57 182.46C1455.39 182.12 1457.22 181.8 1459.06 181.46L1460.83 181.18L1461.53 181.06C1470.53 179.64 1479.27 178.69 1485.53 178.06L1460.79 181.13C1460.79 181.13 1454.79 209.94 1453.06 213.13C1451.33 216.32 1459.06 221.64 1459.06 221.64C1459.06 221.64 1465.75 229.8 1465.75 232.29C1465.75 234.78 1473.49 241.87 1475.6 245.77C1475.87 246.264 1476.21 246.719 1476.6 247.12C1475.04 247.724 1473.6 248.601 1472.34 249.71C1467.45 254.34 1469.08 262.46 1466.84 268.82C1465.44 272.82 1462.51 276.06 1459.69 279.21C1458.68 280.238 1457.83 281.415 1457.17 282.7C1456.8 283.551 1456.58 284.456 1456.5 285.38V285.38C1456.45 285.891 1456.43 286.406 1456.44 286.92V287.1C1456.44 287.5 1456.44 287.89 1456.52 288.28C1456.52 288.45 1456.52 288.62 1456.52 288.79C1457.01 292.97 1458.43 297.01 1458.86 301.19C1459.29 305.37 1458.77 309.58 1459.63 313.65C1459.93 315.069 1460.39 316.448 1461.01 317.76L1446.69 333.76C1446.69 333.76 1446.6 334.55 1446.57 335.85C1434.63 345.76 1416.17 364.46 1422.76 380.95C1423.48 382.756 1424.15 384.486 1424.76 386.14C1419.91 389.23 1418.31 392.9 1425.58 396.56C1426.73 397.14 1427.84 397.64 1428.93 398.09C1432.66 409.04 1434.12 412.09 1440.37 404.02C1441.04 403.14 1441.82 402.02 1442.67 400.81C1451.47 400.63 1456.56 396.56 1456.56 396.56C1456.56 396.56 1481.19 395.14 1487.56 399.05C1490.75 401.05 1498.25 401.45 1504.89 401.4C1504.8 408.553 1505.13 415.706 1505.89 422.82C1505.89 422.82 1504.83 452.98 1507.65 459.37C1510.47 465.76 1512.03 476.76 1512.03 476.76C1512.03 476.76 1507.3 487.4 1510.11 493.08C1512.92 498.76 1507.65 506.92 1507.65 506.92V527.85L1509.65 527.71C1509.5 529.12 1509.31 530.6 1509.06 532.01C1508.48 535.28 1507.61 538.21 1506.27 539.16C1502.75 541.69 1502.4 555.16 1502.4 555.16C1502.4 555.16 1496.77 571.49 1497.82 574.33C1498.87 577.17 1491.14 582.84 1492.9 587.1C1494.66 591.36 1498.26 618.32 1501.39 626.1C1504.52 633.88 1495.01 631.78 1495.01 631.78L1497.82 652C1497.82 652 1500.64 672.58 1498.53 674C1496.42 675.42 1484.28 685.71 1492.63 691.74C1493.28 692.21 1493.94 692.64 1494.63 693.05C1494.67 693.983 1494.64 694.919 1494.56 695.85C1494.4 697.44 1494 698.71 1493.11 698.85C1490.63 699.21 1485.7 701.69 1484.66 700.63C1483.62 699.57 1477.66 703.31 1471.66 704.53L1470.83 704.66L1463.04 702.66C1451.77 698.366 1439.4 697.909 1427.84 701.36C1427.84 701.36 1422.19 702.24 1419.45 706.46C1418.06 708.62 1417.45 711.66 1418.69 715.9C1422.45 728.44 1448.08 732.76 1448.08 732.76C1448.08 732.76 1456.96 734.59 1467.63 737.01C1467.28 737.01 1466.92 737.01 1466.56 737.01C1463.62 736.989 1460.77 738.074 1458.59 740.049C1456.4 742.024 1455.04 744.746 1454.76 747.678C1454.48 750.61 1455.32 753.539 1457.1 755.886C1458.87 758.234 1461.47 759.829 1464.37 760.358C1467.26 760.887 1470.25 760.31 1472.75 758.742C1475.24 757.174 1477.05 754.729 1477.83 751.888C1478.61 749.048 1478.29 746.019 1476.95 743.4C1475.6 740.78 1473.32 738.761 1470.56 737.74C1482.56 740.5 1495.85 743.86 1501.25 746.23C1505.27 747.743 1509.39 748.98 1513.58 749.93C1513.79 752.411 1514.78 754.762 1516.42 756.641C1518.05 758.519 1520.24 759.827 1522.67 760.373C1525.1 760.92 1527.64 760.677 1529.92 759.68C1532.21 758.683 1534.11 756.984 1535.36 754.83C1551.69 758.24 1567.42 761.13 1567.42 761.13L1593.69 761.56H1593.87C1590.77 761.581 1587.81 762.828 1585.63 765.029C1583.46 767.229 1582.24 770.203 1582.25 773.299C1582.26 776.395 1583.5 779.361 1585.69 781.547C1587.88 783.732 1590.85 784.959 1593.95 784.959C1597.05 784.959 1600.02 783.732 1602.21 781.547C1604.4 779.361 1605.64 776.395 1605.65 773.299C1605.66 770.203 1604.44 767.229 1602.27 765.029C1600.09 762.828 1597.13 761.581 1594.03 761.56L1633.8 762.21C1633.32 763.828 1633.2 765.53 1633.44 767.201C1633.68 768.871 1634.28 770.47 1635.19 771.888C1636.1 773.307 1637.31 774.512 1638.73 775.421C1640.16 776.33 1641.76 776.922 1643.43 777.157C1645.1 777.392 1646.8 777.263 1648.42 776.781C1650.03 776.298 1651.53 775.473 1652.8 774.361C1654.07 773.249 1655.08 771.876 1655.77 770.337C1656.46 768.797 1656.81 767.127 1656.8 765.44C1656.8 764.475 1656.68 763.514 1656.44 762.58L1691.52 763.15L1698.52 755.45C1698.91 754.701 1699.15 753.881 1699.21 753.04C1699.42 750.51 1698.11 746.67 1689.15 745.04C1688.49 744.92 1670.21 745.21 1654.06 745.48V739.14C1654.06 739.14 1653.61 735.65 1653.33 731.54C1653.25 730.33 1653.18 729.07 1653.15 727.83C1654.06 728.456 1655.08 728.919 1656.15 729.2C1662.84 730.27 1671.99 710.75 1671.99 710.75C1671.99 710.75 1671.99 699.75 1674.1 690.88C1676.21 682.01 1680.1 652.2 1680.1 652.2L1688.56 616.37C1688.56 616.37 1692.06 543.27 1690.3 540.43C1688.54 537.59 1692.42 532.62 1692.42 532.62C1692.42 532.62 1695.23 517.01 1691.01 511.69C1686.79 506.37 1693.47 501.04 1693.47 501.04C1693.47 501.04 1695.23 482.59 1690.3 475.5C1685.37 468.41 1692.61 463.44 1692.61 463.44L1694.37 434.7C1701.76 427.25 1708.44 382.9 1708.8 373.32C1708.89 367.927 1710.09 362.611 1712.32 357.7C1712.32 357.7 1717.24 350.25 1717.95 345.28C1718.66 340.31 1723.95 330.03 1723.95 330.03L1733.1 295.96C1736.79 282.22 1735.85 272.06 1733.4 264.82C1733.04 263.8 1732.66 262.87 1732.27 261.98ZM1566.96 263.98C1572.59 267.53 1570.83 268.59 1572.59 270.72C1574.35 272.85 1572.94 272.49 1571.53 276.04C1570.12 279.59 1571.18 278.53 1571.88 282.43C1572.58 286.33 1572.24 286.33 1572.24 286.33L1574 286.58L1571.55 303.05C1567.55 305.66 1565.72 310.66 1564.89 315.82C1562.53 312.74 1560.15 309.54 1558.02 306.56C1558.75 304.93 1558.61 302.99 1558.63 301.16C1558.71 295.16 1560.95 289.43 1561.98 283.52C1563.03 277.508 1562.84 271.344 1561.41 265.41C1560.9 263.177 1560.11 261.017 1559.06 258.98C1561.34 260.5 1564.23 262.3 1566.96 264.02V263.98ZM1573.29 611.71C1573.29 611.71 1577.74 608.71 1582.06 605.98C1583.51 616.51 1584.88 627.46 1585.85 637.36C1584.3 633.92 1583.22 631.58 1583.22 631.58C1581.63 629.672 1580.68 627.315 1580.5 624.84C1580.33 620.98 1573.29 611.75 1573.29 611.75V611.71ZM1546.9 246.99C1547.9 247.13 1549.32 248.4 1550.66 249.92C1549.42 248.92 1548.17 247.92 1546.89 246.98L1546.9 246.99ZM1482.49 378.27C1478.43 379.55 1464.67 379.36 1456.49 378.88C1459.55 373.65 1462.59 368.33 1465.29 363.56C1466.88 363.972 1468.5 364.263 1470.14 364.43L1496.93 340.9C1507.01 344.434 1518 344.363 1528.03 340.7L1528.76 341.84C1529.07 342.34 1529.4 342.84 1529.76 343.4L1529.09 342.31C1529.09 342.31 1518.75 348.47 1519.8 351.31C1520.85 354.15 1518.4 361.24 1514.53 368.84C1513.53 370.74 1512.66 372.62 1511.82 374.51C1503.06 375.33 1486.55 376.99 1482.49 378.27ZM1533.32 706.11L1533.17 703.3C1534.87 702.93 1535.99 702.59 1535.99 702.59C1535.64 698.42 1535.05 694.273 1534.23 690.17C1533.17 685.91 1533.72 687.33 1537.84 684.17C1541.96 681.01 1537.84 645.17 1537.84 645.17C1537.84 645.17 1539.84 642.68 1543.01 649.07C1546.18 655.46 1549.36 659.36 1550.42 659.71C1551.48 660.06 1546.19 667.17 1550.42 673.91C1553.05 678.269 1554.83 683.082 1555.69 688.1C1555.69 688.1 1552.88 699.37 1557.1 704.38C1557.67 704.963 1558.35 705.429 1559.1 705.75C1559.1 706.68 1559.1 707.67 1559.1 708.6C1559.1 710.47 1559.1 712.07 1559.01 712.41C1558.97 712.649 1558.87 712.874 1558.71 713.063C1558.56 713.251 1558.36 713.397 1558.13 713.485C1557.91 713.574 1557.66 713.602 1557.42 713.568C1557.18 713.534 1556.95 713.438 1556.76 713.29C1555.67 712.58 1548.76 714.17 1549.23 718.62C1547.6 720.55 1545.74 722.285 1543.71 723.79L1534.12 721.31L1533.32 706.11Z" fill="url(#paint0_linear_334_251)"/>
<path d="M1446.95 338.5C1446.95 338.5 1443.6 365.95 1470.17 368.76L1474.17 349.76L1465.8 338.5L1453.81 334.44L1446.95 338.5Z" fill="#FB7A7A"/>
<path opacity="0.1" d="M1453.81 334.44L1446.95 338.49C1446.95 338.49 1443.6 365.94 1470.17 368.75" fill="black"/>
<path d="M1495.16 183.29C1495.16 183.29 1477.23 184.39 1459.25 187.37C1457.41 187.684 1455.58 188.017 1453.76 188.37C1452.7 188.57 1451.66 188.78 1450.62 189.01C1441.2 190.95 1432.62 193.47 1427.62 196.69C1421.62 200.54 1419.62 190.17 1419.43 175.76C1419.35 170.69 1419.52 165.13 1419.79 159.51C1420.14 153.01 1420.65 146.43 1421.19 140.51C1422.38 127.39 1423.75 117.19 1423.75 117.19C1423.75 117.19 1430.03 117.19 1438.42 116.9L1441.12 116.8C1443.75 116.7 1446.54 116.56 1449.35 116.39C1450.68 116.32 1452.02 116.24 1453.35 116.14C1458.67 115.76 1463.92 115.22 1468.35 114.52C1473.07 113.76 1476.9 112.8 1478.98 111.52C1488.48 105.86 1495.16 183.29 1495.16 183.29Z" fill="#F8BDC5"/>
<path d="M1575.05 284.65L1571.55 307.88C1571.55 307.88 1563.92 317.38 1564.92 322.66C1565.92 327.94 1574.72 561.28 1574.72 561.28C1574.72 561.28 1591.97 659.82 1585.98 672.49C1579.99 685.16 1585.63 714.73 1585.63 714.73L1621.53 709.1L1633.53 278.31L1575.05 284.65Z" fill="#474463"/>
<path opacity="0.1" d="M1575.05 284.65L1571.55 307.88C1571.55 307.88 1563.92 317.38 1564.92 322.66C1565.92 327.94 1574.72 561.28 1574.72 561.28C1574.72 561.28 1591.97 659.82 1585.98 672.49C1579.99 685.16 1585.63 714.73 1585.63 714.73L1621.53 709.1L1633.53 278.31L1575.05 284.65Z" fill="black"/>
<path d="M1654.24 720.71C1653.1 722.6 1653.19 728.16 1653.51 732.89C1653.79 736.96 1654.24 740.42 1654.24 740.42V764.35C1654.24 764.35 1615.88 750.98 1594.76 736.9C1586.05 731.09 1583.57 725.69 1584.05 721.37C1584.75 715.22 1591.45 711.21 1594.76 711.21C1597.92 711.21 1607.9 705.7 1616.08 700.83C1622.51 697.02 1627.85 693.61 1627.85 693.61C1627.85 693.61 1656.35 717.19 1654.24 720.71Z" fill="#575988"/>
<path opacity="0.1" d="M1654.24 720.71C1653.1 722.6 1653.19 728.16 1653.51 732.89C1644.98 728.89 1618.57 703.27 1616.08 700.83C1622.51 697.02 1627.85 693.61 1627.85 693.61C1627.85 693.61 1656.35 717.19 1654.24 720.71Z" fill="black"/>
<path d="M1733.08 300.84L1723.93 334.63C1723.93 334.63 1718.65 344.83 1717.93 349.76C1717.21 354.69 1712.3 362.08 1712.3 362.08C1710.08 366.944 1708.88 372.213 1708.78 377.56C1708.43 387.07 1701.78 431.06 1694.35 438.45L1692.59 466.96C1692.59 466.96 1685.59 471.88 1690.48 478.96C1695.37 486.04 1693.65 504.3 1693.65 504.3C1693.65 504.3 1686.96 509.58 1691.19 514.86C1695.42 520.14 1692.59 535.63 1692.59 535.63C1692.59 535.63 1688.72 540.55 1690.48 543.37C1692.24 546.19 1688.74 618.69 1688.74 618.69L1680.28 654.23C1680.28 654.23 1676.4 683.8 1674.28 692.6C1672.16 701.4 1672.17 712.3 1672.17 712.3C1672.17 712.3 1663.02 731.66 1656.33 730.61C1649.64 729.56 1617.27 697.87 1617.27 697.87L1621.84 590.87C1621.84 590.87 1625.71 545.47 1623.25 536.67C1620.79 527.87 1619.03 483.88 1619.03 483.88L1614.1 414.55L1564.88 337.12C1564.88 337.12 1561.31 314.59 1571.51 307.91L1573.36 295.74L1575.03 284.68L1633.46 278.34L1722.85 255.12C1722.85 255.12 1729.74 259.37 1733.35 269.98C1735.82 277.13 1736.77 287.21 1733.08 300.84Z" fill="#474463"/>
<path d="M1577.55 336.44C1577.55 336.44 1536.02 387.44 1537.78 373.19C1538.88 364.24 1533.2 353.31 1528.78 346.4C1526.17 342.29 1524.01 339.6 1524.01 339.6C1524.01 339.6 1549.35 293.15 1550.76 299.48C1551.21 301.48 1554.14 306.07 1557.91 311.31C1565.86 322.29 1577.55 336.44 1577.55 336.44Z" fill="#FFC1C8"/>
<path opacity="0.3" d="M1654.24 759.37V764.37C1654.24 764.37 1615.88 751 1594.76 736.92C1586.05 731.11 1583.57 725.71 1584.05 721.39C1595.71 727.29 1617.4 738.54 1623.97 743.61C1629.55 747.91 1643.97 754.72 1654.24 759.37Z" fill="white"/>
<path d="M1645.21 778.36C1651.69 778.36 1656.94 773.109 1656.94 766.63C1656.94 760.152 1651.69 754.9 1645.21 754.9C1638.73 754.9 1633.48 760.152 1633.48 766.63C1633.48 773.109 1638.73 778.36 1645.21 778.36Z" fill="#474463"/>
<path d="M1525.39 761.89C1531.87 761.89 1537.12 756.638 1537.12 750.16C1537.12 743.681 1531.87 738.43 1525.39 738.43C1518.91 738.43 1513.66 743.681 1513.66 750.16C1513.66 756.638 1518.91 761.89 1525.39 761.89Z" fill="#474463"/>
<path d="M1699.39 754.33C1699.32 755.165 1699.09 755.978 1698.7 756.72L1691.7 764.35L1593.86 762.78L1567.55 762.35C1567.55 762.35 1512.17 752.27 1501.38 747.57C1490.59 742.87 1448.17 734.27 1448.17 734.27C1448.17 734.27 1422.55 729.97 1418.79 717.54C1417.52 713.33 1418.16 710.32 1419.55 708.18C1422.28 703.99 1427.94 703.11 1427.94 703.11C1439.5 699.695 1451.86 700.151 1463.14 704.41L1627.14 746.6L1629.68 747.25C1629.68 747.25 1688.14 746.16 1689.32 746.37C1698.29 748.01 1699.6 751.82 1699.39 754.33Z" fill="#FB7A7A"/>
<path opacity="0.3" d="M1699.39 754.33C1689.55 753.05 1672.39 751.16 1667.97 752.98C1667.97 752.98 1636.76 749.12 1593.82 762.78L1567.55 762.35C1567.55 762.35 1512.17 752.27 1501.38 747.57C1490.59 742.87 1448.17 734.27 1448.17 734.27C1448.17 734.27 1422.55 729.97 1418.79 717.54C1417.52 713.33 1418.16 710.32 1419.55 708.18C1421.3 713.28 1424.67 720.67 1430.05 722.74C1438.5 725.99 1473.23 732.61 1473.23 732.61L1541.97 749.44C1541.97 749.44 1581.66 758.05 1597.11 752.44C1603.44 750.16 1615.32 748.13 1627.11 746.54L1629.65 747.19C1629.65 747.19 1688.11 746.1 1689.29 746.31C1698.29 748.01 1699.6 751.82 1699.39 754.33Z" fill="white"/>
<path d="M1604.46 741.66C1604.38 743.134 1604.19 744.601 1603.91 746.05C1603.91 746.05 1565.03 747.44 1544.79 744.44C1539.2 743.61 1536.04 741.82 1534.47 739.68C1533.77 738.669 1533.33 737.497 1533.21 736.273C1533.08 735.05 1533.26 733.814 1533.74 732.68C1533.96 732.028 1534.25 731.398 1534.59 730.8C1536.1 728.16 1538.42 726.29 1539.69 726.54C1543.21 727.25 1549.25 720.03 1549.25 720.03C1548.77 715.62 1555.7 714.03 1556.78 714.75C1556.97 714.898 1557.2 714.994 1557.44 715.028C1557.68 715.063 1557.93 715.034 1558.15 714.946C1558.38 714.857 1558.58 714.712 1558.73 714.523C1558.89 714.334 1558.99 714.109 1559.03 713.87C1559.1 713.54 1559.12 711.95 1559.12 710.09C1559.12 706.99 1559.03 703.09 1559.03 703.09L1598.11 707.84L1599.66 715.31C1601.08 721.97 1603.06 731.12 1603.91 734.25C1604.5 736.673 1604.69 739.176 1604.46 741.66Z" fill="#474463"/>
<path opacity="0.1" d="M1604.46 741.66C1604.38 743.134 1604.19 744.601 1603.91 746.05C1603.91 746.05 1565.03 747.44 1544.79 744.44C1539.2 743.61 1536.04 741.82 1534.47 739.68C1539.66 739.37 1546.41 739.2 1550.59 740.22C1556.55 741.7 1592.2 741.7 1604.46 741.66Z" fill="black"/>
<path d="M1534.55 730.78C1534.59 731.141 1534.54 731.507 1534.39 731.838C1534.24 732.169 1534 732.454 1533.7 732.66C1528.78 736.46 1505.17 732.33 1505.17 732.33C1505.17 732.33 1456.93 729.33 1449.72 724.41C1449.07 723.982 1448.53 723.411 1448.13 722.74C1445.13 717.32 1455.99 708.22 1456.93 708.22C1457.87 708.22 1470.84 706.45 1471.71 706.28C1477.71 705.07 1483.71 701.35 1484.71 702.41C1485.71 703.47 1490.71 701 1493.15 700.65C1494.04 700.52 1494.45 699.26 1494.6 697.65C1494.74 695.472 1494.67 693.284 1494.38 691.12L1532.91 701.49L1533.25 707.63L1534.36 728.07L1534.5 730.58C1534.52 730.645 1534.54 730.712 1534.55 730.78Z" fill="#474463"/>
<path opacity="0.1" d="M1505.21 732.33C1505.21 732.33 1456.97 729.33 1449.76 724.41C1449.11 723.983 1448.57 723.411 1448.17 722.74C1457.94 723.54 1474.23 724.89 1477.17 725.64C1481.4 726.64 1505.17 728.1 1505.17 728.1H1534.4L1534.54 730.61C1535.81 737.69 1505.21 732.33 1505.21 732.33Z" fill="black"/>
<path d="M1466.65 761.89C1473.13 761.89 1478.38 756.638 1478.38 750.16C1478.38 743.681 1473.13 738.43 1466.65 738.43C1460.17 738.43 1454.92 743.681 1454.92 750.16C1454.92 756.638 1460.17 761.89 1466.65 761.89Z" fill="#474463"/>
<path d="M1594.05 786.24C1600.53 786.24 1605.78 780.989 1605.78 774.51C1605.78 768.032 1600.53 762.78 1594.05 762.78C1587.57 762.78 1582.32 768.032 1582.32 774.51C1582.32 780.989 1587.57 786.24 1594.05 786.24Z" fill="#474463"/>
<path d="M1474.75 351.17C1474.75 351.17 1472.53 355.17 1469.19 361.11C1461.19 375.23 1446.8 400.26 1440.61 408.18C1431.81 419.44 1432.52 408.89 1423.01 385.31C1415.95 367.77 1437.68 347.7 1449.3 338.58C1453.3 335.41 1456.1 333.58 1456.1 333.58L1474.75 351.17Z" fill="#F8BDC5"/>
<path d="M1517.33 378.27C1517.33 378.27 1488.12 380.73 1482.49 382.49C1476.86 384.25 1452.58 383.19 1450.49 382.49C1448.4 381.79 1406.84 391.29 1425.85 400.79C1444.86 410.29 1456.85 400.79 1456.85 400.79C1456.85 400.79 1481.49 399.38 1487.85 403.26C1494.21 407.14 1517.41 405.02 1517.41 405.02L1517.33 378.27Z" fill="#FFC1C8"/>
<path opacity="0.1" d="M1456.65 162.88C1460.25 172.09 1458 180.11 1453.76 188.34C1443.14 190.34 1433.15 193.09 1427.59 196.66C1411.75 206.87 1423.72 117.12 1423.72 117.12C1423.72 117.12 1431.38 117.12 1441.09 116.73C1438.15 130.15 1449.29 144.08 1456.65 162.88Z" fill="black"/>
<path d="M1457.55 160.88C1457.53 175.621 1452.09 189.839 1442.25 200.822C1432.42 211.805 1418.89 218.785 1404.24 220.429C1389.6 222.074 1374.85 218.268 1362.83 209.739C1350.81 201.209 1342.35 188.552 1339.06 174.183C1335.77 159.813 1337.89 144.737 1345.01 131.829C1352.13 118.921 1363.75 109.085 1377.66 104.198C1391.56 99.3102 1406.78 99.7133 1420.41 105.33C1434.04 110.947 1445.12 121.384 1451.55 134.65C1455.51 142.827 1457.56 151.795 1457.55 160.88V160.88Z" fill="#F8BDC5"/>
<path opacity="0.1" d="M1733.37 269.95C1731.47 272.714 1728.62 274.688 1725.37 275.5C1711.64 279.37 1614.85 302.6 1608.52 301.19C1602.93 299.95 1578.94 296.5 1573.41 295.71L1575.08 284.65L1633.51 278.31L1722.9 255.09C1722.9 255.09 1729.76 259.34 1733.37 269.95Z" fill="black"/>
<path opacity="0.1" d="M1495.16 183.29C1483.72 183.976 1472.32 185.244 1461.01 187.09C1461.17 186.575 1461.15 186.021 1460.95 185.52L1484.35 182.63C1484.35 182.63 1480.93 127.63 1468.35 114.45C1473.07 113.69 1476.9 112.73 1478.98 111.45C1488.48 105.86 1495.16 183.29 1495.16 183.29Z" fill="black"/>
<path d="M1464.55 100.69C1464.55 100.69 1485.32 98.8198 1488.13 95.2998C1490.94 91.7798 1511.01 90.7298 1511.01 90.7298C1511.01 90.7298 1520.86 88.9698 1523.01 86.4998C1525.16 84.0298 1578.61 80.8698 1583.89 83.6898C1589.17 86.5098 1594.1 88.2598 1597.27 88.6198C1600.44 88.9798 1625.07 106.56 1627.53 106.56C1629.99 106.56 1697.53 170.27 1697.53 170.27C1697.53 170.27 1704.53 186.46 1707.39 187.16C1710.25 187.86 1735.55 251.92 1735.55 251.92C1735.55 251.92 1739.07 267.4 1725.35 271.28C1711.63 275.16 1614.83 298.38 1608.5 296.97C1602.17 295.56 1572.25 291.34 1572.25 291.34C1572.25 291.34 1572.6 291.34 1571.9 287.47C1571.2 283.6 1570.14 284.65 1571.54 281.13C1572.94 277.61 1574.36 277.96 1572.6 275.85C1570.84 273.74 1572.6 272.68 1566.97 269.16C1561.34 265.64 1554.97 261.77 1554.65 260.72C1554.33 259.67 1549.37 252.62 1546.91 252.27C1544.45 251.92 1475.46 232.56 1475.46 232.56L1459.27 227.28C1459.27 227.28 1451.53 222 1453.27 218.84C1455.01 215.68 1461 187.09 1461 187.09L1485.75 184.04C1485.75 184.04 1482.06 124.44 1468.2 114.44C1454.34 104.44 1464.55 100.69 1464.55 100.69Z" fill="#FB7A7A"/>
<path opacity="0.1" d="M1474.75 351.17C1474.75 351.17 1472.53 355.17 1469.19 361.11C1468.67 342.75 1455.83 339.19 1449.3 338.58C1453.3 335.41 1456.1 333.58 1456.1 333.58L1474.75 351.17Z" fill="black"/>
<path d="M1457.55 217.78L1459.25 227.28C1459.25 227.28 1465.94 235.38 1465.94 237.84C1465.94 240.3 1473.68 247.34 1475.8 251.21C1477.92 255.08 1485.3 255.79 1482.48 262.48C1479.66 269.17 1463.48 320.2 1463.48 320.2L1446.94 338.5C1446.94 338.5 1474.39 336.03 1470.16 368.76L1505.71 337.76L1533.55 287.11C1533.55 287.11 1506.45 235.73 1505.4 231.51C1504.35 227.29 1457.55 217.78 1457.55 217.78Z" fill="#FB7A7A"/>
<path opacity="0.1" d="M1539.86 235.38C1539.86 235.38 1562.38 219.54 1562.38 217.78C1562.38 216.02 1539.86 235.38 1539.86 235.38Z" fill="black"/>
<path opacity="0.1" d="M1577.55 255.09C1577.55 255.09 1589.55 252.271 1590.55 245.941C1591.55 239.611 1577.55 255.09 1577.55 255.09Z" fill="black"/>
<path opacity="0.1" d="M1587.37 271.28C1587.37 271.28 1604.27 262.91 1603.56 261.46C1602.85 260.01 1587.37 271.28 1587.37 271.28Z" fill="black"/>
<path opacity="0.1" d="M1677.82 217.67C1677.82 217.67 1670.82 222.24 1672.9 226.52C1674.98 230.8 1677.82 217.67 1677.82 217.67Z" fill="black"/>
<path opacity="0.1" d="M1698.55 219.54C1698.55 219.54 1678.61 238.54 1683.12 238.9C1687.63 239.26 1698.55 219.54 1698.55 219.54Z" fill="black"/>
<path opacity="0.1" d="M1653.19 514.12C1653.19 514.12 1678.88 519.05 1679.58 520.81C1680.28 522.57 1653.19 514.12 1653.19 514.12Z" fill="black"/>
<path opacity="0.1" d="M1662.34 531.01C1662.34 531.01 1676.06 539.46 1676.41 541.92C1676.76 544.38 1662.34 531.01 1662.34 531.01Z" fill="black"/>
<path opacity="0.1" d="M1659.17 550.02C1659.17 550.02 1661.28 559.52 1664.8 560.93C1668.32 562.34 1659.17 550.02 1659.17 550.02Z" fill="black"/>
<path opacity="0.1" d="M1451.61 134.34C1451.61 134.44 1451.61 134.55 1451.56 134.65C1451.08 137.78 1449.8 141.17 1446.86 142.21C1445.08 142.709 1443.19 142.535 1441.53 141.72C1436.53 139.53 1432.08 134.27 1426.74 135.54C1424.2 136.14 1422.42 138.07 1421.16 140.44C1420.29 142.146 1419.62 143.948 1419.16 145.81C1418.16 149.73 1417.36 153.99 1418.89 157.72C1419.14 158.33 1419.44 158.918 1419.79 159.48C1421.21 161.75 1423.21 163.68 1424.61 165.97C1426.35 168.83 1426.8 173.12 1424.09 175.08C1423.41 175.527 1422.64 175.817 1421.83 175.929C1421.03 176.042 1420.21 175.974 1419.43 175.73C1417.44 175.106 1415.54 174.261 1413.74 173.21C1410.2 171.36 1405.74 170.21 1402.38 172.35C1401.22 173.07 1400.29 174.11 1399.18 174.87C1396.87 176.299 1394.14 176.869 1391.45 176.48C1385.09 175.83 1382.71 171.8 1377.85 168.68C1374.29 166.38 1366.85 165.4 1364.73 170.1C1363.37 173.1 1365.39 176.88 1364.06 179.94C1362.73 183 1358.5 183.94 1356.54 186.78C1353.96 190.52 1356.36 195.93 1354.47 200.08C1354.18 200.723 1353.79 201.316 1353.32 201.84C1342.72 190.421 1336.97 175.338 1337.26 159.763C1337.56 144.187 1343.88 129.333 1354.9 118.324C1365.92 107.315 1380.79 101.009 1396.36 100.732C1411.94 100.455 1427.01 106.229 1438.42 116.84L1441.12 116.74C1443.75 116.64 1446.54 116.5 1449.35 116.33C1450.01 117.737 1450.53 119.208 1450.9 120.72C1451.99 125.175 1452.23 129.795 1451.61 134.34V134.34Z" fill="black"/>
<path d="M1363.3 168.7C1361.93 171.7 1363.95 175.48 1362.63 178.53C1361.31 181.58 1357.05 182.53 1355.11 185.37C1352.52 189.12 1354.92 194.53 1353.04 198.67C1350.88 203.4 1344.36 204.14 1339.36 202.76C1335.09 201.54 1331.17 199.321 1327.92 196.287C1324.68 193.253 1322.2 189.49 1320.7 185.31C1317.31 175.66 1319.5 165.04 1318.62 154.85C1318.25 150.483 1317.3 146.184 1315.82 142.06C1314.37 138.06 1312.39 134.12 1311.92 129.87C1311.58 126.264 1312.34 122.64 1314.08 119.465C1315.82 116.291 1318.48 113.711 1321.7 112.06C1325.82 110.06 1330.89 109.49 1333.89 106.06C1336.19 103.4 1336.68 99.6899 1337.75 96.3399C1340.64 87.3399 1349.27 79.9999 1358.75 80.0899C1366.33 80.1499 1373.75 84.6199 1381.16 82.8599C1385.35 81.8599 1389.16 78.8599 1393.48 79.2899C1395.55 79.6153 1397.53 80.3533 1399.31 81.4599C1410.81 87.6723 1421.76 94.8656 1432.02 102.96C1434.14 104.789 1436.47 106.369 1438.95 107.67C1440.55 108.293 1442.11 109.011 1443.62 109.82C1446.85 111.82 1448.54 115.63 1449.46 119.33C1450.56 123.782 1450.82 128.404 1450.2 132.95C1449.76 136.16 1448.5 139.76 1445.45 140.83C1443.67 141.327 1441.77 141.145 1440.11 140.32C1435.11 138.15 1430.67 132.89 1425.33 134.15C1420.97 135.15 1418.87 140.09 1417.73 144.42C1416.73 148.34 1415.91 152.6 1417.46 156.34C1418.74 159.44 1421.46 161.71 1423.17 164.58C1424.88 167.45 1425.37 171.74 1422.65 173.69C1419.65 175.86 1415.58 173.55 1412.29 171.83C1408.77 169.98 1404.29 168.83 1400.94 170.96C1399.79 171.68 1398.86 172.72 1397.74 173.49C1395.43 174.905 1392.7 175.471 1390.02 175.09C1383.65 174.44 1381.27 170.41 1376.42 167.29C1372.85 164.97 1365.43 163.99 1363.3 168.7Z" fill="#474463"/>
<path opacity="0.1" d="M1557.92 311.26C1557.65 312.76 1555.59 312.93 1555.17 314.39C1551.17 328.5 1542.37 341.19 1528.79 346.39C1526.18 342.28 1524.02 339.59 1524.02 339.59C1524.02 339.59 1549.36 293.14 1550.77 299.47C1551.22 301.44 1554.15 306.02 1557.92 311.26Z" fill="black"/>
<path d="M1558.67 301.54C1558.67 310.73 1555.95 319.713 1550.84 327.355C1545.74 334.996 1538.49 340.953 1530 344.471C1521.51 347.989 1512.17 348.91 1503.15 347.119C1494.14 345.327 1485.86 340.903 1479.36 334.406C1472.86 327.909 1468.44 319.63 1466.64 310.618C1464.85 301.605 1465.77 292.263 1469.29 283.773C1472.8 275.283 1478.76 268.026 1486.4 262.921C1494.04 257.815 1503.02 255.09 1512.21 255.09C1518.32 255.068 1524.37 256.254 1530.01 258.58C1535.66 260.906 1540.79 264.327 1545.11 268.644C1549.43 272.962 1552.85 278.091 1555.18 283.737C1557.5 289.383 1558.69 295.433 1558.67 301.54Z" fill="#FFC1C8"/>
<path opacity="0.1" d="M1532.99 701.52L1533.33 707.66C1529.26 708.56 1521.52 709.74 1517.01 706.98C1511.18 703.41 1502.57 702.54 1494.68 697.68C1494.82 695.502 1494.75 693.315 1494.46 691.15L1532.99 701.52Z" fill="black"/>
<path opacity="0.1" d="M1599.66 715.33C1599.39 716.7 1599.14 717.54 1599.14 717.54C1599.14 717.54 1568.09 714.36 1559.14 710.07C1559.14 706.97 1559.05 703.07 1559.05 703.07L1598.13 707.82L1599.66 715.33Z" fill="black"/>
<path d="M1592.65 575.71C1590.54 581.34 1589.48 582.4 1591.6 585.21C1593.72 588.02 1592.65 602.81 1589.29 604.21C1585.93 605.61 1573.29 614.06 1573.29 614.06C1573.29 614.06 1580.29 623.21 1580.5 627.06C1580.68 629.52 1581.64 631.86 1583.22 633.75C1583.22 633.75 1594.06 656.98 1596.22 664.37C1598.38 671.76 1600.36 683.37 1600.36 683.37C1600.36 683.37 1596.57 693.93 1599.19 699.92C1601.81 705.91 1599.19 714.7 1599.19 714.7C1599.19 714.7 1561.38 710.83 1557.19 705.86C1553 700.89 1555.79 689.71 1555.79 689.71C1554.93 684.728 1553.14 679.952 1550.51 675.63C1546.28 668.94 1551.51 661.91 1550.51 661.55C1549.51 661.19 1546.28 657.33 1543.1 651C1539.92 644.67 1537.94 647.12 1537.94 647.12C1537.94 647.12 1542.06 682.67 1537.94 685.84C1533.82 689.01 1533.26 687.6 1534.32 691.84C1535.14 695.91 1535.73 700.023 1536.08 704.16C1536.08 704.16 1523.41 708.03 1517.08 704.16C1510.75 700.29 1501.22 699.58 1492.85 693.6C1484.48 687.62 1496.64 677.41 1498.75 676C1500.86 674.59 1498.05 654.18 1498.05 654.18L1495.23 634.12C1495.23 634.12 1504.73 636.23 1501.61 628.49C1498.49 620.75 1494.88 594 1493.12 589.78C1491.36 585.56 1499.12 579.92 1498.05 577.11C1496.98 574.3 1502.62 558.11 1502.62 558.11C1502.62 558.11 1502.98 544.74 1506.49 542.23C1507.83 541.29 1508.7 538.37 1509.28 535.14C1509.9 531.328 1510.26 527.48 1510.37 523.62C1510.37 523.62 1590.96 517.99 1603.98 525.73C1609.84 529.21 1609.43 535.62 1606.98 542.11C1603.98 550.03 1597.82 558.11 1596.27 561.04C1593.36 566.44 1594.76 570.08 1592.65 575.71Z" fill="#575988"/>
<path opacity="0.1" d="M1606.88 542.11C1596.88 544.92 1583.56 549.05 1581.39 551.42C1577.87 555.3 1565.9 529.6 1565.9 529.6C1565.9 529.6 1566.61 548.92 1550.77 540.84C1537.06 533.84 1514.93 534.76 1509.21 535.14C1509.83 531.328 1510.19 527.48 1510.3 523.62C1510.3 523.62 1590.89 517.99 1603.91 525.73C1609.77 529.21 1609.36 535.62 1606.88 542.11Z" fill="black"/>
<path d="M1565.9 329.35C1565.9 329.35 1572.9 320.9 1574.35 324.07C1575.8 327.24 1584.06 333.57 1584.06 333.57C1584.06 333.57 1586.43 340.96 1590.6 342.02C1594.77 343.08 1626.09 385.31 1626.09 385.31L1614.82 408.18L1605.67 463.79C1605.67 463.79 1606.07 472.59 1603.58 475.79C1601.09 478.99 1591.58 478.25 1595.99 482.12C1600.4 485.99 1606.73 489.51 1610.25 507.12C1613.77 524.73 1617.99 534.92 1617.99 534.92C1617.99 534.92 1584.91 543.37 1581.39 547.24C1577.87 551.11 1565.9 525.42 1565.9 525.42C1565.9 525.42 1566.61 544.73 1550.77 536.66C1534.93 528.59 1507.83 531.05 1507.83 531.05V510.25C1507.83 510.25 1513.11 502.15 1510.3 496.52C1507.49 490.89 1512.22 480.33 1512.22 480.33C1512.22 480.33 1510.65 469.42 1507.83 463.09C1505.01 456.76 1506.07 426.84 1506.07 426.84C1506.07 426.84 1503.93 407.48 1505.88 397.62C1507.53 389.074 1510.46 380.823 1514.55 373.14C1518.42 365.6 1520.87 358.56 1519.82 355.74C1518.77 352.92 1529.11 346.82 1529.11 346.82L1534.84 356.09L1536.3 361.63C1536.3 361.63 1566.61 339.91 1565.9 329.35Z" fill="#DCE6F2"/>
<path d="M1616.55 378.27C1616.55 378.27 1636.26 397.62 1638.37 400.79C1640.48 403.96 1647.55 420.44 1638.4 425.44C1629.25 430.44 1593.4 438.15 1589.84 435.49C1586.28 432.83 1564.84 438.49 1564.84 438.49C1564.84 438.49 1528.98 447.29 1536.72 432.86C1544.46 418.43 1562.77 420.86 1562.77 420.86C1562.77 420.86 1592.35 420.81 1595.51 417.86C1598.67 414.91 1622.51 408.58 1617.11 395.54C1611.71 382.5 1616.55 378.27 1616.55 378.27Z" fill="#FFC1C8"/>
<path opacity="0.1" d="M1558.67 464.85C1558.67 464.85 1512.76 504.62 1517.33 504.62C1521.9 504.62 1558.67 464.85 1558.67 464.85Z" fill="black"/>
<path opacity="0.1" d="M1589.29 481.04C1589.29 481.04 1574.7 484.55 1577.52 486.67C1580.34 488.79 1589.29 481.04 1589.29 481.04Z" fill="black"/>
<path opacity="0.1" d="M1537.84 384.6C1537.84 384.6 1556.05 386.23 1552.84 391.93C1549.63 397.63 1537.84 384.6 1537.84 384.6Z" fill="black"/>
<path opacity="0.1" d="M1526.49 555.53C1526.49 555.53 1524.02 562.69 1526.49 566.53C1528.96 570.37 1526.49 579.53 1526.49 579.53V611.53C1526.49 611.53 1526.15 634.76 1534.58 642.85L1526.49 555.53Z" fill="black"/>
<path opacity="0.1" d="M1502.38 655.25C1502.38 655.25 1507.3 662.46 1508.01 665.1C1508.72 667.74 1502.38 655.25 1502.38 655.25Z" fill="black"/>
<path opacity="0.1" d="M1503.61 640.82C1503.61 640.82 1515.05 638.71 1516.81 639.94C1518.57 641.17 1503.61 640.82 1503.61 640.82Z" fill="black"/>
<path opacity="0.1" d="M1500.27 683.93C1500.27 683.93 1496.92 684.28 1503.61 687.93C1510.3 691.58 1523.32 696.2 1523.49 694.62C1523.66 693.04 1500.27 683.93 1500.27 683.93Z" fill="black"/>
<path opacity="0.1" d="M1549.24 648.91C1550.42 648.91 1565.15 648.03 1564.3 650.32C1563.45 652.61 1549.24 648.91 1549.24 648.91Z" fill="black"/>
<path opacity="0.1" d="M1569.25 628.32C1569.25 628.32 1572.59 622.52 1573.82 624.98C1575.05 627.44 1569.25 628.32 1569.25 628.32Z" fill="black"/>
<path opacity="0.1" d="M1558.67 301.54C1558.68 305.859 1558.08 310.157 1556.89 314.31C1554.95 316.07 1551.6 316.09 1549.21 314.78C1546.41 313.24 1544.58 310.44 1542.76 307.78C1540.94 305.12 1538.87 302.46 1535.89 301.32C1532.12 299.9 1527.82 301.32 1524.54 303.68C1521.26 306.04 1518.64 309.16 1515.54 311.68C1512.44 314.2 1508.49 316.24 1504.54 315.62C1501.99 315.23 1499.73 313.79 1497.54 312.4C1494.54 310.51 1491.32 307.57 1488.03 306.3C1484.74 305.03 1482.03 307.3 1478.9 307.3C1476.41 308.2 1473.7 310.25 1474.2 312.84C1474.47 313.801 1474.9 314.708 1475.48 315.52C1476.48 317.5 1476.88 319.733 1476.62 321.938C1476.36 324.142 1475.45 326.221 1474.01 327.91C1469.87 321.918 1467.19 315.034 1466.19 307.816C1465.2 300.598 1465.92 293.247 1468.29 286.357C1470.66 279.468 1474.62 273.233 1479.85 268.156C1485.07 263.079 1491.42 259.302 1498.38 257.131C1505.33 254.96 1512.7 254.455 1519.89 255.657C1527.07 256.86 1533.88 259.735 1539.75 264.052C1545.62 268.369 1550.39 274.006 1553.68 280.508C1556.97 287.01 1558.68 294.194 1558.68 301.48L1558.67 301.54Z" fill="black"/>
<path d="M1478.89 305.95C1476.4 306.85 1473.69 308.9 1474.18 311.5C1474.46 312.456 1474.89 313.359 1475.47 314.17C1478.39 319.38 1475.92 326.86 1470.47 329.28C1469.62 329.725 1468.64 329.88 1467.69 329.72C1466.94 329.486 1466.25 329.075 1465.69 328.52C1462.76 325.901 1460.74 322.416 1459.92 318.57C1459.06 314.57 1459.59 310.33 1459.15 306.22C1458.71 302.11 1457.3 298.06 1456.81 293.92C1456.46 291.874 1456.68 289.772 1457.44 287.84C1458.1 286.566 1458.95 285.399 1459.96 284.38C1462.77 281.25 1465.7 278.05 1467.11 274.08C1469.34 267.76 1467.72 259.71 1472.6 255.08C1474.86 252.96 1478.02 252.17 1480.82 250.83C1483.46 249.431 1485.98 247.829 1488.37 246.04C1497.42 239.82 1508.42 235.04 1519.18 237.24C1523.48 238.281 1527.6 239.967 1531.39 242.24C1538.44 246.125 1545.13 250.623 1551.39 255.68C1554.1 257.683 1556.46 260.111 1558.39 262.87C1559.83 265.233 1560.86 267.818 1561.45 270.52C1562.89 276.416 1563.08 282.545 1562.03 288.52C1561.03 294.38 1558.76 300.07 1558.67 306.02C1558.67 308.02 1558.83 310.18 1557.8 311.9C1556.15 314.64 1552.06 314.9 1549.26 313.38C1546.46 311.86 1544.63 309.04 1542.82 306.38C1541.01 303.72 1538.93 301.06 1535.95 299.93C1532.18 298.5 1527.88 299.93 1524.6 302.28C1521.32 304.63 1518.71 307.76 1515.6 310.28C1512.49 312.8 1508.6 314.84 1504.6 314.22C1502.05 313.83 1499.79 312.4 1497.6 311.01C1494.6 309.11 1491.38 306.17 1488.1 304.91C1484.82 303.65 1482.01 305.95 1478.89 305.95Z" fill="#794F6A"/>
<path d="M1585.61 378.27C1585.61 378.27 1533.88 426.13 1544.43 450.06C1554.98 473.99 1601.43 431.76 1601.43 431.76L1617.99 393.44L1585.61 378.27Z" fill="#F8BDC5"/>
<path opacity="0.1" d="M1470.45 326.44C1469.6 326.885 1468.63 327.04 1467.68 326.88C1466.92 326.649 1466.24 326.233 1465.68 325.67C1462.75 323.053 1460.72 319.572 1459.9 315.73C1459.05 311.68 1459.58 307.48 1459.14 303.37C1458.7 299.26 1457.28 295.22 1456.8 291.07C1456.8 290.87 1456.8 290.66 1456.75 290.45C1456.64 291.595 1456.66 292.749 1456.8 293.89C1457.28 298.03 1458.7 302.03 1459.14 306.19C1459.58 310.35 1459.05 314.5 1459.9 318.54C1460.72 322.386 1462.75 325.871 1465.68 328.49C1466.24 329.047 1466.93 329.458 1467.68 329.69C1468.63 329.85 1469.6 329.695 1470.45 329.25C1474.75 327.34 1477.18 322.31 1476.61 317.71C1476.4 319.566 1475.73 321.34 1474.65 322.866C1473.57 324.392 1472.13 325.622 1470.45 326.44V326.44Z" fill="black"/>
<path opacity="0.1" d="M1561.96 285.69C1560.96 291.55 1558.69 297.24 1558.61 303.19C1558.61 305.19 1558.77 307.35 1557.73 309.07C1556.09 311.81 1552 312.07 1549.2 310.55C1546.4 309.03 1544.57 306.22 1542.75 303.55C1540.93 300.88 1538.87 298.23 1535.88 297.1C1532.12 295.68 1527.82 297.1 1524.54 299.46C1521.26 301.82 1518.64 304.93 1515.54 307.46C1512.44 309.99 1508.49 312.02 1504.54 311.41C1501.99 311.01 1499.73 309.58 1497.54 308.19C1494.54 306.29 1491.32 303.36 1488.04 302.09C1484.76 300.82 1482.04 303.09 1478.91 303.09C1476.42 304 1473.71 306.04 1474.19 308.65C1474.25 308.932 1474.34 309.207 1474.46 309.47C1475.44 307.764 1477.03 306.492 1478.91 305.91C1482.03 305.91 1484.79 303.67 1488.04 304.91C1491.29 306.15 1494.57 309.11 1497.54 311.01C1499.71 312.4 1501.97 313.83 1504.54 314.22C1508.54 314.84 1512.46 312.83 1515.54 310.28C1518.62 307.73 1521.27 304.58 1524.54 302.28C1527.81 299.98 1532.12 298.5 1535.88 299.93C1538.88 301.06 1540.94 303.75 1542.75 306.38C1544.56 309.01 1546.4 311.8 1549.2 313.38C1552 314.96 1556.09 314.64 1557.73 311.9C1558.73 310.18 1558.58 308.03 1558.61 306.02C1558.69 300.07 1560.93 294.38 1561.96 288.52C1562.49 285.511 1562.7 282.454 1562.6 279.4C1562.54 281.51 1562.32 283.612 1561.96 285.69V285.69Z" fill="black"/>
<path opacity="0.1" d="M1523.67 134.72C1523.67 134.72 1504.67 169.21 1530.67 186.81C1556.67 204.41 1559.18 202.65 1559.18 202.65C1559.18 202.65 1558.82 206.87 1559.18 207.93C1559.54 208.99 1566.18 211.44 1566.18 211.44C1566.18 211.44 1574.27 224.44 1585.88 230.1C1597.49 235.76 1599.61 249.1 1599.61 249.1C1599.61 249.1 1599.61 253.68 1605.61 257.9C1611.61 262.12 1616.23 274.44 1616.23 274.44V285.71C1616.23 287.47 1618.34 292.71 1613.77 293.27C1609.2 293.83 1613.06 304.36 1613.06 304.36C1613.06 304.36 1608.14 310.36 1609.19 313.16C1610.24 315.96 1607.08 321.6 1607.08 321.6C1607.08 321.6 1603.21 327.23 1603.56 328.29C1603.91 329.35 1599.34 333.22 1600.39 335.68C1601.44 338.14 1595.12 341.31 1596.17 344.13C1597.22 346.95 1591.67 348.35 1591.67 348.35L1576.46 383.55C1576.46 383.55 1608.46 390.55 1616.72 408.18L1657.06 334.27C1657.06 334.27 1679.58 279.02 1680.29 275.5C1681 271.98 1675.36 259.31 1675.36 259.31L1647.91 209.31L1606.73 151.24C1606.73 151.24 1574 81.5804 1523.67 134.72Z" fill="black"/>
<path opacity="0.1" d="M1564.3 149.27C1564.3 149.27 1514.86 166.62 1540.9 184.22C1566.94 201.82 1569.41 200.05 1569.41 200.05C1569.41 200.05 1569.06 204.28 1569.41 205.33C1569.76 206.38 1576.41 208.85 1576.41 208.85C1576.41 208.85 1584.51 221.85 1596.12 227.51C1607.73 233.17 1609.85 246.51 1609.85 246.51C1609.85 246.51 1609.85 251.09 1615.85 255.31C1621.85 259.53 1626.41 271.85 1626.41 271.85V283.11C1626.41 284.87 1628.52 290.11 1623.94 290.68C1619.36 291.25 1623.24 301.77 1623.24 301.77C1623.24 301.77 1618.31 307.77 1619.37 310.56C1620.43 313.35 1617.26 319.01 1617.26 319.01C1617.26 319.01 1613.39 324.64 1613.74 325.7C1614.09 326.76 1609.51 330.63 1610.57 333.09C1611.63 335.55 1605.29 338.72 1606.35 341.54C1607.41 344.36 1601.84 345.76 1601.84 345.76L1586.64 380.95C1586.64 380.95 1613 382.311 1621.32 399.951L1667.23 331.72C1667.23 331.72 1689.76 276.47 1690.46 272.95C1691.16 269.43 1685.55 256.72 1685.55 256.72L1658.1 206.72L1595.48 170.6C1595.48 170.6 1614.63 96.1205 1564.3 149.27Z" fill="black"/>
<path d="M1526.49 134.72C1526.49 134.72 1507.49 169.21 1533.49 186.81C1559.49 204.41 1562 202.65 1562 202.65C1562 202.65 1561.65 206.87 1562 207.93C1562.35 208.99 1569 211.44 1569 211.44C1569 211.44 1577.1 224.44 1588.71 230.1C1600.32 235.76 1602.44 249.1 1602.44 249.1C1602.44 249.1 1602.44 253.68 1608.44 257.9C1614.44 262.12 1619.05 274.44 1619.05 274.44V285.71C1619.05 287.47 1621.16 292.71 1616.58 293.27C1612 293.83 1615.88 304.36 1615.88 304.36C1615.88 304.36 1610.95 310.36 1612.01 313.16C1613.07 315.96 1609.9 321.6 1609.9 321.6C1609.9 321.6 1606.03 327.23 1606.38 328.29C1606.73 329.35 1602.15 333.22 1603.21 335.68C1604.27 338.14 1597.93 341.31 1598.99 344.13C1600.05 346.95 1594.48 348.35 1594.48 348.35L1579.28 383.55C1579.28 383.55 1611.22 390.55 1619.53 408.18L1659.87 334.27C1659.87 334.27 1682.4 279.02 1683.1 275.5C1683.8 271.98 1678.17 259.31 1678.17 259.31L1650.72 209.31L1609.55 151.26C1609.55 151.26 1576.81 81.5796 1526.49 134.72Z" fill="#FB7A7A"/>
<path opacity="0.1" d="M1318.62 152.04C1318.25 147.669 1317.31 143.366 1315.82 139.24C1314.37 135.24 1312.39 131.3 1311.92 127.05C1311.92 126.92 1311.92 126.8 1311.92 126.67C1311.82 127.734 1311.82 128.806 1311.92 129.87C1312.39 134.12 1314.37 138.03 1315.82 142.06C1317.31 146.182 1318.25 150.482 1318.62 154.85C1318.76 156.49 1318.82 158.15 1318.84 159.85C1318.87 157.2 1318.84 154.61 1318.62 152.04Z" fill="black"/>
<path opacity="0.1" d="M1353.04 195.86C1350.89 200.58 1344.36 201.33 1339.36 199.94C1335.09 198.717 1331.17 196.498 1327.93 193.467C1324.69 190.435 1322.21 186.676 1320.7 182.5C1319.31 178.203 1318.63 173.707 1318.7 169.19C1318.64 174.7 1318.85 180.14 1320.7 185.31C1322.21 189.488 1324.69 193.248 1327.93 196.281C1331.17 199.315 1335.09 201.535 1339.36 202.76C1344.36 204.14 1350.89 203.4 1353.04 198.67C1353.95 196.67 1353.86 194.35 1353.82 192.07C1353.8 193.372 1353.54 194.658 1353.04 195.86V195.86Z" fill="black"/>
<path opacity="0.1" d="M1450.2 130.12C1449.77 133.32 1448.5 136.92 1445.45 137.99C1443.67 138.486 1441.77 138.308 1440.12 137.49C1435.12 135.31 1430.67 130.05 1425.33 131.32C1420.97 132.32 1418.88 137.25 1417.73 141.59C1416.9 144.332 1416.53 147.196 1416.66 150.06C1416.85 148.146 1417.21 146.252 1417.73 144.4C1418.88 140.07 1420.97 135.17 1425.33 134.13C1430.67 132.87 1435.08 138.13 1440.12 140.3C1441.77 141.125 1443.67 141.307 1445.45 140.81C1448.5 139.74 1449.77 136.14 1450.2 132.93C1450.47 130.885 1450.58 128.821 1450.5 126.76C1450.45 127.88 1450.35 129.01 1450.2 130.12Z" fill="black"/>
<path opacity="0.1" d="M1422.65 170.86C1419.65 173.03 1415.58 170.72 1412.29 168.99C1408.77 167.14 1404.29 165.99 1400.94 168.12C1399.79 168.84 1398.86 169.88 1397.74 170.65C1395.44 172.076 1392.7 172.642 1390.02 172.25C1383.65 171.6 1381.27 167.57 1376.42 164.45C1372.86 162.16 1365.42 161.18 1363.3 165.88C1362.79 167.264 1362.65 168.755 1362.89 170.21C1362.96 169.69 1363.09 169.182 1363.3 168.7C1365.43 163.99 1372.86 164.97 1376.42 167.27C1381.27 170.39 1383.65 174.42 1390.02 175.07C1392.7 175.454 1395.43 174.884 1397.74 173.46C1398.86 172.7 1399.79 171.66 1400.94 170.94C1404.32 168.84 1408.77 169.94 1412.29 171.81C1415.58 173.53 1419.63 175.81 1422.65 173.67C1424.41 172.41 1424.83 170.17 1424.44 167.96C1424.23 169.119 1423.59 170.157 1422.65 170.86V170.86Z" fill="black"/>
<path opacity="0.1" d="M1362.63 175.72C1361.26 178.86 1357.05 179.72 1355.11 182.55C1353.66 184.65 1353.78 187.27 1353.83 189.9C1353.81 188.298 1354.26 186.725 1355.11 185.37C1357.05 182.54 1361.26 181.67 1362.63 178.53C1363.11 177.163 1363.24 175.699 1363.01 174.27C1362.95 174.768 1362.82 175.255 1362.63 175.72V175.72Z" fill="black"/>
</g>
<g clip-path="url(#clip1_334_251)">
<path d="M0.00012207 759.362H1138.72V841H0.00012207V759.362Z" fill="#E6E6E6"/>
<path d="M1.57946 759.431H1139V756.702H1.07045L1.57946 759.431Z" fill="#3F3D56"/>
<path d="M245.632 314.241V555.915H893.086V314.241C893.087 234.039 861.497 156.872 804.785 98.5456C748.074 40.2195 670.534 5.14925 588.049 0.518372C581.868 0.168555 575.638 -0.00420897 569.359 7.78453e-05C565.782 7.78453e-05 562.217 0.0518782 558.68 0.181471C476.54 2.7046 398.488 35.5606 340.454 92.0435C338.705 93.7411 336.983 95.4516 335.261 97.188C277.715 155.642 245.611 233.388 245.632 314.241V314.241Z" fill="#E6E6E6"/>
<path d="M558.68 0.181528V555.915H588.049V0.518372C581.868 0.168555 575.638 -0.00420897 569.359 7.78453e-05C565.782 7.78453e-05 562.217 0.0518854 558.68 0.181528Z" fill="white"/>
<path d="M310.364 125.696H828.354C820.643 115.723 812.33 106.204 803.457 97.1875H335.261C326.389 106.204 318.075 115.723 310.364 125.696V125.696Z" fill="white"/>
<path d="M294.905 207.334H524.371V584.423H294.905V207.334Z" fill="white"/>
<path d="M444.35 271.04H479.06V304.733H444.35V271.04Z" fill="#E6E6E6"/>
<path d="M388.429 271.04H423.139V304.733H388.429V271.04Z" fill="#E6E6E6"/>
<path d="M332.508 271.04H367.218V304.733H332.508V271.04Z" fill="#E6E6E6"/>
<path d="M443.386 347.784H478.096V381.477H443.386V347.784Z" fill="#E6E6E6"/>
<path d="M387.465 347.784H422.175V381.477H387.465V347.784Z" fill="#E6E6E6"/>
<path d="M331.544 347.784H366.254V381.477H331.544V347.784Z" fill="#E6E6E6"/>
<path d="M442.422 424.528H477.132V458.221H442.422V424.528Z" fill="#E6E6E6"/>
<path d="M386.501 424.528H421.21V458.221H386.501V424.528Z" fill="#E6E6E6"/>
<path d="M330.58 424.528H365.29V458.221H330.58V424.528Z" fill="#E6E6E6"/>
<path d="M441.458 501.272H476.167V534.965H441.458V501.272Z" fill="#E6E6E6"/>
<path d="M385.537 501.272H420.247V534.965H385.537V501.272Z" fill="#E6E6E6"/>
<path d="M329.616 501.272H364.325V534.965H329.616V501.272Z" fill="#E6E6E6"/>
<path d="M441.458 501.272H476.167V534.965H441.458V501.272Z" fill="#E6E6E6"/>
<path d="M385.537 501.272H420.247V534.965H385.537V501.272Z" fill="#E6E6E6"/>
<path d="M329.616 501.272H364.325V534.965H329.616V501.272Z" fill="#E6E6E6"/>
<path d="M816.124 479.241C789.704 479.241 768.286 458.45 768.286 432.804C768.286 407.158 789.704 386.367 816.124 386.367C842.545 386.367 863.963 407.158 863.963 432.804C863.963 458.45 842.545 479.241 816.124 479.241Z" fill="white"/>
<path d="M815.993 432.804H815.862L813.496 564.459H818.49L815.993 432.804Z" fill="white"/>
<path d="M807.282 504.516L808.385 502.484L816.292 506.526L815.19 508.558L807.282 504.516Z" fill="white"/>
<path d="M675.48 434.868C635.303 434.868 602.733 403.253 602.733 364.253C602.733 325.253 635.303 293.638 675.48 293.638C715.657 293.638 748.227 325.253 748.227 364.253C748.227 403.253 715.657 434.868 675.48 434.868Z" fill="white"/>
<path d="M675.28 364.253H675.08L671.483 564.459H679.077L675.28 364.253Z" fill="white"/>
<path d="M662.034 473.305L663.71 470.215L675.735 476.36L674.06 479.45L662.034 473.305Z" fill="white"/>
<path d="M825.524 296.824L813.235 287.283C822.782 286.261 826.704 291.315 828.31 295.315C835.768 292.309 843.887 296.249 843.887 296.249L819.299 304.914C820.539 301.697 822.699 298.891 825.524 296.824V296.824Z" fill="white"/>
<path d="M696.033 219.074L683.744 209.533C693.291 208.511 697.213 213.565 698.819 217.565C706.277 214.559 714.396 218.499 714.396 218.499L689.808 227.164C691.049 223.947 693.208 221.141 696.033 219.074V219.074Z" fill="white"/>
<path d="M745.426 292.937L733.137 283.396C742.684 282.374 746.607 287.428 748.212 291.428C755.671 288.422 763.79 292.362 763.79 292.362L739.202 301.027C740.442 297.811 742.601 295.005 745.426 292.937V292.937Z" fill="white"/>
<path d="M211.591 527.407H927.128V584.424H211.591V527.407Z" fill="#E6E6E6"/>
<path d="M1034 675.826C1034 675.826 1178.74 611.148 1127.89 566.297C1077.04 521.445 1034 675.826 1034 675.826Z" fill="#E6E6E6"/>
<path d="M1036.52 690.917C1036.52 690.917 1103.05 478.737 1005.08 488.884C907.119 499.031 1036.52 690.917 1036.52 690.917Z" fill="#E6E6E6"/>
<path d="M1085.02 672.1L1082.23 707.593L1082.19 708.206C1082.19 713.749 1081.9 719.288 1081.32 724.802C1077.53 761.005 1061.25 777.504 1042.21 777.504C1023.17 777.504 1007.6 761.005 1003.81 724.802C1003.23 719.288 1002.94 713.749 1002.94 708.206L1002.92 707.711L1002.91 707.593L1000.11 672.1H1085.02Z" fill="#E6E6E6"/>
<path d="M1002.91 707.593L1002.92 707.711L1002.94 708.206C1002.94 713.748 1003.23 719.288 1003.81 724.802H1081.32C1081.9 719.288 1082.19 713.748 1082.19 708.206L1082.23 707.593H1002.91Z" fill="white"/>
<path d="M65.5803 675.826C65.5803 675.826 210.318 611.148 159.472 566.297C108.625 521.445 65.5803 675.826 65.5803 675.826Z" fill="#E6E6E6"/>
<path d="M68.0995 690.917C68.0995 690.917 134.626 478.737 36.663 488.884C-61.3002 499.031 68.0995 690.917 68.0995 690.917Z" fill="#E6E6E6"/>
<path d="M116.605 672.1L113.813 707.593L113.768 708.206C113.771 713.749 113.482 719.288 112.904 724.802C109.114 761.005 92.8266 777.504 73.7908 777.504C54.7549 777.504 39.1762 761.005 35.3868 724.802C34.8084 719.288 34.5198 713.749 34.5225 708.206L34.5003 707.711L34.4893 707.593L31.686 672.1H116.605Z" fill="#E6E6E6"/>
<path d="M34.4891 707.593L34.5001 707.711L34.5223 708.206C34.5197 713.748 34.8082 719.288 35.3867 724.802H112.904C113.482 719.288 113.771 713.748 113.768 708.206L113.812 707.593H34.4891Z" fill="white"/>
<path d="M257.755 804.318L267.244 805.4C274.74 809.786 283.537 811.438 293.28 811.102C294.64 811.062 295.966 810.678 297.126 809.988C298.287 809.298 299.241 808.326 299.894 807.167V807.167C300.462 806.151 300.78 805.021 300.824 803.866C300.868 802.711 300.636 801.562 300.148 800.508C299.659 799.454 298.927 798.523 298.007 797.789C297.088 797.055 296.006 796.536 294.846 796.274L287.636 794.644L270.238 778.126L259.741 759.687L244.495 761.384L241.321 784.805C240.918 789.492 242.407 794.146 245.474 797.787C248.54 801.428 252.944 803.77 257.755 804.318V804.318Z" fill="#FFB8B8"/>
<path d="M405.545 792.469L414.845 794.593C421.777 799.78 430.323 802.394 440.043 803.137C441.398 803.248 442.761 803.014 443.994 802.456C445.228 801.899 446.29 801.039 447.075 799.96V799.96C447.758 799.013 448.207 797.926 448.386 796.783C448.565 795.641 448.47 794.473 448.109 793.372C447.747 792.271 447.129 791.265 446.301 790.434C445.474 789.603 444.46 788.968 443.339 788.579L436.367 786.162L421.021 767.828L412.757 748.348H397.411L391.508 771.266C390.558 775.877 391.491 780.666 394.11 784.622C396.729 788.578 400.829 791.392 405.545 792.469Z" fill="#FFB8B8"/>
<path d="M413.169 749.643L395.815 752.235L368.448 618.115L321.057 539.717L263.654 767.785L242.295 771.672C244.69 643.239 233 481.547 259.649 461.967L375.79 474.925L426.519 607.101L413.169 749.643Z" fill="#2F2E41"/>
<path d="M329.067 262.408C306.949 262.408 289.018 245.003 289.018 223.532C289.018 202.062 306.949 184.657 329.067 184.657C351.185 184.657 369.116 202.062 369.116 223.532C369.116 245.003 351.185 262.408 329.067 262.408Z" fill="#FFB8B8"/>
<path d="M272.999 283.141L321.058 290.916L333.072 249.449L298.364 239.083L272.999 283.141Z" fill="#FFB8B8"/>
<path d="M252.974 467.15L381.13 478.813C370.856 444.134 361.443 409.577 369.116 375.146C378.859 344.406 369.455 326.126 343.751 311.649L326.397 274.07L279.673 268.887C267.3 288.198 262.239 311.088 265.358 333.627C272.016 382.639 270.218 428.12 252.974 467.15Z" fill="#FB7A7A"/>
<path d="M329.969 177.619C343.334 180.583 358.547 184.783 359.4 188.687C373.149 192.05 383.527 200.106 385.646 212.387C385.823 213.448 385.758 214.534 385.456 215.569C385.154 216.603 384.621 217.561 383.897 218.374C383.172 219.187 382.272 219.837 381.261 220.276C380.25 220.715 379.152 220.934 378.044 220.916C370.567 220.823 359.343 220.128 351.931 217.123C330.399 230.59 326.785 265.616 336.188 289.457L321.391 288.141L306.083 244.641L302.173 286.431L268.407 282.097L272.756 228.807C274.093 216.248 278.496 204.178 285.601 193.601C286.339 192.539 287.146 191.524 288.018 190.562C293.155 184.928 299.767 180.751 307.153 178.472C314.54 176.193 322.424 175.898 329.969 177.619V177.619Z" fill="#2F2E41"/>
<path d="M414.776 817.684C414.848 818.318 414.783 818.96 414.584 819.569C414.386 820.177 414.058 820.738 413.622 821.216C413.186 821.693 412.652 822.077 412.053 822.342C411.455 822.607 410.807 822.747 410.149 822.754L395.132 822.904C394.323 822.849 393.566 822.498 393.013 821.923C392.46 821.347 392.152 820.589 392.152 819.802V819.802C392.152 819.181 392.344 818.574 392.703 818.059C393.061 817.545 393.571 817.147 394.165 816.916L398.596 815.196L405.04 806.438H410.195C412.726 809.715 414.307 813.589 414.773 817.659L414.776 817.684H414.776Z" fill="#FFB8B8"/>
<path d="M450.721 817.684C450.649 818.318 450.714 818.96 450.913 819.569C451.111 820.177 451.439 820.738 451.875 821.216C452.311 821.693 452.845 822.077 453.443 822.342C454.042 822.607 454.69 822.747 455.348 822.754L470.365 822.904C471.174 822.849 471.931 822.498 472.485 821.923C473.038 821.347 473.345 820.589 473.345 819.802V819.802C473.345 819.181 473.153 818.574 472.794 818.059C472.436 817.545 471.926 817.147 471.332 816.916L466.901 815.196L460.457 806.438H455.302C452.771 809.715 451.19 813.589 450.724 817.659L450.721 817.684Z" fill="#FFB8B8"/>
<path d="M461.746 806.438H454.013L426.949 692.596L412.772 807.689H403.751L391.508 659.444L454.013 658.818L461.746 806.438Z" fill="#3F3D56"/>
<path d="M496.543 597.519H486.233V573.75L483.888 569.196C483.417 568.282 483.175 567.274 483.182 566.252C483.19 565.231 483.445 564.225 483.929 563.318C484.412 562.41 485.11 561.626 485.964 561.03C486.819 560.434 487.807 560.042 488.847 559.887V559.887C489.799 559.745 490.771 559.804 491.697 560.061C492.624 560.318 493.482 560.766 494.213 561.375C494.944 561.983 495.53 562.738 495.933 563.588C496.335 564.437 496.543 565.361 496.543 566.296V597.519V597.519Z" fill="#FFB8B8"/>
<path d="M435.326 538.721C422.158 538.721 411.484 528.359 411.484 515.577C411.484 502.795 422.158 492.434 435.326 492.434C448.494 492.434 459.168 502.795 459.168 515.577C459.168 528.359 448.494 538.721 435.326 538.721Z" fill="#FFB8B8"/>
<path d="M444.992 554.984H420.505V527.462H444.992V554.984Z" fill="#FFB8B8"/>
<path d="M456.591 662.572C434.917 675.556 412.001 674.286 388.286 663.823L393.441 547.479L420.505 546.228L448.858 549.981L463.035 561.24L456.591 662.572Z" fill="#FB7A7A"/>
<path d="M482.366 621.288L454.013 600.021L463.035 561.239L479.789 591.264L484.944 586.26L500.409 597.519L482.366 621.288Z" fill="#FB7A7A"/>
<path d="M356.509 549.476L365.527 554.328L377.398 533.538L381.723 530.659C382.591 530.081 383.306 529.313 383.81 528.416C384.314 527.519 384.592 526.519 384.623 525.498C384.653 524.477 384.434 523.463 383.985 522.539C383.535 521.616 382.867 520.808 382.034 520.183V520.183C381.273 519.611 380.392 519.205 379.454 518.994C378.516 518.783 377.542 518.771 376.598 518.959C375.655 519.148 374.765 519.532 373.989 520.086C373.212 520.64 372.569 521.35 372.102 522.167L368.38 528.687L356.509 549.476Z" fill="#FFB8B8"/>
<path d="M406.973 584.383L372.755 566.75L354.777 557.486L352.2 542.474L363.799 531.215L377.975 539.972L376.687 549.98L393.441 547.478L406.973 584.383Z" fill="#FB7A7A"/>
<path d="M430.171 534.342C414.512 534.342 401.818 522.02 401.818 506.82C401.818 491.62 414.512 479.298 430.171 479.298C445.83 479.298 458.524 491.62 458.524 506.82C458.524 522.02 445.83 534.342 430.171 534.342Z" fill="#2F2E41"/>
<path d="M414.705 488.055C407.588 488.055 401.818 482.454 401.818 475.544C401.818 468.635 407.588 463.034 414.705 463.034C421.823 463.034 427.593 468.635 427.593 475.544C427.593 482.454 421.823 488.055 414.705 488.055Z" fill="#2F2E41"/>
<path d="M415.33 486.004C412.776 487.298 409.847 487.724 407.014 487.213C404.18 486.702 401.605 485.283 399.7 483.184C397.795 481.084 396.67 478.426 396.505 475.633C396.34 472.839 397.144 470.073 398.79 467.776C397.3 468.865 396.071 470.254 395.188 471.848C394.305 473.443 393.789 475.204 393.677 477.011C393.564 478.818 393.856 480.627 394.534 482.313C395.212 483.999 396.259 485.523 397.603 486.778C398.947 488.033 400.555 488.989 402.317 489.582C404.079 490.174 405.953 490.388 407.808 490.209C409.664 490.03 411.457 489.462 413.064 488.544C414.672 487.626 416.054 486.38 417.117 484.893C416.554 485.31 415.956 485.682 415.33 486.004V486.004Z" fill="#2F2E41"/>
<path d="M335.742 506.026L334.856 536.11C334.734 540.257 336.235 544.295 339.058 547.41C341.88 550.526 345.813 552.487 350.066 552.9C352.79 553.164 355.539 552.783 358.077 551.787C360.615 550.792 362.866 549.213 364.636 547.186C366.407 545.16 367.643 542.746 368.24 540.152C368.836 537.559 368.774 534.864 368.06 532.299L361.106 507.321L341.081 401.063L342.416 338.862L299.698 337.566L307.707 407.542L335.742 506.026Z" fill="#FFB8B8"/>
<path d="M297.028 344.046C312.505 338.323 329.609 338.323 345.086 344.046L342.416 292.212C342.416 286.713 340.166 281.439 336.16 277.551C332.155 273.663 326.722 271.479 321.057 271.479V271.479C315.392 271.479 309.96 273.663 305.954 277.551C301.948 281.439 299.698 286.713 299.698 292.212L297.028 344.046Z" fill="#FB7A7A"/>
</g>
<defs>
<linearGradient id="paint0_linear_334_251" x1="1523.88" y1="785.33" x2="1523.88" y2="72.5295" gradientUnits="userSpaceOnUse">
<stop stop-color="#808080" stop-opacity="0.25"/>
<stop offset="0.54" stop-color="#808080" stop-opacity="0.12"/>
<stop offset="1" stop-color="#808080" stop-opacity="0.1"/>
</linearGradient>
<clipPath id="clip0_334_251">
<rect width="1097.1" height="790.89" fill="white" transform="translate(1008)"/>
</clipPath>
<clipPath id="clip1_334_251">
<rect width="1139" height="841" fill="white" transform="matrix(-1 0 0 1 1139 0)"/>
</clipPath>
</defs>
</svg>
