<svg width="213" height="129" viewBox="0 0 213 129" fill="transparent" xmlns="http://www.w3.org/2000/svg">
<path fill-rule="evenodd" clip-rule="evenodd" d="M58.5183 0.351482C50.8954 1.47232 45.0444 3.93234 39.7218 8.25416C37.7606 9.84681 35.5691 11.4733 34.8519 11.8689C32.1128 13.3803 31.1624 15.781 32.3566 18.1711C32.8071 19.073 32.7827 19.4886 32.1612 21.5333C30.8166 25.9574 29.5965 36.7728 29.5935 44.2962C29.5916 48.7896 28.4784 53.7413 25.2536 63.6021C21.9999 73.552 21.0108 77.3791 20.6995 81.2231C20.5705 82.8183 20.3004 84.0348 20.0638 84.0869C9.08817 86.5008 3.35451 90.5331 0.869316 97.5856C0.288712 99.2338 0.18782 101.246 0.0602967 113.765C-0.0691016 126.455 -0.0195919 128.108 0.501752 128.469C1.23313 128.977 2.87218 128.999 3.45916 128.509C3.77646 128.244 3.96175 124.26 4.12078 114.275C4.32144 101.654 4.40846 100.223 5.08845 98.3313C7.19708 92.468 11.2414 89.8928 22.2782 87.3861C28.9761 85.8646 34.4619 84.2563 37.9579 82.7894L40.5102 81.7185L41.9553 82.6759C45.3512 84.9254 53.402 87.8362 58.0034 88.478L59.5974 88.7005V98.8423C59.5974 104.42 59.7046 109.219 59.8359 109.505C60.2305 110.364 61.8088 110.698 62.8308 110.137L63.713 109.654L63.8116 99.385L63.9107 89.1158L68.4115 88.9069C76.0347 88.5527 82.3794 86.8186 88.5961 83.3905L91.4496 81.817L93.808 82.765C96.6631 83.9128 96.9755 84.0226 100.27 85.0371C104.076 86.2091 115.088 88.6926 115.993 88.5828C116.42 88.5307 117.019 88.1163 117.323 87.6618C118.18 86.381 117.2 85.3787 114.462 84.7344C113.27 84.4539 112.084 84.1647 111.826 84.0919C111.545 84.0129 111.357 83.4034 111.357 82.5774C111.357 80.2824 109.933 74.0056 108.139 68.3844C102.582 50.9852 102.574 50.9475 101.98 39.081C101.554 30.5772 100.838 25.027 99.7285 21.6139C99.0639 19.5699 99.0474 19.2587 99.5503 18.2517C100.711 15.9282 99.8688 13.5372 97.3963 12.1384C96.5997 11.6876 94.4779 10.1059 92.6813 8.6237C87.4458 4.30345 82.8542 2.20356 75.1736 0.616557C71.8542 -0.0691871 62.4033 -0.219449 58.5183 0.351482ZM71.1675 3.79934C73.9437 4.01579 79.2235 5.23858 81.4721 6.18563C83.6201 7.09034 88.182 9.63161 87.9724 9.80665C87.8786 9.88508 85.3803 9.70752 82.4199 9.41202C74.875 8.65915 56.607 8.66354 49.3464 9.42018C46.4933 9.71756 44.0861 9.89982 43.9968 9.82548C43.774 9.63883 47.785 7.32405 49.8385 6.45416C52.4314 5.3559 56.2627 4.34862 59.2887 3.96936C64.0506 3.37271 65.4428 3.35263 71.1675 3.79934ZM86.6675 13.4465C94.2908 14.3029 95.5705 14.7007 95.5922 16.2212C95.617 17.9531 94.934 18.0168 87.1649 17.0045C76.07 15.5592 55.8246 15.5605 44.7822 17.0073C37.7782 17.9252 37.2501 17.9277 36.5592 17.0459C35.844 16.1327 36.0248 15.6113 37.3334 14.8101C38.0449 14.3744 40.0541 14.0362 45.1385 13.4961C54.7838 12.4712 54.3907 12.4872 67.6613 12.5779C77.9918 12.6481 80.6391 12.7692 86.6675 13.4465ZM86.7898 20.606C89.6778 21.0041 92.7605 21.3322 93.6404 21.3351C95.1493 21.3398 95.2607 21.4028 95.6076 22.4465C96.6916 25.7061 97.8494 36.0171 97.8618 42.516C97.8696 46.8406 98.5249 51.5966 99.6782 55.7032C100.089 57.1678 100.369 58.4139 100.299 58.4719C100.23 58.5299 99.5766 57.6848 98.8475 56.5935C94.7964 50.5297 94.146 48.0066 93.8486 37.1988C93.6006 28.1727 93.4986 27.8051 90.6957 25.7987C88.5804 24.2841 85.2846 23.3766 81.1638 23.1743C78.3223 23.0347 76.8779 23.1655 72.0331 24.0015C65.7084 25.0925 65.5475 25.0903 58.776 23.8293C54.4177 23.0174 50.6333 22.8841 47.5198 23.4324C43.3307 24.1703 39.397 26.4392 38.6292 28.5608C38.4395 29.0847 38.193 32.8305 38.0809 36.8851C37.8697 44.5406 37.3548 48.1098 35.979 51.4488C35.2124 53.309 31.8383 58.6312 31.5682 58.4057C31.4898 58.3398 31.6781 57.4586 31.9872 56.4476C33.2924 52.1775 33.7672 48.6535 34.095 40.8063C34.4161 33.1144 35.0485 27.535 36.0859 23.2392C36.5019 21.5179 36.6185 21.3642 37.4523 21.4427C37.9541 21.4897 40.4112 21.2391 42.9129 20.8855C50.3932 19.829 53.8941 19.6753 68.0364 19.781C80.0082 19.8707 82.1341 19.9645 86.7898 20.606ZM58.4722 27.5206C63.9204 28.6041 67.0624 28.6282 72.3958 27.6282C79.6519 26.2673 84.542 26.5211 87.678 28.4215L89.1426 29.3086L89.398 36.1554C89.5383 39.921 89.7971 44.0437 89.9726 45.317C90.2531 47.3491 90.2089 47.7061 89.6107 48.2434C89.2356 48.58 88.8196 49.4443 88.6861 50.1636C88.0084 53.8128 84.6519 59.253 81.4754 61.8514C78.9831 63.8898 72.9303 66.9201 70.5115 67.3398C67.4483 67.8718 61.3193 67.5716 59.2223 66.7874C57.2378 66.0449 53.6998 64.1567 51.3928 62.6083C48.0809 60.3858 44.9698 55.8738 43.4894 51.1458C43.0685 49.8019 42.4497 48.4489 42.1147 48.1393C41.6842 47.7412 41.5851 47.3193 41.7772 46.7007C41.9268 46.2195 42.1575 42.2016 42.2903 37.7725C42.5284 29.8341 42.5446 29.7083 43.4324 28.9187C45.0826 27.45 49.5193 26.4596 53.2212 26.7338C54.3558 26.8179 56.7187 27.1717 58.4722 27.5206ZM149.846 27.0142C136.841 29.0737 128.632 37.445 125.616 51.7255C124.733 55.9099 124.109 62.0747 124.109 66.6258C124.109 68.4403 123.671 72.7605 123.136 76.2263C121.584 86.275 122.129 90.7985 125.601 96.69C127.349 99.6564 131.259 103.367 134.687 105.315C137.103 106.687 140.745 108.065 144.099 108.876C146.1 109.361 146.346 109.362 147.193 108.898C148.267 108.309 148.447 106.834 147.523 106.193C147.197 105.967 145.511 105.4 143.775 104.933C135.477 102.702 129.47 97.3598 127.222 90.2137C126.351 87.4435 126.444 82.2063 127.47 76.2542C127.959 73.4243 128.412 68.6106 128.608 64.1768C128.787 60.1223 129.129 55.7462 129.369 54.4522C131.768 41.4858 137.447 34.2393 147.588 31.2018C150.669 30.2789 158.752 30.0301 162.728 30.736C172.174 32.4127 177.76 37.5834 180.042 46.7625C180.845 49.9955 181.612 59.4117 181.281 61.9809C180.884 65.0517 181.765 72.2448 183.033 76.3015C184.604 81.3254 185.215 83.8491 185.231 85.3812C185.247 86.8572 186.101 87.7042 187.573 87.7042C189.208 87.7042 189.493 87.0567 189.271 83.8563C189.147 82.0698 188.684 79.8777 188.063 78.1364C186.063 72.5296 185.948 71.7194 185.618 60.883C185.445 55.1894 185.113 49.6134 184.88 48.4919C183.213 40.4484 180.05 35.1277 174.743 31.4368C172.443 29.8372 167.642 27.9544 164.241 27.3179C160.284 26.5776 153.507 26.4345 149.846 27.0142ZM150.07 37.0259C147.018 37.6439 142.748 39.5559 140.376 41.3653C135.735 44.9073 134.688 48.1782 138.196 48.1782C139.212 48.1782 139.57 47.9388 140.718 46.493C146.384 39.357 160.649 37.8459 168.867 43.5116C170.748 44.8081 173.364 48.2673 174.412 50.8446C175.17 52.7055 175.297 53.5911 175.249 56.648C175.106 65.8325 171.877 73.8029 166.446 78.3807C159.827 83.9586 151.756 83.9269 145.117 78.297C139.381 73.4325 136.486 65.4005 136.486 54.3521C136.486 49.3677 136.462 49.2096 135.597 48.5305C134.571 47.7236 132.961 47.868 132.351 48.821C131.873 49.5682 131.891 55.8255 132.384 60.5345C133.146 67.795 136.428 75.6218 140.301 79.4112C145.054 84.0618 150.998 86.4076 157.115 86.0478C168.402 85.3844 176.924 76.3216 179.057 62.7131C180.604 52.8442 178.776 46.8293 172.686 41.7474C169.607 39.1782 167.27 38.0473 163.272 37.1919C159.878 36.466 153.246 36.3828 150.07 37.0259ZM151.546 48.2209C148.046 48.6048 142.522 50.2486 139.753 51.7302C137.944 52.6983 137.611 53.0189 137.611 53.7984C137.611 54.8465 138.457 55.7069 139.487 55.7069C139.87 55.7069 141.166 55.2207 142.367 54.6269C143.568 54.0327 145.9 53.1553 147.551 52.6769C150.282 51.8852 151.023 51.8077 155.802 51.814C160.47 51.8202 161.386 51.9137 164.054 52.655C165.704 53.1136 168.045 53.9879 169.256 54.598C170.467 55.2079 171.776 55.7069 172.163 55.7069C172.981 55.7069 174.368 54.6485 174.368 54.024C174.368 52.5737 169.039 49.9475 163.866 48.8486C160.318 48.0944 155.114 47.8294 151.546 48.2209ZM40.4693 55.2377C41.0432 56.9517 43.6971 60.9125 45.5158 62.7686L46.8451 64.1257L46.8395 67.5233C46.8327 71.3743 46.611 71.9587 45.3673 71.4019C43.9552 70.7698 42.8476 71.7241 40.859 75.2864L39.0624 78.5043L35.4303 79.8366C31.9812 81.1018 25.7153 82.9987 24.9858 82.9987C24.5571 82.9987 24.8883 80.8053 26.0701 75.821C27.085 71.5393 26.9954 71.6949 33.4807 62.9521C35.452 60.2945 37.6199 57.1572 38.2981 55.9802C38.9766 54.8035 39.6359 53.837 39.7638 53.8326C39.8917 53.8282 40.2094 54.4606 40.4693 55.2377ZM92.6033 54.2169C92.6033 54.7577 95.8102 59.4908 100.761 66.2582C104.806 71.7865 104.946 72.039 105.713 75.1986C106.705 79.2889 107.189 82.6696 106.81 82.8657C106.321 83.1182 100.289 81.3104 95.4778 79.4702L92.9143 78.4893L90.8881 75.1104C88.7086 71.4756 88.0009 70.8874 86.4147 71.3919C85.8724 71.5644 85.3548 71.7056 85.2651 71.7056C85.1755 71.7056 85.102 69.9909 85.102 67.8951V64.0846L86.3371 62.7975C88.2518 60.8027 89.7839 58.5848 90.9624 56.1028C91.959 54.0042 92.6033 53.2639 92.6033 54.2169ZM55.5219 69.254C58.2922 70.6707 61.1205 71.1807 66.1611 71.172C71.3809 71.1632 74.1541 70.5326 77.8482 68.5159C79.6627 67.5252 80.6758 67.1359 80.7726 67.3922C80.854 67.6077 80.9935 69.1546 81.0828 70.8294L81.2452 73.8741L78.1107 74.8228C74.1774 76.0133 71.133 76.4242 66.041 76.4518C61.2098 76.4782 57.8267 76.0164 53.6492 74.76L50.514 73.8174L50.7383 72.683C50.8617 72.0591 50.9645 70.5113 50.9667 69.2433L50.9708 66.938L52.1898 67.556C52.8604 67.8957 54.3596 68.6599 55.5219 69.254ZM88.1532 78.6471C88.3864 79.042 88.0024 79.4094 86.4616 80.2651C82.5073 82.461 78.0537 84.0339 73.2874 84.9182C69.5986 85.6024 61.1918 85.4462 57.1594 84.6186C53.6721 83.9028 46.4194 81.1237 44.4675 79.7557L43.4031 79.0094L44.3801 77.3967C44.9176 76.5095 45.4446 75.7836 45.5511 75.7836C45.6576 75.7836 46.5409 76.1205 47.5138 76.5324C50.4356 77.7687 55.6168 79.1794 59.1165 79.6917C67.4142 80.9054 77.4112 79.6217 84.3211 76.4553L86.3532 75.5242L87.1022 76.8301C87.514 77.5485 87.9866 78.3663 88.1532 78.6471ZM130.699 81.6093C129.873 82.3001 129.953 82.9839 131.227 86.1639C132.671 89.7698 133.746 91.5137 136.186 94.2071C141.232 99.7787 147.522 102.501 155.427 102.535C160.783 102.559 163.987 101.545 173.064 96.9538C180.851 93.016 184.652 92.0915 188.575 93.1813C192.305 94.2175 195.867 97.3604 196.855 100.488C197.525 102.608 199.519 103.272 200.912 101.84C202.252 100.462 200.022 96.2781 196.284 93.1556C193.003 90.4148 190.669 89.539 186.125 89.3429C181.419 89.1396 177.82 90.2313 170.199 94.1745C163.332 97.7268 159.466 98.9869 155.412 98.9935C147.095 99.0073 139.554 94.2526 136.016 86.7631C135.486 85.6416 134.852 84.0888 134.607 83.3124C134.363 82.536 133.989 81.7244 133.778 81.5086C133.24 80.9596 131.405 81.0196 130.699 81.6093ZM119.139 92.8017C118.391 93.2798 117.164 97.2465 116.618 100.944C115.388 109.286 121.222 115.599 132.548 118.179C135.015 118.741 136.616 118.867 141.55 118.887C148.295 118.914 150.918 118.469 156.313 116.385C159.8 115.038 161.381 114.205 168.636 109.895C171.776 108.03 175.658 105.98 177.263 105.339C180.057 104.223 180.349 104.173 184.12 104.173C187.665 104.173 188.301 104.265 190.496 105.089C197.037 107.546 203.827 112.409 206.34 116.436C208.171 119.372 208.874 121.758 208.874 125.04C208.874 128.06 209.299 128.877 210.871 128.877C212.763 128.877 213 128.407 213 124.664C213 120.481 212.633 119.104 210.543 115.439C206.988 109.206 197.234 102.682 188.762 100.869C181.029 99.2156 176.175 100.707 163.116 108.75C158.943 111.32 152.397 114.091 148.676 114.863C145.339 115.556 138.498 115.561 134.611 114.874C128.87 113.86 124.094 111.153 122.014 107.736C120.248 104.834 120.324 102.765 122.506 94.401C122.712 93.6123 121.458 92.4096 120.43 92.4096C120.057 92.4096 119.476 92.5862 119.139 92.8017ZM66.5943 93.2971C66.253 93.6127 65.9735 94.1692 65.9735 94.534C65.9735 95.248 67.2585 96.174 68.2494 96.174C69.0753 96.174 70.0993 95.1742 70.0993 94.368C70.0993 92.8858 67.7994 92.1831 66.5943 93.2971ZM66.7237 102.134C65.8228 102.888 65.7601 103.793 66.5628 104.465C67.2604 105.048 69.012 105.114 69.6492 104.581C70.3952 103.957 70.184 102.533 69.2655 101.995C68.1639 101.35 67.6265 101.379 66.7237 102.134ZM109.991 106.625C105.471 109.409 101.407 113.952 99.6962 118.133C99.0755 119.649 98.8204 121.137 98.7012 123.936C98.523 128.116 98.8156 128.877 100.602 128.877C102.345 128.877 102.598 128.418 102.849 124.801C103.086 121.386 103.76 118.884 104.987 116.87C106.294 114.723 109.209 111.828 111.955 109.953C114.972 107.891 115.382 107.07 113.982 105.899C112.924 105.014 112.475 105.096 109.991 106.625ZM183.99 106.159C183.438 106.669 183.37 107.917 183.37 117.445V128.157L184.287 128.66C185.078 129.093 185.351 129.104 186.257 128.741L187.308 128.32L187.407 117.531C187.495 107.824 187.443 106.684 186.88 106.163C186.081 105.425 184.787 105.423 183.99 106.159ZM156.199 117.889C155.734 118.443 155.616 119.521 155.62 123.144C155.624 125.65 155.75 127.856 155.902 128.046C156.478 128.768 157.836 129.147 158.607 128.802C159.898 128.224 160.115 127.378 160.115 122.929C160.115 118.03 159.787 117.192 157.865 117.192C157.172 117.192 156.573 117.442 156.199 117.889Z" fill="#BB6BD9"/>
</svg>
