<svg width="55" height="48" viewBox="0 0 55 48" fill="none" xmlns="http://www.w3.org/2000/svg">
<g clip-path="url(#clip0_89_176)">
<path d="M34.8449 30.7019L51.6825 21.8119L44.286 39.3569L42.162 32.1971L34.8449 30.7019Z" stroke="#E65B5A" stroke-width="2" stroke-linecap="round" stroke-linejoin="round"/>
<path d="M34.8449 30.7019L51.6825 21.8119L44.286 39.3569L42.162 32.1971L34.8449 30.7019Z" stroke="white" stroke-opacity="0.2" stroke-width="2" stroke-linecap="round" stroke-linejoin="round"/>
</g>
<path d="M44 24C44 12.9543 35.0457 4 24 4C12.9543 4 4 12.9543 4 24C4 35.0457 12.9543 44 24 44" stroke="#E65B5A" stroke-width="2" stroke-linecap="round" stroke-linejoin="round"/>
<path d="M44 24C44 12.9543 35.0457 4 24 4C12.9543 4 4 12.9543 4 24C4 35.0457 12.9543 44 24 44" stroke="white" stroke-opacity="0.2" stroke-width="2" stroke-linecap="round" stroke-linejoin="round"/>
<path d="M4 24H44" stroke="#E65B5A" stroke-width="2" stroke-linecap="round" stroke-linejoin="round"/>
<path d="M4 24H44" stroke="white" stroke-opacity="0.2" stroke-width="2" stroke-linecap="round" stroke-linejoin="round"/>
<path d="M24 4C29.0026 9.47671 31.8455 16.5841 32 24C31.8455 31.4159 29.0026 38.5233 24 44C18.9974 38.5233 16.1545 31.4159 16 24C16.1545 16.5841 18.9974 9.47671 24 4V4Z" stroke="#E65B5A" stroke-width="2" stroke-linecap="round" stroke-linejoin="round"/>
<path d="M24 4C29.0026 9.47671 31.8455 16.5841 32 24C31.8455 31.4159 29.0026 38.5233 24 44C18.9974 38.5233 16.1545 31.4159 16 24C16.1545 16.5841 18.9974 9.47671 24 4V4Z" stroke="white" stroke-opacity="0.2" stroke-width="2" stroke-linecap="round" stroke-linejoin="round"/>

<path d="M23.5447 43.9239C29.8839 43.9239 40.8242 41.9685 41.6607 31.2447" stroke="#E65B5A" stroke-width="2"/>
<path d="M23.5447 43.9239C29.8839 43.9239 40.8242 41.9685 41.6607 31.2447" stroke="white" stroke-opacity="0.2" stroke-width="2"/>
<defs>
<clipPath id="clip0_89_176">
<rect x="31.6982" y="20.8672" width="21.7358" height="21.7358" transform="rotate(-2.48713 31.6982 20.8672)" fill="white"/>
</clipPath>
</defs>
</svg>
