<svg width="104" height="95" viewBox="0 0 104 95" fill="none" xmlns="http://www.w3.org/2000/svg">
<g opacity="0.122838">
<path fill-rule="evenodd" clip-rule="evenodd" d="M102.001 91C103.102 91 104 91.8975 104 93.0005C104 94.1035 103.102 95 102.001 95C100.896 95 100 94.1035 100 93.0005C100 91.8975 100.896 91 102.001 91Z" fill="#7B61FF"/>
<path fill-rule="evenodd" clip-rule="evenodd" d="M82 91C83.1027 91 84 91.8975 84 93.0005C84 94.1035 83.1027 95 82 95C80.8963 95 80 94.1035 80 93.0005C80 91.8975 80.8963 91 82 91Z" fill="#7B61FF"/>
<path fill-rule="evenodd" clip-rule="evenodd" d="M62 91C63.1037 91 64 91.8975 64 93.0005C64 94.1035 63.1037 95 62 95C60.8983 95 60 94.1035 60 93.0005C60 91.8975 60.8983 91 62 91Z" fill="#7B61FF"/>
<path fill-rule="evenodd" clip-rule="evenodd" d="M41.9995 91C43.1035 91 44 91.8975 44 93.0005C44 94.1035 43.1035 95 41.9995 95C40.8975 95 40 94.1035 40 93.0005C40 91.8975 40.8975 91 41.9995 91Z" fill="#7B61FF"/>
<path fill-rule="evenodd" clip-rule="evenodd" d="M22.0016 91C23.1035 91 24 91.8975 24 93.0005C24 94.1035 23.1035 95 22.0016 95C20.8975 95 20 94.1035 20 93.0005C20 91.8975 20.8975 91 22.0016 91Z" fill="#7B61FF"/>
<path fill-rule="evenodd" clip-rule="evenodd" d="M2 91C3.10166 91 4 91.8975 4 93.0005C4 94.1035 3.10166 95 2 95C0.896266 95 0 94.1035 0 93.0005C0 91.8975 0.896266 91 2 91Z" fill="#7B61FF"/>
<path fill-rule="evenodd" clip-rule="evenodd" d="M102.001 73C103.102 73 104 73.8975 104 75.0005C104 76.1035 103.102 77 102.001 77C100.896 77 100 76.1035 100 75.0005C100 73.8975 100.896 73 102.001 73Z" fill="#7B61FF"/>
<path fill-rule="evenodd" clip-rule="evenodd" d="M82 73C83.1027 73 84 73.8975 84 75.0005C84 76.1035 83.1027 77 82 77C80.8963 77 80 76.1035 80 75.0005C80 73.8975 80.8963 73 82 73Z" fill="#7B61FF"/>
<path fill-rule="evenodd" clip-rule="evenodd" d="M62 73C63.1037 73 64 73.8975 64 75.0005C64 76.1035 63.1037 77 62 77C60.8983 77 60 76.1035 60 75.0005C60 73.8975 60.8983 73 62 73Z" fill="#7B61FF"/>
<path fill-rule="evenodd" clip-rule="evenodd" d="M41.9995 73C43.1035 73 44 73.8975 44 75.0005C44 76.1035 43.1035 77 41.9995 77C40.8975 77 40 76.1035 40 75.0005C40 73.8975 40.8975 73 41.9995 73Z" fill="#7B61FF"/>
<path fill-rule="evenodd" clip-rule="evenodd" d="M22.0016 73C23.1035 73 24 73.8975 24 75.0005C24 76.1035 23.1035 77 22.0016 77C20.8975 77 20 76.1035 20 75.0005C20 73.8975 20.8975 73 22.0016 73Z" fill="#7B61FF"/>
<path fill-rule="evenodd" clip-rule="evenodd" d="M2 73C3.10166 73 4 73.8975 4 75.0005C4 76.1035 3.10166 77 2 77C0.896266 77 0 76.1035 0 75.0005C0 73.8975 0.896266 73 2 73Z" fill="#7B61FF"/>
<path fill-rule="evenodd" clip-rule="evenodd" d="M102.001 55C103.102 55 104 55.8973 104 57C104 58.1027 103.102 59 102.001 59C100.896 59 100 58.1027 100 57C100 55.8973 100.896 55 102.001 55Z" fill="#7B61FF"/>
<path fill-rule="evenodd" clip-rule="evenodd" d="M82 55C83.1027 55 84 55.8973 84 57C84 58.1027 83.1027 59 82 59C80.8963 59 80 58.1027 80 57C80 55.8973 80.8963 55 82 55Z" fill="#7B61FF"/>
<path fill-rule="evenodd" clip-rule="evenodd" d="M62 55C63.1037 55 64 55.8973 64 57C64 58.1027 63.1037 59 62 59C60.8983 59 60 58.1027 60 57C60 55.8973 60.8983 55 62 55Z" fill="#7B61FF"/>
<path fill-rule="evenodd" clip-rule="evenodd" d="M41.9995 55C43.1035 55 44 55.8973 44 57C44 58.1027 43.1035 59 41.9995 59C40.8975 59 40 58.1027 40 57C40 55.8973 40.8975 55 41.9995 55Z" fill="#7B61FF"/>
<path fill-rule="evenodd" clip-rule="evenodd" d="M22.0016 55C23.1035 55 24 55.8973 24 57C24 58.1027 23.1035 59 22.0016 59C20.8975 59 20 58.1027 20 57C20 55.8973 20.8975 55 22.0016 55Z" fill="#7B61FF"/>
<path fill-rule="evenodd" clip-rule="evenodd" d="M2 55C3.10166 55 4 55.8973 4 57C4 58.1027 3.10166 59 2 59C0.896266 59 0 58.1027 0 57C0 55.8973 0.896266 55 2 55Z" fill="#7B61FF"/>
<path fill-rule="evenodd" clip-rule="evenodd" d="M102.001 36C103.102 36 104 36.8973 104 38C104 39.1027 103.102 40 102.001 40C100.896 40 100 39.1027 100 38C100 36.8973 100.896 36 102.001 36Z" fill="#7B61FF"/>
<path fill-rule="evenodd" clip-rule="evenodd" d="M82 36C83.1027 36 84 36.8973 84 38C84 39.1027 83.1027 40 82 40C80.8963 40 80 39.1027 80 38C80 36.8973 80.8963 36 82 36Z" fill="#7B61FF"/>
<path fill-rule="evenodd" clip-rule="evenodd" d="M62 36C63.1037 36 64 36.8973 64 38C64 39.1027 63.1037 40 62 40C60.8983 40 60 39.1027 60 38C60 36.8973 60.8983 36 62 36Z" fill="#7B61FF"/>
<path fill-rule="evenodd" clip-rule="evenodd" d="M41.9995 36C43.1035 36 44 36.8973 44 38C44 39.1027 43.1035 40 41.9995 40C40.8975 40 40 39.1027 40 38C40 36.8973 40.8975 36 41.9995 36Z" fill="#7B61FF"/>
<path fill-rule="evenodd" clip-rule="evenodd" d="M22.0016 36C23.1035 36 24 36.8973 24 38C24 39.1027 23.1035 40 22.0016 40C20.8975 40 20 39.1027 20 38C20 36.8973 20.8975 36 22.0016 36Z" fill="#7B61FF"/>
<path fill-rule="evenodd" clip-rule="evenodd" d="M2 36C3.10166 36 4 36.8973 4 38C4 39.1027 3.10166 40 2 40C0.896266 40 0 39.1027 0 38C0 36.8973 0.896266 36 2 36Z" fill="#7B61FF"/>
<path fill-rule="evenodd" clip-rule="evenodd" d="M102.001 18C103.102 18 104 18.8973 104 20C104 21.1027 103.102 22 102.001 22C100.896 22 100 21.1027 100 20C100 18.8973 100.896 18 102.001 18Z" fill="#7B61FF"/>
<path fill-rule="evenodd" clip-rule="evenodd" d="M82 18C83.1027 18 84 18.8973 84 20C84 21.1027 83.1027 22 82 22C80.8963 22 80 21.1027 80 20C80 18.8973 80.8963 18 82 18Z" fill="#7B61FF"/>
<path fill-rule="evenodd" clip-rule="evenodd" d="M62 18C63.1037 18 64 18.8973 64 20C64 21.1027 63.1037 22 62 22C60.8983 22 60 21.1027 60 20C60 18.8973 60.8983 18 62 18Z" fill="#7B61FF"/>
<path fill-rule="evenodd" clip-rule="evenodd" d="M41.9995 18C43.1035 18 44 18.8973 44 20C44 21.1027 43.1035 22 41.9995 22C40.8975 22 40 21.1027 40 20C40 18.8973 40.8975 18 41.9995 18Z" fill="#7B61FF"/>
<path fill-rule="evenodd" clip-rule="evenodd" d="M22.0016 18C23.1035 18 24 18.8973 24 20C24 21.1027 23.1035 22 22.0016 22C20.8975 22 20 21.1027 20 20C20 18.8973 20.8975 18 22.0016 18Z" fill="#7B61FF"/>
<path fill-rule="evenodd" clip-rule="evenodd" d="M2 18C3.10166 18 4 18.8973 4 20C4 21.1027 3.10166 22 2 22C0.896266 22 0 21.1027 0 20C0 18.8973 0.896266 18 2 18Z" fill="#7B61FF"/>
<path fill-rule="evenodd" clip-rule="evenodd" d="M102.001 0C103.102 0 104 0.897536 104 2.00052C104 3.1035 103.102 4 102.001 4C100.896 4 100 3.1035 100 2.00052C100 0.897536 100.896 0 102.001 0Z" fill="#7B61FF"/>
<path fill-rule="evenodd" clip-rule="evenodd" d="M82 0C83.1027 0 84 0.897536 84 2.00052C84 3.1035 83.1027 4 82 4C80.8963 4 80 3.1035 80 2.00052C80 0.897536 80.8963 0 82 0Z" fill="#7B61FF"/>
<path fill-rule="evenodd" clip-rule="evenodd" d="M62 0C63.1037 0 64 0.897536 64 2.00052C64 3.1035 63.1037 4 62 4C60.8983 4 60 3.1035 60 2.00052C60 0.897536 60.8983 0 62 0Z" fill="#7B61FF"/>
<path fill-rule="evenodd" clip-rule="evenodd" d="M41.9995 0C43.1035 0 44 0.897536 44 2.00052C44 3.1035 43.1035 4 41.9995 4C40.8975 4 40 3.1035 40 2.00052C40 0.897536 40.8975 0 41.9995 0Z" fill="#7B61FF"/>
<path fill-rule="evenodd" clip-rule="evenodd" d="M22.0016 0C23.1035 0 24 0.897536 24 2.00052C24 3.1035 23.1035 4 22.0016 4C20.8975 4 20 3.1035 20 2.00052C20 0.897536 20.8975 0 22.0016 0Z" fill="#7B61FF"/>
<path fill-rule="evenodd" clip-rule="evenodd" d="M2 0C3.10166 0 4 0.897536 4 2.00052C4 3.1035 3.10166 4 2 4C0.896266 4 0 3.1035 0 2.00052C0 0.897536 0.896266 0 2 0Z" fill="#7B61FF"/>
<path d="M48.8385 58.2711C47.8367 57.234 46.6472 56.4114 45.3381 55.8501C44.0289 55.2889 42.6257 55 41.2086 55C39.7914 55 38.3882 55.2889 37.079 55.8501C35.7699 56.4114 34.5804 57.234 33.5786 58.2711L31.4995 60.4223L29.4204 58.2711C27.3968 56.1773 24.6522 55.0011 21.7904 55.0011C18.9286 55.0011 16.184 56.1773 14.1604 58.2711C12.1368 60.3648 11 63.2045 11 66.1655C11 69.1265 12.1368 71.9662 14.1604 74.0599L16.2395 76.2111L31.4995 92L46.7594 76.2111L48.8385 74.0599C49.8408 73.0234 50.6359 71.7927 51.1783 70.4382C51.7208 69.0836 52 67.6317 52 66.1655C52 64.6993 51.7208 63.2474 51.1783 61.8929C50.6359 60.5383 49.8408 59.3076 48.8385 58.2711Z" fill="#7A61FF"/>
</g>
</svg>
