<svg width="501" height="372" viewBox="0 0 501 372" fill="none" xmlns="http://www.w3.org/2000/svg">
<g clip-path="url(#clip0_83_490)">
<path d="M30.9209 369.906C30.9209 362.296 33.9441 354.997 39.3255 349.616C44.7068 344.234 52.0055 341.211 59.6159 341.211C67.2263 341.211 74.525 344.234 79.9064 349.616C85.2878 354.997 88.311 362.296 88.311 369.906" fill="#E65B5A"/>
<path d="M59.6164 369.907C59.4107 369.907 59.2134 369.825 59.068 369.679C58.9225 369.534 58.8408 369.337 58.8408 369.131V354.008C58.8408 353.802 58.9225 353.605 59.068 353.46C59.2134 353.314 59.4107 353.232 59.6164 353.232C59.822 353.232 60.0193 353.314 60.1647 353.46C60.3102 353.605 60.3919 353.802 60.3919 354.008V369.131C60.3919 369.337 60.3102 369.534 60.1647 369.679C60.0193 369.825 59.822 369.907 59.6164 369.907V369.907Z" fill="#141416"/>
<path d="M59.6164 369.907C59.4107 369.907 59.2134 369.825 59.068 369.679C58.9225 369.534 58.8408 369.337 58.8408 369.131V354.008C58.8408 353.802 58.9225 353.605 59.068 353.46C59.2134 353.314 59.4107 353.232 59.6164 353.232C59.822 353.232 60.0193 353.314 60.1647 353.46C60.3102 353.605 60.3919 353.802 60.3919 354.008V369.131C60.3919 369.337 60.3102 369.534 60.1647 369.679C60.0193 369.825 59.822 369.907 59.6164 369.907V369.907Z" fill="white" fill-opacity="0.2"/>
<path d="M59.6163 364.709C59.431 364.71 59.2518 364.643 59.1115 364.522L49.8051 356.535C49.7271 356.469 49.663 356.388 49.6164 356.297C49.5699 356.206 49.5417 356.107 49.5337 356.005C49.5256 355.903 49.5378 355.8 49.5695 355.703C49.6011 355.606 49.6517 355.516 49.7183 355.438C49.7849 355.361 49.8662 355.297 49.9574 355.251C50.0487 355.205 50.1481 355.178 50.2501 355.17C50.352 355.163 50.4544 355.175 50.5514 355.208C50.6484 355.24 50.7381 355.291 50.8153 355.358L60.1218 363.345C60.242 363.449 60.3278 363.586 60.3675 363.74C60.4072 363.893 60.3989 364.055 60.3438 364.203C60.2888 364.352 60.1895 364.48 60.0595 364.571C59.9294 364.661 59.7747 364.71 59.6163 364.709V364.709Z" fill="#141416"/>
<path d="M59.6163 364.709C59.431 364.71 59.2518 364.643 59.1115 364.522L49.8051 356.535C49.7271 356.469 49.663 356.388 49.6164 356.297C49.5699 356.206 49.5417 356.107 49.5337 356.005C49.5256 355.903 49.5378 355.8 49.5695 355.703C49.6011 355.606 49.6517 355.516 49.7183 355.438C49.7849 355.361 49.8662 355.297 49.9574 355.251C50.0487 355.205 50.1481 355.178 50.2501 355.17C50.352 355.163 50.4544 355.175 50.5514 355.208C50.6484 355.24 50.7381 355.291 50.8153 355.358L60.1218 363.345C60.242 363.449 60.3278 363.586 60.3675 363.74C60.4072 363.893 60.3989 364.055 60.3438 364.203C60.2888 364.352 60.1895 364.48 60.0595 364.571C59.9294 364.661 59.7747 364.71 59.6163 364.709V364.709Z" fill="white" fill-opacity="0.2"/>
<path d="M119.332 369.906C119.332 362.296 122.355 354.997 127.737 349.616C133.118 344.234 140.417 341.211 148.027 341.211C155.637 341.211 162.936 344.234 168.318 349.616C173.699 354.997 176.722 362.296 176.722 369.906" fill="#E65B5A"/>
<path d="M148.027 369.907C147.822 369.907 147.625 369.825 147.479 369.679C147.334 369.534 147.252 369.337 147.252 369.131V354.008C147.252 353.802 147.334 353.605 147.479 353.46C147.625 353.314 147.822 353.232 148.027 353.232C148.233 353.232 148.43 353.314 148.576 353.46C148.721 353.605 148.803 353.802 148.803 354.008V369.131C148.803 369.337 148.721 369.534 148.576 369.679C148.43 369.825 148.233 369.907 148.027 369.907V369.907Z" fill="#141416"/>
<path d="M148.027 369.907C147.822 369.907 147.625 369.825 147.479 369.679C147.334 369.534 147.252 369.337 147.252 369.131V354.008C147.252 353.802 147.334 353.605 147.479 353.46C147.625 353.314 147.822 353.232 148.027 353.232C148.233 353.232 148.43 353.314 148.576 353.46C148.721 353.605 148.803 353.802 148.803 354.008V369.131C148.803 369.337 148.721 369.534 148.576 369.679C148.43 369.825 148.233 369.907 148.027 369.907V369.907Z" fill="white" fill-opacity="0.2"/>
<path d="M148.028 364.71C147.843 364.71 147.664 364.643 147.523 364.522L138.217 356.535C138.061 356.401 137.964 356.21 137.949 356.005C137.933 355.8 137.999 355.597 138.133 355.441C138.267 355.285 138.458 355.189 138.663 355.173C138.868 355.158 139.071 355.224 139.227 355.358L148.534 363.346C148.654 363.449 148.739 363.586 148.779 363.74C148.819 363.893 148.811 364.055 148.756 364.204C148.7 364.352 148.601 364.48 148.471 364.571C148.341 364.661 148.186 364.71 148.028 364.71V364.71Z" fill="#141416"/>
<path d="M148.028 364.71C147.843 364.71 147.664 364.643 147.523 364.522L138.217 356.535C138.061 356.401 137.964 356.21 137.949 356.005C137.933 355.8 137.999 355.597 138.133 355.441C138.267 355.285 138.458 355.189 138.663 355.173C138.868 355.158 139.071 355.224 139.227 355.358L148.534 363.346C148.654 363.449 148.739 363.586 148.779 363.74C148.819 363.893 148.811 364.055 148.756 364.204C148.7 364.352 148.601 364.48 148.471 364.571C148.341 364.661 148.186 364.71 148.028 364.71V364.71Z" fill="white" fill-opacity="0.2"/>
<path d="M196.112 39.8633C192.89 39.8633 189.742 40.8184 187.063 42.608C184.385 44.3976 182.298 46.9412 181.065 49.9171C179.832 52.8931 179.51 56.1677 180.138 59.327C180.767 62.4862 182.318 65.3882 184.595 67.6659C186.873 69.9436 189.775 71.4947 192.934 72.1231C196.094 72.7515 199.368 72.429 202.344 71.1963C205.32 69.9636 207.864 67.8762 209.653 65.1979C211.443 62.5196 212.398 59.3708 212.398 56.1497C212.398 51.8302 210.682 47.6877 207.628 44.6335C204.573 41.5792 200.431 39.8633 196.112 39.8633ZM192.212 63.2606C192.212 63.3823 192.164 63.499 192.078 63.585C191.992 63.671 191.875 63.7194 191.753 63.7194H188.083C187.961 63.7194 187.845 63.671 187.759 63.585C187.673 63.499 187.624 63.3823 187.624 63.2606V54.544C187.624 54.4223 187.673 54.3056 187.759 54.2196C187.845 54.1335 187.961 54.0852 188.083 54.0852H191.753C191.875 54.0852 191.992 54.1335 192.078 54.2196C192.164 54.3056 192.212 54.4223 192.212 54.544V63.2606ZM204.599 56.379C204.599 56.744 204.454 57.0941 204.196 57.3522C203.938 57.6103 203.588 57.7553 203.223 57.7553V57.7785C203.482 57.8314 203.714 57.9721 203.882 58.1769C204.049 58.3816 204.14 58.6379 204.14 58.9023C204.14 59.1666 204.049 59.4229 203.882 59.6277C203.714 59.8325 203.482 59.9732 203.223 60.0261V60.508C203.466 60.508 203.699 60.6046 203.871 60.7767C204.043 60.9488 204.14 61.1822 204.14 61.4255C204.14 61.6689 204.043 61.9022 203.871 62.0743C203.699 62.2464 203.466 62.3431 203.223 62.3431H194.047C193.925 62.3431 193.809 62.2947 193.723 62.2087C193.637 62.1226 193.588 62.006 193.588 61.8843V54.544C193.588 52.2501 197.259 49.0387 197.259 49.0387V47.9203C197.258 47.5802 197.383 47.2518 197.608 46.9974C197.834 46.7429 198.145 46.5802 198.483 46.54C198.821 46.4998 199.161 46.585 199.44 46.7794C199.719 46.9738 199.917 47.2638 199.997 47.5945C200.002 47.6168 200.007 47.6395 200.011 47.6624C200.47 49.9562 198.897 52.2627 198.897 52.2627H201.721C201.763 52.2589 201.803 52.2501 201.846 52.2501H203.223C203.588 52.2501 203.938 52.3951 204.196 52.6532C204.454 52.9113 204.599 53.2614 204.599 53.6264C204.599 53.9914 204.454 54.3415 204.196 54.5996C203.938 54.8577 203.588 55.0027 203.223 55.0027C203.588 55.0027 203.938 55.1477 204.196 55.4059C204.454 55.664 204.599 56.014 204.599 56.379V56.379Z" fill="#5E90FF"/>
<path d="M232.37 230.802C233.557 230.526 234.668 229.994 235.627 229.242C236.585 228.49 237.367 227.538 237.917 226.451C238.468 225.365 238.773 224.171 238.813 222.953C238.852 221.736 238.623 220.525 238.144 219.405L268.857 150.016L251.287 145.591L226.622 215.19C224.795 216.12 223.372 217.689 222.624 219.598C221.875 221.507 221.853 223.624 222.562 225.549C223.27 227.473 224.66 229.071 226.468 230.039C228.276 231.007 230.376 231.278 232.37 230.802V230.802Z" fill="#A0616A"/>
<path d="M260.045 171.732L242.958 163.733C242.471 163.506 242.04 163.176 241.693 162.767C241.345 162.357 241.09 161.878 240.945 161.361C240.8 160.844 240.768 160.302 240.851 159.772C240.934 159.242 241.13 158.735 241.426 158.288L251.811 142.604C252.991 140.125 255.105 138.214 257.691 137.291C260.276 136.367 263.122 136.507 265.606 137.678C268.089 138.849 270.007 140.957 270.939 143.54C271.871 146.122 271.741 148.969 270.578 151.456L265.208 169.42C265.054 169.934 264.791 170.409 264.437 170.813C264.083 171.216 263.646 171.539 263.156 171.758C262.666 171.977 262.135 172.089 261.598 172.084C261.061 172.08 260.532 171.96 260.045 171.732H260.045Z" fill="#52BEBD"/>
<path d="M200.634 162.808L219.474 176.146C219.715 176.321 220.006 176.416 220.304 176.416C220.602 176.416 220.893 176.321 221.134 176.146L226.225 172.324C226.394 172.2 226.533 172.04 226.632 171.855C226.731 171.67 226.787 171.465 226.795 171.255C226.804 171.046 226.766 170.837 226.683 170.645C226.6 170.452 226.474 170.281 226.316 170.143L211.819 157.216C211.629 157.049 211.398 156.936 211.149 156.888C210.901 156.84 210.644 156.859 210.405 156.942L200.972 160.318C200.73 160.407 200.516 160.561 200.355 160.763C200.193 160.964 200.09 161.206 200.055 161.462C200.02 161.718 200.056 161.978 200.158 162.215C200.26 162.453 200.425 162.658 200.635 162.808H200.634Z" fill="#3F3D56"/>
<path d="M202.346 161.78L219.324 173.8C219.409 173.864 219.513 173.899 219.62 173.9C219.726 173.901 219.831 173.868 219.917 173.805L224.496 170.368C224.548 170.33 224.592 170.283 224.626 170.229C224.66 170.174 224.683 170.114 224.693 170.05C224.704 169.987 224.702 169.922 224.687 169.86C224.672 169.798 224.645 169.739 224.608 169.687C224.587 169.658 224.563 169.633 224.536 169.609L211.461 157.949C211.393 157.89 211.31 157.851 211.222 157.835C211.134 157.818 211.042 157.826 210.958 157.856L202.461 160.896C202.376 160.929 202.301 160.984 202.245 161.056C202.189 161.128 202.153 161.213 202.141 161.304C202.129 161.394 202.142 161.486 202.178 161.57C202.214 161.654 202.273 161.726 202.346 161.78V161.78Z" fill="white"/>
<path d="M269.296 361.661L259.788 361.66L255.265 324.986L269.297 324.987L269.296 361.661Z" fill="#A0616A"/>
<path d="M271.721 370.877L241.063 370.876V370.488C241.063 368.921 241.372 367.37 241.972 365.922C242.571 364.474 243.45 363.159 244.559 362.051C245.667 360.942 246.982 360.064 248.43 359.464C249.878 358.864 251.429 358.556 252.996 358.556H252.997L271.722 358.556L271.721 370.877Z" fill="#141416"/>
<path d="M271.721 370.877L241.063 370.876V370.488C241.063 368.921 241.372 367.37 241.972 365.922C242.571 364.474 243.45 363.159 244.559 362.051C245.667 360.942 246.982 360.064 248.43 359.464C249.878 358.864 251.429 358.556 252.996 358.556H252.997L271.722 358.556L271.721 370.877Z" fill="white" fill-opacity="0.2"/>
<path d="M301.093 361.661L291.584 361.66L287.062 324.986L301.094 324.987L301.093 361.661Z" fill="#A0616A"/>
<path d="M303.518 370.877L272.86 370.876V370.488C272.86 368.921 273.169 367.37 273.769 365.922C274.368 364.474 275.247 363.159 276.355 362.051C277.463 360.942 278.779 360.064 280.227 359.464C281.674 358.864 283.226 358.556 284.793 358.556H284.794L303.519 358.556L303.518 370.877Z" fill="#141416"/>
<path d="M303.518 370.877L272.86 370.876V370.488C272.86 368.921 273.169 367.37 273.769 365.922C274.368 364.474 275.247 363.159 276.355 362.051C277.463 360.942 278.779 360.064 280.227 359.464C281.674 358.864 283.226 358.556 284.793 358.556H284.794L303.519 358.556L303.518 370.877Z" fill="white" fill-opacity="0.2"/>
<path d="M196.112 72.436C205.106 72.436 212.398 65.1444 212.398 56.1497C212.398 47.1549 205.106 39.8633 196.112 39.8633C187.117 39.8633 179.825 47.1549 179.825 56.1497C179.825 65.1444 187.117 72.436 196.112 72.436Z" fill="#2F80ED"/>
<path d="M202.834 61.875V60.4583C202.834 59.7069 202.5 58.9862 201.906 58.4549C201.312 57.9235 200.507 57.625 199.667 57.625H193.334C192.494 57.625 191.688 57.9235 191.094 58.4549C190.501 58.9862 190.167 59.7069 190.167 60.4583V61.875" stroke="white" stroke-linecap="round" stroke-linejoin="round"/>
<path d="M196.5 54.7917C198.249 54.7917 199.666 53.5231 199.666 51.9583C199.666 50.3935 198.249 49.125 196.5 49.125C194.751 49.125 193.333 50.3935 193.333 51.9583C193.333 53.5231 194.751 54.7917 196.5 54.7917Z" stroke="white" stroke-linecap="round" stroke-linejoin="round"/>
<path d="M181.714 133C187.394 133 192 128.394 192 122.714C192 117.033 187.394 112.428 181.714 112.428C176.033 112.428 171.428 117.033 171.428 122.714C171.428 128.394 176.033 133 181.714 133Z" fill="#2F80ED"/>
<path d="M185.959 126.329V125.434C185.959 124.959 185.748 124.504 185.373 124.169C184.998 123.833 184.489 123.645 183.959 123.645H179.959C179.429 123.645 178.92 123.833 178.545 124.169C178.17 124.504 177.959 124.959 177.959 125.434V126.329" stroke="white" stroke-linecap="round" stroke-linejoin="round"/>
<path d="M181.959 121.855C183.063 121.855 183.959 121.054 183.959 120.066C183.959 119.078 183.063 118.276 181.959 118.276C180.854 118.276 179.959 119.078 179.959 120.066C179.959 121.054 180.854 121.855 181.959 121.855Z" stroke="white" stroke-linecap="round" stroke-linejoin="round"/>
<path d="M300.659 351.457C300.572 351.457 300.486 351.454 300.4 351.448L289.466 350.639C288.716 350.58 288.006 350.282 287.438 349.789C286.871 349.296 286.477 348.634 286.314 347.901L267.328 243.69C267.265 243.402 267.096 243.148 266.853 242.98C266.61 242.813 266.313 242.744 266.022 242.787C265.73 242.83 265.465 242.982 265.282 243.213C265.098 243.443 265.009 243.735 265.032 244.029L271.773 346.705C271.811 347.185 271.749 347.667 271.591 348.122C271.433 348.577 271.183 348.994 270.857 349.348C270.53 349.701 270.133 349.983 269.692 350.176C269.251 350.369 268.775 350.468 268.294 350.468H259.968C259.265 350.469 258.579 350.257 257.999 349.861C257.419 349.465 256.972 348.904 256.716 348.25C235.776 293.414 243.359 185.971 243.42 184.89L244.195 184.114L285.902 191.316L285.99 191.401C300.241 201.868 306.408 324.445 304.142 347.763C304.128 348.753 303.762 349.707 303.111 350.452C302.457 351.097 301.576 351.458 300.659 351.457Z" fill="#141416"/>
<path d="M300.659 351.457C300.572 351.457 300.486 351.454 300.4 351.448L289.466 350.639C288.716 350.58 288.006 350.282 287.438 349.789C286.871 349.296 286.477 348.634 286.314 347.901L267.328 243.69C267.265 243.402 267.096 243.148 266.853 242.98C266.61 242.813 266.313 242.744 266.022 242.787C265.73 242.83 265.465 242.982 265.282 243.213C265.098 243.443 265.009 243.735 265.032 244.029L271.773 346.705C271.811 347.185 271.749 347.667 271.591 348.122C271.433 348.577 271.183 348.994 270.857 349.348C270.53 349.701 270.133 349.983 269.692 350.176C269.251 350.369 268.775 350.468 268.294 350.468H259.968C259.265 350.469 258.579 350.257 257.999 349.861C257.419 349.465 256.972 348.904 256.716 348.25C235.776 293.414 243.359 185.971 243.42 184.89L244.195 184.114L285.902 191.316L285.99 191.401C300.241 201.868 306.408 324.445 304.142 347.763C304.128 348.753 303.762 349.707 303.111 350.452C302.457 351.097 301.576 351.458 300.659 351.457Z" fill="white" fill-opacity="0.2"/>
<path d="M248.231 121.262C258.751 121.262 267.279 112.734 267.279 102.214C267.279 91.6941 258.751 83.166 248.231 83.166C237.711 83.166 229.183 91.6941 229.183 102.214C229.183 112.734 237.711 121.262 248.231 121.262Z" fill="#A0616A"/>
<path d="M291.917 209.013C291.723 209.013 291.529 208.993 291.339 208.955L242.42 202.677C240.668 202.324 239.418 200.455 239.513 198.328L244.195 172.482C237.99 164.727 243.853 144.698 247.644 139.634L246.178 135.666C245.8 134.636 245.777 133.509 246.113 132.464C246.401 131.48 247.062 130.648 247.955 130.145L267.809 119.597C269.569 118.662 271.634 119.619 272.413 121.729L276.306 132.265L276.247 132.296C285.569 137.293 293.829 142.236 287.625 168.605L295.404 205.021C295.377 206.169 294.915 207.265 294.11 208.084C293.528 208.668 292.741 209.001 291.917 209.013Z" fill="#E65B5A"/>
<path d="M222.893 166.319C223.206 166.613 223.495 166.932 223.757 167.271L262.127 164.62L266.243 156.231L279.715 160.789L273.871 176.347C273.399 177.604 272.532 178.674 271.4 179.396C270.268 180.118 268.932 180.453 267.593 180.352L223.961 177.043C222.996 178.384 221.644 179.4 220.087 179.955C218.529 180.51 216.84 180.577 215.243 180.148C213.647 179.72 212.219 178.815 211.149 177.555C210.079 176.294 209.418 174.738 209.254 173.093C209.09 171.448 209.431 169.792 210.231 168.346C211.031 166.899 212.253 165.73 213.734 164.995C215.214 164.26 216.884 163.992 218.52 164.229C220.156 164.466 221.681 165.195 222.893 166.319Z" fill="#A0616A"/>
<path d="M261.436 162.77C261.245 162.306 261.156 161.806 261.175 161.305C261.195 160.804 261.322 160.313 261.549 159.866L269.461 144.239C270.272 141.804 272.014 139.791 274.307 138.639C276.6 137.487 279.256 137.291 281.692 138.095C284.129 138.898 286.148 140.635 287.306 142.924C288.464 145.214 288.668 147.869 287.871 150.308L284.824 167.614C284.737 168.108 284.544 168.578 284.26 168.991C283.975 169.403 283.604 169.75 283.174 170.007C282.743 170.264 282.262 170.424 281.763 170.479C281.265 170.533 280.76 170.479 280.284 170.32L263.561 164.753C263.085 164.594 262.648 164.335 262.282 163.993C261.915 163.651 261.627 163.234 261.436 162.77Z" fill="#E65B5A"/>
<path d="M201.552 150.011C201.395 150.157 201.188 150.239 200.972 150.239C200.757 150.239 200.55 150.157 200.393 150.011L199.947 149.608C196.304 146.265 194.2 144.093 194.2 141.385C194.2 139.177 195.598 137.47 197.79 137.47C198.397 137.473 198.996 137.609 199.546 137.867C200.096 138.125 200.583 138.499 200.974 138.964C201.364 138.499 201.851 138.125 202.4 137.867C202.949 137.609 203.548 137.473 204.155 137.47C206.35 137.47 207.745 139.171 207.745 141.385C207.745 144.087 205.641 146.259 201.997 149.608L201.552 150.011Z" fill="#FF6584"/>
<path d="M174.939 103.688C174.638 103.969 174.24 104.126 173.828 104.126C173.416 104.126 173.019 103.969 172.717 103.688L171.864 102.917C164.883 96.5112 160.852 92.3496 160.852 87.1611C160.852 82.9288 163.53 79.6582 167.73 79.6582C168.893 79.6648 170.042 79.9243 171.095 80.4187C172.149 80.9131 173.082 81.6305 173.831 82.5214C174.579 81.6307 175.511 80.9132 176.564 80.4188C177.616 79.9244 178.764 79.6649 179.927 79.6582C184.132 79.6582 186.805 82.918 186.805 87.1611C186.805 92.3387 182.773 96.5004 175.792 102.917L174.939 103.688Z" fill="#FF6584"/>
<path d="M176.046 31.2106C175.655 31.5757 175.139 31.7787 174.603 31.7787C174.068 31.7787 173.552 31.5757 173.16 31.2106L172.052 30.2086C162.985 21.8891 157.749 16.4839 157.749 9.74496C157.749 4.24799 161.228 0 166.682 0C168.194 0.00861863 169.685 0.345654 171.054 0.987758C172.422 1.62986 173.634 2.5617 174.607 3.71873C175.578 2.56187 176.789 1.63007 178.156 0.987935C179.523 0.345801 181.014 0.00869075 182.524 0C187.986 0 191.458 4.23388 191.458 9.74496C191.458 16.4697 186.222 21.875 177.154 30.2086L176.046 31.2106Z" fill="#FF6584"/>
<path d="M500.224 371.02H0.775542C0.569855 371.02 0.372604 370.938 0.227162 370.793C0.0817199 370.647 0 370.45 0 370.244C0 370.039 0.0817199 369.841 0.227162 369.696C0.372604 369.55 0.569855 369.469 0.775542 369.469H500.224C500.43 369.469 500.627 369.55 500.773 369.696C500.918 369.841 501 370.039 501 370.244C501 370.45 500.918 370.647 500.773 370.793C500.627 370.938 500.43 371.02 500.224 371.02Z" fill="#141416"/>
<path d="M500.224 371.02H0.775542C0.569855 371.02 0.372604 370.938 0.227162 370.793C0.0817199 370.647 0 370.45 0 370.244C0 370.039 0.0817199 369.841 0.227162 369.696C0.372604 369.55 0.569855 369.469 0.775542 369.469H500.224C500.43 369.469 500.627 369.55 500.773 369.696C500.918 369.841 501 370.039 501 370.244C501 370.45 500.918 370.647 500.773 370.793C500.627 370.938 500.43 371.02 500.224 371.02Z" fill="white" fill-opacity="0.2"/>
<path d="M258.931 87.1721C267.497 87.1721 274.442 80.2276 274.442 71.6612C274.442 63.0948 267.497 56.1504 258.931 56.1504C250.364 56.1504 243.42 63.0948 243.42 71.6612C243.42 80.2276 250.364 87.1721 258.931 87.1721Z" fill="#141416"/>
<path d="M258.931 87.1721C267.497 87.1721 274.442 80.2276 274.442 71.6612C274.442 63.0948 267.497 56.1504 258.931 56.1504C250.364 56.1504 243.42 63.0948 243.42 71.6612C243.42 80.2276 250.364 87.1721 258.931 87.1721Z" fill="white" fill-opacity="0.2"/>
<path d="M230.199 104.569C228.684 104.729 227.072 104.873 225.709 104.192C224.979 103.779 224.358 103.199 223.895 102.5C223.432 101.801 223.14 101.003 223.043 100.17C220.153 80.9683 236.481 82.5478 238.412 81.7162C239.711 81.1571 240.667 80.0319 241.827 79.2243C244.365 77.4581 247.657 77.329 250.748 77.2623C254.417 77.1832 258.22 77.1287 261.588 78.5876C264.616 80.0066 267.133 82.3261 268.793 85.2291C270.437 88.1199 271.641 91.2389 272.366 94.4839C273.3 98.1963 273.935 102.123 272.974 105.829C272.18 108.645 270.526 111.143 268.243 112.973C265.96 114.803 263.162 115.873 260.24 116.034C261.493 111.608 258.758 106.702 254.7 104.536C251.426 102.926 247.7 102.482 244.14 103.279C241.83 103.746 239.489 104.038 237.135 104.151C234.826 104.237 232.053 104.373 230.199 104.569Z" fill="#141416"/>
<path d="M230.199 104.569C228.684 104.729 227.072 104.873 225.709 104.192C224.979 103.779 224.358 103.199 223.895 102.5C223.432 101.801 223.14 101.003 223.043 100.17C220.153 80.9683 236.481 82.5478 238.412 81.7162C239.711 81.1571 240.667 80.0319 241.827 79.2243C244.365 77.4581 247.657 77.329 250.748 77.2623C254.417 77.1832 258.22 77.1287 261.588 78.5876C264.616 80.0066 267.133 82.3261 268.793 85.2291C270.437 88.1199 271.641 91.2389 272.366 94.4839C273.3 98.1963 273.935 102.123 272.974 105.829C272.18 108.645 270.526 111.143 268.243 112.973C265.96 114.803 263.162 115.873 260.24 116.034C261.493 111.608 258.758 106.702 254.7 104.536C251.426 102.926 247.7 102.482 244.14 103.279C241.83 103.746 239.489 104.038 237.135 104.151C234.826 104.237 232.053 104.373 230.199 104.569Z" fill="white" fill-opacity="0.2"/>
<path d="M478.983 164.225C478.983 126.794 448.619 37.9736 411.164 37.9736C373.708 37.9736 343.344 126.794 343.344 164.225C343.357 182.203 350.509 199.44 363.226 212.148C375.943 224.855 393.185 231.993 411.164 231.993C429.142 231.993 446.384 224.855 459.101 212.148C471.818 199.44 478.97 182.203 478.983 164.225V164.225Z" fill="#E65B5A"/>
<path d="M411.163 370.245C410.958 370.245 410.76 370.163 410.615 370.018C410.469 369.872 410.388 369.675 410.388 369.469V155.311C410.388 155.105 410.469 154.908 410.615 154.762C410.76 154.617 410.958 154.535 411.163 154.535C411.369 154.535 411.566 154.617 411.712 154.762C411.857 154.908 411.939 155.105 411.939 155.311V369.469C411.939 369.675 411.857 369.872 411.712 370.018C411.566 370.163 411.369 370.245 411.163 370.245V370.245Z" fill="#141416"/>
<path d="M411.163 370.245C410.958 370.245 410.76 370.163 410.615 370.018C410.469 369.872 410.388 369.675 410.388 369.469V155.311C410.388 155.105 410.469 154.908 410.615 154.762C410.76 154.617 410.958 154.535 411.163 154.535C411.369 154.535 411.566 154.617 411.712 154.762C411.857 154.908 411.939 155.105 411.939 155.311V369.469C411.939 369.675 411.857 369.872 411.712 370.018C411.566 370.163 411.369 370.245 411.163 370.245V370.245Z" fill="white" fill-opacity="0.2"/>
<path d="M411.164 184.89C411.053 184.891 410.943 184.867 410.842 184.821C410.741 184.775 410.651 184.707 410.578 184.623L371.573 139.642C371.439 139.486 371.372 139.284 371.387 139.079C371.402 138.874 371.497 138.684 371.652 138.549C371.807 138.414 372.01 138.347 372.214 138.361C372.419 138.376 372.61 138.471 372.745 138.625L411.75 183.607C411.847 183.719 411.91 183.857 411.931 184.004C411.952 184.151 411.931 184.301 411.869 184.437C411.808 184.572 411.708 184.687 411.583 184.767C411.458 184.847 411.313 184.89 411.164 184.89Z" fill="#141416"/>
<path d="M411.164 184.89C411.053 184.891 410.943 184.867 410.842 184.821C410.741 184.775 410.651 184.707 410.578 184.623L371.573 139.642C371.439 139.486 371.372 139.284 371.387 139.079C371.402 138.874 371.497 138.684 371.652 138.549C371.807 138.414 372.01 138.347 372.214 138.361C372.419 138.376 372.61 138.471 372.745 138.625L411.75 183.607C411.847 183.719 411.91 183.857 411.931 184.004C411.952 184.151 411.931 184.301 411.869 184.437C411.808 184.572 411.708 184.687 411.583 184.767C411.458 184.847 411.313 184.89 411.164 184.89Z" fill="white" fill-opacity="0.2"/>
<path d="M411.164 210.85C411.011 210.85 410.861 210.805 410.733 210.719C410.606 210.634 410.506 210.513 410.448 210.371C410.389 210.23 410.374 210.074 410.404 209.923C410.433 209.773 410.507 209.635 410.616 209.526L432.779 187.363C432.851 187.291 432.936 187.234 433.03 187.195C433.125 187.156 433.225 187.136 433.327 187.136C433.429 187.136 433.53 187.156 433.624 187.195C433.718 187.234 433.804 187.291 433.876 187.363C433.948 187.435 434.005 187.52 434.044 187.614C434.083 187.709 434.103 187.809 434.103 187.911C434.103 188.013 434.083 188.114 434.044 188.208C434.005 188.302 433.948 188.388 433.876 188.46L411.712 210.623C411.64 210.695 411.555 210.752 411.461 210.791C411.367 210.83 411.266 210.85 411.164 210.85Z" fill="#141416"/>
<path d="M411.164 210.85C411.011 210.85 410.861 210.805 410.733 210.719C410.606 210.634 410.506 210.513 410.448 210.371C410.389 210.23 410.374 210.074 410.404 209.923C410.433 209.773 410.507 209.635 410.616 209.526L432.779 187.363C432.851 187.291 432.936 187.234 433.03 187.195C433.125 187.156 433.225 187.136 433.327 187.136C433.429 187.136 433.53 187.156 433.624 187.195C433.718 187.234 433.804 187.291 433.876 187.363C433.948 187.435 434.005 187.52 434.044 187.614C434.083 187.709 434.103 187.809 434.103 187.911C434.103 188.013 434.083 188.114 434.044 188.208C434.005 188.302 433.948 188.388 433.876 188.46L411.712 210.623C411.64 210.695 411.555 210.752 411.461 210.791C411.367 210.83 411.266 210.85 411.164 210.85Z" fill="white" fill-opacity="0.2"/>
<path d="M411.164 296.16C411.011 296.16 410.861 296.114 410.733 296.029C410.606 295.944 410.506 295.823 410.448 295.681C410.389 295.539 410.374 295.383 410.404 295.233C410.433 295.083 410.507 294.944 410.616 294.836L432.779 272.672C432.924 272.527 433.122 272.445 433.327 272.445C433.533 272.445 433.73 272.527 433.876 272.672C434.021 272.818 434.103 273.015 434.103 273.221C434.103 273.426 434.021 273.624 433.876 273.769L411.712 295.933C411.64 296.005 411.555 296.062 411.461 296.101C411.367 296.14 411.266 296.16 411.164 296.16V296.16Z" fill="#141416"/>
<path d="M411.164 296.16C411.011 296.16 410.861 296.114 410.733 296.029C410.606 295.944 410.506 295.823 410.448 295.681C410.389 295.539 410.374 295.383 410.404 295.233C410.433 295.083 410.507 294.944 410.616 294.836L432.779 272.672C432.924 272.527 433.122 272.445 433.327 272.445C433.533 272.445 433.73 272.527 433.876 272.672C434.021 272.818 434.103 273.015 434.103 273.221C434.103 273.426 434.021 273.624 433.876 273.769L411.712 295.933C411.64 296.005 411.555 296.062 411.461 296.101C411.367 296.14 411.266 296.16 411.164 296.16V296.16Z" fill="white" fill-opacity="0.2"/>
</g>
<defs>
<clipPath id="clip0_83_490">
<rect width="501" height="371.021" fill="white"/>
</clipPath>
</defs>
</svg>
