<svg width="118" height="28" viewBox="0 0 118 28" fill="none" xmlns="http://www.w3.org/2000/svg">
<path d="M6.562 2.21C7.69533 2.21 8.55667 2.346 9.146 2.618C9.73533 2.86733 10.2567 3.15067 10.71 3.468C10.982 3.62667 11.1973 3.75133 11.356 3.842C11.5373 3.91 11.7073 3.944 11.866 3.944C12.0927 3.944 12.2513 3.81933 12.342 3.57C12.4553 3.32067 12.546 2.94667 12.614 2.448H13.396C13.3733 2.83333 13.3393 3.298 13.294 3.842C13.2713 4.36333 13.2487 5.066 13.226 5.95C13.226 6.81133 13.226 7.956 13.226 9.384H12.444C12.376 8.296 12.138 7.25333 11.73 6.256C11.322 5.25867 10.7213 4.44267 9.928 3.808C9.15733 3.17333 8.13733 2.856 6.868 2.856C5.66667 2.856 4.66933 3.21867 3.876 3.944C3.10533 4.66933 2.72 5.62133 2.72 6.8C2.72 7.82 2.98067 8.68133 3.502 9.384C4.02333 10.064 4.71467 10.6873 5.576 11.254C6.46 11.798 7.412 12.3873 8.432 13.022C9.61067 13.7473 10.6533 14.4727 11.56 15.198C12.4893 15.9007 13.2147 16.6827 13.736 17.544C14.28 18.4053 14.552 19.448 14.552 20.672C14.552 22.1227 14.2233 23.324 13.566 24.276C12.9087 25.228 12.036 25.942 10.948 26.418C9.86 26.894 8.65867 27.132 7.344 27.132C6.14267 27.132 5.19067 26.996 4.488 26.724C3.78533 26.452 3.18467 26.1687 2.686 25.874C2.18733 25.5567 1.802 25.398 1.53 25.398C1.30333 25.398 1.13333 25.5227 1.02 25.772C0.929333 26.0213 0.85 26.3953 0.782 26.894H0C0.0453334 26.418 0.0680001 25.8627 0.0680001 25.228C0.0906667 24.5707 0.102 23.7207 0.102 22.678C0.124667 21.6353 0.136 20.3207 0.136 18.734H0.918C1.00867 20.094 1.258 21.3633 1.666 22.542C2.09667 23.7207 2.74267 24.6727 3.604 25.398C4.488 26.1007 5.65533 26.452 7.106 26.452C7.854 26.452 8.55667 26.3047 9.214 26.01C9.894 25.6927 10.4493 25.2053 10.88 24.548C11.3107 23.868 11.526 22.9953 11.526 21.93C11.526 21.0007 11.2993 20.196 10.846 19.516C10.4153 18.8133 9.80333 18.1673 9.01 17.578C8.21667 16.966 7.28733 16.3427 6.222 15.708C5.15667 15.0507 4.15933 14.382 3.23 13.702C2.30067 13.022 1.55267 12.24 0.986 11.356C0.442 10.4493 0.17 9.36133 0.17 8.092C0.17 6.75467 0.464667 5.65533 1.054 4.794C1.666 3.91 2.45933 3.264 3.434 2.856C4.40867 2.42533 5.45133 2.21 6.562 2.21Z" fill="#FAFBFF"/>
<path d="M32.4781 8.772V22.984C32.4781 24.004 32.6595 24.7633 33.0221 25.262C33.4075 25.738 34.0875 25.976 35.0621 25.976V26.69C34.3595 26.622 33.6568 26.588 32.9541 26.588C32.2968 26.588 31.6621 26.622 31.0501 26.69C30.4608 26.758 29.9168 26.8827 29.4181 27.064V23.052C28.8515 24.5253 28.0468 25.5793 27.0041 26.214C25.9841 26.826 24.9301 27.132 23.8421 27.132C23.0488 27.132 22.3575 27.0187 21.7681 26.792C21.1788 26.5653 20.6915 26.248 20.3061 25.84C19.8755 25.3867 19.5808 24.7973 19.4221 24.072C19.2635 23.3467 19.1841 22.4513 19.1841 21.386V12.852C19.1841 11.832 19.0028 11.084 18.6401 10.608C18.2775 10.1093 17.5975 9.86 16.6001 9.86V9.146C17.3255 9.214 18.0281 9.248 18.7081 9.248C19.3655 9.248 19.9888 9.214 20.5781 9.146C21.1901 9.05533 21.7455 8.93067 22.2441 8.772V22.134C22.2441 22.8367 22.2895 23.4827 22.3801 24.072C22.4708 24.6613 22.6975 25.1373 23.0601 25.5C23.4228 25.8627 24.0121 26.044 24.8281 26.044C25.7121 26.044 26.4941 25.772 27.1741 25.228C27.8768 24.684 28.4208 23.9473 28.8061 23.018C29.2141 22.0887 29.4181 21.046 29.4181 19.89V12.852C29.4181 11.832 29.2368 11.084 28.8741 10.608C28.5115 10.1093 27.8315 9.86 26.8341 9.86V9.146C27.5595 9.214 28.2621 9.248 28.9421 9.248C29.5995 9.248 30.2228 9.214 30.8121 9.146C31.4241 9.05533 31.9795 8.93067 32.4781 8.772Z" fill="#FAFBFF"/>
<path d="M40.5108 0.646C41.1001 0.646 41.6101 0.861333 42.0408 1.292C42.4715 1.72267 42.6868 2.23267 42.6868 2.822C42.6868 3.41133 42.4715 3.92133 42.0408 4.352C41.6101 4.78267 41.1001 4.998 40.5108 4.998C39.9215 4.998 39.4115 4.78267 38.9808 4.352C38.5501 3.92133 38.3348 3.41133 38.3348 2.822C38.3348 2.23267 38.5501 1.72267 38.9808 1.292C39.4115 0.861333 39.9215 0.646 40.5108 0.646ZM42.2788 8.772V23.494C42.2788 24.446 42.4715 25.092 42.8568 25.432C43.2648 25.772 43.9335 25.942 44.8628 25.942V26.656C44.4775 26.6333 43.8881 26.6107 43.0948 26.588C42.3241 26.5427 41.5421 26.52 40.7488 26.52C39.9781 26.52 39.1961 26.5427 38.4028 26.588C37.6095 26.6107 37.0201 26.6333 36.6348 26.656V25.942C37.5641 25.942 38.2215 25.772 38.6068 25.432C39.0148 25.092 39.2188 24.446 39.2188 23.494V12.852C39.2188 11.832 39.0375 11.084 38.6748 10.608C38.3121 10.1093 37.6321 9.86 36.6348 9.86V9.146C37.3601 9.214 38.0628 9.248 38.7428 9.248C39.4001 9.248 40.0235 9.214 40.6128 9.146C41.2248 9.05533 41.7801 8.93067 42.2788 8.772Z" fill="#FAFBFF"/>
<path d="M51.9065 3.502V9.18H56.9385V9.86H51.9065V23.018C51.9065 24.0833 52.0992 24.8313 52.4845 25.262C52.8699 25.6927 53.4025 25.908 54.0825 25.908C54.7625 25.908 55.3519 25.636 55.8505 25.092C56.3492 24.5253 56.7799 23.5847 57.1425 22.27L57.8225 22.44C57.5959 23.7547 57.1425 24.8653 56.4625 25.772C55.8052 26.6787 54.7852 27.132 53.4025 27.132C52.6319 27.132 51.9972 27.03 51.4985 26.826C50.9999 26.6447 50.5579 26.3727 50.1725 26.01C49.6739 25.4887 49.3225 24.8653 49.1185 24.14C48.9372 23.4147 48.8465 22.4513 48.8465 21.25V9.86H45.5825V9.18H48.8465V3.978C49.4132 3.95533 49.9572 3.91 50.4785 3.842C50.9999 3.774 51.4759 3.66067 51.9065 3.502Z" fill="#FAFBFF"/>
<path d="M63.1169 26.894C62.1875 26.894 61.3829 26.724 60.7029 26.384C60.0229 26.0213 59.5015 25.5227 59.1389 24.888C58.7989 24.2533 58.6289 23.5167 58.6289 22.678C58.6289 21.6807 58.8555 20.8647 59.3089 20.23C59.7849 19.5953 60.3855 19.0853 61.1109 18.7C61.8362 18.3147 62.5955 17.9973 63.3889 17.748C64.2049 17.476 64.9755 17.2267 65.7009 17C66.4262 16.7507 67.0155 16.4673 67.4689 16.15C67.9449 15.8327 68.1829 15.4133 68.1829 14.892V12.784C68.1829 11.832 68.0355 11.1067 67.7409 10.608C67.4689 10.1093 67.0949 9.78067 66.6189 9.622C66.1429 9.44067 65.6102 9.35 65.0209 9.35C64.4542 9.35 63.8422 9.42933 63.1849 9.588C62.5502 9.74667 62.0402 10.0753 61.6549 10.574C62.0855 10.6647 62.4595 10.8913 62.7769 11.254C63.0942 11.6167 63.2529 12.0813 63.2529 12.648C63.2529 13.2147 63.0715 13.668 62.7089 14.008C62.3462 14.3253 61.8815 14.484 61.3149 14.484C60.6575 14.484 60.1702 14.28 59.8529 13.872C59.5582 13.4413 59.4109 12.9653 59.4109 12.444C59.4109 11.8547 59.5582 11.3787 59.8529 11.016C60.1475 10.6533 60.5215 10.3133 60.9749 9.996C61.4962 9.63333 62.1649 9.32733 62.9809 9.078C63.8195 8.806 64.7602 8.67 65.8029 8.67C66.7322 8.67 67.5255 8.78333 68.1829 9.01C68.8402 9.214 69.3842 9.52 69.8149 9.928C70.4042 10.472 70.7895 11.1407 70.9709 11.934C71.1522 12.7047 71.2429 13.634 71.2429 14.722V24.174C71.2429 24.7407 71.3222 25.1487 71.4809 25.398C71.6622 25.6473 71.9342 25.772 72.2969 25.772C72.5462 25.772 72.7842 25.7153 73.0109 25.602C73.2375 25.4887 73.5095 25.3073 73.8269 25.058L74.2009 25.636C73.7249 25.9987 73.2715 26.3047 72.8409 26.554C72.4102 26.7807 71.8322 26.894 71.1069 26.894C70.4495 26.894 69.9055 26.7807 69.4749 26.554C69.0442 26.3273 68.7155 25.9987 68.4889 25.568C68.2849 25.1147 68.1829 24.548 68.1829 23.868C67.5709 24.888 66.8342 25.6473 65.9729 26.146C65.1342 26.6447 64.1822 26.894 63.1169 26.894ZM64.3409 25.534C65.0889 25.534 65.7802 25.3187 66.4149 24.888C67.0722 24.4573 67.6615 23.8113 68.1829 22.95V16.286C67.9109 16.6713 67.5142 17 66.9929 17.272C66.4715 17.5213 65.9049 17.782 65.2929 18.054C64.6809 18.3033 64.0915 18.6093 63.5249 18.972C62.9809 19.312 62.5275 19.7653 62.1649 20.332C61.8022 20.8987 61.6209 21.6353 61.6209 22.542C61.6209 23.4487 61.8589 24.174 62.3349 24.718C62.8335 25.262 63.5022 25.534 64.3409 25.534Z" fill="#FAFBFF"/>
<path d="M85.1572 8.67C87.0159 8.67 88.5573 9.44067 89.7812 10.982C91.0053 12.5007 91.6172 14.8127 91.6172 17.918C91.6172 19.958 91.2659 21.6693 90.5632 23.052C89.8832 24.412 88.9652 25.432 87.8092 26.112C86.6532 26.792 85.3952 27.132 84.0352 27.132C82.9019 27.132 81.8026 26.8147 80.7373 26.18C79.6946 25.5227 78.9126 24.5593 78.3913 23.29L79.0713 23.664C79.6379 24.5707 80.3406 25.2507 81.1792 25.704C82.0179 26.1347 82.8793 26.35 83.7633 26.35C85.2819 26.35 86.4152 25.67 87.1632 24.31C87.9339 22.9273 88.3193 20.7967 88.3193 17.918C88.3193 16.082 88.1719 14.552 87.8773 13.328C87.5826 12.104 87.1292 11.1973 86.5173 10.608C85.9052 9.996 85.1232 9.69 84.1712 9.69C83.1286 9.69 82.1539 10.166 81.2472 11.118C80.3632 12.0473 79.8192 13.4187 79.6152 15.232L79.2072 14.756C79.4566 12.8293 80.1252 11.3333 81.2132 10.268C82.3239 9.20267 83.6386 8.67 85.1572 8.67ZM79.8532 0.0339996V24.888C79.5586 25.1373 79.2526 25.398 78.9352 25.67C78.6406 25.9193 78.3459 26.1687 78.0512 26.418C77.7566 26.6673 77.4506 26.928 77.1332 27.2L76.5553 26.962C76.6459 26.6447 76.7026 26.3273 76.7253 26.01C76.7706 25.67 76.7933 25.33 76.7933 24.99V4.114C76.7933 3.094 76.6119 2.346 76.2492 1.87C75.8866 1.37133 75.2066 1.122 74.2093 1.122V0.408001C74.9346 0.476 75.6372 0.51 76.3172 0.51C76.9746 0.51 77.5979 0.476 78.1872 0.408001C78.7992 0.317334 79.3546 0.192667 79.8532 0.0339996Z" fill="#FAFBFF"/>
<path d="M99.1282 0V23.494C99.1282 24.446 99.3209 25.092 99.7062 25.432C100.114 25.772 100.783 25.942 101.712 25.942V26.656C101.327 26.6333 100.738 26.6107 99.9442 26.588C99.1736 26.5427 98.3916 26.52 97.5982 26.52C96.8276 26.52 96.0456 26.5427 95.2522 26.588C94.4589 26.6107 93.8696 26.6333 93.4842 26.656V25.942C94.4136 25.942 95.0709 25.772 95.4562 25.432C95.8642 25.092 96.0682 24.446 96.0682 23.494V4.08C96.0682 3.06 95.8869 2.312 95.5242 1.836C95.1616 1.33733 94.4816 1.088 93.4842 1.088V0.373999C94.2096 0.442 94.9122 0.476 95.5922 0.476C96.2495 0.476 96.8729 0.442 97.4622 0.373999C98.0742 0.283334 98.6296 0.158667 99.1282 0Z" fill="#FAFBFF"/>
<path d="M111.218 8.67C113.212 8.67 114.765 9.282 115.876 10.506C117.009 11.7073 117.576 13.5887 117.576 16.15H105.574L105.54 15.504H114.312C114.357 14.3933 114.266 13.3733 114.04 12.444C113.813 11.492 113.45 10.7327 112.952 10.166C112.476 9.59933 111.852 9.316 111.082 9.316C110.039 9.316 109.11 9.83733 108.294 10.88C107.5 11.9227 107.024 13.5773 106.866 15.844L106.968 15.98C106.922 16.32 106.888 16.694 106.866 17.102C106.843 17.51 106.832 17.918 106.832 18.326C106.832 19.8673 107.081 21.1933 107.58 22.304C108.078 23.4147 108.724 24.2647 109.518 24.854C110.334 25.4207 111.172 25.704 112.034 25.704C112.714 25.704 113.36 25.602 113.972 25.398C114.584 25.1713 115.15 24.8087 115.672 24.31C116.193 23.8113 116.646 23.1427 117.032 22.304L117.712 22.576C117.462 23.324 117.054 24.0493 116.488 24.752C115.921 25.4547 115.207 26.0327 114.346 26.486C113.484 26.9167 112.487 27.132 111.354 27.132C109.722 27.132 108.316 26.758 107.138 26.01C105.982 25.262 105.086 24.2307 104.452 22.916C103.84 21.5787 103.534 20.0487 103.534 18.326C103.534 16.3313 103.851 14.62 104.486 13.192C105.12 11.7413 106.016 10.6307 107.172 9.86C108.328 9.06667 109.676 8.67 111.218 8.67Z" fill="#FAFBFF"/>
</svg>
