<svg width="50" height="50" viewBox="0 0 50 50" fill="none" xmlns="http://www.w3.org/2000/svg">
<path fill-rule="evenodd" clip-rule="evenodd" d="M10.4167 6.30078C10.4167 6.30078 10.9219 7.1862 11.5854 8.52786C12.499 10.3716 13.7135 13.0789 14.3302 15.5289C14.4323 15.9341 14.5177 16.331 14.5833 16.7164V32.3414H16.6667V26.7716C16 25.531 15.625 24.0549 15.625 22.3716C15.625 18.6372 18.9323 15.9247 21.7042 13.6529C22.3424 13.1403 22.9665 12.6106 23.576 12.0643C23.7083 11.9424 23.8365 11.8227 23.9583 11.7029V8.38412H26.0417V11.7029C26.1635 11.8227 26.2917 11.9424 26.424 12.0643C26.9792 12.5737 27.6219 13.1008 28.2958 13.6529C31.0667 15.9247 34.375 18.6372 34.375 22.3716C34.375 24.0549 34 25.531 33.3333 26.7716V32.3424H35.4167V16.7174C35.4729 16.3383 35.5531 15.9414 35.6542 15.5331C36.2375 13.1654 37.4823 10.4081 38.4167 8.52682C39.0781 7.19349 39.5833 6.30078 39.5833 6.30078C39.5833 6.30078 40.0885 7.1862 40.7521 8.52786C41.6656 10.3716 42.8802 13.0789 43.4969 15.5289C43.599 15.9341 43.6844 16.331 43.75 16.7164V43.7997H6.25V16.7164C6.30625 16.3383 6.38646 15.9414 6.4875 15.5331C7.07083 13.1654 8.31563 10.4081 9.25 8.52682C9.91146 7.19349 10.4167 6.30078 10.4167 6.30078ZM29.1667 41.7174V41.1674C29.1667 40.7805 29.0589 40.4012 28.8554 40.072C28.6519 39.7429 28.3607 39.4769 28.0146 39.3039L25 37.7966L21.9854 39.3039C21.6393 39.4769 21.3481 39.7429 21.1446 40.072C20.9411 40.4012 20.8333 40.7805 20.8333 41.1674V41.7174H29.1667ZM31.25 41.7174H35.4167V34.4258H14.5833V41.7174H18.75V41.1674C18.7499 40.3936 18.9654 39.635 19.3721 38.9768C19.7789 38.3185 20.361 37.7865 21.0531 37.4404L25 35.4674L28.9469 37.4404C29.639 37.7865 30.2211 38.3185 30.6279 38.9768C31.0346 39.635 31.2501 40.3936 31.25 41.1674V41.7174ZM37.5 17.2049C38.3417 17.0018 38.9625 16.8997 39.5833 16.8997C40.2042 16.8997 40.825 17.0018 41.6667 17.2049V41.7174H37.5V17.2049V17.2049ZM8.33333 17.2049V41.7174H12.5V17.2049C11.6583 17.0018 11.0375 16.8997 10.4167 16.8997C9.79583 16.8997 9.175 17.0018 8.33333 17.2049V17.2049ZM8.80833 14.9737C9.22083 13.6612 9.81042 12.231 10.4156 10.9154C11.0021 12.1987 11.5844 13.6206 12.0073 14.9706C11.4827 14.8719 10.9504 14.8203 10.4167 14.8164C9.8875 14.8164 9.36458 14.8727 8.80833 14.9727V14.9737ZM18.6781 26.0924C18.0719 25.107 17.7083 23.8716 17.7083 22.3716C17.7083 21.1622 18.2344 20.0049 19.2354 18.7862C20.2562 17.5435 21.6083 16.4258 23.025 15.2643L23.0531 15.2404C23.7125 14.6997 24.3969 14.1393 25 13.5852C25.6031 14.1393 26.2875 14.6997 26.9469 15.2414L26.975 15.2643C28.3917 16.4258 29.7448 17.5435 30.7646 18.7852C31.7646 20.0039 32.2917 21.1622 32.2917 22.3716C32.2917 23.8716 31.9271 25.107 31.3229 26.0924H18.6771H18.6781ZM18.75 28.1758V32.3424H19.7917V31.3008C19.7917 31.0245 19.9014 30.7596 20.0968 30.5642C20.2921 30.3689 20.5571 30.2591 20.8333 30.2591C21.1096 30.2591 21.3746 30.3689 21.5699 30.5642C21.7653 30.7596 21.875 31.0245 21.875 31.3008V32.3424H23.9583V31.3008C23.9583 31.0245 24.0681 30.7596 24.2634 30.5642C24.4588 30.3689 24.7237 30.2591 25 30.2591C25.2763 30.2591 25.5412 30.3689 25.7366 30.5642C25.9319 30.7596 26.0417 31.0245 26.0417 31.3008V32.3424H28.125V31.3008C28.125 31.0245 28.2347 30.7596 28.4301 30.5642C28.6254 30.3689 28.8904 30.2591 29.1667 30.2591C29.4429 30.2591 29.7079 30.3689 29.9032 30.5642C30.0986 30.7596 30.2083 31.0245 30.2083 31.3008V32.3424H31.25V28.1758H18.75V28.1758ZM39.5833 10.9154C38.9771 12.231 38.3875 13.6612 37.975 14.9737C38.5053 14.873 39.0436 14.8204 39.5833 14.8164C40.1062 14.8164 40.625 14.8716 41.174 14.9695C40.751 13.6206 40.1687 12.1987 39.5823 10.9154H39.5833Z" fill="#E65B5A"/>
<path fill-rule="evenodd" clip-rule="evenodd" d="M10.4167 6.30078C10.4167 6.30078 10.9219 7.1862 11.5854 8.52786C12.499 10.3716 13.7135 13.0789 14.3302 15.5289C14.4323 15.9341 14.5177 16.331 14.5833 16.7164V32.3414H16.6667V26.7716C16 25.531 15.625 24.0549 15.625 22.3716C15.625 18.6372 18.9323 15.9247 21.7042 13.6529C22.3424 13.1403 22.9665 12.6106 23.576 12.0643C23.7083 11.9424 23.8365 11.8227 23.9583 11.7029V8.38412H26.0417V11.7029C26.1635 11.8227 26.2917 11.9424 26.424 12.0643C26.9792 12.5737 27.6219 13.1008 28.2958 13.6529C31.0667 15.9247 34.375 18.6372 34.375 22.3716C34.375 24.0549 34 25.531 33.3333 26.7716V32.3424H35.4167V16.7174C35.4729 16.3383 35.5531 15.9414 35.6542 15.5331C36.2375 13.1654 37.4823 10.4081 38.4167 8.52682C39.0781 7.19349 39.5833 6.30078 39.5833 6.30078C39.5833 6.30078 40.0885 7.1862 40.7521 8.52786C41.6656 10.3716 42.8802 13.0789 43.4969 15.5289C43.599 15.9341 43.6844 16.331 43.75 16.7164V43.7997H6.25V16.7164C6.30625 16.3383 6.38646 15.9414 6.4875 15.5331C7.07083 13.1654 8.31563 10.4081 9.25 8.52682C9.91146 7.19349 10.4167 6.30078 10.4167 6.30078ZM29.1667 41.7174V41.1674C29.1667 40.7805 29.0589 40.4012 28.8554 40.072C28.6519 39.7429 28.3607 39.4769 28.0146 39.3039L25 37.7966L21.9854 39.3039C21.6393 39.4769 21.3481 39.7429 21.1446 40.072C20.9411 40.4012 20.8333 40.7805 20.8333 41.1674V41.7174H29.1667ZM31.25 41.7174H35.4167V34.4258H14.5833V41.7174H18.75V41.1674C18.7499 40.3936 18.9654 39.635 19.3721 38.9768C19.7789 38.3185 20.361 37.7865 21.0531 37.4404L25 35.4674L28.9469 37.4404C29.639 37.7865 30.2211 38.3185 30.6279 38.9768C31.0346 39.635 31.2501 40.3936 31.25 41.1674V41.7174ZM37.5 17.2049C38.3417 17.0018 38.9625 16.8997 39.5833 16.8997C40.2042 16.8997 40.825 17.0018 41.6667 17.2049V41.7174H37.5V17.2049V17.2049ZM8.33333 17.2049V41.7174H12.5V17.2049C11.6583 17.0018 11.0375 16.8997 10.4167 16.8997C9.79583 16.8997 9.175 17.0018 8.33333 17.2049V17.2049ZM8.80833 14.9737C9.22083 13.6612 9.81042 12.231 10.4156 10.9154C11.0021 12.1987 11.5844 13.6206 12.0073 14.9706C11.4827 14.8719 10.9504 14.8203 10.4167 14.8164C9.8875 14.8164 9.36458 14.8727 8.80833 14.9727V14.9737ZM18.6781 26.0924C18.0719 25.107 17.7083 23.8716 17.7083 22.3716C17.7083 21.1622 18.2344 20.0049 19.2354 18.7862C20.2562 17.5435 21.6083 16.4258 23.025 15.2643L23.0531 15.2404C23.7125 14.6997 24.3969 14.1393 25 13.5852C25.6031 14.1393 26.2875 14.6997 26.9469 15.2414L26.975 15.2643C28.3917 16.4258 29.7448 17.5435 30.7646 18.7852C31.7646 20.0039 32.2917 21.1622 32.2917 22.3716C32.2917 23.8716 31.9271 25.107 31.3229 26.0924H18.6771H18.6781ZM18.75 28.1758V32.3424H19.7917V31.3008C19.7917 31.0245 19.9014 30.7596 20.0968 30.5642C20.2921 30.3689 20.5571 30.2591 20.8333 30.2591C21.1096 30.2591 21.3746 30.3689 21.5699 30.5642C21.7653 30.7596 21.875 31.0245 21.875 31.3008V32.3424H23.9583V31.3008C23.9583 31.0245 24.0681 30.7596 24.2634 30.5642C24.4588 30.3689 24.7237 30.2591 25 30.2591C25.2763 30.2591 25.5412 30.3689 25.7366 30.5642C25.9319 30.7596 26.0417 31.0245 26.0417 31.3008V32.3424H28.125V31.3008C28.125 31.0245 28.2347 30.7596 28.4301 30.5642C28.6254 30.3689 28.8904 30.2591 29.1667 30.2591C29.4429 30.2591 29.7079 30.3689 29.9032 30.5642C30.0986 30.7596 30.2083 31.0245 30.2083 31.3008V32.3424H31.25V28.1758H18.75V28.1758ZM39.5833 10.9154C38.9771 12.231 38.3875 13.6612 37.975 14.9737C38.5053 14.873 39.0436 14.8204 39.5833 14.8164C40.1062 14.8164 40.625 14.8716 41.174 14.9695C40.751 13.6206 40.1687 12.1987 39.5823 10.9154H39.5833Z" fill="white" fill-opacity="0.2"/>
</svg>
