<svg width="533" height="395" viewBox="0 0 533 395" fill="none" xmlns="http://www.w3.org/2000/svg">
<g clip-path="url(#clip0_85_1952)">
<path d="M109.179 385.067L117.408 385.066L121.323 353.328L109.178 353.329L109.179 385.067Z" fill="#9E616A"/>
<path d="M107.08 382.381L109.396 382.38L118.439 378.703L123.285 382.38H123.286C126.024 382.38 128.651 383.468 130.588 385.405C132.524 387.341 133.612 389.968 133.613 392.707V393.042L107.081 393.043L107.08 382.381Z" fill="#2F2E41"/>
<path d="M147.407 385.067L155.636 385.066L159.551 353.328L147.406 353.329L147.407 385.067Z" fill="#9E616A"/>
<path d="M145.309 382.381L147.625 382.38L156.667 378.703L161.513 382.38H161.514C164.253 382.38 166.88 383.468 168.816 385.405C170.753 387.341 171.841 389.968 171.841 392.707V393.042L145.309 393.043L145.309 382.381Z" fill="#2F2E41"/>
<path d="M153.984 211.379L89.334 213.065L90.4583 244.547C90.4583 244.547 89.334 252.98 91.5827 255.229C93.8314 257.478 94.9558 257.477 93.8314 261.413C92.7071 265.348 98.6476 271.775 97.926 272.497C97.2045 273.218 95.5179 277.154 95.5179 277.154L101.14 309.198C101.14 309.198 105.075 364.853 106.199 365.978C107.324 367.102 108.448 365.978 107.324 368.789C106.199 371.6 105.075 370.475 106.199 371.6C107.195 372.673 108.134 373.799 109.01 374.973H122.602C122.602 374.973 123.627 369.351 123.627 368.789C123.627 368.226 124.751 364.853 124.751 364.291C124.751 363.729 123.757 362.735 123.757 362.735C123.414 361.592 123.182 360.419 123.065 359.232C123.065 358.107 119.692 314.82 119.692 314.82L126.438 258.602L142.741 313.695C142.741 313.695 142.741 362.043 143.865 363.167C144.99 364.291 144.99 363.729 144.427 365.978C143.865 368.226 141.617 367.664 143.303 369.351C144.99 371.037 145.552 368.226 144.99 371.037L144.427 373.848L161.293 374.09C161.293 374.09 163.541 369.351 162.417 367.664C161.293 365.978 161.36 366.438 162.732 363.678C164.104 360.918 164.666 360.356 164.104 359.794C163.541 359.232 163.541 356.242 163.541 356.242L160.731 302.452C160.731 302.452 160.168 245.672 160.168 243.985C160.126 243.117 160.286 242.252 160.635 241.456V239.167L158.482 231.055L153.984 211.379Z" fill="#2F2E41"/>
<path d="M227.149 88.7659C226.838 89.6295 226.342 90.4145 225.695 91.0655C225.048 91.7166 224.267 92.2178 223.405 92.5341C222.544 92.8503 221.623 92.9738 220.709 92.8959C219.794 92.8179 218.908 92.5404 218.112 92.0829L190.049 115.594L188.524 104.102L215.972 83.0896C216.83 81.804 218.129 80.8775 219.623 80.4856C221.118 80.0938 222.704 80.2638 224.082 80.9635C225.46 81.6632 226.533 82.8439 227.098 84.2819C227.663 85.72 227.681 87.3154 227.149 88.7659Z" fill="#9E616A"/>
<path d="M103.405 98.4693C113.03 98.4693 120.833 90.6667 120.833 81.0418C120.833 71.4168 113.03 63.6143 103.405 63.6143C93.7801 63.6143 85.9775 71.4168 85.9775 81.0418C85.9775 90.6667 93.7801 98.4693 103.405 98.4693Z" fill="#9E616A"/>
<path d="M117.533 63.6973C115.911 59.8302 108.958 57.5342 97.9552 57.88C86.9525 58.2258 85.0257 71.3466 85.0257 71.3466C78.9655 76.9951 88.7496 94.6309 90.4471 92.1993C92.1446 89.7679 94.9945 92.0662 94.9945 92.0662L92.2785 76.7893C95.1467 77.8927 98.2314 78.6336 100.929 77.3481L96.4593 74.9579C100.164 75.4189 103.868 75.8799 107.573 76.3409L102.99 72.8149C103.101 72.7782 103.212 72.7401 103.323 72.7027C105.161 73.4952 107.13 73.9421 109.13 74.021C111.466 74.0036 113.95 72.9086 114.929 70.7869C115.189 70.2043 115.33 69.5754 115.343 68.9374C118.565 69.9834 120.257 73.7578 120.257 73.7578C119.645 70.331 118.734 66.9646 117.533 63.6973Z" fill="#2F2E41"/>
<path d="M117.355 99.2484C113.463 99.2484 110.957 99.7855 104.901 100.805C93.7237 102.689 100.418 113.309 100.418 113.309C100.418 113.309 100.924 113.052 99.5537 113.309C98.1837 113.566 93.5135 117.606 93.5135 117.606L85.1616 125.024C72.5753 134.901 75.393 150.313 75.393 150.313L93.747 168.784L85.7065 205.842C85.7065 205.842 89.1235 211.345 87.3566 213.813C85.5896 216.28 102.924 215.572 102.924 215.572C114.888 220.904 157.036 216.397 157.036 216.397C156.453 214.871 150.809 203.048 150.809 203.048C153.261 198.813 150.926 192.695 150.926 192.695C150.926 192.695 148.49 163.755 146.933 159.755C145.376 155.754 150.918 134.076 154.561 134.31C158.204 134.543 181.734 122.541 181.734 122.541C181.734 122.541 181.142 121.599 188.911 118.423C193.373 116.67 197.463 114.09 200.968 110.818L204.159 104.444C202.626 105.035 197.449 95.2744 197.449 95.2744L195.192 96.1349L193.884 95.757C193.884 95.757 183.68 98.6603 181.594 100.778C179.508 102.895 178.807 102.303 176.924 102.778C175.04 103.253 174.806 104.576 174.215 104.428C173.623 104.28 172.573 106.07 171.747 105.837C170.922 105.603 169.156 106.545 167.98 106.779C166.805 107.012 158.453 110.546 158.453 110.546C153.285 107.931 139.274 108.989 139.274 108.989C139.274 108.989 134.689 106.288 133.389 108.989C133.04 109.757 132.478 110.408 131.771 110.867C131.063 111.327 130.24 111.574 129.396 111.581L123.808 109.192C123.483 110.377 117.387 98.0195 117.355 99.2484Z" fill="#E65B5A"/>
<path d="M90.6731 244.285C90.0627 243.6 89.61 242.789 89.3469 241.91C89.0838 241.031 89.0167 240.104 89.1502 239.196C89.2838 238.288 89.6149 237.421 90.12 236.654C90.6252 235.888 91.2923 235.242 92.0742 234.762L84.1562 203.636L94.9816 207.784L100.998 237.176C101.718 238.543 101.912 240.127 101.542 241.627C101.173 243.128 100.266 244.44 98.993 245.317C97.7204 246.193 96.1705 246.572 94.6371 246.382C93.1037 246.192 91.6932 245.446 90.6731 244.285Z" fill="#9E616A"/>
<path d="M76.101 144.394L75.1232 156.823C75.1232 156.823 73.9077 170.478 74.226 173.003C74.5442 175.528 75.1369 190.949 75.1369 190.949L85.4415 211.333L97.117 208.22L96.4183 198.657L97.117 207.442L98.6738 199.658L94.7819 186.426L97.117 181.755L95.9394 166.078L76.101 144.394Z" fill="#E65B5A"/>
<path d="M76.101 144.394L75.1232 156.823C75.1232 156.823 73.9077 170.478 74.226 173.003C74.5442 175.528 75.1369 190.949 75.1369 190.949L85.4415 211.333L97.117 208.22L96.4183 198.657L97.117 207.442L98.6738 199.658L94.7819 186.426L97.117 181.755L95.9394 166.078L76.101 144.394Z" fill="white" fill-opacity="0.2"/>
<path d="M352.533 115.344L356.387 116.17C356.413 114.558 356.614 112.953 356.987 111.384C357.337 113.306 358.076 115.135 359.157 116.762L381.265 121.483L402.489 99.0835C402.522 87.884 396.303 79.3729 385.152 79.3729C384.479 79.3729 383.783 79.4053 383.078 79.4701C377.054 78.4618 370.873 79.8304 365.837 83.2878C360.801 86.7453 357.303 92.0218 356.08 98.0065C348.176 105.789 351.043 110.364 352.533 115.344Z" fill="#2F2E41"/>
<path d="M341.664 377.294H333.645L329.83 346.363H341.665L341.664 377.294Z" fill="#FFB6B6"/>
<path d="M345.251 392.521H339.561L338.545 387.149L335.944 392.521H320.852C320.128 392.521 319.424 392.29 318.841 391.861C318.258 391.433 317.828 390.829 317.613 390.138C317.397 389.448 317.409 388.706 317.644 388.022C317.88 387.338 318.329 386.748 318.924 386.337L330.976 378.013V372.582L343.653 373.339L345.251 392.521Z" fill="#2F2E41"/>
<path d="M435.612 368.566L428.637 372.523L410.055 347.503L420.349 341.663L435.612 368.566Z" fill="#FFB6B6"/>
<path d="M446.247 380.039L441.298 382.847L437.763 378.676L438.152 384.632L425.025 392.08C424.396 392.437 423.669 392.583 422.951 392.498C422.233 392.413 421.56 392.1 421.032 391.606C420.504 391.111 420.148 390.461 420.016 389.75C419.883 389.038 419.982 388.303 420.297 387.652L426.671 374.465L423.991 369.741L435.39 364.144L446.247 380.039Z" fill="#2F2E41"/>
<path d="M312.022 120.764C313.05 120.913 314.032 121.285 314.9 121.854C315.768 122.424 316.501 123.176 317.047 124.06C317.593 124.943 317.938 125.935 318.059 126.966C318.18 127.998 318.073 129.043 317.746 130.028L330.017 140.649L325.382 149.681L308.263 134.438C306.644 133.779 305.323 132.55 304.55 130.982C303.777 129.414 303.606 127.617 304.069 125.932C304.532 124.246 305.598 122.789 307.063 121.837C308.529 120.884 310.294 120.502 312.022 120.764Z" fill="#FFB6B6"/>
<path d="M322.629 153.821L314.422 140.764L323.548 131.434L330.029 139.32L338.057 142.902L349.076 149.615C351.267 147.037 368.15 127.642 375.683 133.226C376.587 133.843 377.348 134.648 377.911 135.586C378.475 136.524 378.829 137.573 378.949 138.661C379.481 143.854 374.828 149.135 374.651 149.331L364.7 162.755C364.391 163.598 361.097 172.291 355.959 174.629C355.23 174.979 354.435 175.173 353.627 175.199C352.818 175.226 352.013 175.084 351.262 174.783C337.647 169.475 328.473 163.488 324.379 157.288C323.655 156.209 323.067 155.044 322.629 153.821Z" fill="#E65B5A"/>
<path d="M352.999 181.073C352.999 181.073 329.42 218.631 333.692 222.903C337.964 227.175 344.611 228.297 344.611 228.297L359.323 209.233L352.999 181.073Z" fill="#52BEBD"/>
<path d="M352.999 181.073C352.999 181.073 329.42 218.631 333.692 222.903C337.964 227.175 344.611 228.297 344.611 228.297L359.323 209.233L352.999 181.073Z" fill="white" fill-opacity="0.6"/>
<path d="M373.847 129.778L362.734 137.296C357.569 140.79 353.684 145.873 351.668 151.775C349.653 157.676 349.617 164.074 351.566 169.997L354.694 179.507L373.847 129.778Z" fill="#52BEBD"/>
<path d="M373.847 129.778L362.734 137.296C357.569 140.79 353.684 145.873 351.668 151.775C349.653 157.676 349.617 164.074 351.566 169.997L354.694 179.507L373.847 129.778Z" fill="white" fill-opacity="0.6"/>
<path d="M393.497 232.301L394.983 237.475L400.052 299.878L425.38 347.082L413.292 355.716L378.753 310.816L365.092 266.232L343.638 364.927L327.521 363.775L338.714 226.937L359.957 188.421L393.497 232.301Z" fill="#E65B5A"/>
<path d="M393.497 232.301L394.983 237.475L400.052 299.878L425.38 347.082L413.292 355.716L378.753 310.816L365.092 266.232L343.638 364.927L327.521 363.775L338.714 226.937L359.957 188.421L393.497 232.301Z" fill="white" fill-opacity="0.2"/>
<path d="M375.736 131.669L360.27 144.309C356.875 147.083 354.431 150.848 353.277 155.077C352.753 156.998 352.505 158.983 352.538 160.973L352.999 188.421L338.818 226.321C338.818 226.321 377.264 240.845 382.39 228.03C387.516 215.214 375.736 131.669 375.736 131.669Z" fill="#3A3939"/>
<path d="M354.196 215.214L351.633 204.961L352.259 179.452C352.309 177.97 360.21 154.9 370.167 130.396L378.733 121.83L383.351 118.825L393.516 128.208C393.516 128.208 392.224 153.892 392.642 180.185C392.758 187.46 391.48 195.955 390.934 202.398L395.604 223.151V234.703L395.3 234.764C394.997 234.826 390.317 234.681 371.11 234.681C355.197 234.681 365.791 223.398 354.196 215.214Z" fill="#E65B5A"/>
<path opacity="0.2" d="M389.208 151.113L391.543 165.687L375.736 172.207L389.208 151.113Z" fill="black"/>
<path d="M373.285 116.092C381.832 116.092 388.761 109.163 388.761 100.616C388.761 92.0693 381.832 85.1406 373.285 85.1406C364.738 85.1406 357.81 92.0693 357.81 100.616C357.81 109.163 364.738 116.092 373.285 116.092Z" fill="#FFB6B6"/>
<path opacity="0.2" d="M399.215 179.137C395.097 183.906 389.51 187.171 383.333 188.42C377.157 189.668 370.741 188.829 365.093 186.034L361.725 184.367L399.215 179.137Z" fill="black"/>
<path d="M345.364 175.574C346.054 174.799 346.906 174.184 347.86 173.773C348.814 173.363 349.846 173.166 350.883 173.198C351.921 173.229 352.94 173.487 353.867 173.955C354.794 174.422 355.607 175.087 356.249 175.903L371.875 171.517L376.856 180.362L354.703 186.247C353.261 187.235 351.507 187.66 349.773 187.441C348.038 187.222 346.444 186.374 345.293 185.059C344.142 183.743 343.514 182.051 343.527 180.303C343.54 178.555 344.193 176.873 345.364 175.574V175.574Z" fill="#FFB6B6"/>
<path d="M378.794 184.94L363.376 184.593L360.619 171.836L370.772 170.774L378.185 166.049L389.859 160.554C388.915 157.305 382.034 132.528 390.846 129.32C391.859 128.905 392.949 128.714 394.043 128.761C395.136 128.807 396.207 129.09 397.181 129.59C401.807 132.007 403.65 138.8 403.715 139.056L409.433 154.757C409.966 155.48 415.406 163.018 414.525 168.595C414.415 169.396 414.139 170.166 413.715 170.855C413.292 171.544 412.73 172.138 412.065 172.599C400.132 181.035 390.081 185.391 382.652 185.39C381.352 185.4 380.056 185.249 378.794 184.94V184.94Z" fill="#E65B5A"/>
<path d="M354.728 90.4357C355.967 92.0472 360.234 93.4725 365.304 94.6224C365.295 94.5172 365.295 94.4119 365.295 94.3066C365.321 92.6943 365.522 91.0894 365.895 89.5206C366.245 91.4418 366.984 93.2715 368.065 94.8978C368.146 95.0193 368.227 95.1407 368.316 95.2622C372.665 96.1206 377.264 96.7846 380.868 97.23C378.39 106.154 368.891 113.475 369.919 118.9L397.752 124.585C397.581 122.331 397.762 120.063 398.287 117.864C398.819 120.766 400.226 123.437 402.32 125.516L404.684 126.002L405.389 122.528C411.495 107.863 402.984 92.849 389.039 85.0829C386.553 81.3558 382.692 78.7646 378.301 77.8757L374.827 77.163C372.636 76.7147 370.378 76.7024 368.182 77.1268C365.986 77.5512 363.895 78.404 362.028 79.6365C360.162 80.869 358.556 82.457 357.304 84.31C356.051 86.1629 355.176 88.2444 354.728 90.4357Z" fill="#2F2E41"/>
<path d="M13.3025 373.687L12.9276 365.256C9.01868 363.167 4.65881 362.063 0.226562 362.041C6.32666 367.028 5.56432 376.642 9.70002 383.349C11.0059 385.431 12.7636 387.192 14.8428 388.502C16.9219 389.812 19.2693 390.638 21.7109 390.918L26.8157 394.043C27.5161 390.138 27.3617 386.128 26.363 382.288C25.3643 378.449 23.5451 374.871 21.0307 371.803C19.6031 370.095 17.9662 368.574 16.1585 367.275C14.9359 370.499 13.3025 373.687 13.3025 373.687Z" fill="#141416"/>
<path d="M13.3025 373.687L12.9276 365.256C9.01868 363.167 4.65881 362.063 0.226562 362.041C6.32666 367.028 5.56432 376.642 9.70002 383.349C11.0059 385.431 12.7636 387.192 14.8428 388.502C16.9219 389.812 19.2693 390.638 21.7109 390.918L26.8157 394.043C27.5161 390.138 27.3617 386.128 26.363 382.288C25.3643 378.449 23.5451 374.871 21.0307 371.803C19.6031 370.095 17.9662 368.574 16.1585 367.275C14.9359 370.499 13.3025 373.687 13.3025 373.687Z" fill="white" fill-opacity="0.2"/>
<path d="M0.926543 394.24H532.073C532.318 394.24 532.553 394.142 532.727 393.968C532.9 393.794 532.997 393.559 532.997 393.314C532.997 393.068 532.9 392.833 532.727 392.659C532.553 392.485 532.318 392.387 532.073 392.387H0.926543C0.681207 392.387 0.44618 392.485 0.272952 392.659C0.0997241 392.833 0.00244141 393.068 0.00244141 393.314C0.00244141 393.559 0.0997241 393.794 0.272952 393.968C0.44618 394.142 0.681207 394.24 0.926543 394.24Z" fill="#8E94A3"/>
<path d="M289.072 52.9714C290.998 61.432 291.913 71.024 286.777 78.5953C284.593 81.8434 281.389 84.2707 277.671 85.4931C273.908 86.6089 269.94 86.8526 266.069 86.2058C257.308 84.992 249.522 80.4286 240.905 78.6569C237.103 77.875 233.068 77.6166 229.407 79.1213C226.665 80.2488 223.776 82.5155 223.763 85.7489C223.75 89.0693 226.633 91.2731 229.501 92.294C233.328 93.6562 237.306 93.129 241.275 92.9573C245.55 92.7723 249.91 93.1589 253.461 95.7771C256.516 98.1613 258.858 101.337 260.234 104.96C262.019 109.292 262.744 113.95 263.885 118.471C264.906 122.535 266.349 126.481 268.191 130.244C271.807 137.62 276.875 144.19 283.092 149.559C286.159 152.198 289.884 154.886 294.072 155.128C297.302 155.314 301.228 153.957 302.473 150.686C302.935 149.273 302.89 147.744 302.345 146.361C301.8 144.978 300.789 143.829 299.487 143.113C296.719 141.716 293.704 143.709 292.81 146.443C292.576 147.074 292.494 147.751 292.571 148.419C292.648 149.087 292.882 149.728 293.254 150.288C294.094 151.539 292.072 152.71 291.238 151.466C289.302 148.58 290.314 144.698 292.685 142.386C293.841 141.207 295.387 140.489 297.034 140.366C298.681 140.244 300.317 140.724 301.635 141.719C303.005 142.762 304.041 144.182 304.615 145.806C305.189 147.429 305.277 149.184 304.868 150.857C303.872 154.45 300.341 156.736 296.815 157.302C292.461 158.001 288.27 156.29 284.755 153.818C281.229 151.272 278.022 148.31 275.205 144.996C269.479 138.41 265.174 130.713 262.56 122.386C259.99 114.149 259.803 103.269 252.165 97.707C248.236 94.8449 243.42 95.1623 238.813 95.425C234.745 95.657 230.777 95.6148 227.046 93.7734C223.965 92.253 221.479 89.4466 221.428 85.8711C221.376 82.2616 223.938 79.3593 226.958 77.7149C234.934 73.3706 244.513 76.8742 252.35 79.7766C260.23 82.6952 269.228 86.1208 277.603 83.0494C281.468 81.5474 284.58 78.5739 286.256 74.7809C288.284 70.4802 288.573 65.6003 288.104 60.9329C287.828 58.4619 287.399 56.0103 286.82 53.5922C286.487 52.1291 288.738 51.5044 289.072 52.9714V52.9714Z" fill="#3F3D56"/>
<path d="M274.759 29.237C277.068 36.9467 280.549 44.2554 285.08 50.9069C286.201 52.5415 287.379 54.1346 288.614 55.6861C289.574 53.9416 290.736 52.3165 292.078 50.8446C296.787 45.6685 303.099 42.2825 309.225 38.8888C315.351 35.4951 321.57 31.8524 325.898 26.3493C327.84 23.8721 329.23 21.0087 329.976 17.9507C330.957 13.8019 330.584 9.4742 328.163 6.01045C324.645 0.974388 317.631 -0.800302 311.669 0.655252C305.699 2.11081 300.702 6.25952 296.826 11.0231C298.094 5.1698 291.922 -0.481172 285.952 0.0325527C279.982 0.554061 275.195 5.76914 273.607 11.5447C272.011 17.3124 273.046 23.4927 274.759 29.237Z" fill="#F50057"/>
<g opacity="0.2">
<path opacity="0.2" d="M285.081 50.9064C286.201 52.541 287.379 54.1341 288.614 55.6856C289.574 53.9411 290.737 52.316 292.078 50.8442C296.787 45.668 303.1 42.2821 309.226 38.8884C315.351 35.4947 321.571 31.8519 325.898 26.3488C327.84 23.8716 329.231 21.0082 329.977 17.9502C316.206 19.8593 303.553 26.5721 294.25 36.9035C290.525 41.0978 287.436 45.8157 285.081 50.9064Z" fill="black"/>
</g>
</g>
<defs>
<clipPath id="clip0_85_1952">
<rect width="533" height="394.24" fill="white"/>
</clipPath>
</defs>
</svg>
