<svg width="868" height="568" viewBox="0 0 1900 2168" fill="none" xmlns="http://www.w3.org/2000/svg">
<g opacity="0.9">
<path opacity="0.9" d="M2679.87 1443.04V881.662C2669.87 882.013 2659.86 882.539 2649.86 883.328C2492.27 895.782 2348.29 957.085 2200.71 1003.13C2053.02 1049.17 1885.11 1080.04 1738.83 1031.28C1643.35 999.445 1566.46 936.212 1468.04 910.691C1358.85 882.364 1239.33 904.64 1132.75 938.756C949.392 997.34 785.828 1089.34 609.103 1159.94C481.101 1211.07 340.265 1251.24 199.321 1256.24C198.995 1263.6 198.777 1271.06 198.777 1278.42C198.777 1354.72 217.265 1428.83 253.915 1498.55C289.26 1565.91 339.83 1626.34 404.212 1678.25C413.783 1685.97 423.57 1693.34 433.467 1700.62C501.003 1702.72 568.756 1697.81 634.66 1685.18C840.965 1645.8 1016.6 1540.83 1198.87 1453.48C1381.14 1366.21 1592.45 1293.07 1800.17 1327.54C1829.21 1332.36 1857.16 1339.11 1884.45 1347.44C1870.42 1304.73 1870.31 1262.11 1901.96 1227.29C1936.65 1189.06 2001.47 1174.76 2059.76 1180.81C2118.06 1186.86 2171.34 1209.93 2221.59 1234.4C2349.81 1296.84 2469.76 1371.56 2606.79 1420.32C2630.39 1428.92 2654.86 1436.46 2679.87 1443.04Z" fill="gray"/>
</g>
<path d="M4067.28 927.197C4058.36 930.267 4049.44 933.424 4040.63 936.757L4060.64 937.371L4067.28 927.197Z" fill="url(#paint0_linear_330_39)"/>
<path d="M1508.84 1758.41L1513.3 1760.42C1514.72 1757.62 1516.02 1754.81 1517.43 1752C1510.26 1756.56 1502.86 1761.04 1495.47 1765.33V1786.21L1493.83 1786.29L1475.13 1776.82C1471 1779.02 1466.97 1781.21 1462.73 1783.4L1474.26 1789.28L1469.8 1795.42L1461.54 1783.93C1457.73 1785.86 1453.92 1787.79 1450.12 1789.71L1461.97 1806.29L1438.59 1839L1415.21 1806.29L1415.42 1805.94C1398.13 1813.48 1380.41 1820.5 1362.24 1826.9L1368.33 1826.72V1854.26L1331.58 1837.16C1326.14 1838.83 1320.7 1840.49 1315.15 1842.07L1368.33 1866.8V1895.75H1332.45L1297.54 1846.98C1293.19 1848.12 1288.84 1849.26 1284.38 1850.32L1316.89 1895.75H1282.74L1284.59 1855.4L1276.76 1852.07C1270.56 1853.56 1264.26 1854.96 1257.95 1856.28L1270.78 1861.72L1269.15 1895.66H1245.44L1243.81 1861.72L1255.56 1856.72C1247.18 1858.47 1238.81 1860.14 1230.33 1861.63L1231.96 1895.57H1197.81L1220.97 1863.21C1215.1 1864.17 1209.34 1865.14 1203.46 1866.01L1182.37 1895.57H1146.48V1872.59C1142.02 1872.94 1137.56 1873.29 1132.99 1873.64V1895.57H1116.79L1108.63 1884.26L1131.14 1873.73C1116.46 1874.7 1101.67 1875.31 1086.88 1875.57L1090.25 1880.31L1076.22 1886.89L1062.19 1880.31L1065.46 1875.66C1050.99 1875.57 1036.74 1875.14 1022.5 1874.35L1043.81 1884.26L1035.66 1895.57H1019.45V1874.17C1014.99 1873.91 1010.43 1873.65 1005.97 1873.29V1895.57H970.079L949.851 1867.42C944.087 1866.63 938.215 1865.75 932.451 1864.87L954.419 1895.57H920.27L921.793 1863.12C915.92 1862.16 910.156 1861.1 904.392 1859.96L908.416 1861.72L906.785 1895.66H883.077L881.445 1861.72L891.451 1857.42C885.034 1856.1 878.726 1854.7 872.419 1853.21L867.634 1855.23L869.482 1895.57H835.878L867.09 1851.89C862.631 1850.84 858.281 1849.79 853.931 1848.65L820.326 1895.57H784.437V1866.63L834.355 1843.39C828.809 1841.81 823.262 1840.23 817.825 1838.56L784.437 1854.09V1827.69C767.907 1821.9 751.594 1815.59 735.716 1808.83L714.183 1838.92L690.801 1806.2L700.371 1792.78C696.565 1790.94 692.65 1789.01 688.843 1787.08L682.971 1795.33L678.512 1789.19L685.689 1785.5C681.557 1783.4 677.315 1781.21 673.292 1779.02L659.045 1786.29L657.414 1786.21V1770.25C652.846 1767.7 648.387 1765.07 643.928 1762.44V1785.77L593.902 1784.28L587.159 1794.54L582.156 1787L639.904 1760.07C635.989 1757.7 632.183 1755.34 628.268 1752.97L578.785 1776.03L573.238 1773.67L570.302 1769.19L596.838 1732.09C593.358 1729.64 589.987 1727.18 586.615 1724.73L556.708 1766.56L547.355 1762.53L560.079 1757.09L558.231 1716.75H576.066C571.39 1713.15 566.713 1709.56 562.146 1705.87H557.687L557.578 1704.56L558.666 1703.15C548.225 1694.65 538.111 1685.88 528.215 1676.84L492.217 1660.09L504.833 1654.22C499.83 1649.13 494.936 1643.95 490.042 1638.69L478.406 1653.69L447.628 1639.39L465.573 1614.31H468.835C465.464 1610.19 462.093 1606.07 458.939 1601.86L457.851 1603.44H421.963V1574.5L434.904 1568.44C432.729 1565.29 430.663 1562.04 428.597 1558.8L421.854 1561.95V1548.1C416.525 1539.24 411.414 1530.29 406.628 1521.26L403.04 1523.1L396.841 1522.93L390.533 1514.16L396.841 1505.39L398.472 1505.3C395.318 1498.72 392.273 1492.06 389.337 1485.39L359.538 1470.31L375.09 1448.56C372.915 1442.07 370.74 1435.58 368.891 1429L365.085 1427.24L368.021 1425.93C366.825 1421.98 365.737 1417.95 364.758 1413.91H336.483L310.164 1401.64L294.939 1380.41V1355.86L310.164 1334.63L336.483 1322.35H350.077C349.642 1315.43 349.424 1308.58 349.207 1301.57L337.57 1296.13L349.316 1279.82C349.533 1271.05 350.077 1262.28 350.729 1253.51L328.217 1222.02L351.599 1189.31L358.451 1198.87C359.756 1192.47 361.17 1186.07 362.692 1179.75L359.538 1178.17L364.976 1170.54C370.087 1151.25 376.395 1132.39 383.79 1113.89L366.825 1121.78H336.374L310.056 1109.5L294.83 1088.28V1063.72L310.056 1042.5L336.374 1030.22H366.825L393.143 1042.5L407.607 1062.76C412.066 1054.34 416.851 1046.01 421.854 1037.85V1030.31H426.53C428.814 1026.71 431.098 1023.03 433.491 1019.43H421.854V990.491L472.859 966.724C479.819 958.48 486.888 950.412 494.392 942.519L491.13 937.607C486.997 939.011 482.756 940.326 478.623 941.817L483.517 949.272L421.854 978.038V963.392C417.395 965.321 412.827 967.251 408.369 969.18V984.265L377.265 998.735L369.326 987.597C365.52 989.527 361.713 991.456 358.016 993.473L365.628 1004.17L351.599 1010.75L337.896 1004.35C318.43 1015.22 299.507 1026.89 281.345 1039.17V1043.46L267.316 1050.04L266.772 1049.25C230.992 1074.6 198.04 1102.66 168.459 1132.83H182.379L184.011 1166.77L170.634 1172.47L157.257 1166.77L158.345 1143.53C153.56 1148.7 148.774 1153.88 144.098 1159.14L143.446 1173.09L156.17 1178.52L146.817 1182.56L136.377 1168C133.549 1171.33 130.721 1174.66 128.003 1178.08L133.114 1185.19L130.178 1189.66L124.631 1192.03L118.976 1189.4C116.584 1192.47 114.3 1195.54 111.907 1198.61L121.369 1202.99L116.366 1210.53L110.058 1200.97C107.339 1204.66 104.729 1208.34 102.119 1212.03L108.753 1222.2L101.684 1232.99L88.1989 1232.55C85.9151 1236.06 83.6313 1239.65 81.4562 1243.16L109.623 1244.04L116.366 1233.78L121.369 1241.32L68.1883 1266.14C60.2493 1280.43 52.9628 1295.08 46.2201 1309.9V1311.57H45.4589C43.8276 1315.16 42.305 1318.76 40.7825 1322.44H46.2201V1329.28L40.8912 1326.83L39.6949 1325.25C37.7374 1329.9 35.9973 1334.54 34.1485 1339.19L46.2201 1356.03V1380.59L30.9947 1401.81L12.7241 1410.32C11.6366 1415.14 10.5491 1420.05 9.67905 1424.88H14.5729L10.3316 1430.75L8.70026 1429.96C6.7427 1440.4 5.1114 1450.84 3.80636 1461.45L15.2255 1445.57L46.3289 1460.04V1494.25L44.6976 1494.34L2.61009 1473.02C1.84882 1481.09 1.1963 1489.16 0.761286 1497.23L12.9416 1514.33L0 1532.4C0.108753 1540.47 0.435016 1548.45 0.87003 1556.52L44.5888 1534.33L46.2201 1534.42V1568.62L15.1167 1583.09L1.30505 1563.88C2.17508 1576.07 3.58887 1588.18 5.32892 1600.19L10.1141 1597.91L14.3554 1603.79H8.1565L5.65518 1602.65C6.3077 1607.21 7.06897 1611.68 7.93899 1616.24L30.8859 1626.94L46.1114 1648.16V1672.72L30.8859 1693.94L28.4934 1695.08C31.1035 1702.45 33.8223 1709.82 36.6499 1717.1H46.1114V1739.46C50.3528 1748.93 54.8117 1758.23 59.5968 1767.44V1758.58L121.26 1787.35L116.257 1794.89L109.515 1784.54L69.3846 1785.77C71.3422 1789.36 73.4085 1792.87 75.5835 1796.47L101.576 1795.68L108.645 1806.47L101.576 1817.25L88.1989 1816.81C90.5915 1820.5 93.0928 1824.27 95.4854 1827.86L109.515 1828.3L116.257 1818.04L121.26 1825.58L100.597 1835.23C102.772 1838.39 105.056 1841.55 107.339 1844.62L124.523 1836.63L130.069 1839L133.005 1843.48L120.064 1861.54C122.782 1864.96 125.501 1868.38 128.22 1871.8L146.599 1846.11L155.952 1850.14L143.228 1855.58L144.859 1891.54C150.08 1897.41 155.408 1903.2 160.846 1908.99L162.586 1906.8H178.247L181.618 1911.09L181.4 1916.09L172.048 1920.48C181.4 1929.86 191.08 1938.98 200.976 1947.93L211.09 1952.58L207.936 1954.07C212.069 1957.66 216.202 1961.26 220.443 1964.77L224.902 1959.07L255.679 1973.36L246.87 1985.73C250.241 1988.27 253.613 1990.81 256.984 1993.27L267.316 1978.8L281.345 1985.38V1998.44H264.053C269.164 2002.13 274.385 2005.72 279.605 2009.32H281.345V2010.46C285.804 2013.44 290.263 2016.42 294.83 2019.32V2008.97H311.034L319.191 2020.28L306.358 2026.25C310.164 2028.61 314.079 2030.98 317.995 2033.35L325.934 2029.67L336.048 2043.79C365.52 2060.36 396.406 2075.36 428.488 2088.51L463.941 2087.46L471.01 2098.25L467.53 2103.51C476.883 2106.84 486.345 2110 495.915 2113.07L486.236 2098.25L502.331 2073.69L532.782 2060.71L563.233 2073.69L579.329 2098.25L563.233 2122.8L549.965 2128.51C557.034 2130.26 564.212 2132.01 571.39 2133.68L573.238 2130.87L578.785 2128.51L604.668 2140.52C621.96 2143.77 639.469 2146.57 657.196 2148.94V2118.24L658.827 2118.16L706.026 2142.1L697.979 2153.41C702.872 2153.85 707.766 2154.29 712.66 2154.64L714.074 2152.71L715.597 2154.82C721.034 2155.17 726.472 2155.52 731.801 2155.78L722.013 2142.1L769.212 2118.16L770.843 2118.24V2152.45L761.164 2157.01C768.994 2157.18 776.933 2157.27 784.872 2157.27C785.742 2157.27 786.612 2157.27 787.482 2157.27L849.254 2128.51L854.801 2130.87L857.737 2135.35L843.273 2155.61C848.711 2155.25 854.148 2154.9 859.586 2154.46L871.44 2137.98L880.793 2142.01L868.069 2147.45L868.395 2153.85C874.159 2153.32 880.032 2152.8 885.795 2152.18L895.366 2148.15L900.912 2150.52C908.199 2149.64 915.376 2148.68 922.554 2147.71V2147.45L909.83 2142.01L919.183 2137.98L925.817 2147.19C930.493 2146.48 935.169 2145.78 939.846 2144.99L932.886 2135.35L935.822 2130.87L941.368 2128.51L966.599 2140.26C972.907 2139.03 979.106 2137.8 985.413 2136.49L944.631 2117.45L949.634 2109.91L956.376 2120.17L1006.4 2118.68V2131.75C1010.86 2130.7 1015.43 2129.56 1019.89 2128.42V2118.24L1021.52 2118.16L1034.35 2124.65C1039.79 2123.16 1045.23 2121.66 1050.67 2120.09L1041.1 2115.26L1045.55 2109.12L1052.95 2119.47C1057.19 2118.24 1061.54 2116.93 1065.78 2115.61L1053.38 2098.25L1076.77 2065.54L1100.15 2098.25L1094.49 2106.23C1101.67 2103.77 1108.85 2101.14 1115.92 2098.51L1115.7 2098.25L1122.01 2089.48L1128.21 2089.3L1133.21 2091.85C1144.85 2087.2 1156.26 2082.37 1167.47 2077.29L1147.02 2077.9V2050.36L1186.17 2068.61C1190.52 2066.5 1194.98 2064.31 1199.22 2062.2L1147.02 2037.91V2008.97H1182.91L1215.21 2054.05C1219.02 2052.03 1222.71 2050.01 1226.41 2048L1198.46 2008.97H1232.61L1230.87 2045.45C1235.55 2042.82 1240.11 2040.19 1244.68 2037.56L1245.99 2008.88H1269.69L1270.35 2021.95C1274.7 2019.14 1279.05 2016.34 1283.4 2013.44L1283.18 2008.88H1290.14C1295.36 2005.28 1300.58 2001.69 1305.69 1998.01H1282.64L1282.53 1996.69L1312.22 1958.63L1340.28 1971.7C1358.76 1956.79 1376.38 1941.09 1392.91 1924.69L1397.26 1918.64L1400.42 1917.14C1407.59 1909.87 1414.55 1902.41 1421.3 1894.87L1419.99 1895.48H1413.79L1418.03 1889.61L1423.69 1892.24C1426.3 1889.26 1428.91 1886.27 1431.41 1883.29L1424.67 1880.13L1438.7 1860.49L1444.03 1867.94C1446.74 1864.52 1449.46 1861.1 1452.18 1857.6L1446.64 1849.88L1464.58 1840.76C1471 1831.81 1477.09 1822.78 1482.96 1813.57L1477.52 1806.03L1483.83 1797.26L1490.03 1797.08L1492.42 1798.31C1498.19 1788.66 1503.62 1778.84 1508.84 1768.93V1758.41V1758.41ZM408.912 1037.24L403.583 1034.78L400.538 1030.48H409.021V1037.24H408.912ZM408.912 996.806V1019.52H392.708L384.552 1008.21L408.912 996.806ZM372.915 1013.64L377.156 1019.52H370.957L365.628 1017.06L372.915 1013.64ZM331.262 1013.64L338.549 1017.06L333.22 1019.52H327.021L331.262 1013.64ZM295.265 1030.4H303.748L300.703 1034.69L295.374 1037.15V1030.4H295.265ZM338.658 1309.11L333.329 1311.57H327.13L331.371 1305.69L338.658 1309.11ZM330.284 1246.23L316.363 1239.21L320.822 1233.07L330.284 1246.23ZM320.822 1211.32L316.363 1205.18L330.284 1198.17L320.822 1211.32ZM370.849 1132.83H377.048L372.806 1138.71L365.52 1135.29L370.849 1132.83ZM366.172 1148.09L352.143 1167.74L338.114 1148.09L352.143 1141.51L366.172 1148.09ZM333.22 1132.83L338.549 1135.29L331.262 1138.71L327.021 1132.83H333.22ZM295.265 1115.12L300.594 1117.57L303.639 1121.87H295.156V1115.12H295.265ZM295.265 1132.83H311.469L319.626 1144.14L295.265 1155.46V1132.83ZM295.265 1168L326.369 1153.53L344.095 1178.35L296.896 1202.29L295.265 1202.2V1168V1168ZM295.265 1215.88L300.594 1213.17L306.793 1213.34L313.101 1222.11L306.793 1230.88L300.594 1231.06L295.265 1228.34V1215.88ZM295.265 1242.19L296.896 1242.11L344.095 1266.05L326.369 1290.87L295.265 1276.4V1242.19V1242.19ZM295.265 1288.94L319.626 1300.25L311.469 1311.57H295.265V1288.94ZM295.265 1322.44H303.748L300.703 1326.74L295.374 1329.19V1322.44H295.265ZM46.6552 1706.05H38.1724L41.2175 1701.75L46.5464 1699.29V1706.05H46.6552ZM46.6552 1621.33L41.3262 1618.87L38.2812 1614.57H46.7639V1621.33H46.6552ZM46.6552 1603.61H30.4509L22.2944 1592.3L46.6552 1580.99V1603.61ZM11.6366 1538.36L21.0981 1525.12L25.557 1531.26L11.6366 1538.36ZM21.0981 1503.37L11.6366 1490.13L25.557 1497.14L21.0981 1503.37ZM46.6552 1520.56L41.3262 1523.28L35.1273 1523.1L28.8196 1514.33L35.1273 1505.56L41.3262 1505.39L46.6552 1508.11V1520.56ZM46.6552 1447.59L22.2944 1436.28L30.4509 1424.96H46.6552V1447.59ZM46.6552 1414H38.1724L41.2175 1409.7L46.5464 1407.25V1414H46.6552ZM262.857 1064.86L271.013 1076.18L262.857 1087.49L238.496 1076.18L262.857 1064.86ZM225.337 1082.58L256.114 1096.87L238.17 1121.96H195.756L195.647 1120.64L225.337 1082.58ZM198.148 1173.17L196.3 1132.83H230.448L194.777 1182.56L185.424 1178.52L198.148 1173.17ZM140.618 1197.64L171.069 1184.66L201.52 1197.64L217.615 1222.2L201.52 1246.76L171.069 1259.73L140.618 1246.76L124.523 1222.2L140.618 1197.64ZM182.814 1716.92L184.446 1750.86L171.069 1756.56L157.692 1750.86L159.324 1716.92H182.814ZM159.867 1701.84L160.085 1696.84L170.96 1691.75L181.835 1696.84L182.053 1701.84L178.682 1706.14H163.021L159.867 1701.84ZM170.96 1679.21L130.395 1660.36L170.96 1641.5L211.525 1660.36L170.96 1679.21ZM143.772 1563.36L145.621 1603.7H111.581L147.252 1553.97L156.605 1558.01L143.772 1563.36ZM157.583 1635.1L141.162 1642.73L149.862 1631.5L157.583 1635.1ZM146.164 1614.49L146.273 1615.8L116.584 1653.87L85.8063 1639.57L103.751 1614.49H146.164V1614.49ZM103.533 1660.27L79.1724 1671.58L71.0159 1660.27L79.1724 1648.95L103.533 1660.27ZM116.584 1666.76L146.273 1704.82L146.164 1706.14H103.751L85.8063 1681.05L116.584 1666.76ZM145.729 1716.92L143.881 1757.27L156.605 1762.7L147.252 1766.74L111.581 1716.92H145.729ZM149.862 1689.03L141.162 1677.81L157.583 1685.44L149.862 1689.03ZM159.106 1603.61L157.475 1569.67L170.851 1563.97L184.228 1569.67L182.597 1603.61H159.106ZM182.162 1618.78L181.944 1623.78L171.069 1628.87L160.194 1623.78L159.976 1618.78L163.347 1614.49H179.008L182.162 1618.78ZM184.446 1635.1L192.058 1631.5L200.759 1642.73L184.446 1635.1ZM200.867 1677.81L192.167 1689.03L184.554 1685.44L200.867 1677.81ZM198.148 1757.27L196.3 1716.92H230.448L194.777 1766.65L185.424 1762.61L198.148 1757.27ZM195.756 1706.05L195.647 1704.73L225.337 1666.67L256.114 1680.96L238.17 1706.05H195.756V1706.05ZM238.496 1660.27L262.857 1648.95L271.013 1660.27L262.857 1671.58L238.496 1660.27ZM225.337 1653.87L195.647 1615.8L195.756 1614.49H238.17L256.114 1639.57L225.337 1653.87ZM196.3 1603.61L198.148 1563.27L185.424 1557.83L194.777 1553.8L230.448 1603.52H196.3V1603.61ZM170.96 1551.78L140.509 1538.8L124.414 1514.24L140.509 1489.69L170.96 1476.71L201.411 1489.69L217.507 1514.24L201.411 1538.8L170.96 1551.78ZM159.106 1311.57L157.475 1277.63L170.851 1271.93L184.228 1277.63L182.597 1311.57H159.106ZM182.162 1326.65L181.944 1331.65L171.069 1336.74L160.194 1331.65L159.976 1326.65L163.347 1322.35H179.008L182.162 1326.65ZM170.96 1349.37L211.525 1368.22L170.96 1387.08L130.395 1368.22L170.96 1349.37ZM184.446 1343.05L192.058 1339.46L200.759 1350.68L184.446 1343.05ZM200.867 1385.76L192.167 1396.99L184.554 1393.39L200.867 1385.76ZM182.814 1424.88L184.446 1458.82L171.069 1464.52L157.692 1458.82L159.324 1424.88H182.814ZM159.867 1409.79L160.085 1404.79L170.96 1399.71L181.835 1404.79L182.053 1409.79L178.682 1414.09H163.021L159.867 1409.79ZM157.583 1393.39L149.971 1396.99L141.27 1385.76L157.583 1393.39ZM141.162 1350.68L149.862 1339.46L157.475 1343.05L141.162 1350.68ZM143.772 1271.22L145.621 1311.57H111.581L147.252 1261.84L156.605 1265.87L143.772 1271.22ZM146.164 1322.44L146.273 1323.76L116.584 1361.82L85.8063 1347.52L103.751 1322.44H146.164V1322.44ZM103.533 1368.22L79.1724 1379.54L71.0159 1368.22L79.1724 1356.91L103.533 1368.22ZM116.584 1374.62L146.273 1412.69L146.164 1414H103.751L85.8063 1388.92L116.584 1374.62ZM145.729 1424.88L143.881 1465.22L156.605 1470.66L147.252 1474.69L111.581 1424.88H145.729ZM194.777 1474.6L185.424 1470.57L198.148 1465.13L196.3 1424.79H230.448L194.777 1474.6ZM195.756 1414L195.647 1412.69L225.337 1374.62L256.114 1388.92L238.17 1414H195.756V1414ZM238.496 1368.22L262.857 1356.91L271.013 1368.22L262.857 1379.54L238.496 1368.22ZM225.337 1361.82L195.647 1323.76L195.756 1322.44H238.17L256.114 1347.52L225.337 1361.82ZM196.3 1311.57L198.148 1271.22L185.424 1265.79L194.777 1261.75L230.448 1311.48H196.3V1311.57ZM60.1406 1282.62L125.066 1252.37L130.613 1254.74L133.549 1259.21L96.0292 1311.57H60.1406V1282.62ZM60.1406 1322.44H88.3077L74.2785 1342.09L60.2493 1335.51V1322.44H60.1406ZM60.1406 1348.05L67.427 1351.47L63.1857 1357.35L60.1406 1353.05V1348.05V1348.05ZM60.1406 1383.39L63.1857 1379.1L67.427 1384.97L60.1406 1388.39V1383.39V1383.39ZM60.1406 1400.93L74.1697 1394.36L88.1989 1414H60.0318V1400.93H60.1406ZM60.1406 1424.88H96.0292L133.549 1477.23L130.613 1481.71L125.066 1484.08L60.1406 1453.82V1424.88ZM60.1406 1466.36L121.804 1495.13L116.801 1502.67L110.058 1492.41L60.0318 1493.9V1466.36H60.1406ZM60.1406 1504.68L102.228 1503.37L109.297 1514.16L102.228 1524.94L60.1406 1523.63V1504.68ZM60.1406 1534.68L110.167 1536.17L116.91 1525.91L121.912 1533.45L60.2493 1562.22V1534.68H60.1406ZM60.1406 1574.67L125.066 1544.41L130.613 1546.78L133.549 1551.25L96.0292 1603.61H60.1406V1574.67ZM60.1406 1614.49H88.3077L74.2785 1634.13L60.2493 1627.55V1614.49H60.1406ZM60.1406 1640.1L67.427 1643.52L63.1857 1649.39L60.1406 1645.09V1640.1V1640.1ZM60.1406 1675.44L63.1857 1671.14L67.427 1677.02L60.1406 1680.44V1675.44V1675.44ZM60.1406 1692.98L74.1697 1686.4L88.1989 1706.05H60.0318V1692.98H60.1406ZM60.1406 1745.86V1716.92H96.0292L133.549 1769.28L130.613 1773.75L125.066 1776.12L60.1406 1745.86ZM140.618 1830.85L124.523 1806.29L140.618 1781.73L171.069 1768.75L201.52 1781.73L217.615 1806.29L201.52 1830.85L171.069 1843.83L140.618 1830.85ZM185.424 1849.97L194.777 1845.93L230.448 1895.66H196.3L198.148 1855.32L185.424 1849.97ZM182.814 1895.66H159.106L157.475 1861.72L170.851 1856.02L184.228 1861.72L182.814 1895.66ZM184.446 1927.14L192.058 1923.55L200.759 1934.77L184.446 1927.14ZM195.756 1907.85L195.865 1906.53H238.278L256.223 1931.62L225.446 1945.91L195.756 1907.85ZM262.857 1963.71L238.496 1952.4L262.857 1941.09L271.013 1952.4L262.857 1963.71ZM281.78 1972.48L274.493 1969.06L278.735 1963.19L281.78 1967.49V1972.48ZM281.78 1937.14L278.735 1941.44L274.493 1935.56L281.78 1932.14V1937.14ZM281.78 1919.6L267.751 1926.18L253.721 1906.53H281.889V1919.6H281.78ZM281.78 1895.66H245.891L208.371 1843.3L211.308 1838.83L216.854 1836.46L281.78 1866.72V1895.66ZM281.78 1854.18L220.117 1825.41L225.119 1817.87L231.862 1828.13L281.889 1826.64V1854.18H281.78ZM281.78 1815.85L239.692 1817.17L232.623 1806.38L239.692 1795.59L281.78 1796.91V1815.85ZM281.78 1785.94L231.753 1784.45L225.011 1794.71L220.008 1787.17L281.671 1758.41V1785.94H281.78ZM281.78 1745.86L216.854 1776.12L211.308 1773.75L208.371 1769.28L245.891 1716.92H281.78V1745.86ZM281.78 1706.05H253.613L267.642 1686.4L281.671 1692.98V1706.05H281.78ZM281.78 1680.44L274.493 1677.02L278.735 1671.14L281.78 1675.44V1680.44ZM281.78 1645.09L278.735 1649.39L274.493 1643.52L281.78 1640.1V1645.09ZM281.78 1627.55L267.751 1634.13L253.721 1614.49H281.889V1627.55H281.78ZM281.78 1603.61H245.891L208.371 1551.25L211.308 1546.78L216.854 1544.41L281.78 1574.67V1603.61ZM281.78 1562.13L220.117 1533.36L225.119 1525.82L231.862 1536.08L281.889 1534.59V1562.13H281.78ZM281.78 1523.8L239.692 1525.12L232.623 1514.33L239.692 1503.54L281.78 1504.86V1523.8ZM281.78 1493.81L231.753 1492.32L225.011 1502.58L220.008 1495.04L281.671 1466.27V1493.81H281.78ZM281.78 1453.82L216.854 1484.08L211.308 1481.71L208.371 1477.23L245.891 1424.88H281.78V1453.82ZM281.78 1414H253.613L267.642 1394.36L281.671 1400.93V1414H281.78ZM281.78 1388.39L274.493 1384.97L278.735 1379.1L281.78 1383.39V1388.39ZM281.78 1353.05L278.735 1357.35L274.493 1351.47L281.78 1348.05V1353.05ZM281.78 1335.51L267.751 1342.09L253.721 1322.44H281.889V1335.51H281.78ZM281.78 1311.57H245.891L208.371 1259.21L211.308 1254.74L216.854 1252.37L281.78 1282.62V1311.57ZM281.78 1270.08L220.117 1241.32L225.119 1233.78L231.862 1244.04L281.889 1242.55V1270.08H281.78ZM281.78 1231.76L239.692 1233.07L232.623 1222.29L239.692 1211.5L281.78 1212.81V1231.76ZM281.78 1201.76L231.753 1200.27L225.011 1210.53L220.008 1202.99L281.671 1174.23V1201.76H281.78ZM281.78 1161.77L216.854 1192.03L211.308 1189.66L208.371 1185.19L245.891 1132.83H281.78V1161.77ZM281.78 1121.96H253.613L267.642 1102.31L281.671 1108.89V1121.96H281.78ZM281.78 1096.35L274.493 1092.93L278.735 1087.05L281.78 1091.35V1096.35ZM281.78 1061L278.735 1065.3L274.493 1059.42L281.78 1056V1061ZM563.559 1781.82L579.655 1806.38L563.559 1830.93L533.109 1843.91L502.658 1830.93L486.562 1806.38L502.658 1781.82L533.109 1768.84L563.559 1781.82ZM533.109 1971.26L492.544 1952.4L533.109 1933.55L573.674 1952.4L533.109 1971.26ZM544.31 1993.88L540.939 1998.18H525.278L521.907 1993.88L522.124 1988.88L533 1983.8L543.875 1988.88L544.31 1993.88ZM505.92 1855.4L507.769 1895.75H473.729L509.4 1846.02L518.753 1850.05L505.92 1855.4ZM519.732 1927.14L503.31 1934.77L512.01 1923.55L519.732 1927.14ZM508.313 1906.53L508.422 1907.85L478.732 1945.91L447.955 1931.62L465.899 1906.53H508.313ZM465.682 1952.31L441.321 1963.63L433.164 1952.31L441.321 1941L465.682 1952.31ZM478.732 1958.8L508.422 1996.87L508.313 1998.18H465.899L447.955 1973.1L478.732 1958.8ZM521.363 1895.66L519.732 1861.72L533.109 1856.02L546.485 1861.72L544.854 1895.66H521.363ZM544.31 1910.83L544.093 1915.83L533.217 1920.92L522.342 1915.83L522.124 1910.83L525.496 1906.53H541.156L544.31 1910.83ZM546.594 1927.14L554.207 1923.55L562.907 1934.77L546.594 1927.14ZM600.644 1952.31L625.005 1941L633.162 1952.31L625.005 1963.63L600.644 1952.31ZM618.262 1973.1L600.318 1998.18H557.904L557.796 1996.87L587.485 1958.8L618.262 1973.1ZM587.594 1945.91L557.904 1907.85L558.013 1906.53H600.427L618.371 1931.62L587.594 1945.91ZM558.448 1895.66L560.297 1855.32L547.573 1849.88L556.925 1845.84L592.597 1895.57H558.448V1895.66ZM518.753 1762.7L509.4 1766.74L473.729 1716.92H507.878L506.029 1757.27L518.753 1762.7ZM522.233 1696.75L533.109 1691.66L543.984 1696.75L544.201 1701.75L540.83 1706.05H525.17L521.798 1701.75L522.233 1696.75ZM521.363 1716.92H545.071L546.703 1750.86L533.326 1756.56L519.949 1750.86L521.363 1716.92ZM519.732 1685.44L512.119 1689.03L503.419 1677.81L519.732 1685.44ZM508.422 1704.73L508.313 1706.05H465.899L447.955 1680.96L478.732 1666.67L508.422 1704.73ZM465.682 1660.27L441.321 1671.58L433.164 1660.27L441.321 1648.95L465.682 1660.27ZM422.289 1614.49H450.456L436.427 1634.13L422.398 1627.55V1614.49H422.289ZM422.289 1640.1L429.575 1643.52L425.334 1649.39L422.289 1645.09V1640.1V1640.1ZM422.289 1675.44L425.334 1671.14L429.575 1677.02L422.289 1680.44V1675.44V1675.44ZM422.289 1692.98L436.318 1686.4L450.347 1706.05H422.18V1692.98H422.289ZM422.289 1716.92H458.178L495.697 1769.28L492.761 1773.75L487.215 1776.12L422.289 1745.86V1716.92V1716.92ZM422.289 1758.41L483.952 1787.17L478.949 1794.71L472.207 1784.45L422.18 1785.94V1758.41H422.289ZM422.289 1796.73L464.377 1795.42L471.445 1806.2L464.377 1816.99L422.289 1815.67V1796.73ZM422.289 1826.72L472.315 1828.22L479.058 1817.95L484.061 1825.5L422.398 1854.26V1826.72H422.289ZM422.289 1866.72L487.215 1836.46L492.761 1838.83L495.697 1843.3L458.178 1895.66H422.289V1866.72V1866.72ZM422.289 1906.53H450.456L436.427 1926.18L422.398 1919.6V1906.53H422.289ZM422.289 1932.14L429.575 1935.56L425.334 1941.44L422.289 1937.14V1932.14V1932.14ZM422.289 1967.49L425.334 1963.19L429.575 1969.06L422.289 1972.48V1967.49V1967.49ZM422.289 1985.03L436.318 1978.45L450.347 1998.09H422.18V1985.03H422.289ZM387.705 1497.23L383.247 1503.37L373.785 1490.13L387.705 1497.23ZM387.705 1531.26L373.785 1538.27L383.247 1525.03L387.705 1531.26ZM375.525 1514.24L352.143 1546.96L328.761 1514.24L352.143 1481.53L375.525 1514.24ZM352.034 1594.84L338.005 1588.26L352.034 1568.62L366.064 1588.26L352.034 1594.84ZM372.915 1597.74L377.156 1603.61H370.957L365.628 1601.16L372.915 1597.74ZM338.658 1601.16L333.329 1603.61H327.13L331.371 1597.74L338.658 1601.16ZM320.822 1525.12L330.284 1538.36L316.363 1531.35L320.822 1525.12ZM316.472 1497.23L330.392 1490.21L320.931 1503.46L316.472 1497.23ZM366.172 1440.22L352.143 1459.87L338.114 1440.22L352.143 1433.65L366.172 1440.22ZM333.22 1424.88L338.549 1427.33L331.262 1430.75L327.021 1424.88H333.22ZM295.265 1407.16L300.594 1409.62L303.639 1413.91H295.156V1407.16H295.265ZM295.265 1424.88H311.469L319.626 1436.19L295.265 1447.5V1424.88ZM295.265 1460.04L326.369 1445.57L344.095 1470.39L296.896 1494.34L295.265 1494.25V1460.04V1460.04ZM295.265 1507.93L300.594 1505.21L306.793 1505.39L313.101 1514.16L306.793 1522.93L300.594 1523.1L295.265 1520.38V1507.93ZM295.265 1534.24L296.896 1534.15L344.095 1558.1L326.369 1582.91L295.265 1568.44V1534.24V1534.24ZM295.265 1580.99L319.626 1592.3L311.469 1603.61H295.265V1580.99ZM295.265 1614.49H303.748L300.703 1618.78L295.374 1621.24V1614.49H295.265ZM295.265 1699.29L300.594 1701.75L303.639 1706.05H295.156V1699.29H295.265ZM295.265 1716.92H311.469L319.626 1728.24L295.265 1739.55V1716.92ZM295.265 1752.18L326.369 1737.71L344.095 1762.53L296.896 1786.47L295.265 1786.38V1752.18V1752.18ZM366.172 1732.27L352.143 1751.92L338.114 1732.27L352.143 1725.69L366.172 1732.27ZM365.52 1719.47L370.849 1717.01H377.048L372.806 1722.89L365.52 1719.47ZM383.247 1795.5L373.785 1782.26L387.705 1789.28L383.247 1795.5ZM387.705 1823.3L373.785 1830.32L383.247 1817.08L387.705 1823.3ZM375.525 1806.29L352.143 1839L328.761 1806.29L352.143 1773.58L375.525 1806.29ZM352.034 1886.89L338.005 1880.31L352.034 1860.67L366.064 1880.31L352.034 1886.89ZM372.915 1889.78L377.156 1895.66H370.957L365.628 1893.2L372.915 1889.78ZM338.658 1893.2L333.329 1895.66H327.13L331.371 1889.78L338.658 1893.2ZM320.822 1817.17L330.284 1830.41L316.363 1823.39L320.822 1817.17ZM316.472 1789.28L330.392 1782.26L320.931 1795.5L316.472 1789.28ZM331.262 1722.89L327.021 1717.01H333.22L338.549 1719.47L331.262 1722.89ZM295.265 1800.06L300.594 1797.34L306.793 1797.52L313.101 1806.29L306.793 1815.06L300.594 1815.24L295.265 1812.52V1800.06ZM295.265 1826.29L296.896 1826.2L344.095 1850.14L326.369 1874.96L295.265 1860.49V1826.29V1826.29ZM295.265 1873.03L319.626 1884.34L311.469 1895.66H295.265V1873.03ZM295.265 1906.53H303.748L300.703 1910.83L295.374 1913.29V1906.53H295.265ZM295.265 1998.18V1991.34L300.594 1993.8L303.639 1998.09H295.265V1998.18ZM327.021 2008.97H333.22L338.549 2011.42L331.262 2014.84L327.021 2008.97ZM338.005 2024.32L352.034 2017.74L366.064 2024.32L352.034 2043.96L338.005 2024.32ZM365.52 2011.51L370.849 2009.06H377.048L372.806 2014.93L365.52 2011.51ZM408.912 2078.34L407.281 2078.43L360.082 2054.49L377.809 2029.67L408.912 2044.14V2078.34ZM408.912 2031.68L384.552 2020.37L392.708 2009.06H408.912V2031.68ZM408.912 1998.18H400.43L403.475 1993.88L408.804 1991.43V1998.18H408.912ZM408.912 1964.59L393.687 1985.82L367.369 1998.09H336.918L310.599 1985.82L295.374 1964.59V1940.03L310.599 1918.81L336.918 1906.53H367.369L393.687 1918.81L408.912 1940.03V1964.59ZM408.912 1913.37L403.583 1910.92L400.538 1906.62H409.021V1913.37H408.912ZM408.912 1895.66H392.708L384.552 1884.34L408.912 1873.03V1895.66ZM408.912 1860.49L377.809 1874.96L360.082 1850.14L407.281 1826.2L408.912 1826.29V1860.49ZM408.912 1812.6L403.583 1815.32L397.384 1815.15L391.077 1806.38L397.384 1797.61L403.583 1797.43L408.912 1800.15V1812.6ZM408.912 1786.29L407.281 1786.38L360.082 1762.44L377.809 1737.62L408.912 1752.09V1786.29ZM408.912 1739.64L384.552 1728.32L392.708 1717.01H408.912V1739.64ZM408.912 1706.05H400.43L403.475 1701.75L408.804 1699.29V1706.05H408.912ZM408.912 1672.55L393.687 1693.77L367.369 1706.05H336.918L310.599 1693.77L295.374 1672.55V1647.99L310.599 1626.77L336.918 1614.49H367.369L393.687 1626.77L408.912 1647.99V1672.55ZM408.912 1621.33L403.583 1618.87L400.538 1614.57H409.021V1621.33H408.912ZM408.912 1603.61H392.708L384.552 1592.3L408.912 1580.99V1603.61ZM408.912 1568.44L377.809 1582.91L360.082 1558.1L407.281 1534.15L408.912 1534.24V1568.44ZM479.058 2086.76L472.315 2076.5L422.289 2077.99V2050.45L483.952 2079.22L479.058 2086.76ZM492.761 2065.8L487.215 2068.17L422.289 2037.91V2008.97H458.178L495.697 2061.33L492.761 2065.8ZM509.4 2058.78L473.729 2008.97H507.878L506.029 2049.31L518.753 2054.75L509.4 2058.78ZM512.01 1981.08L503.31 1969.85L519.732 1977.48L512.01 1981.08ZM533.109 2048.61L519.732 2042.91L521.363 2008.97H545.071L546.703 2042.91L533.109 2048.61ZM563.016 1969.85L554.315 1981.08L546.703 1977.48L563.016 1969.85ZM556.925 2058.78L547.573 2054.75L560.297 2049.31L558.448 2008.97H592.597L556.925 2058.78ZM644.037 2146.31L582.374 2117.54L587.376 2110L594.119 2120.26L644.146 2118.77V2146.31H644.037ZM644.037 2107.9L601.949 2109.21L594.88 2098.42L601.949 2087.64L644.037 2088.95V2107.9ZM644.037 2077.99L594.01 2076.5L587.268 2086.76L582.265 2079.22L643.928 2050.45V2077.99H644.037ZM644.037 2037.91L579.111 2068.17L573.565 2065.8L570.628 2061.33L608.148 2008.97H644.037V2037.91V2037.91ZM644.037 1998.18H615.87L629.899 1978.54L643.928 1985.11V1998.18H644.037ZM644.037 1972.48L636.75 1969.06L640.992 1963.19L644.037 1967.49V1972.48V1972.48ZM644.037 1937.14L640.992 1941.44L636.75 1935.56L644.037 1932.14V1937.14V1937.14ZM644.037 1919.6L630.008 1926.18L615.979 1906.53H644.146V1919.6H644.037ZM644.037 1895.66H608.148L570.628 1843.3L573.565 1838.83L579.111 1836.46L644.037 1866.72V1895.66V1895.66ZM644.037 1854.18L582.374 1825.41L587.376 1817.87L594.119 1828.13L644.146 1826.64V1854.18H644.037ZM644.037 1815.85L601.949 1817.17L594.88 1806.38L601.949 1795.59L644.037 1796.91V1815.85ZM920.161 1906.53H962.575L980.52 1931.62L949.742 1945.91L920.053 1907.85L920.161 1906.53ZM922.554 2049.31L920.705 2008.97H954.854L919.183 2058.7L909.83 2054.66L922.554 2049.31ZM908.742 1977.48L925.164 1969.85L916.464 1981.08L908.742 1977.48ZM920.161 1998.18L920.053 1996.87L949.742 1958.8L980.52 1973.1L962.575 1998.18H920.161ZM962.793 1952.31L987.153 1941L995.31 1952.31L987.153 1963.63L962.793 1952.31ZM916.464 1923.63L925.164 1934.86L908.742 1927.23L916.464 1923.63ZM887.535 1906.53H903.196L906.567 1910.83L906.35 1915.83L895.475 1920.92L884.599 1915.83L884.382 1910.83L887.535 1906.53ZM895.366 1933.46L935.931 1952.31L895.366 1971.17L854.801 1952.31L895.366 1933.46ZM907.111 2008.97L908.742 2042.91L895.366 2048.61L881.989 2042.91L883.62 2008.97H907.111ZM884.164 1993.88L884.382 1988.88L895.257 1983.8L906.132 1988.88L906.35 1993.88L902.979 1998.18H887.318L884.164 1993.88ZM840.88 1958.8L870.57 1996.87L870.461 1998.18H828.047L810.103 1973.1L840.88 1958.8ZM803.469 1963.71L795.313 1952.4L803.469 1941.09L827.83 1952.4L803.469 1963.71ZM870.026 2008.97L868.177 2049.31L880.902 2054.75L871.549 2058.78L835.878 2008.97H870.026ZM874.159 1981.08L865.459 1969.85L881.88 1977.48L874.159 1981.08ZM881.88 1927.14L865.459 1934.77L874.159 1923.55L881.88 1927.14ZM828.156 1906.53H870.57L870.679 1907.85L840.989 1945.91L810.212 1931.62L828.156 1906.53ZM784.437 1906.53H812.604L798.575 1926.18L784.546 1919.6V1906.53H784.437ZM784.437 1932.14L791.724 1935.56L787.482 1941.44L784.437 1937.14V1932.14V1932.14ZM784.437 1967.49L787.482 1963.19L791.724 1969.06L784.437 1972.48V1967.49V1967.49ZM784.437 1985.03L798.466 1978.45L812.496 1998.09H784.329V1985.03H784.437ZM784.437 2008.97H820.326L857.846 2061.33L854.909 2065.8L849.363 2068.17L784.437 2037.91V2008.97V2008.97ZM784.437 2088.86L826.525 2087.55L833.594 2098.34L826.525 2109.12L784.437 2107.81V2088.86ZM745.395 1817.17L749.854 1823.3L735.933 1830.32L745.395 1817.17ZM728.321 1880.4L714.292 1886.98L700.262 1880.4L714.292 1860.75L728.321 1880.4ZM735.063 1889.78L739.305 1895.66H733.106L727.777 1893.2L735.063 1889.78ZM700.806 1893.2L695.477 1895.66H689.278L693.52 1889.78L700.806 1893.2ZM683.079 1817.17L692.541 1830.41L678.62 1823.39L683.079 1817.17ZM657.414 1800.06L662.742 1797.34L668.941 1797.52L675.249 1806.29L668.941 1815.06L662.742 1815.24L657.414 1812.52V1800.06ZM657.414 1826.29L659.045 1826.2L706.244 1850.14L688.517 1874.96L657.414 1860.49V1826.29ZM657.414 1873.03L681.774 1884.34L673.618 1895.66H657.414V1873.03ZM657.414 1906.53H665.896L662.851 1910.83L657.522 1913.29V1906.53H657.414ZM657.414 1991.34L662.742 1993.8L665.788 1998.09H657.305V1991.34H657.414ZM657.414 2008.97H673.618L681.774 2020.28L657.414 2031.6V2008.97ZM657.414 2044.22L688.517 2029.75L706.244 2054.57L659.045 2078.52L657.414 2078.43V2044.22ZM728.321 2024.32L714.292 2043.96L700.262 2024.32L714.292 2017.74L728.321 2024.32ZM727.668 2011.51L732.997 2009.06H739.196L734.955 2014.93L727.668 2011.51ZM693.411 2014.93L689.169 2009.06H695.368L700.697 2011.51L693.411 2014.93ZM692.541 2074.31L683.079 2087.55L678.62 2081.41L692.541 2074.31ZM668.941 2107.19L662.742 2107.37L657.414 2104.65V2092.02L662.742 2089.3L668.941 2089.48L675.249 2098.25L668.941 2107.19ZM678.62 2115.44L683.079 2109.3L692.541 2122.54L678.62 2115.44ZM714.292 2131.14L690.91 2098.42L714.292 2065.71L737.674 2098.42L714.292 2131.14ZM735.933 2122.45L745.395 2109.21L749.854 2115.35L735.933 2122.45ZM745.395 2087.55L735.933 2074.31L749.854 2081.32L745.395 2087.55ZM771.061 2104.65L765.732 2107.37L759.533 2107.19L753.225 2098.42L759.533 2089.65L765.732 2089.48L771.061 2092.2V2104.65ZM771.061 2078.34L769.429 2078.43L722.23 2054.49L739.957 2029.67L771.061 2044.14V2078.34ZM771.061 2031.68L746.7 2020.37L754.856 2009.06H771.061V2031.68ZM771.061 1998.18H762.578L765.623 1993.88L770.952 1991.43V1998.18H771.061ZM771.061 1964.59L755.835 1985.82L729.517 1998.09H699.066L672.748 1985.82L657.522 1964.59V1940.03L672.748 1918.81L699.066 1906.53H729.517L755.835 1918.81L771.061 1940.03V1964.59ZM771.061 1913.37L765.732 1910.92L762.687 1906.62H771.169V1913.37H771.061ZM771.061 1895.66H754.856L746.7 1884.34L771.061 1873.03V1895.66ZM771.061 1860.49L739.957 1874.96L722.23 1850.14L769.429 1826.2L771.061 1826.29V1860.49ZM784.437 2146.31V2118.77L834.464 2120.26L841.207 2110L846.209 2117.54L784.437 2146.31ZM841.207 2086.76L834.464 2076.5L784.437 2077.99V2050.45L846.1 2079.22L841.207 2086.76ZM925.708 2122.89L895.257 2135.87L864.806 2122.89L848.711 2098.34L864.806 2073.78L895.257 2060.8L925.708 2073.78L941.803 2098.34L925.708 2122.89ZM1006.19 2107.9L964.098 2109.21L957.029 2098.42L964.098 2087.64L1006.19 2088.95V2107.9ZM1006.19 2077.99L956.159 2076.5L949.416 2086.76L944.413 2079.22L1006.08 2050.45V2077.99H1006.19ZM1006.19 2037.91L941.26 2068.17L935.713 2065.8L932.777 2061.33L970.297 2008.97H1006.19V2037.91ZM1006.19 1998.18H978.018L992.047 1978.54L1006.08 1985.11V1998.18H1006.19ZM1006.19 1972.48L998.899 1969.06L1003.14 1963.19L1006.19 1967.49V1972.48ZM1006.19 1937.14L1003.14 1941.44L998.899 1935.56L1006.19 1932.14V1937.14ZM1006.19 1919.6L992.156 1926.18L978.127 1906.53H1006.29V1919.6H1006.19ZM1097.21 1889.78L1101.45 1895.66H1095.25L1089.93 1893.2L1097.21 1889.78ZM1055.67 1889.78L1062.95 1893.2L1057.63 1895.66H1051.43L1055.67 1889.78ZM1019.56 1906.53H1028.04L1025 1910.83L1019.67 1913.29V1906.53H1019.56ZM1019.56 1991.34L1024.89 1993.8L1027.94 1998.09H1019.45V1991.34H1019.56ZM1019.56 2008.97H1035.77L1043.92 2020.28L1019.56 2031.6V2008.97ZM1031.2 2107.19L1025 2107.37L1019.67 2104.65V2092.02L1025 2089.3L1031.2 2089.48L1037.51 2098.25L1031.2 2107.19ZM1045.23 2087.55L1040.77 2081.41L1054.69 2074.39L1045.23 2087.55ZM1021.3 2078.43L1019.67 2078.34V2044.14L1050.77 2029.67L1068.5 2054.49L1021.3 2078.43ZM1051.43 2008.97H1057.63L1062.95 2011.42L1055.67 2014.84L1051.43 2008.97ZM1062.3 2024.32L1076.33 2017.74L1090.36 2024.32L1076.33 2043.96L1062.3 2024.32ZM1089.82 2011.51L1095.15 2009.06H1101.34L1097.1 2014.93L1089.82 2011.51ZM1107.65 2087.55L1098.19 2074.31L1112.11 2081.32L1107.65 2087.55ZM1133.21 2078.34L1131.58 2078.43L1084.38 2054.49L1102.11 2029.67L1133.21 2044.14V2078.34V2078.34ZM1133.21 2031.68L1108.85 2020.37L1117 2009.06H1133.21V2031.68ZM1133.21 1998.18H1124.73L1127.77 1993.88L1133.1 1991.43V1998.18H1133.21ZM1133.21 1964.59L1117.98 1985.82L1091.67 1998.09H1061.21L1034.9 1985.82L1019.67 1964.59V1940.03L1034.9 1918.81L1061.21 1906.53H1091.67L1117.98 1918.81L1133.21 1940.03V1964.59ZM1133.21 1913.37L1127.88 1910.92L1124.84 1906.62H1133.32V1913.37H1133.21ZM1278.61 1923.63L1287.31 1934.86L1270.89 1927.23L1278.61 1923.63ZM1249.68 1906.53H1265.34L1268.72 1910.83L1268.5 1915.83L1257.62 1920.92L1246.75 1915.83L1246.53 1910.83L1249.68 1906.53ZM1244.03 1927.14L1227.61 1934.77L1236.31 1923.55L1244.03 1927.14ZM1190.3 1906.53H1232.72L1232.83 1907.85L1203.14 1945.91L1172.36 1931.62L1190.3 1906.53ZM1189.98 1952.31L1165.62 1963.63L1157.46 1952.31L1165.62 1941L1189.98 1952.31ZM1146.69 1906.53H1174.86L1160.83 1926.18L1146.8 1919.6V1906.53H1146.69ZM1146.69 1932.14L1153.98 1935.56L1149.74 1941.44L1146.69 1937.14V1932.14ZM1146.69 1967.49L1149.74 1963.19L1153.98 1969.06L1146.69 1972.48V1967.49ZM1146.69 1998.18V1985.11L1160.72 1978.54L1174.75 1998.18H1146.69ZM1232.72 1998.18H1190.3L1172.36 1973.1L1203.14 1958.8L1232.83 1996.87L1232.72 1998.18ZM1236.42 1981.08L1227.72 1969.85L1244.14 1977.48L1236.42 1981.08ZM1265.24 1998.18H1249.58L1246.2 1993.88L1246.42 1988.88L1257.3 1983.8L1268.17 1988.88L1268.39 1993.88L1265.24 1998.18ZM1278.61 1981.08L1271 1977.48L1287.42 1969.85L1278.61 1981.08ZM1257.51 1971.26L1216.95 1952.4L1257.51 1933.55L1298.08 1952.4L1257.51 1971.26ZM1282.2 1907.85L1282.31 1906.53H1324.72L1342.67 1931.62L1311.89 1945.91L1282.2 1907.85ZM1349.3 1963.71L1324.94 1952.4L1349.3 1941.09L1357.46 1952.4L1349.3 1963.71ZM1368.33 1937.14L1365.29 1941.44L1361.05 1935.56L1368.33 1932.14V1937.14ZM1368.33 1919.6L1354.3 1926.18L1340.28 1906.53H1368.44V1919.6H1368.33ZM1407.38 1817.17L1416.84 1830.41L1402.92 1823.39L1407.38 1817.17ZM1387.15 1910.83L1381.82 1913.29V1906.45H1390.3L1387.15 1910.83ZM1398.02 1895.66H1381.82V1873.03L1406.18 1884.34L1398.02 1895.66ZM1412.81 1874.96L1381.71 1860.49V1826.29L1383.34 1826.2L1430.54 1850.14L1412.81 1874.96ZM1460.34 1830.41L1469.8 1817.17L1474.26 1823.3L1460.34 1830.41Z" fill="url(#paint1_linear_330_39)"/>
<path d="M805.97 2167.84C697.217 2167.84 591.618 2150.65 492.217 2116.8C396.188 2084.09 310.056 2037.17 235.995 1977.53C161.934 1917.8 103.859 1848.35 63.2944 1770.9C21.2069 1690.75 0 1605.68 0 1517.89C0 1383.97 50.1352 1255.4 144.859 1145.94C190.536 1093.24 245.456 1046.4 308.207 1006.67C371.501 966.595 441.538 934.408 516.252 911.167C525.278 908.361 535.392 910.729 541.156 917.043C546.92 923.27 546.703 931.865 540.83 937.916C493.522 986.591 456.764 1040.7 431.424 1098.85C405.215 1158.92 391.947 1222.07 391.947 1286.35C391.947 1362.65 410.435 1436.76 447.085 1506.48C482.429 1573.84 533 1634.27 597.382 1686.18C661.764 1738.1 736.803 1778.89 820.217 1807.39C906.676 1836.86 998.464 1851.85 1093.19 1851.85C1172.9 1851.85 1251.21 1841.15 1325.7 1820.02C1397.7 1799.58 1464.91 1769.94 1525.26 1731.79C1532.88 1726.97 1543.43 1726.88 1551.15 1731.53C1558.87 1736.17 1561.81 1744.33 1558.43 1751.61C1529.61 1811.95 1489.81 1868.43 1440 1919.38C1390.74 1969.99 1332.55 2014.28 1267.3 2051.11C1131.47 2127.41 972.037 2167.84 805.97 2167.84ZM462.201 968.261C417.177 986.591 374.546 1008.52 334.634 1033.77C275.254 1071.4 223.162 1115.86 179.987 1165.76C90.2652 1269.34 42.8488 1391.07 42.8488 1517.89C42.8488 1600.94 63.0769 1681.54 102.772 1757.49C141.162 1830.8 196.191 1896.58 266.337 1953.15C336.483 2009.72 418.048 2054.09 508.965 2085.05C603.037 2117.15 702.981 2133.37 806.079 2133.37C963.336 2133.37 1114.29 2095.14 1242.72 2022.78C1304.6 1987.88 1359.63 1945.96 1406.4 1898.07C1437.72 1865.89 1464.91 1831.51 1487.64 1795.2C1441.2 1818.7 1391.72 1837.91 1339.95 1852.55C1260.89 1875.01 1177.91 1886.32 1093.3 1886.32C992.917 1886.32 895.474 1870.45 803.687 1839.14C715.053 1808.88 635.554 1765.64 567.257 1710.57C498.96 1655.49 445.345 1591.29 407.825 1519.9C369 1445.88 349.315 1367.39 349.315 1286.35C349.315 1218.12 363.453 1151.21 391.185 1087.45C409.239 1045.53 433.055 1005.71 462.201 968.261Z" fill="url(#paint2_linear_330_39)"/>
<g opacity="0.9">
<path opacity="0.9" d="M805.972 2154.86C699.285 2154.86 595.861 2138.02 498.527 2104.78C404.455 2072.69 319.954 2026.73 247.415 1968.23C174.877 1909.74 117.89 1841.59 78.0864 1765.73C36.8689 1687.15 15.9883 1603.75 15.9883 1517.8C15.9883 1386.51 65.1447 1260.48 158.02 1153.31C202.826 1101.66 256.659 1055.7 318.105 1016.76C380.094 977.47 448.718 945.986 522.017 923.183C524.301 922.482 526.802 923.096 528.216 924.674C529.63 926.253 529.63 928.358 528.107 929.936C479.712 979.751 442.084 1035.09 416.2 1094.55C389.447 1156.03 375.853 1220.58 375.853 1286.35C375.853 1364.41 394.776 1440.18 432.187 1511.48C468.293 1580.33 520.06 1642.25 585.855 1695.31C651.76 1748.45 728.431 1790.11 813.802 1819.23C902.219 1849.4 996.181 1864.66 1092.97 1864.66C1174.54 1864.66 1254.58 1853.7 1330.82 1832.12C1404.55 1811.25 1473.17 1780.9 1534.95 1741.88C1536.79 1740.65 1539.51 1740.65 1541.47 1741.79C1543.43 1742.93 1544.19 1745.03 1543.32 1746.79C1515.04 1805.9 1476 1861.24 1427.28 1911.23C1378.99 1960.78 1322.01 2004.19 1257.95 2040.32C1125.05 2115.31 968.776 2154.86 805.972 2154.86ZM507.988 937.04C442.41 958.965 380.856 987.995 324.739 1023.6C264.163 1062.01 210.983 1107.36 166.829 1158.31C75.1501 1264.08 26.7548 1388.35 26.7548 1517.89C26.7548 1602.69 47.3092 1685.05 87.9829 1762.49C127.243 1837.3 183.468 1904.56 255.028 1962.27C326.588 2019.98 409.893 2065.32 502.768 2096.98C598.797 2129.78 700.916 2146.36 806.081 2146.36C966.601 2146.36 1120.81 2107.33 1251.97 2033.4C1315.15 1997.79 1371.38 1954.9 1419.01 1906.05C1463.17 1860.8 1499.17 1811.16 1526.35 1758.28C1467.74 1793.36 1403.35 1820.9 1334.62 1840.37C1257.19 1862.29 1176.06 1873.43 1093.3 1873.43C994.985 1873.43 899.717 1857.91 809.996 1827.3C723.32 1797.74 645.452 1755.38 578.569 1701.53C511.686 1647.6 459.267 1584.8 422.617 1514.9C384.662 1442.55 365.413 1365.64 365.413 1286.44C365.413 1219.7 379.224 1154.19 406.412 1091.83C430.229 1036.23 464.487 984.311 507.988 937.04Z" fill="#706262"/>
</g>
<g opacity="0.9">
<path opacity="0.9" d="M2679.87 1443.04V703.714C2569.92 666.178 2457.04 635.132 2339.04 638.552C2224.42 641.972 2115.01 678.193 2014.3 722.482C1829.42 803.957 1666.51 913.496 1499.47 1016.98C1332.42 1120.47 1157.22 1219.66 958.419 1275.97C759.618 1332.27 532.432 1341.48 342.984 1267.28C293.392 1247.9 247.39 1221.94 206.825 1191.25C201.278 1219.93 198.56 1249.04 198.56 1278.42C198.56 1354.72 217.048 1428.83 253.697 1498.55C289.042 1565.91 339.613 1626.33 403.994 1678.25C443.472 1710.09 486.973 1737.71 533.955 1760.96C606.602 1713.95 669.135 1652.64 725.795 1592.74C829.22 1483.56 939.713 1365.07 1102.84 1325.34C1266.3 1285.53 1443.24 1336.04 1589.62 1406.9C1736 1477.77 1867.6 1569.59 2024.2 1624.49C2026.81 1625.37 2029.42 1626.33 2032.03 1627.21C2011.04 1562.05 1971.56 1501.36 1932.63 1441.63C1888.8 1374.37 1846.06 1288.77 1901.85 1227.47C1936.55 1189.23 2001.36 1174.93 2059.65 1180.99C2117.95 1187.04 2171.23 1210.1 2221.48 1234.57C2349.7 1297.01 2469.65 1371.74 2606.68 1420.5C2630.39 1428.92 2654.86 1436.46 2679.87 1443.04Z" fill="gray"/>
</g>
<path d="M1495.61 1741.78C1496.67 1741.17 1497.72 1740.55 1498.89 1740.11C1526.23 1718.28 1556 1698.63 1591.6 1692.58V1583.92C1591.6 1551.2 1565.11 1524.19 1530.89 1520.16C1555.79 1490.87 1567.97 1453.86 1563.21 1418.16C1556.85 1370.36 1520.51 1326.07 1469.33 1303.89C1427.58 1285.73 1378.74 1282.22 1335.72 1266.26C1304.46 1254.69 1275.22 1232.06 1266.11 1206.01C1256.99 1232.06 1227.64 1254.69 1196.49 1266.26C1153.48 1282.22 1104.63 1285.73 1062.88 1303.89C1011.81 1326.07 975.366 1370.36 969.008 1418.16C964.24 1453.94 976.425 1490.87 1001.32 1520.25C967.101 1524.28 940.612 1551.29 940.612 1584V1696.53H867.927V1683.28H896.323V1657.85H879.476C898.972 1632.77 908.932 1598.48 905.647 1565.5C901.727 1526.39 879.264 1490.16 847.69 1472.01C821.836 1457.19 791.745 1454.29 765.15 1441.23C745.867 1431.76 727.748 1413.25 722.133 1391.94C716.517 1413.25 698.399 1431.76 679.115 1441.23C652.52 1454.29 622.323 1457.1 596.576 1472.01C565.001 1490.16 542.539 1526.39 538.618 1565.5C535.334 1598.48 545.293 1632.77 564.789 1657.85H549.002C557.69 1666.53 566.802 1675.04 576.232 1683.28H576.55V1683.55C581.53 1687.93 586.51 1692.23 591.596 1696.44C654.321 1748.36 727.43 1789.14 808.698 1817.64C881.277 1843.08 957.671 1857.63 1036.5 1861.23V1726.78C1036.5 1695.91 1054.73 1668.9 1081.74 1654.52C1108.76 1668.99 1126.99 1695.91 1126.99 1726.78V1860.44C1153.48 1858.77 1179.75 1855.88 1205.71 1851.67V1672.85C1205.71 1632.94 1228.39 1598.04 1262.5 1578.3H1269.71C1303.83 1598.04 1326.5 1632.94 1326.5 1672.85V1822.38C1353.52 1813.52 1379.8 1803.17 1405.23 1791.51V1726.7C1405.23 1695.82 1423.45 1668.81 1450.47 1654.43C1477.49 1668.9 1495.71 1695.82 1495.71 1726.7V1741.78H1495.61Z" fill="url(#paint3_linear_330_39)"/>
<path d="M1968.49 1563.24C1964.57 1524.12 1942.11 1487.9 1910.53 1469.75C1884.68 1454.93 1854.59 1452.03 1827.99 1438.96C1808.71 1429.49 1790.59 1410.99 1784.98 1389.68C1779.36 1410.99 1761.24 1429.49 1741.96 1438.96C1715.36 1452.03 1685.17 1454.84 1659.42 1469.75C1627.84 1487.9 1605.38 1524.12 1601.46 1563.24C1598.18 1596.21 1608.14 1630.42 1627.63 1655.59H1610.79V1681.02H1639.29V1694.26H1627.63C1676.16 1708.65 1715.68 1747.94 1742.06 1786.96C1776.82 1838.62 1805.11 1898.08 1866.24 1928.6C1944.23 1967.54 2053.36 1940.62 2109.83 1881.51C2166.31 1822.31 2176.9 1740.04 2159.1 1666.11C2147.87 1619.63 2126.68 1575.52 2101.99 1532.54C2085.25 1540.61 2066.29 1542.54 2050.08 1551.84C2030.05 1563.32 2015.75 1586.3 2013.31 1611.12C2011.19 1632.08 2017.55 1653.74 2029.94 1669.71H2019.24V1685.84H2037.36V1694.26H1930.66V1681.02H1959.17V1655.59H1942.32C1961.82 1630.5 1971.78 1596.3 1968.49 1563.24Z" fill="url(#paint4_linear_330_39)"/>
<path d="M1755.82 438.715C1767.65 438.715 1777.25 431.277 1777.25 422.102C1777.25 412.927 1767.65 405.489 1755.82 405.489C1743.98 405.489 1734.39 412.927 1734.39 422.102C1734.39 431.277 1743.98 438.715 1755.82 438.715Z" fill="gray"/>
<path d="M2432.29 527.542C2439.07 527.542 2444.56 523.286 2444.56 518.035C2444.56 512.785 2439.07 508.528 2432.29 508.528C2425.52 508.528 2420.03 512.785 2420.03 518.035C2420.03 523.286 2425.52 527.542 2432.29 527.542Z" fill="gray"/>
<path d="M1903.59 799.154C1904.94 794.715 1901.4 790.267 1895.67 789.219C1889.95 788.171 1884.21 790.919 1882.86 795.358C1881.5 799.797 1885.05 804.245 1890.78 805.293C1896.5 806.341 1902.24 803.593 1903.59 799.154Z" fill="gray"/>
<path d="M2638.87 944.073C2644.05 940.061 2644.05 933.555 2638.87 929.542C2633.69 925.529 2625.3 925.529 2620.13 929.542C2614.95 933.555 2614.95 940.06 2620.13 944.073C2625.3 948.086 2633.69 948.086 2638.87 944.073Z" fill="gray"/>
<path d="M1533.44 1109.2C1542.15 1102.45 1542.15 1091.51 1533.44 1084.76C1524.74 1078.01 1510.62 1078.01 1501.91 1084.76C1493.2 1091.51 1493.2 1102.45 1501.91 1109.2C1510.62 1115.95 1524.74 1115.95 1533.44 1109.2Z" fill="gray"/>
<path d="M734.88 1158.46C743.588 1151.71 743.588 1140.76 734.88 1134.01C726.173 1127.26 712.055 1127.26 703.347 1134.01C694.64 1140.76 694.64 1151.71 703.347 1158.46C712.055 1165.21 726.173 1165.21 734.88 1158.46Z" fill="gray"/>
<path d="M2380.51 1122.73C2380.51 1125.04 2378.16 1126.86 2375.19 1126.86C2372.21 1126.86 2369.86 1125.04 2369.86 1122.73C2369.86 1120.43 2372.21 1118.6 2375.19 1118.6C2378.16 1118.6 2380.51 1120.43 2380.51 1122.73Z" fill="gray"/>
<path d="M2649.32 575.364C2649.32 578.245 2646.35 580.453 2642.75 580.453C2639.16 580.453 2636.19 578.149 2636.19 575.364C2636.19 572.483 2639.16 570.274 2642.75 570.274C2646.35 570.274 2649.32 572.483 2649.32 575.364Z" fill="gray"/>
<path d="M2033.56 32.9021C2040.64 30.6289 2044 24.3371 2041.07 18.8492C2038.14 13.3613 2030.02 10.7553 2022.94 13.0285C2015.86 15.3017 2012.5 21.5934 2015.43 27.0813C2018.37 32.5693 2026.48 35.1753 2033.56 32.9021Z" fill="gray"/>
<path d="M1553.71 14.0629C1554.94 8.19954 1549.8 2.67487 1542.24 1.72329C1534.68 0.771704 1527.55 4.75355 1526.32 10.6169C1525.09 16.4803 1530.23 22.0048 1537.79 22.9564C1545.36 23.908 1552.48 19.9262 1553.71 14.0629Z" fill="gray"/>
<path d="M897.494 765.599C897.494 768.192 894.769 770.208 891.549 770.208C888.204 770.208 885.603 768.096 885.603 765.599C885.603 763.006 888.328 760.989 891.549 760.989C894.769 760.893 897.494 763.006 897.494 765.599Z" fill="gray"/>
<path d="M2474.41 236.958C2478.5 248.193 2489.77 257.028 2504.39 260.197C2489.9 263.366 2478.5 272.105 2474.41 283.436C2470.32 272.201 2459.05 263.366 2444.43 260.197C2459.05 257.028 2470.45 248.193 2474.41 236.958Z" fill="gray"/>
<path d="M445.977 910.412C450.065 921.648 461.338 930.482 475.955 933.651C461.462 936.82 450.065 945.559 445.977 956.89C441.89 945.655 430.617 936.82 416 933.651C430.493 930.482 441.89 921.648 445.977 910.412Z" fill="gray"/>
<path d="M2642.76 33.7598C2646.84 44.9952 2658.12 53.8299 2672.73 56.9989C2658.24 60.1678 2646.84 68.9065 2642.76 80.2379C2638.67 69.0025 2627.4 60.1678 2612.78 56.9989C2627.27 53.8299 2638.67 44.9952 2642.76 33.7598Z" fill="gray"/>
<path d="M1495.44 298.513C1499.52 309.748 1510.8 318.583 1525.41 321.752C1510.92 324.921 1499.52 333.659 1495.44 344.991C1491.35 333.755 1480.08 324.921 1465.46 321.752C1480.08 318.583 1491.35 309.748 1495.44 298.513Z" fill="gray"/>
<path d="M2112.95 913.58C2117.03 924.816 2128.31 933.65 2142.92 936.819C2128.43 939.988 2117.03 948.727 2112.95 960.058C2108.86 948.823 2097.59 939.988 2082.97 936.819C2097.59 933.65 2108.86 924.816 2112.95 913.58Z" fill="gray"/>
<path d="M2642.76 1132.05C2646.84 1143.28 2658.12 1152.12 2672.73 1155.29C2658.24 1158.46 2646.84 1167.2 2642.76 1178.53C2638.67 1167.29 2627.4 1158.46 2612.78 1155.29C2627.27 1152.12 2638.67 1143.38 2642.76 1132.05Z" fill="gray"/>
<path d="M1111.92 1037.65C1116.01 1048.89 1127.28 1057.72 1141.9 1060.89C1127.41 1064.06 1116.01 1072.8 1111.92 1084.13C1107.83 1072.89 1096.56 1064.06 1081.95 1060.89C1096.56 1057.72 1107.83 1048.98 1111.92 1037.65Z" fill="gray"/>
<path d="M1627.11 1254.49C1631.2 1265.72 1642.47 1274.56 1657.09 1277.72C1642.6 1280.89 1631.2 1289.63 1627.11 1300.96C1623.02 1289.73 1611.75 1280.89 1597.13 1277.72C1611.63 1274.56 1623.02 1265.72 1627.11 1254.49Z" fill="gray"/>
<path d="M1812.43 155.908C1816.52 167.144 1827.79 175.978 1842.41 179.147C1827.91 182.316 1816.52 191.055 1812.43 202.386C1808.34 191.151 1797.07 182.316 1782.45 179.147C1796.94 175.978 1808.34 167.24 1812.43 155.908Z" fill="gray"/>
<path d="M1467.81 765.6C1471.9 776.835 1483.17 785.67 1497.79 788.839C1483.29 792.008 1471.9 800.746 1467.81 812.078C1463.72 800.842 1452.45 792.008 1437.83 788.839C1452.33 785.67 1463.72 776.835 1467.81 765.6Z" fill="gray"/>
<path d="M1164.07 661.215C1168.16 672.45 1179.43 681.285 1194.05 684.454C1179.56 687.623 1168.16 696.362 1164.07 707.693C1159.99 696.458 1148.71 687.623 1134.1 684.454C1148.71 681.285 1160.11 672.45 1164.07 661.215Z" fill="gray"/>
<path d="M2159.27 443.421C2082.72 443.421 2020.54 395.31 2020.54 335.868C2020.54 306.291 2035.9 279.595 2060.79 260.101C2020.54 278.922 1993.53 313.109 1993.53 352.289C1993.53 411.635 2055.59 459.842 2132.27 459.842C2170.79 459.842 2205.6 447.646 2230.75 428.056C2209.81 437.755 2185.29 443.421 2159.27 443.421Z" fill="gray"/>
<defs>
<linearGradient id="paint0_linear_330_39" x1="4040.67" y1="932.255" x2="4067.32" y2="932.255" gradientUnits="userSpaceOnUse">
<stop stop-color="#FFE44A"/>
<stop offset="1" stop-color="#FFBA5C"/>
</linearGradient>
<linearGradient id="paint1_linear_330_39" x1="0.432185" y1="1547.51" x2="1517.34" y2="1547.51" gradientUnits="userSpaceOnUse">
<stop stop-color="pink"/>
<stop offset="1" stop-color="pink"/>
</linearGradient>
<linearGradient id="paint2_linear_330_39" x1="-0.0354536" y1="1538.9" x2="1559.73" y2="1538.9" gradientUnits="userSpaceOnUse">
<stop stop-color="#423F3F"/>
<stop offset="1" stop-color="#746E6E"/>
</linearGradient>
<linearGradient id="paint3_linear_330_39" x1="1064.72" y1="1861.04" x2="1064.72" y2="1205.94" gradientUnits="userSpaceOnUse">
<stop offset="0.00120192" stop-color="#3A3939"/>
<stop offset="1" stop-color="#141416"/>
</linearGradient>
<linearGradient id="paint4_linear_330_39" x1="1883.83" y1="1946.97" x2="1883.83" y2="1389.78" gradientUnits="userSpaceOnUse">
<stop offset="0.00120192" stop-color="#2F2E41"/>
<stop offset="1" stop-color="#423F3F"/>
</linearGradient>
</defs>
</svg>
