<svg width="1185" height="600" viewBox="0 0 2185 2801" fill="none" xmlns="http://www.w3.org/2000/svg">
<path d="M2942.73 0.0458984H0V2800.05H2942.73V0.0458984Z" fill="current-color"/>
<g opacity="0.1">
<path opacity="0.1" d="M2803.83 1761.33V1076.13C2793.87 1076.56 2783.91 1077.2 2773.95 1078.16C2617.08 1093.36 2473.73 1168.19 2326.82 1224.39C2179.79 1280.59 2012.63 1318.27 1867.02 1258.75C1771.96 1219.89 1695.42 1142.71 1597.44 1111.56C1488.74 1076.99 1369.76 1104.17 1263.66 1145.82C1081.13 1217.32 918.296 1329.61 742.366 1415.79C614.939 1478.19 474.736 1527.22 334.425 1533.32C334.1 1542.31 333.884 1551.41 333.884 1560.4C333.884 1653.53 352.289 1743.99 388.774 1829.09C423.96 1911.3 474.303 1985.05 538.396 2048.43C547.923 2057.85 557.667 2066.84 567.519 2075.72C634.751 2078.29 702.2 2072.3 767.808 2056.88C973.186 2008.82 1148.03 1880.68 1329.48 1774.07C1510.94 1667.56 1721.29 1578.28 1928.08 1620.35C1956.99 1626.24 1984.81 1634.48 2011.98 1644.65C1998.02 1592.52 1997.91 1540.49 2029.42 1498C2063.95 1451.32 2128.48 1433.88 2186.51 1441.26C2244.54 1448.65 2297.59 1476.8 2347.6 1506.67C2475.25 1582.88 2594.66 1674.09 2731.08 1733.6C2754.57 1744.09 2778.93 1753.3 2803.83 1761.33Z" fill="current-color"/>
</g>
<path d="M4185 1131.71C4176.12 1135.45 4167.25 1139.31 4158.48 1143.38L4178.4 1144.13L4185 1131.71Z" fill="url(#paint0_linear_330_35)"/>
<path d="M1638.06 2146.26L1642.5 2148.72C1643.91 2145.29 1645.21 2141.87 1646.62 2138.44C1639.47 2144.01 1632.11 2149.47 1624.75 2154.71V2180.19L1623.12 2180.3L1604.5 2168.73C1600.39 2171.41 1596.38 2174.09 1592.16 2176.76L1603.63 2183.94L1599.2 2191.43L1590.97 2177.41C1587.18 2179.76 1583.39 2182.12 1579.6 2184.47L1591.4 2204.7L1568.12 2244.63L1544.85 2204.7L1545.06 2204.27C1527.85 2213.48 1510.2 2222.04 1492.12 2229.86L1498.18 2229.64V2263.26L1461.59 2242.38C1456.18 2244.42 1450.76 2246.45 1445.24 2248.38L1498.18 2278.56V2313.89H1462.46L1427.7 2254.37C1423.37 2255.76 1419.04 2257.15 1414.6 2258.44L1446.98 2313.89H1412.98L1414.82 2264.65L1407.03 2260.58C1400.85 2262.4 1394.58 2264.11 1388.3 2265.72L1401.07 2272.36L1399.45 2313.78H1375.85L1374.22 2272.36L1385.91 2266.25C1377.58 2268.39 1369.24 2270.43 1360.8 2272.25L1362.42 2313.67H1328.43L1351.49 2274.17C1345.64 2275.35 1339.9 2276.53 1334.06 2277.6L1313.05 2313.67H1277.32V2285.63C1272.89 2286.06 1268.45 2286.48 1263.9 2286.91V2313.67H1247.77L1239.65 2299.87L1262.06 2287.02C1247.44 2288.2 1232.72 2288.95 1218 2289.27L1221.35 2295.05L1207.39 2303.08L1193.42 2295.05L1196.67 2289.38C1182.27 2289.27 1168.09 2288.73 1153.9 2287.77L1175.12 2299.87L1167 2313.67H1150.87V2287.56C1146.43 2287.23 1141.89 2286.91 1137.45 2286.49V2313.67H1101.72L1081.58 2279.31C1075.84 2278.35 1070 2277.28 1064.26 2276.21L1086.13 2313.67H1052.13L1053.65 2274.07C1047.8 2272.89 1042.07 2271.61 1036.33 2270.21L1040.33 2272.36L1038.71 2313.78H1015.11L1013.48 2272.36L1023.44 2267.11C1017.06 2265.5 1010.78 2263.79 1004.5 2261.97L999.735 2264.43L1001.58 2313.67H968.121L999.193 2260.37C994.755 2259.08 990.424 2257.8 986.093 2256.41L952.64 2313.67H916.912V2278.35L966.606 2249.98C961.084 2248.06 955.563 2246.13 950.15 2244.09L916.912 2263.04V2230.82C900.456 2223.76 884.216 2216.05 868.41 2207.81L846.973 2244.52L823.696 2204.6L833.224 2188.22C829.435 2185.97 825.537 2183.61 821.748 2181.26L815.901 2191.32L811.463 2183.83L818.608 2179.33C814.494 2176.76 810.272 2174.09 806.266 2171.41L792.083 2180.3L790.459 2180.19V2160.71C785.912 2157.6 781.473 2154.39 777.034 2151.18V2179.65L727.233 2177.83L720.52 2190.36L715.54 2181.15L773.029 2148.29C769.131 2145.4 765.342 2142.51 761.444 2139.62L712.184 2167.77L706.662 2164.88L703.739 2159.42L730.156 2114.14C726.692 2111.14 723.335 2108.15 719.979 2105.15L690.206 2156.21L680.896 2151.29L693.563 2144.65L691.722 2095.41H709.477C704.822 2091.02 700.167 2086.63 695.62 2082.13H691.181L691.072 2080.53L692.155 2078.82C681.762 2068.43 671.693 2057.73 661.841 2046.7L626.005 2026.26L638.564 2019.08C633.584 2012.88 628.712 2006.56 623.84 2000.14L612.256 2018.44L581.617 2000.99L599.481 1970.38H602.729C599.372 1965.35 596.016 1960.32 592.876 1955.18L591.794 1957.11H556.067V1921.78L568.95 1914.39C566.785 1910.54 564.728 1906.58 562.671 1902.62L555.958 1906.47V1889.56C550.653 1878.75 545.565 1867.83 540.801 1856.8L537.228 1859.05L531.057 1858.84L524.778 1848.13L531.057 1837.43L532.681 1837.32C529.542 1829.29 526.51 1821.16 523.587 1813.02L493.923 1794.61L509.404 1768.06C507.239 1760.14 505.074 1752.22 503.233 1744.19L499.444 1742.05L502.367 1740.44C501.176 1735.63 500.094 1730.7 499.119 1725.78H470.971L444.771 1710.79L429.614 1684.89V1654.92L444.771 1629.01L470.971 1614.02H484.504C484.071 1605.57 483.854 1597.22 483.638 1588.65L472.053 1582.02L483.746 1562.11C483.962 1551.4 484.504 1540.7 485.153 1529.99L462.742 1491.56L486.019 1451.64L492.84 1463.3C494.139 1455.49 495.547 1447.67 497.062 1439.97L493.923 1438.04L499.336 1428.73C504.424 1405.18 510.704 1382.16 518.066 1359.58L501.176 1369.21H470.862L444.662 1354.22L429.505 1328.32V1298.35L444.662 1272.44L470.862 1257.45H501.176L527.376 1272.44L541.776 1297.17C546.214 1286.89 550.978 1276.72 555.958 1266.77V1257.56H560.614C562.887 1253.17 565.161 1248.68 567.543 1244.29H555.958V1208.96L606.734 1179.95C613.663 1169.89 620.7 1160.04 628.171 1150.41L624.923 1144.41C620.809 1146.13 616.586 1147.73 612.472 1149.55L617.344 1158.65L555.958 1193.76V1175.89C551.519 1178.24 546.972 1180.6 542.533 1182.95V1201.36L511.57 1219.02L503.666 1205.43C499.877 1207.79 496.088 1210.14 492.407 1212.6L499.985 1225.66L486.019 1233.69L472.378 1225.88C452.999 1239.15 434.161 1253.39 416.08 1268.37V1273.62L402.114 1281.65L401.573 1280.68C365.954 1311.62 333.15 1345.87 303.702 1382.7H317.56L319.184 1424.12L305.867 1431.08L292.551 1424.12L293.633 1395.76C288.87 1402.07 284.106 1408.39 279.451 1414.81L278.801 1431.83L291.468 1438.47L282.157 1443.39L271.764 1425.62C268.949 1429.69 266.134 1433.76 263.427 1437.93L268.516 1446.6L265.593 1452.06L260.071 1454.95L254.441 1451.74C252.06 1455.49 249.786 1459.24 247.404 1462.98L256.823 1468.33L251.843 1477.54L245.564 1465.87C242.857 1470.37 240.259 1474.86 237.66 1479.36L244.265 1491.78L237.227 1504.94L223.803 1504.41C221.529 1508.69 219.255 1513.08 217.09 1517.36L245.131 1518.43L251.843 1505.91L256.823 1515.11L203.882 1545.41C195.979 1562.86 188.725 1580.73 182.012 1598.82V1600.86H181.255C179.631 1605.25 178.115 1609.63 176.599 1614.13H182.012V1622.48L176.707 1619.48L175.517 1617.56C173.568 1623.23 171.836 1628.9 169.995 1634.58L182.012 1655.13V1685.1L166.855 1711.01L148.667 1721.39C147.584 1727.28 146.502 1733.27 145.636 1739.16H150.507L146.285 1746.33L144.661 1745.37C142.712 1758.11 141.088 1770.85 139.789 1783.8L151.157 1764.42L182.121 1782.09V1823.83L180.497 1823.94L138.598 1797.93C137.841 1807.78 137.191 1817.62 136.758 1827.47L148.883 1848.35L136 1870.4C136.108 1880.25 136.433 1889.99 136.866 1899.84L180.388 1872.75L182.012 1872.86V1914.61L151.049 1932.27L137.299 1908.83C138.165 1923.71 139.573 1938.48 141.305 1953.14L146.069 1950.36L150.291 1957.53H144.12L141.63 1956.14C142.279 1961.71 143.037 1967.17 143.903 1972.73L166.747 1985.79L181.904 2011.7V2041.67L166.747 2067.58L164.365 2068.97C166.964 2077.96 169.67 2086.95 172.485 2095.84H181.904V2123.13C186.127 2134.69 190.565 2146.04 195.329 2157.28V2146.47L256.715 2181.58L251.735 2190.79L245.022 2178.15L205.073 2179.65C207.022 2184.04 209.079 2188.32 211.244 2192.71L237.119 2191.75L244.156 2204.92L237.119 2218.08L223.803 2217.55C226.184 2222.04 228.674 2226.65 231.056 2231.04L245.022 2231.57L251.735 2219.05L256.715 2228.25L236.145 2240.03C238.31 2243.88 240.584 2247.73 242.857 2251.48L259.963 2241.74L265.484 2244.63L268.408 2250.09L255.524 2272.14C258.231 2276.32 260.937 2280.49 263.644 2284.67L281.941 2253.3L291.251 2258.22L278.584 2264.86L280.208 2308.75C285.405 2315.92 290.71 2322.99 296.123 2330.05L297.856 2327.38H313.446L316.802 2332.62L316.585 2338.72L307.275 2344.08C316.585 2355.53 326.221 2366.66 336.073 2377.58L346.142 2383.25L343.002 2385.07C347.116 2389.46 351.23 2393.85 355.452 2398.13L359.891 2391.18L390.53 2408.62L381.761 2423.72C385.117 2426.82 388.473 2429.93 391.829 2432.92L402.114 2415.26L416.08 2423.29V2439.24H398.866C403.955 2443.74 409.152 2448.12 414.348 2452.51H416.08V2453.9C420.519 2457.54 424.958 2461.18 429.505 2464.72V2452.08H445.637L453.756 2465.89L440.981 2473.17C444.771 2476.06 448.668 2478.95 452.566 2481.84L460.469 2477.35L470.538 2494.58C499.877 2514.81 530.624 2533.12 562.562 2549.18L597.857 2547.89L604.894 2561.06L601.429 2567.48C610.74 2571.55 620.159 2575.4 629.686 2579.15L620.051 2561.06L636.074 2531.08L666.388 2515.24L696.702 2531.08L712.725 2561.06L696.702 2591.03L683.494 2597.99C690.531 2600.13 697.677 2602.27 704.822 2604.3L706.662 2600.88L712.184 2597.99L737.951 2612.65C755.165 2616.61 772.596 2620.04 790.243 2622.93V2585.46L791.867 2585.36L838.854 2614.58L830.842 2628.39C835.714 2628.92 840.586 2629.46 845.458 2629.89L846.865 2627.53L848.381 2630.1C853.794 2630.53 859.207 2630.96 864.512 2631.28L854.768 2614.58L901.755 2585.36L903.379 2585.46V2627.21L893.744 2632.78C901.539 2632.99 909.442 2633.1 917.345 2633.1C918.211 2633.1 919.078 2633.1 919.944 2633.1L981.438 2597.99L986.959 2600.88L989.883 2606.34L975.483 2631.07C980.897 2630.64 986.31 2630.21 991.723 2629.67L1003.52 2609.55L1012.83 2614.47L1000.17 2621.11L1000.49 2628.92C1006.23 2628.28 1012.08 2627.64 1017.81 2626.89L1027.34 2621.97L1032.86 2624.86C1040.12 2623.79 1047.26 2622.61 1054.41 2621.43V2621.11L1041.74 2614.47L1051.05 2609.55L1057.66 2620.79C1062.31 2619.93 1066.97 2619.08 1071.62 2618.11L1064.69 2606.34L1067.62 2600.88L1073.14 2597.99L1098.26 2612.33C1104.53 2610.83 1110.71 2609.33 1116.99 2607.73L1076.39 2584.5L1081.37 2575.29L1088.08 2587.82L1137.88 2586V2601.95C1142.32 2600.66 1146.87 2599.27 1151.31 2597.88V2585.46L1152.93 2585.36L1165.7 2593.28C1171.12 2591.46 1176.53 2589.64 1181.94 2587.71L1172.42 2581.82L1176.86 2574.33L1184.22 2586.96C1188.44 2585.46 1192.77 2583.86 1196.99 2582.25L1184.65 2561.06L1207.93 2521.13L1231.2 2561.06L1225.57 2570.8C1232.72 2567.8 1239.87 2564.59 1246.9 2561.38L1246.69 2561.06L1252.97 2550.35L1259.14 2550.14L1264.12 2553.24C1275.7 2547.57 1287.07 2541.68 1298.22 2535.47L1277.87 2536.22V2502.61L1316.84 2524.88C1321.17 2522.31 1325.61 2519.63 1329.83 2517.06L1277.87 2487.41V2452.08H1313.59L1345.75 2507.11C1349.54 2504.64 1353.22 2502.18 1356.9 2499.72L1329.08 2452.08H1363.07L1361.34 2496.62C1365.99 2493.4 1370.54 2490.19 1375.09 2486.98L1376.39 2451.98H1399.99L1400.64 2467.93C1404.97 2464.5 1409.3 2461.08 1413.63 2457.54L1413.41 2451.98H1420.34C1425.54 2447.59 1430.74 2443.2 1435.82 2438.7H1412.87L1412.76 2437.1L1442.32 2390.64L1470.25 2406.59C1488.66 2388.39 1506.2 2369.23 1522.65 2349.21L1526.98 2341.83L1530.12 2340.01C1537.27 2331.12 1544.2 2322.02 1550.91 2312.82L1549.61 2313.57H1543.44L1547.66 2306.4L1553.29 2309.61C1555.89 2305.97 1558.49 2302.33 1560.98 2298.69L1554.27 2294.83L1568.23 2270.86L1573.54 2279.96C1576.24 2275.78 1578.95 2271.61 1581.66 2267.32L1576.14 2257.9L1594 2246.77C1600.39 2235.85 1606.45 2224.83 1612.3 2213.59L1606.88 2204.38L1613.16 2193.68L1619.33 2193.46L1621.71 2194.96C1627.45 2183.19 1632.87 2171.2 1638.06 2159.1V2146.26V2146.26ZM543.075 1266.02L537.77 1263.02L534.738 1257.78H543.183V1266.02H543.075ZM543.075 1216.67V1244.39H526.943L518.824 1230.59L543.075 1216.67ZM507.239 1237.22L511.462 1244.39H505.29L499.985 1241.4L507.239 1237.22ZM465.774 1237.22L473.028 1241.4L467.723 1244.39H461.552L465.774 1237.22ZM429.938 1257.67H438.383L435.352 1262.91L430.047 1265.91V1257.67H429.938ZM473.136 1597.86L467.831 1600.86H461.66L465.882 1593.68L473.136 1597.86ZM464.799 1521.11L450.942 1512.54L455.38 1505.05L464.799 1521.11ZM455.38 1478.5L450.942 1471.01L464.799 1462.45L455.38 1478.5ZM505.182 1382.7H511.353L507.131 1389.87L499.877 1385.7L505.182 1382.7ZM500.527 1401.32L486.561 1425.3L472.595 1401.32L486.561 1393.3L500.527 1401.32ZM467.723 1382.7L473.028 1385.7L465.774 1389.87L461.552 1382.7H467.723ZM429.938 1361.07L435.243 1364.07L438.275 1369.32H429.83V1361.07H429.938ZM429.938 1382.7H446.07L454.19 1396.51L429.938 1410.32V1382.7ZM429.938 1425.62L460.902 1407.96L478.549 1438.25L431.562 1467.48L429.938 1467.37V1425.62V1425.62ZM429.938 1484.07L435.243 1480.75L441.414 1480.97L447.694 1491.67L441.414 1502.38L435.243 1502.59L429.938 1499.27V1484.07ZM429.938 1516.18L431.562 1516.08L478.549 1545.3L460.902 1575.59L429.938 1557.93V1516.18V1516.18ZM429.938 1573.24L454.19 1587.05L446.07 1600.86H429.938V1573.24ZM429.938 1614.13H438.383L435.352 1619.38L430.047 1622.37V1614.13H429.938ZM182.446 2082.35H174.001L177.032 2077.1L182.337 2074.11V2082.35H182.446ZM182.446 1978.94L177.141 1975.95L174.109 1970.7H182.554V1978.94H182.446ZM182.446 1957.32H166.314L158.194 1943.51L182.446 1929.7V1957.32ZM147.584 1877.68L157.003 1861.51L161.442 1869.01L147.584 1877.68ZM157.003 1834.97L147.584 1818.8L161.442 1827.37L157.003 1834.97ZM182.446 1855.95L177.141 1859.27L170.969 1859.05L164.69 1848.35L170.969 1837.64L177.141 1837.43L182.446 1840.75V1855.95ZM182.446 1766.89L158.194 1753.08L166.314 1739.27H182.446V1766.89ZM182.446 1725.89H174.001L177.032 1720.64L182.337 1717.64V1725.89H182.446ZM397.675 1299.74L405.795 1313.55L397.675 1327.36L373.424 1313.55L397.675 1299.74ZM360.324 1321.36L390.963 1338.81L373.099 1369.42H330.876L330.768 1367.82L360.324 1321.36ZM333.258 1431.94L331.418 1382.7H365.413L329.902 1443.39L320.591 1438.47L333.258 1431.94ZM275.986 1461.8L306.3 1445.96L336.614 1461.8L352.637 1491.78L336.614 1521.75L306.3 1537.59L275.986 1521.75L259.963 1491.78L275.986 1461.8ZM317.993 2095.62L319.617 2137.05L306.3 2144.01L292.984 2137.05L294.608 2095.62H317.993ZM295.149 2077.21L295.365 2071.11L306.192 2064.9L317.018 2071.11L317.235 2077.21L313.879 2082.46H298.289L295.149 2077.21ZM306.192 2049.59L265.809 2026.58L306.192 2003.56L346.575 2026.58L306.192 2049.59ZM279.126 1908.19L280.966 1957.43H247.079L282.59 1896.73L291.901 1901.66L279.126 1908.19ZM292.875 1995.75L276.527 2005.06L285.189 1991.36L292.875 1995.75ZM281.508 1970.59L281.616 1972.2L252.06 2018.66L221.421 2001.21L239.284 1970.59H281.508V1970.59ZM239.068 2026.47L214.817 2040.28L206.697 2026.47L214.817 2012.66L239.068 2026.47ZM252.06 2034.39L281.616 2080.85L281.508 2082.46H239.284L221.421 2051.84L252.06 2034.39ZM281.075 2095.62L279.234 2144.86L291.901 2151.5L282.59 2156.42L247.079 2095.62H281.075ZM285.189 2061.58L276.527 2047.88L292.875 2057.19L285.189 2061.58ZM294.391 1957.32L292.767 1915.89L306.084 1908.93L319.4 1915.89L317.776 1957.32H294.391ZM317.343 1975.84L317.127 1981.94L306.3 1988.15L295.474 1981.94L295.257 1975.84L298.613 1970.59H314.203L317.343 1975.84ZM319.617 1995.75L327.195 1991.36L335.856 2005.06L319.617 1995.75ZM335.965 2047.88L327.304 2061.58L319.725 2057.19L335.965 2047.88ZM333.258 2144.86L331.418 2095.62H365.413L329.902 2156.32L320.591 2151.39L333.258 2144.86ZM330.876 2082.35L330.768 2080.74L360.324 2034.29L390.963 2051.73L373.099 2082.35H330.876V2082.35ZM373.424 2026.47L397.675 2012.66L405.795 2026.47L397.675 2040.28L373.424 2026.47ZM360.324 2018.66L330.768 1972.2L330.876 1970.59H373.099L390.963 2001.21L360.324 2018.66ZM331.418 1957.32L333.258 1908.08L320.591 1901.44L329.902 1896.52L365.413 1957.21H331.418V1957.32ZM306.192 1894.06L275.878 1878.21L259.855 1848.24L275.878 1818.27L306.192 1802.42L336.506 1818.27L352.529 1848.24L336.506 1878.21L306.192 1894.06ZM294.391 1600.86L292.767 1559.43L306.084 1552.47L319.4 1559.43L317.776 1600.86H294.391ZM317.343 1619.27L317.127 1625.37L306.3 1631.58L295.474 1625.37L295.257 1619.27L298.613 1614.02H314.203L317.343 1619.27ZM306.192 1646.99L346.575 1670.01L306.192 1693.02L265.809 1670.01L306.192 1646.99ZM319.617 1639.29L327.195 1634.9L335.856 1648.6L319.617 1639.29ZM335.965 1691.42L327.304 1705.12L319.725 1700.73L335.965 1691.42ZM317.993 1739.16L319.617 1780.59L306.3 1787.54L292.984 1780.59L294.608 1739.16H317.993ZM295.149 1720.75L295.365 1714.65L306.192 1708.44L317.018 1714.65L317.235 1720.75L313.879 1725.99H298.289L295.149 1720.75ZM292.875 1700.73L285.297 1705.12L276.636 1691.42L292.875 1700.73ZM276.527 1648.6L285.189 1634.9L292.767 1639.29L276.527 1648.6ZM279.126 1551.62L280.966 1600.86H247.079L282.59 1540.16L291.901 1545.09L279.126 1551.62ZM281.508 1614.13L281.616 1615.74L252.06 1662.19L221.421 1644.75L239.284 1614.13H281.508V1614.13ZM239.068 1670.01L214.817 1683.82L206.697 1670.01L214.817 1656.2L239.068 1670.01ZM252.06 1677.82L281.616 1724.28L281.508 1725.89H239.284L221.421 1695.27L252.06 1677.82ZM281.075 1739.16L279.234 1788.4L291.901 1795.04L282.59 1799.96L247.079 1739.16H281.075ZM329.902 1799.86L320.591 1794.93L333.258 1788.29L331.418 1739.05H365.413L329.902 1799.86ZM330.876 1725.89L330.768 1724.28L360.324 1677.82L390.963 1695.27L373.099 1725.89H330.876V1725.89ZM373.424 1670.01L397.675 1656.2L405.795 1670.01L397.675 1683.82L373.424 1670.01ZM360.324 1662.19L330.768 1615.74L330.876 1614.13H373.099L390.963 1644.75L360.324 1662.19ZM331.418 1600.86L333.258 1551.62L320.591 1544.98L329.902 1540.06L365.413 1600.75H331.418V1600.86ZM195.87 1565.53L260.504 1528.6L266.026 1531.49L268.949 1536.95L231.598 1600.86H195.87V1565.53ZM195.87 1614.13H223.911L209.945 1638.11L195.979 1630.08V1614.13H195.87ZM195.87 1645.39L203.124 1649.56L198.902 1656.73L195.87 1651.49V1645.39V1645.39ZM195.87 1688.53L198.902 1683.28L203.124 1690.45L195.87 1694.63V1688.53V1688.53ZM195.87 1709.94L209.836 1701.91L223.803 1725.89H195.762V1709.94H195.87ZM195.87 1739.16H231.598L268.949 1803.07L266.026 1808.53L260.504 1811.42L195.87 1774.49V1739.16ZM195.87 1789.79L257.256 1824.9L252.276 1834.11L245.564 1821.59L195.762 1823.41V1789.79H195.87ZM195.87 1836.57L237.769 1834.97L244.806 1848.13L237.769 1861.3L195.87 1859.69V1836.57ZM195.87 1873.18L245.672 1875L252.384 1862.48L257.365 1871.68L195.979 1906.79V1873.18H195.87ZM195.87 1921.99L260.504 1885.06L266.026 1887.95L268.949 1893.41L231.598 1957.32H195.87V1921.99ZM195.87 1970.59H223.911L209.945 1994.57L195.979 1986.54V1970.59H195.87ZM195.87 2001.85L203.124 2006.03L198.902 2013.2L195.87 2007.95V2001.85V2001.85ZM195.87 2044.99L198.902 2039.74L203.124 2046.92L195.87 2051.09V2044.99V2044.99ZM195.87 2066.4L209.836 2058.37L223.803 2082.35H195.762V2066.4H195.87ZM195.87 2130.95V2095.62H231.598L268.949 2159.53L266.026 2164.99L260.504 2167.88L195.87 2130.95ZM275.986 2234.67L259.963 2204.7L275.986 2174.73L306.3 2158.89L336.614 2174.73L352.637 2204.7L336.614 2234.67L306.3 2250.52L275.986 2234.67ZM320.591 2258.01L329.902 2253.09L365.413 2313.78H331.418L333.258 2264.54L320.591 2258.01ZM317.993 2313.78H294.391L292.767 2272.36L306.084 2265.4L319.4 2272.36L317.993 2313.78ZM319.617 2352.21L327.195 2347.82L335.856 2361.52L319.617 2352.21ZM330.876 2328.66L330.984 2327.06H373.208L391.071 2357.67L360.432 2375.12L330.876 2328.66ZM397.675 2396.85L373.424 2383.04L397.675 2369.23L405.795 2383.04L397.675 2396.85ZM416.513 2407.55L409.26 2403.38L413.482 2396.21L416.513 2401.45V2407.55ZM416.513 2364.41L413.482 2369.66L409.26 2362.49L416.513 2358.31V2364.41ZM416.513 2343.01L402.547 2351.03L388.581 2327.06H416.622V2343.01H416.513ZM416.513 2313.78H380.786L343.435 2249.88L346.358 2244.42L351.88 2241.53L416.513 2278.46V2313.78ZM416.513 2263.15L355.127 2228.04L360.108 2218.83L366.82 2231.36L416.622 2229.54V2263.15H416.513ZM416.513 2216.37L374.615 2217.98L367.578 2204.81L374.615 2191.64L416.513 2193.25V2216.37ZM416.513 2179.87L366.712 2178.05L359.999 2190.57L355.019 2181.37L416.405 2146.26V2179.87H416.513ZM416.513 2130.95L351.88 2167.88L346.358 2164.99L343.435 2159.53L380.786 2095.62H416.513V2130.95ZM416.513 2082.35H388.473L402.439 2058.37L416.405 2066.4V2082.35H416.513ZM416.513 2051.09L409.26 2046.92L413.482 2039.74L416.513 2044.99V2051.09ZM416.513 2007.95L413.482 2013.2L409.26 2006.03L416.513 2001.85V2007.95ZM416.513 1986.54L402.547 1994.57L388.581 1970.59H416.622V1986.54H416.513ZM416.513 1957.32H380.786L343.435 1893.41L346.358 1887.95L351.88 1885.06L416.513 1921.99V1957.32ZM416.513 1906.69L355.127 1871.58L360.108 1862.37L366.82 1874.89L416.622 1873.07V1906.69H416.513ZM416.513 1859.91L374.615 1861.51L367.578 1848.35L374.615 1835.18L416.513 1836.79V1859.91ZM416.513 1823.3L366.712 1821.48L359.999 1834L355.019 1824.8L416.405 1789.69V1823.3H416.513ZM416.513 1774.49L351.88 1811.42L346.358 1808.53L343.435 1803.07L380.786 1739.16H416.513V1774.49ZM416.513 1725.89H388.473L402.439 1701.91L416.405 1709.94V1725.89H416.513ZM416.513 1694.63L409.26 1690.45L413.482 1683.28L416.513 1688.53V1694.63ZM416.513 1651.49L413.482 1656.73L409.26 1649.56L416.513 1645.39V1651.49ZM416.513 1630.08L402.547 1638.11L388.581 1614.13H416.622V1630.08H416.513ZM416.513 1600.86H380.786L343.435 1536.95L346.358 1531.49L351.88 1528.6L416.513 1565.53V1600.86ZM416.513 1550.22L355.127 1515.11L360.108 1505.91L366.82 1518.43L416.622 1516.61V1550.22H416.513ZM416.513 1503.45L374.615 1505.05L367.578 1491.88L374.615 1478.72L416.513 1480.32V1503.45ZM416.513 1466.84L366.712 1465.02L359.999 1477.54L355.019 1468.33L416.405 1433.22V1466.84H416.513ZM416.513 1418.02L351.88 1454.95L346.358 1452.06L343.435 1446.6L380.786 1382.7H416.513V1418.02ZM416.513 1369.42H388.473L402.439 1345.45L416.405 1353.47V1369.42H416.513ZM416.513 1338.17L409.26 1333.99L413.482 1326.82L416.513 1332.07V1338.17ZM416.513 1295.03L413.482 1300.27L409.26 1293.1L416.513 1288.93V1295.03ZM697.027 2174.84L713.05 2204.81L697.027 2234.78L666.713 2250.62L636.399 2234.78L620.376 2204.81L636.399 2174.84L666.713 2158.99L697.027 2174.84ZM666.713 2406.06L626.33 2383.04L666.713 2360.03L707.096 2383.04L666.713 2406.06ZM677.864 2433.67L674.508 2438.92H658.918L655.562 2433.67L655.778 2427.57L666.605 2421.36L677.431 2427.57L677.864 2433.67ZM639.647 2264.65L641.487 2313.89H607.6L643.111 2253.19L652.422 2258.12L639.647 2264.65ZM653.396 2352.21L637.048 2361.52L645.71 2347.82L653.396 2352.21ZM642.029 2327.06L642.137 2328.66L612.581 2375.12L581.942 2357.67L599.805 2327.06H642.029ZM599.589 2382.93L575.338 2396.74L567.218 2382.93L575.338 2369.12L599.589 2382.93ZM612.581 2390.85L642.137 2437.31L642.029 2438.92H599.805L581.942 2408.3L612.581 2390.85ZM655.02 2313.78L653.396 2272.36L666.713 2265.4L680.029 2272.36L678.406 2313.78H655.02ZM677.864 2332.3L677.648 2338.4L666.821 2344.61L655.995 2338.4L655.778 2332.3L659.134 2327.06H674.724L677.864 2332.3ZM680.138 2352.21L687.716 2347.82L696.377 2361.52L680.138 2352.21ZM733.945 2382.93L758.196 2369.12L766.316 2382.93L758.196 2396.74L733.945 2382.93ZM751.484 2408.3L733.62 2438.92H691.397L691.289 2437.31L720.845 2390.85L751.484 2408.3ZM720.954 2375.12L691.397 2328.66L691.505 2327.06H733.729L751.592 2357.67L720.954 2375.12ZM691.939 2313.78L693.779 2264.54L681.112 2257.9L690.423 2252.98L725.934 2313.67H691.939V2313.78ZM652.422 2151.5L643.111 2156.42L607.6 2095.62H641.596L639.755 2144.86L652.422 2151.5ZM655.886 2071L666.713 2064.79L677.539 2071L677.756 2077.1L674.4 2082.35H658.81L655.453 2077.1L655.886 2071ZM655.02 2095.62H678.622L680.246 2137.05L666.929 2144.01L653.613 2137.05L655.02 2095.62ZM653.396 2057.19L645.818 2061.58L637.157 2047.88L653.396 2057.19ZM642.137 2080.74L642.029 2082.35H599.805L581.942 2051.73L612.581 2034.29L642.137 2080.74ZM599.589 2026.47L575.338 2040.28L567.218 2026.47L575.338 2012.66L599.589 2026.47ZM556.391 1970.59H584.432L570.466 1994.57L556.5 1986.54V1970.59H556.391ZM556.391 2001.85L563.645 2006.03L559.423 2013.2L556.391 2007.95V2001.85V2001.85ZM556.391 2044.99L559.423 2039.74L563.645 2046.92L556.391 2051.09V2044.99V2044.99ZM556.391 2066.4L570.357 2058.37L584.324 2082.35H556.283V2066.4H556.391ZM556.391 2095.62H592.119L629.47 2159.53L626.547 2164.99L621.025 2167.88L556.391 2130.95V2095.62V2095.62ZM556.391 2146.26L617.777 2181.37L612.797 2190.57L606.085 2178.05L556.283 2179.87V2146.26H556.391ZM556.391 2193.03L598.29 2191.43L605.327 2204.6L598.29 2217.76L556.391 2216.16V2193.03ZM556.391 2229.64L606.193 2231.46L612.905 2218.94L617.886 2228.15L556.5 2263.26V2229.64H556.391ZM556.391 2278.46L621.025 2241.53L626.547 2244.42L629.47 2249.88L592.119 2313.78H556.391V2278.46V2278.46ZM556.391 2327.06H584.432L570.466 2351.03L556.5 2343.01V2327.06H556.391ZM556.391 2358.31L563.645 2362.49L559.423 2369.66L556.391 2364.41V2358.31V2358.31ZM556.391 2401.45L559.423 2396.21L563.645 2403.38L556.391 2407.55V2401.45V2401.45ZM556.391 2422.86L570.357 2414.83L584.324 2438.81H556.283V2422.86H556.391ZM521.963 1827.47L517.524 1834.97L508.105 1818.8L521.963 1827.47ZM521.963 1869.01L508.105 1877.57L517.524 1861.41L521.963 1869.01ZM509.838 1848.24L486.561 1888.17L463.284 1848.24L486.561 1808.31L509.838 1848.24ZM486.452 1946.61L472.486 1938.59L486.452 1914.61L500.419 1938.59L486.452 1946.61ZM507.239 1950.15L511.462 1957.32H505.29L499.985 1954.32L507.239 1950.15ZM473.136 1954.32L467.831 1957.32H461.66L465.882 1950.15L473.136 1954.32ZM455.38 1861.51L464.799 1877.68L450.942 1869.11L455.38 1861.51ZM451.05 1827.47L464.908 1818.91L455.489 1835.07L451.05 1827.47ZM500.527 1757.89L486.561 1781.87L472.595 1757.89L486.561 1749.86L500.527 1757.89ZM467.723 1739.16L473.028 1742.16L465.774 1746.33L461.552 1739.16H467.723ZM429.938 1717.54L435.243 1720.53L438.275 1725.78H429.83V1717.54H429.938ZM429.938 1739.16H446.07L454.19 1752.97L429.938 1766.78V1739.16ZM429.938 1782.09L460.902 1764.42L478.549 1794.72L431.562 1823.94L429.938 1823.83V1782.09V1782.09ZM429.938 1840.53L435.243 1837.21L441.414 1837.43L447.694 1848.13L441.414 1858.84L435.243 1859.05L429.938 1855.73V1840.53ZM429.938 1872.65L431.562 1872.54L478.549 1901.76L460.902 1932.06L429.938 1914.39V1872.65V1872.65ZM429.938 1929.7L454.19 1943.51L446.07 1957.32H429.938V1929.7ZM429.938 1970.59H438.383L435.352 1975.84L430.047 1978.84V1970.59H429.938ZM429.938 2074.11L435.243 2077.1L438.275 2082.35H429.83V2074.11H429.938ZM429.938 2095.62H446.07L454.19 2109.43L429.938 2123.24V2095.62ZM429.938 2138.65L460.902 2120.99L478.549 2151.29L431.562 2180.51L429.938 2180.4V2138.65V2138.65ZM500.527 2114.36L486.561 2138.33L472.595 2114.36L486.561 2106.33L500.527 2114.36ZM499.877 2098.73L505.182 2095.73H511.353L507.131 2102.9L499.877 2098.73ZM517.524 2191.54L508.105 2175.37L521.963 2183.94L517.524 2191.54ZM521.963 2225.47L508.105 2234.03L517.524 2217.87L521.963 2225.47ZM509.838 2204.7L486.561 2244.63L463.284 2204.7L486.561 2164.77L509.838 2204.7ZM486.452 2303.08L472.486 2295.05L486.452 2271.07L500.419 2295.05L486.452 2303.08ZM507.239 2306.61L511.462 2313.78H505.29L499.985 2310.78L507.239 2306.61ZM473.136 2310.78L467.831 2313.78H461.66L465.882 2306.61L473.136 2310.78ZM455.38 2217.98L464.799 2234.14L450.942 2225.58L455.38 2217.98ZM451.05 2183.94L464.908 2175.37L455.489 2191.54L451.05 2183.94ZM465.774 2102.9L461.552 2095.73H467.723L473.028 2098.73L465.774 2102.9ZM429.938 2197.1L435.243 2193.78L441.414 2194L447.694 2204.7L441.414 2215.41L435.243 2215.62L429.938 2212.3V2197.1ZM429.938 2229.11L431.562 2229L478.549 2258.22L460.902 2288.52L429.938 2270.86V2229.11V2229.11ZM429.938 2286.16L454.19 2299.97L446.07 2313.78H429.938V2286.16ZM429.938 2327.06H438.383L435.352 2332.3L430.047 2335.3V2327.06H429.938ZM429.938 2438.92V2430.57L435.243 2433.57L438.275 2438.81H429.938V2438.92ZM461.552 2452.08H467.723L473.028 2455.08L465.774 2459.26L461.552 2452.08ZM472.486 2470.82L486.452 2462.79L500.419 2470.82L486.452 2494.8L472.486 2470.82ZM499.877 2455.19L505.182 2452.19H511.353L507.131 2459.36L499.877 2455.19ZM543.075 2536.76L541.451 2536.86L494.464 2507.64L512.111 2477.35L543.075 2495.01V2536.76ZM543.075 2479.81L518.824 2466L526.943 2452.19H543.075V2479.81ZM543.075 2438.92H534.63L537.662 2433.67L542.966 2430.68V2438.92H543.075ZM543.075 2397.92L527.918 2423.82L501.718 2438.81H471.404L445.204 2423.82L430.047 2397.92V2367.95L445.204 2342.04L471.404 2327.06H501.718L527.918 2342.04L543.075 2367.95V2397.92ZM543.075 2335.4L537.77 2332.41L534.738 2327.16H543.183V2335.4H543.075ZM543.075 2313.78H526.943L518.824 2299.97L543.075 2286.16V2313.78ZM543.075 2270.86L512.111 2288.52L494.464 2258.22L541.451 2229L543.075 2229.11V2270.86ZM543.075 2212.41L537.77 2215.73L531.599 2215.51L525.319 2204.81L531.599 2194.1L537.77 2193.89L543.075 2197.21V2212.41ZM543.075 2180.3L541.451 2180.4L494.464 2151.18L512.111 2120.89L543.075 2138.55V2180.3ZM543.075 2123.35L518.824 2109.54L526.943 2095.73H543.075V2123.35ZM543.075 2082.35H534.63L537.662 2077.1L542.966 2074.11V2082.35H543.075ZM543.075 2041.46L527.918 2067.36L501.718 2082.35H471.404L445.204 2067.36L430.047 2041.46V2011.48L445.204 1985.58L471.404 1970.59H501.718L527.918 1985.58L543.075 2011.48V2041.46ZM543.075 1978.94L537.77 1975.95L534.738 1970.7H543.183V1978.94H543.075ZM543.075 1957.32H526.943L518.824 1943.51L543.075 1929.7V1957.32ZM543.075 1914.39L512.111 1932.06L494.464 1901.76L541.451 1872.54L543.075 1872.65V1914.39ZM612.905 2547.03L606.193 2534.51L556.391 2536.33V2502.72L617.777 2537.83L612.905 2547.03ZM626.547 2521.45L621.025 2524.34L556.391 2487.41V2452.08H592.119L629.47 2515.99L626.547 2521.45ZM643.111 2512.89L607.6 2452.08H641.596L639.755 2501.33L652.422 2507.96L643.111 2512.89ZM645.71 2418.04L637.048 2404.34L653.396 2413.66L645.71 2418.04ZM666.713 2500.47L653.396 2493.51L655.02 2452.08H678.622L680.246 2493.51L666.713 2500.47ZM696.486 2404.34L687.824 2418.04L680.246 2413.66L696.486 2404.34ZM690.423 2512.89L681.112 2507.96L693.779 2501.33L691.939 2452.08H725.934L690.423 2512.89ZM777.143 2619.72L715.757 2584.61L720.737 2575.4L727.449 2587.93L777.251 2586.11V2619.72H777.143ZM777.143 2572.83L735.244 2574.44L728.207 2561.27L735.244 2548.1L777.143 2549.71V2572.83ZM777.143 2536.33L727.341 2534.51L720.629 2547.03L715.649 2537.83L777.034 2502.72V2536.33H777.143ZM777.143 2487.41L712.509 2524.34L706.987 2521.45L704.064 2515.99L741.415 2452.08H777.143V2487.41V2487.41ZM777.143 2438.92H749.102L763.068 2414.94L777.034 2422.97V2438.92H777.143ZM777.143 2407.55L769.889 2403.38L774.111 2396.21L777.143 2401.45V2407.55V2407.55ZM777.143 2364.41L774.111 2369.66L769.889 2362.49L777.143 2358.31V2364.41V2364.41ZM777.143 2343.01L763.177 2351.03L749.211 2327.06H777.251V2343.01H777.143ZM777.143 2313.78H741.415L704.064 2249.88L706.987 2244.42L712.509 2241.53L777.143 2278.46V2313.78V2313.78ZM777.143 2263.15L715.757 2228.04L720.737 2218.83L727.449 2231.36L777.251 2229.54V2263.15H777.143ZM777.143 2216.37L735.244 2217.98L728.207 2204.81L735.244 2191.64L777.143 2193.25V2216.37ZM1052.03 2327.06H1094.25L1112.11 2357.67L1081.47 2375.12L1051.92 2328.66L1052.03 2327.06ZM1054.41 2501.33L1052.57 2452.08H1086.56L1051.05 2512.78L1041.74 2507.86L1054.41 2501.33ZM1040.66 2413.66L1057.01 2404.34L1048.35 2418.04L1040.66 2413.66ZM1052.03 2438.92L1051.92 2437.31L1081.47 2390.85L1112.11 2408.3L1094.25 2438.92H1052.03ZM1094.47 2382.93L1118.72 2369.12L1126.84 2382.93L1118.72 2396.74L1094.47 2382.93ZM1048.35 2347.93L1057.01 2361.63L1040.66 2352.32L1048.35 2347.93ZM1019.55 2327.06H1035.14L1038.49 2332.3L1038.28 2338.4L1027.45 2344.61L1016.62 2338.4L1016.41 2332.3L1019.55 2327.06ZM1027.34 2359.92L1067.72 2382.93L1027.34 2405.95L986.959 2382.93L1027.34 2359.92ZM1039.03 2452.08L1040.66 2493.51L1027.34 2500.47L1014.03 2493.51L1015.65 2452.08H1039.03ZM1016.19 2433.67L1016.41 2427.57L1027.23 2421.36L1038.06 2427.57L1038.28 2433.67L1034.92 2438.92H1019.33L1016.19 2433.67ZM973.102 2390.85L1002.66 2437.31L1002.55 2438.92H960.326L942.463 2408.3L973.102 2390.85ZM935.859 2396.85L927.739 2383.04L935.859 2369.23L960.11 2383.04L935.859 2396.85ZM1002.12 2452.08L1000.28 2501.33L1012.94 2507.96L1003.63 2512.89L968.121 2452.08H1002.12ZM1006.23 2418.04L997.569 2404.34L1013.92 2413.66L1006.23 2418.04ZM1013.92 2352.21L997.569 2361.52L1006.23 2347.82L1013.92 2352.21ZM960.435 2327.06H1002.66L1002.77 2328.66L973.21 2375.12L942.571 2357.67L960.435 2327.06ZM916.912 2327.06H944.953L930.987 2351.03L917.021 2343.01V2327.06H916.912ZM916.912 2358.31L924.166 2362.49L919.944 2369.66L916.912 2364.41V2358.31V2358.31ZM916.912 2401.45L919.944 2396.21L924.166 2403.38L916.912 2407.55V2401.45V2401.45ZM916.912 2422.86L930.878 2414.83L944.845 2438.81H916.804V2422.86H916.912ZM916.912 2452.08H952.64L989.991 2515.99L987.068 2521.45L981.546 2524.34L916.912 2487.41V2452.08V2452.08ZM916.912 2549.6L958.811 2548L965.848 2561.16L958.811 2574.33L916.912 2572.73V2549.6ZM878.045 2217.98L882.484 2225.47L868.626 2234.03L878.045 2217.98ZM861.048 2295.16L847.082 2303.18L833.116 2295.16L847.082 2271.18L861.048 2295.16ZM867.76 2306.61L871.983 2313.78H865.811L860.506 2310.78L867.76 2306.61ZM833.657 2310.78L828.352 2313.78H822.181L826.403 2306.61L833.657 2310.78ZM816.01 2217.98L825.429 2234.14L811.571 2225.58L816.01 2217.98ZM790.459 2197.1L795.764 2193.78L801.935 2194L808.215 2204.7L801.935 2215.41L795.764 2215.62L790.459 2212.3V2197.1ZM790.459 2229.11L792.083 2229L839.07 2258.22L821.423 2288.52L790.459 2270.86V2229.11ZM790.459 2286.16L814.711 2299.97L806.591 2313.78H790.459V2286.16ZM790.459 2327.06H798.904L795.873 2332.3L790.568 2335.3V2327.06H790.459ZM790.459 2430.57L795.764 2433.57L798.796 2438.81H790.351V2430.57H790.459ZM790.459 2452.08H806.591L814.711 2465.89L790.459 2479.7V2452.08ZM790.459 2495.12L821.423 2477.45L839.07 2507.75L792.083 2536.97L790.459 2536.86V2495.12ZM861.048 2470.82L847.082 2494.8L833.116 2470.82L847.082 2462.79L861.048 2470.82ZM860.398 2455.19L865.703 2452.19H871.874L867.652 2459.36L860.398 2455.19ZM826.295 2459.36L822.072 2452.19H828.244L833.549 2455.19L826.295 2459.36ZM825.429 2531.83L816.01 2548L811.571 2540.5L825.429 2531.83ZM801.935 2571.98L795.764 2572.19L790.459 2568.87V2553.46L795.764 2550.14L801.935 2550.35L808.215 2561.06L801.935 2571.98ZM811.571 2582.04L816.01 2574.54L825.429 2590.71L811.571 2582.04ZM847.082 2601.2L823.805 2561.27L847.082 2521.34L870.359 2561.27L847.082 2601.2ZM868.626 2590.6L878.045 2574.44L882.484 2581.93L868.626 2590.6ZM878.045 2548L868.626 2531.83L882.484 2540.4L878.045 2548ZM903.596 2568.87L898.291 2572.19L892.12 2571.98L885.84 2561.27L892.12 2550.57L898.291 2550.35L903.596 2553.67V2568.87ZM903.596 2536.76L901.972 2536.86L854.985 2507.64L872.632 2477.35L903.596 2495.01V2536.76ZM903.596 2479.81L879.344 2466L887.464 2452.19H903.596V2479.81ZM903.596 2438.92H895.151L898.183 2433.67L903.488 2430.68V2438.92H903.596ZM903.596 2397.92L888.439 2423.82L862.239 2438.81H831.925L805.725 2423.82L790.568 2397.92V2367.95L805.725 2342.04L831.925 2327.06H862.239L888.439 2342.04L903.596 2367.95V2397.92ZM903.596 2335.4L898.291 2332.41L895.259 2327.16H903.704V2335.4H903.596ZM903.596 2313.78H887.464L879.344 2299.97L903.596 2286.16V2313.78ZM903.596 2270.86L872.632 2288.52L854.985 2258.22L901.972 2229L903.596 2229.11V2270.86ZM916.912 2619.72V2586.11L966.714 2587.93L973.426 2575.4L978.407 2584.61L916.912 2619.72ZM973.426 2547.03L966.714 2534.51L916.912 2536.33V2502.72L978.298 2537.83L973.426 2547.03ZM1057.55 2591.14L1027.23 2606.98L996.92 2591.14L980.897 2561.16L996.92 2531.19L1027.23 2515.35L1057.55 2531.19L1073.57 2561.16L1057.55 2591.14ZM1137.66 2572.83L1095.77 2574.44L1088.73 2561.27L1095.77 2548.1L1137.66 2549.71V2572.83ZM1137.66 2536.33L1087.86 2534.51L1081.15 2547.03L1076.17 2537.83L1137.56 2502.72V2536.33H1137.66ZM1137.66 2487.41L1073.03 2524.34L1067.51 2521.45L1064.59 2515.99L1101.94 2452.08H1137.66V2487.41ZM1137.66 2438.92H1109.62L1123.59 2414.94L1137.56 2422.97V2438.92H1137.66ZM1137.66 2407.55L1130.41 2403.38L1134.63 2396.21L1137.66 2401.45V2407.55ZM1137.66 2364.41L1134.63 2369.66L1130.41 2362.49L1137.66 2358.31V2364.41ZM1137.66 2343.01L1123.7 2351.03L1109.73 2327.06H1137.77V2343.01H1137.66ZM1228.28 2306.61L1232.5 2313.78H1226.33L1221.03 2310.78L1228.28 2306.61ZM1186.92 2306.61L1194.18 2310.78L1188.87 2313.78H1182.7L1186.92 2306.61ZM1150.98 2327.06H1159.42L1156.39 2332.3L1151.09 2335.3V2327.06H1150.98ZM1150.98 2430.57L1156.29 2433.57L1159.32 2438.81H1150.87V2430.57H1150.98ZM1150.98 2452.08H1167.11L1175.23 2465.89L1150.98 2479.7V2452.08ZM1162.56 2571.98L1156.39 2572.19L1151.09 2568.87V2553.46L1156.39 2550.14L1162.56 2550.35L1168.84 2561.06L1162.56 2571.98ZM1176.53 2548L1172.09 2540.5L1185.95 2531.94L1176.53 2548ZM1152.71 2536.86L1151.09 2536.76V2495.01L1182.05 2477.35L1199.7 2507.64L1152.71 2536.86ZM1182.7 2452.08H1188.87L1194.18 2455.08L1186.92 2459.26L1182.7 2452.08ZM1193.53 2470.82L1207.49 2462.79L1221.46 2470.82L1207.49 2494.8L1193.53 2470.82ZM1220.92 2455.19L1226.22 2452.19H1232.4L1228.17 2459.36L1220.92 2455.19ZM1238.67 2548L1229.26 2531.83L1243.11 2540.4L1238.67 2548ZM1264.12 2536.76L1262.49 2536.86L1215.51 2507.64L1233.15 2477.35L1264.12 2495.01V2536.76V2536.76ZM1264.12 2479.81L1239.87 2466L1247.99 2452.19H1264.12V2479.81ZM1264.12 2438.92H1255.67L1258.7 2433.67L1264.01 2430.68V2438.92H1264.12ZM1264.12 2397.92L1248.96 2423.82L1222.76 2438.81H1192.45L1166.25 2423.82L1151.09 2397.92V2367.95L1166.25 2342.04L1192.45 2327.06H1222.76L1248.96 2342.04L1264.12 2367.95V2397.92ZM1264.12 2335.4L1258.81 2332.41L1255.78 2327.16H1264.23V2335.4H1264.12ZM1408.87 2347.93L1417.53 2361.63L1401.18 2352.32L1408.87 2347.93ZM1380.07 2327.06H1395.66L1399.01 2332.3L1398.8 2338.4L1387.97 2344.61L1377.15 2338.4L1376.93 2332.3L1380.07 2327.06ZM1374.44 2352.21L1358.09 2361.52L1366.75 2347.82L1374.44 2352.21ZM1320.96 2327.06H1363.18L1363.29 2328.66L1333.73 2375.12L1303.09 2357.67L1320.96 2327.06ZM1320.63 2382.93L1296.38 2396.74L1288.26 2382.93L1296.38 2369.12L1320.63 2382.93ZM1277.54 2327.06H1305.58L1291.62 2351.03L1277.65 2343.01V2327.06H1277.54ZM1277.54 2358.31L1284.8 2362.49L1280.57 2369.66L1277.54 2364.41V2358.31ZM1277.54 2401.45L1280.57 2396.21L1284.8 2403.38L1277.54 2407.55V2401.45ZM1277.54 2438.92V2422.97L1291.51 2414.94L1305.47 2438.92H1277.54ZM1363.18 2438.92H1320.96L1303.09 2408.3L1333.73 2390.85L1363.29 2437.31L1363.18 2438.92ZM1366.86 2418.04L1358.2 2404.34L1374.55 2413.66L1366.86 2418.04ZM1395.55 2438.92H1379.96L1376.6 2433.67L1376.82 2427.57L1387.65 2421.36L1398.47 2427.57L1398.69 2433.67L1395.55 2438.92ZM1408.87 2418.04L1401.29 2413.66L1417.64 2404.34L1408.87 2418.04ZM1387.86 2406.06L1347.48 2383.04L1387.86 2360.03L1428.25 2383.04L1387.86 2406.06ZM1412.44 2328.66L1412.55 2327.06H1454.77L1472.63 2357.67L1442 2375.12L1412.44 2328.66ZM1479.24 2396.85L1454.99 2383.04L1479.24 2369.23L1487.36 2383.04L1479.24 2396.85ZM1498.18 2364.41L1495.15 2369.66L1490.93 2362.49L1498.18 2358.31V2364.41ZM1498.18 2343.01L1484.22 2351.03L1470.25 2327.06H1498.29V2343.01H1498.18ZM1537.05 2217.98L1546.47 2234.14L1532.61 2225.58L1537.05 2217.98ZM1516.91 2332.3L1511.61 2335.3V2326.95H1520.05L1516.91 2332.3ZM1527.74 2313.78H1511.61V2286.16L1535.86 2299.97L1527.74 2313.78ZM1542.46 2288.52L1511.5 2270.86V2229.11L1513.13 2229L1560.11 2258.22L1542.46 2288.52ZM1589.78 2234.14L1599.2 2217.98L1603.63 2225.47L1589.78 2234.14Z" fill="url(#paint1_linear_330_35)"/>
<path d="M938.349 2646C830.084 2646 724.959 2625.02 626.005 2583.7C530.408 2543.77 444.662 2486.5 370.934 2413.71C297.206 2340.81 239.393 2256.03 199.01 2161.51C157.112 2063.67 136 1959.84 136 1852.68C136 1689.23 185.91 1532.3 280.208 1398.7C325.679 1334.37 380.353 1277.21 442.822 1228.71C505.832 1179.79 575.554 1140.51 649.932 1112.14C658.918 1108.72 668.986 1111.61 674.724 1119.31C680.463 1126.91 680.246 1137.4 674.4 1144.79C627.305 1204.2 590.711 1270.25 565.486 1341.22C539.394 1414.55 526.185 1491.62 526.185 1570.08C526.185 1663.21 544.59 1753.67 581.076 1838.77C616.262 1920.98 666.605 1994.73 730.697 2058.1C794.79 2121.48 869.492 2171.25 952.531 2206.04C1038.6 2242.01 1129.98 2260.31 1224.28 2260.31C1303.63 2260.31 1381.58 2247.25 1455.75 2221.46C1527.42 2196.51 1594.32 2160.33 1654.41 2113.77C1661.99 2107.88 1672.49 2107.77 1680.18 2113.45C1687.86 2119.12 1690.79 2129.08 1687.43 2137.96C1658.74 2211.61 1619.12 2280.55 1569.53 2342.74C1520.49 2404.5 1462.57 2458.56 1397.61 2503.52C1262.38 2596.65 1103.67 2646 938.349 2646ZM596.124 1181.83C551.303 1204.2 508.863 1230.96 469.13 1261.79C410.018 1307.71 358.159 1361.99 315.178 1422.9C225.86 1549.32 178.656 1697.9 178.656 1852.68C178.656 1954.06 198.793 2052.43 238.31 2145.13C276.527 2234.62 331.309 2314.91 401.14 2383.95C470.971 2453 552.169 2507.16 642.678 2544.95C736.327 2584.13 835.822 2603.93 938.457 2603.93C1095.01 2603.93 1245.28 2557.26 1373.14 2468.95C1434.74 2426.34 1489.52 2375.17 1536.08 2316.73C1567.26 2277.44 1594.32 2235.48 1616.95 2191.16C1570.72 2219.85 1521.46 2243.29 1469.93 2261.17C1391.22 2288.57 1308.61 2302.38 1224.38 2302.38C1124.46 2302.38 1027.45 2283.01 936.075 2244.79C847.84 2207.86 768.698 2155.09 700.708 2087.86C632.718 2020.64 579.343 1942.28 541.992 1855.15C503.342 1764.8 483.746 1668.99 483.746 1570.08C483.746 1486.8 497.82 1405.13 525.428 1327.3C543.4 1276.14 567.109 1227.54 596.124 1181.83Z" fill="url(#paint2_linear_330_35)"/>
<g opacity="0.5">
<path opacity="0.5" d="M938.35 2630.16C832.142 2630.16 729.183 2609.61 632.286 2569.04C538.637 2529.86 454.515 2473.76 382.303 2402.37C310.091 2330.97 253.36 2247.79 213.735 2155.2C172.703 2059.28 151.916 1957.48 151.916 1852.58C151.916 1692.33 200.852 1538.51 293.31 1407.7C337.915 1344.65 391.505 1288.55 452.675 1241.03C514.386 1193.07 582.701 1154.64 655.671 1126.81C657.945 1125.95 660.435 1126.7 661.842 1128.63C663.25 1130.55 663.25 1133.12 661.734 1135.05C613.556 1195.85 576.097 1263.4 550.33 1335.98C523.696 1411.01 510.163 1489.8 510.163 1570.08C510.163 1665.36 529.001 1757.84 566.244 1844.87C602.188 1928.9 653.722 2004.48 719.222 2069.24C784.831 2134.11 861.157 2184.96 946.145 2220.49C1034.16 2257.32 1127.7 2275.94 1224.06 2275.94C1305.26 2275.94 1384.94 2262.56 1460.83 2236.23C1534.24 2210.75 1602.55 2173.72 1664.05 2126.08C1665.89 2124.58 1668.59 2124.58 1670.54 2125.97C1672.49 2127.36 1673.25 2129.93 1672.38 2132.07C1644.23 2204.22 1605.37 2271.77 1556.87 2332.79C1508.8 2393.27 1452.07 2446.25 1388.3 2490.36C1256 2581.88 1100.42 2630.16 938.35 2630.16ZM641.705 1143.72C576.421 1170.48 515.144 1205.91 459.279 1249.38C398.976 1296.26 346.034 1351.6 302.079 1413.8C210.812 1542.9 162.634 1694.58 162.634 1852.69C162.634 1956.2 183.096 2056.71 223.587 2151.24C262.671 2242.55 318.643 2324.65 389.882 2395.09C461.12 2465.52 544.05 2520.86 636.508 2559.51C732.106 2599.54 833.766 2619.77 938.458 2619.77C1098.26 2619.77 1251.78 2572.14 1382.34 2481.9C1445.24 2438.44 1501.22 2386.09 1548.64 2326.47C1592.59 2271.23 1628.43 2210.65 1655.49 2146.1C1597.14 2188.92 1533.05 2222.53 1464.62 2246.29C1387.54 2273.05 1306.77 2286.65 1224.38 2286.65C1126.51 2286.65 1031.67 2267.7 942.356 2230.34C856.069 2194.27 778.551 2142.57 711.969 2076.84C645.386 2011.01 593.202 1934.36 556.717 1849.05C518.933 1760.73 499.77 1666.85 499.77 1570.19C499.77 1488.73 513.52 1408.77 540.586 1332.66C564.296 1264.79 598.399 1201.42 641.705 1143.72Z" fill="#706262"/>
</g>
<g opacity="0.1">
<path opacity="0.1" d="M2803.83 1761.33V858.932C2694.38 813.117 2582 775.222 2464.53 779.397C2350.42 783.572 2241.51 827.782 2141.25 881.84C1957.2 981.285 1795.02 1114.99 1628.73 1241.3C1462.43 1367.61 1288.02 1488.68 1090.11 1557.41C892.204 1626.13 666.039 1637.37 477.442 1546.81C428.074 1523.15 382.278 1491.47 341.895 1454C336.374 1489 333.667 1524.54 333.667 1560.4C333.667 1653.53 352.072 1743.99 388.557 1829.09C423.743 1911.3 474.086 1985.05 538.179 2048.42C577.479 2087.28 620.785 2121 667.555 2149.37C739.876 2091.99 802.128 2017.17 858.534 1944.05C961.493 1810.78 1071.49 1666.16 1233.89 1617.67C1396.61 1569.07 1572.75 1630.73 1718.48 1717.22C1864.2 1803.72 1995.2 1915.79 2151.1 1982.81C2153.7 1983.88 2156.3 1985.05 2158.9 1986.12C2138 1906.59 2098.7 1832.51 2059.95 1759.62C2016.31 1677.51 1973.77 1573.03 2029.31 1498.21C2063.84 1451.54 2128.37 1434.09 2186.4 1441.48C2244.43 1448.86 2297.48 1477.01 2347.5 1506.88C2475.14 1583.1 2594.56 1674.3 2730.97 1733.82C2754.57 1744.09 2778.93 1753.3 2803.83 1761.33Z" fill="white"/>
</g>
<path d="M1624.88 2125.96C1625.94 2125.21 1626.99 2124.47 1628.15 2123.93C1655.37 2097.28 1685.01 2073.3 1720.45 2065.91V1933.28C1720.45 1893.35 1694.08 1860.38 1660.01 1855.46C1684.8 1819.71 1696.93 1774.53 1692.18 1730.97C1685.85 1672.63 1649.67 1618.57 1598.73 1591.48C1557.17 1569.33 1508.54 1565.04 1465.72 1545.56C1434.6 1531.43 1405.49 1503.81 1396.42 1472.02C1387.35 1503.81 1358.13 1531.43 1327.12 1545.56C1284.29 1565.04 1235.67 1569.33 1194.11 1591.48C1143.27 1618.57 1106.98 1672.63 1100.65 1730.97C1095.91 1774.64 1108.04 1819.71 1132.82 1855.57C1098.75 1860.49 1072.39 1893.46 1072.39 1933.39V2070.73H1000.03V2054.56H1028.29V2023.52H1011.52C1030.93 1992.91 1040.85 1951.05 1037.58 1910.8C1033.67 1863.06 1011.31 1818.85 979.88 1796.69C954.143 1778.6 924.187 1775.07 897.712 1759.12C878.515 1747.56 860.478 1724.97 854.887 1698.96C849.297 1724.97 831.26 1747.56 812.063 1759.12C785.587 1775.07 755.526 1778.49 729.894 1796.69C698.462 1818.85 676.1 1863.06 672.197 1910.8C668.928 1951.05 678.843 1992.91 698.251 2023.52H682.534C691.184 2034.12 700.255 2044.5 709.643 2054.56H709.959V2054.89C714.916 2060.24 719.874 2065.48 724.937 2070.62C787.381 2133.99 860.161 2183.77 941.064 2218.56C1013.32 2249.6 1089.37 2267.37 1167.84 2271.76V2107.66C1167.84 2069.98 1185.99 2037.01 1212.88 2019.45C1239.78 2037.12 1257.92 2069.98 1257.92 2107.66V2270.8C1284.29 2268.76 1310.45 2265.23 1336.29 2260.09V2041.83C1336.29 1993.12 1358.87 1950.52 1392.83 1926.43H1400C1433.97 1950.52 1456.54 1993.12 1456.54 2041.83V2224.34C1483.44 2213.53 1509.6 2200.9 1534.91 2186.66V2107.55C1534.91 2069.87 1553.05 2036.9 1579.95 2019.35C1606.85 2037.01 1624.99 2069.87 1624.99 2107.55V2125.96H1624.88Z" fill="url(#paint3_linear_330_35)"/>
<path d="M2095.65 1908.04C2091.74 1860.3 2069.38 1816.09 2037.95 1793.93C2012.21 1775.84 1982.26 1772.31 1955.78 1756.36C1936.58 1744.79 1918.55 1722.21 1912.96 1696.2C1907.37 1722.21 1889.33 1744.79 1870.13 1756.36C1843.66 1772.31 1813.59 1775.73 1787.96 1793.93C1756.53 1816.09 1734.17 1860.3 1730.27 1908.04C1727 1948.29 1736.91 1990.04 1756.32 2020.76H1739.55V2051.8H1767.92V2067.97H1756.32C1804.63 2085.52 1843.97 2133.48 1870.24 2181.11C1904.83 2244.16 1933 2316.74 1993.86 2353.99C2071.49 2401.52 2180.13 2368.66 2236.35 2296.51C2292.57 2224.25 2303.12 2123.84 2285.4 2033.6C2274.22 1976.87 2253.13 1923.03 2228.55 1870.57C2211.88 1880.42 2193 1882.78 2176.86 1894.12C2156.93 1908.15 2142.69 1936.19 2140.26 1966.49C2138.15 1992.07 2144.48 2018.51 2156.82 2037.99H2146.17V2057.69H2164.21V2067.97H2057.99V2051.8H2086.36V2020.76H2069.59C2089 1990.14 2098.92 1948.4 2095.65 1908.04Z" fill="url(#paint4_linear_330_35)"/>
<path d="M1883.93 535.482C1895.71 535.482 1905.26 526.403 1905.26 515.204C1905.26 504.005 1895.71 494.927 1883.93 494.927C1872.15 494.927 1862.6 504.005 1862.6 515.204C1862.6 526.403 1872.15 535.482 1883.93 535.482Z" fill="white"/>
<path d="M2557.36 643.901C2564.11 643.901 2569.57 638.706 2569.57 632.297C2569.57 625.889 2564.11 620.693 2557.36 620.693C2550.62 620.693 2545.16 625.889 2545.16 632.297C2545.16 638.706 2550.62 643.901 2557.36 643.901Z" fill="white"/>
<path d="M2031.04 975.422C2032.38 970.004 2028.85 964.575 2023.15 963.296C2017.45 962.017 2011.74 965.372 2010.4 970.79C2009.05 976.207 2012.58 981.637 2018.28 982.916C2023.98 984.195 2029.69 980.84 2031.04 975.422Z" fill="white"/>
<path d="M2763.01 1152.31C2768.17 1147.41 2768.17 1139.47 2763.01 1134.57C2757.86 1129.67 2749.51 1129.67 2744.35 1134.57C2739.2 1139.47 2739.2 1147.41 2744.35 1152.31C2749.51 1157.21 2757.86 1157.21 2763.01 1152.31Z" fill="white"/>
<path d="M1662.56 1353.86C1671.22 1345.62 1671.22 1332.26 1662.56 1324.02C1653.89 1315.78 1639.83 1315.78 1631.16 1324.02C1622.5 1332.26 1622.5 1345.62 1631.16 1353.86C1639.83 1362.1 1653.89 1362.1 1662.56 1353.86Z" fill="white"/>
<path d="M867.579 1413.98C876.247 1405.74 876.247 1392.38 867.579 1384.14C858.91 1375.9 844.856 1375.9 836.188 1384.14C827.519 1392.38 827.519 1405.74 836.188 1413.98C844.856 1422.22 858.91 1422.22 867.579 1413.98Z" fill="white"/>
<path d="M2505.82 1370.37C2505.82 1373.19 2503.48 1375.41 2500.52 1375.41C2497.56 1375.41 2495.21 1373.19 2495.21 1370.37C2495.21 1367.56 2497.56 1365.33 2500.52 1365.33C2503.48 1365.33 2505.82 1367.56 2505.82 1370.37Z" fill="white"/>
<path d="M2773.42 702.271C2773.42 705.787 2770.46 708.483 2766.88 708.483C2763.3 708.483 2760.34 705.67 2760.34 702.271C2760.34 698.754 2763.3 696.059 2766.88 696.059C2770.46 696.059 2773.42 698.754 2773.42 702.271Z" fill="white"/>
<path d="M2160.42 40.159C2167.47 37.3844 2170.82 29.7049 2167.9 23.0064C2164.98 16.308 2156.9 13.1272 2149.85 15.9019C2142.81 18.6765 2139.46 26.3559 2142.38 33.0544C2145.3 39.7528 2153.38 42.9336 2160.42 40.159Z" fill="white"/>
<path d="M1682.73 17.1639C1683.95 10.0073 1678.84 3.26404 1671.31 2.10256C1663.78 0.941089 1656.69 5.80121 1655.46 12.9578C1654.24 20.1145 1659.36 26.8576 1666.89 28.0191C1674.41 29.1805 1681.51 24.3205 1682.73 17.1639Z" fill="white"/>
<path d="M1029.46 934.466C1029.46 937.631 1026.75 940.092 1023.54 940.092C1020.21 940.092 1017.62 937.513 1017.62 934.466C1017.62 931.301 1020.34 928.84 1023.54 928.84C1026.75 928.723 1029.46 931.301 1029.46 934.466Z" fill="white"/>
<path d="M2599.29 289.223C2603.36 302.936 2614.58 313.72 2629.14 317.588C2614.71 321.456 2603.36 332.122 2599.29 345.953C2595.22 332.239 2584 321.456 2569.45 317.588C2584 313.72 2595.35 302.936 2599.29 289.223Z" fill="white"/>
<path d="M579.975 1111.22C584.044 1124.93 595.266 1135.72 609.817 1139.59C595.389 1143.45 584.044 1154.12 579.975 1167.95C575.905 1154.24 564.683 1143.45 550.132 1139.59C564.56 1135.72 575.905 1124.93 579.975 1111.22Z" fill="white"/>
<path d="M2766.88 41.2051C2770.95 54.9187 2782.17 65.7021 2796.73 69.57C2782.3 73.438 2770.95 84.1041 2766.88 97.9349C2762.81 84.2213 2751.59 73.438 2737.04 69.57C2751.47 65.7021 2762.81 54.9187 2766.88 41.2051Z" fill="white"/>
<path d="M1624.72 364.354C1628.79 378.068 1640.01 388.851 1654.56 392.719C1640.13 396.587 1628.79 407.254 1624.72 421.084C1620.65 407.371 1609.43 396.587 1594.88 392.719C1609.43 388.851 1620.65 378.068 1624.72 364.354Z" fill="white"/>
<path d="M2239.45 1115.09C2243.52 1128.8 2254.74 1139.58 2269.29 1143.45C2254.87 1147.32 2243.52 1157.99 2239.45 1171.82C2235.38 1158.1 2224.16 1147.32 2209.61 1143.45C2224.16 1139.58 2235.38 1128.8 2239.45 1115.09Z" fill="white"/>
<path d="M2766.88 1381.74C2770.95 1395.46 2782.17 1406.24 2796.73 1410.11C2782.3 1413.98 2770.95 1424.64 2766.88 1438.47C2762.81 1424.76 2751.59 1413.98 2737.04 1410.11C2751.47 1406.24 2762.81 1395.57 2766.88 1381.74Z" fill="white"/>
<path d="M1242.93 1266.53C1247 1280.24 1258.22 1291.02 1272.77 1294.89C1258.34 1298.76 1247 1309.42 1242.93 1323.26C1238.86 1309.54 1227.64 1298.76 1213.08 1294.89C1227.64 1291.02 1238.86 1280.36 1242.93 1266.53Z" fill="white"/>
<path d="M1755.8 1531.19C1759.87 1544.9 1771.09 1555.68 1785.64 1559.55C1771.22 1563.42 1759.87 1574.09 1755.8 1587.92C1751.73 1574.2 1740.51 1563.42 1725.96 1559.55C1740.39 1555.68 1751.73 1544.9 1755.8 1531.19Z" fill="white"/>
<path d="M1940.29 190.296C1944.35 204.01 1955.58 214.793 1970.13 218.661C1955.7 222.529 1944.35 233.195 1940.29 247.026C1936.22 233.312 1924.99 222.529 1910.44 218.661C1924.87 214.793 1936.22 204.127 1940.29 190.296Z" fill="white"/>
<path d="M1597.22 934.467C1601.29 948.18 1612.51 958.964 1627.06 962.832C1612.63 966.7 1601.29 977.366 1597.22 991.197C1593.15 977.483 1581.92 966.7 1567.37 962.832C1581.8 958.964 1593.15 948.18 1597.22 934.467Z" fill="white"/>
<path d="M1294.84 807.059C1298.91 820.772 1310.14 831.556 1324.69 835.424C1310.26 839.291 1298.91 849.958 1294.84 863.788C1290.78 850.075 1279.55 839.291 1265 835.424C1279.55 831.556 1290.9 820.772 1294.84 807.059Z" fill="white"/>
<path d="M2285.57 541.225C2209.36 541.225 2147.46 482.502 2147.46 409.949C2147.46 373.848 2162.75 341.263 2187.54 317.47C2147.46 340.443 2120.57 382.17 2120.57 429.992C2120.57 502.428 2182.36 561.267 2258.69 561.267C2297.04 561.267 2331.69 546.382 2356.73 522.471C2335.89 534.309 2311.47 541.225 2285.57 541.225Z" fill="white"/>
<defs>
<linearGradient id="paint0_linear_330_35" x1="4158.52" y1="1137.88" x2="4185.05" y2="1137.88" gradientUnits="userSpaceOnUse">
<stop stop-color="#FFE44A"/>
<stop offset="1" stop-color="#FFBA5C"/>
</linearGradient>
<linearGradient id="paint1_linear_330_35" x1="136.43" y1="1888.84" x2="1646.52" y2="1888.84" gradientUnits="userSpaceOnUse">
<stop stop-color="white"/>
<stop offset="1" stop-color="white"/>
</linearGradient>
<linearGradient id="paint2_linear_330_35" x1="135.965" y1="1878.34" x2="1688.72" y2="1878.34" gradientUnits="userSpaceOnUse">
<stop stop-color="#423F3F"/>
<stop offset="1" stop-color="#746E6E"/>
</linearGradient>
<linearGradient id="paint3_linear_330_35" x1="1195.94" y1="2271.53" x2="1195.94" y2="1471.93" gradientUnits="userSpaceOnUse">
<stop offset="0.00120192" stop-color="#3A3939"/>
<stop offset="1" stop-color="#141416"/>
</linearGradient>
<linearGradient id="paint4_linear_330_35" x1="2011.36" y1="2376.41" x2="2011.36" y2="1696.32" gradientUnits="userSpaceOnUse">
<stop offset="0.00120192" stop-color="#2F2E41"/>
<stop offset="1" stop-color="#423F3F"/>
</linearGradient>
</defs>
</svg>
