<svg width="34" height="42" viewBox="0 0 34 42" fill="none" xmlns="http://www.w3.org/2000/svg">
<line x1="22.2929" y1="6.29289" x2="26.2929" y2="2.29289" stroke="#52BEBD" stroke-width="2"/>
<line x1="22.2929" y1="6.29289" x2="26.2929" y2="2.29289" stroke="white" stroke-opacity="0.2" stroke-width="2"/>
<line x1="10.0602" y1="8.06329" x2="5.42639" y2="4.81865" stroke="#52BEBD" stroke-width="2"/>
<line x1="10.0602" y1="8.06329" x2="5.42639" y2="4.81865" stroke="white" stroke-opacity="0.2" stroke-width="2"/>
<path d="M19.3831 1.70726C19.1876 1.48304 18.9556 1.30517 18.7001 1.18381C18.4447 1.06246 18.1709 1 17.8944 1C17.6178 1 17.344 1.06246 17.0886 1.18381C16.8331 1.30517 16.6011 1.48304 16.4056 1.70726L15.9999 2.17238L15.5942 1.70726C15.1994 1.25456 14.6638 1.00023 14.1054 1.00023C13.547 1.00023 13.0115 1.25456 12.6167 1.70726C12.2218 2.15996 12 2.77395 12 3.41416C12 4.05438 12.2218 4.66837 12.6167 5.12107L13.0224 5.58619L15.9999 9L18.9774 5.58619L19.3831 5.12107C19.5787 4.89695 19.7338 4.63086 19.8397 4.33798C19.9455 4.0451 20 3.73119 20 3.41416C20 3.09714 19.9455 2.78322 19.8397 2.49035C19.7338 2.19747 19.5787 1.93137 19.3831 1.70726V1.70726Z" stroke="#52BEBD" stroke-width="2" stroke-linecap="round" stroke-linejoin="round"/>
<path d="M19.3831 1.70726C19.1876 1.48304 18.9556 1.30517 18.7001 1.18381C18.4447 1.06246 18.1709 1 17.8944 1C17.6178 1 17.344 1.06246 17.0886 1.18381C16.8331 1.30517 16.6011 1.48304 16.4056 1.70726L15.9999 2.17238L15.5942 1.70726C15.1994 1.25456 14.6638 1.00023 14.1054 1.00023C13.547 1.00023 13.0115 1.25456 12.6167 1.70726C12.2218 2.15996 12 2.77395 12 3.41416C12 4.05438 12.2218 4.66837 12.6167 5.12107L13.0224 5.58619L15.9999 9L18.9774 5.58619L19.3831 5.12107C19.5787 4.89695 19.7338 4.63086 19.8397 4.33798C19.9455 4.0451 20 3.73119 20 3.41416C20 3.09714 19.9455 2.78322 19.8397 2.49035C19.7338 2.19747 19.5787 1.93137 19.3831 1.70726V1.70726Z" stroke="white" stroke-opacity="0.2" stroke-width="2" stroke-linecap="round" stroke-linejoin="round"/>
<circle cx="17" cy="25" r="16" stroke="#52BEBD" stroke-width="2"/>
<circle cx="17" cy="25" r="16" stroke="white" stroke-opacity="0.2" stroke-width="2"/>
</svg>
