<svg width="13" height="16" viewBox="0 0 13 16" fill="none" xmlns="http://www.w3.org/2000/svg">
<path d="M6.26 15.24C5.14 15.24 4.06667 15.0933 3.04 14.8C2.01333 14.4933 1.18667 14.1 0.56 13.62L1.66 11.18C2.26 11.6067 2.96667 11.96 3.78 12.24C4.60667 12.5067 5.44 12.64 6.28 12.64C6.92 12.64 7.43333 12.58 7.82 12.46C8.22 12.3267 8.51333 12.1467 8.7 11.92C8.88667 11.6933 8.98 11.4333 8.98 11.14C8.98 10.7667 8.83333 10.4733 8.54 10.26C8.24667 10.0333 7.86 9.85333 7.38 9.72C6.9 9.57333 6.36667 9.44 5.78 9.32C5.20667 9.18667 4.62667 9.02667 4.04 8.84C3.46667 8.65333 2.94 8.41333 2.46 8.12C1.98 7.82667 1.58667 7.44 1.28 6.96C0.986667 6.48 0.84 5.86667 0.84 5.12C0.84 4.32 1.05333 3.59333 1.48 2.94C1.92 2.27333 2.57333 1.74667 3.44 1.36C4.32 0.96 5.42 0.76 6.74 0.76C7.62 0.76 8.48667 0.866666 9.34 1.08C10.1933 1.28 10.9467 1.58667 11.6 2L10.6 4.46C9.94667 4.08667 9.29333 3.81333 8.64 3.64C7.98667 3.45333 7.34667 3.36 6.72 3.36C6.09333 3.36 5.58 3.43333 5.18 3.58C4.78 3.72667 4.49333 3.92 4.32 4.16C4.14667 4.38667 4.06 4.65333 4.06 4.96C4.06 5.32 4.20667 5.61333 4.5 5.84C4.79333 6.05333 5.18 6.22667 5.66 6.36C6.14 6.49333 6.66667 6.62667 7.24 6.76C7.82667 6.89333 8.40667 7.04667 8.98 7.22C9.56667 7.39333 10.1 7.62667 10.58 7.92C11.06 8.21333 11.4467 8.6 11.74 9.08C12.0467 9.56 12.2 10.1667 12.2 10.9C12.2 11.6867 11.98 12.4067 11.54 13.06C11.1 13.7133 10.44 14.24 9.56 14.64C8.69333 15.04 7.59333 15.24 6.26 15.24Z" fill="#6366F1"/>
</svg>
